%TF.GenerationSoftware,KiCad,Pcbnew,7.0.1*%
%TF.CreationDate,2023-06-06T18:19:58-03:00*%
%TF.ProjectId,HLI-M,484c492d-4d2e-46b6-9963-61645f706362,rev?*%
%TF.SameCoordinates,Original*%
%TF.FileFunction,Legend,Bot*%
%TF.FilePolarity,Positive*%
%FSLAX46Y46*%
G04 Gerber Fmt 4.6, Leading zero omitted, Abs format (unit mm)*
G04 Created by KiCad (PCBNEW 7.0.1) date 2023-06-06 18:19:58*
%MOMM*%
%LPD*%
G01*
G04 APERTURE LIST*
%ADD10C,0.500000*%
%ADD11C,0.300000*%
G04 APERTURE END LIST*
D10*
X183011000Y-44412200D02*
X181011000Y-44412200D01*
X181986000Y-43394800D02*
X181986000Y-45394800D01*
X97816000Y-99675000D02*
X95816000Y-99675000D01*
X96800000Y-98675000D02*
X96800000Y-100675000D01*
D11*
X163335713Y-31091785D02*
X163549999Y-31020357D01*
X163549999Y-31020357D02*
X163621428Y-30948928D01*
X163621428Y-30948928D02*
X163692856Y-30806071D01*
X163692856Y-30806071D02*
X163692856Y-30591785D01*
X163692856Y-30591785D02*
X163621428Y-30448928D01*
X163621428Y-30448928D02*
X163549999Y-30377500D01*
X163549999Y-30377500D02*
X163407142Y-30306071D01*
X163407142Y-30306071D02*
X162835713Y-30306071D01*
X162835713Y-30306071D02*
X162835713Y-31806071D01*
X162835713Y-31806071D02*
X163335713Y-31806071D01*
X163335713Y-31806071D02*
X163478571Y-31734642D01*
X163478571Y-31734642D02*
X163549999Y-31663214D01*
X163549999Y-31663214D02*
X163621428Y-31520357D01*
X163621428Y-31520357D02*
X163621428Y-31377500D01*
X163621428Y-31377500D02*
X163549999Y-31234642D01*
X163549999Y-31234642D02*
X163478571Y-31163214D01*
X163478571Y-31163214D02*
X163335713Y-31091785D01*
X163335713Y-31091785D02*
X162835713Y-31091785D01*
X164621428Y-31806071D02*
X164907142Y-31806071D01*
X164907142Y-31806071D02*
X165049999Y-31734642D01*
X165049999Y-31734642D02*
X165192856Y-31591785D01*
X165192856Y-31591785D02*
X165264285Y-31306071D01*
X165264285Y-31306071D02*
X165264285Y-30806071D01*
X165264285Y-30806071D02*
X165192856Y-30520357D01*
X165192856Y-30520357D02*
X165049999Y-30377500D01*
X165049999Y-30377500D02*
X164907142Y-30306071D01*
X164907142Y-30306071D02*
X164621428Y-30306071D01*
X164621428Y-30306071D02*
X164478571Y-30377500D01*
X164478571Y-30377500D02*
X164335713Y-30520357D01*
X164335713Y-30520357D02*
X164264285Y-30806071D01*
X164264285Y-30806071D02*
X164264285Y-31306071D01*
X164264285Y-31306071D02*
X164335713Y-31591785D01*
X164335713Y-31591785D02*
X164478571Y-31734642D01*
X164478571Y-31734642D02*
X164621428Y-31806071D01*
X165692857Y-31806071D02*
X166550000Y-31806071D01*
X166121428Y-30306071D02*
X166121428Y-31806071D01*
X166835714Y-31806071D02*
X167692857Y-31806071D01*
X167264285Y-30306071D02*
X167264285Y-31806071D01*
X168478571Y-31806071D02*
X168764285Y-31806071D01*
X168764285Y-31806071D02*
X168907142Y-31734642D01*
X168907142Y-31734642D02*
X169049999Y-31591785D01*
X169049999Y-31591785D02*
X169121428Y-31306071D01*
X169121428Y-31306071D02*
X169121428Y-30806071D01*
X169121428Y-30806071D02*
X169049999Y-30520357D01*
X169049999Y-30520357D02*
X168907142Y-30377500D01*
X168907142Y-30377500D02*
X168764285Y-30306071D01*
X168764285Y-30306071D02*
X168478571Y-30306071D01*
X168478571Y-30306071D02*
X168335714Y-30377500D01*
X168335714Y-30377500D02*
X168192856Y-30520357D01*
X168192856Y-30520357D02*
X168121428Y-30806071D01*
X168121428Y-30806071D02*
X168121428Y-31306071D01*
X168121428Y-31306071D02*
X168192856Y-31591785D01*
X168192856Y-31591785D02*
X168335714Y-31734642D01*
X168335714Y-31734642D02*
X168478571Y-31806071D01*
X169764285Y-30306071D02*
X169764285Y-31806071D01*
X169764285Y-31806071D02*
X170264285Y-30734642D01*
X170264285Y-30734642D02*
X170764285Y-31806071D01*
X170764285Y-31806071D02*
X170764285Y-30306071D01*
M02*
