%TF.GenerationSoftware,KiCad,Pcbnew,7.0.1*%
%TF.CreationDate,2023-06-06T18:19:58-03:00*%
%TF.ProjectId,HLI-M,484c492d-4d2e-46b6-9963-61645f706362,rev?*%
%TF.SameCoordinates,Original*%
%TF.FileFunction,Soldermask,Bot*%
%TF.FilePolarity,Negative*%
%FSLAX46Y46*%
G04 Gerber Fmt 4.6, Leading zero omitted, Abs format (unit mm)*
G04 Created by KiCad (PCBNEW 7.0.1) date 2023-06-06 18:19:58*
%MOMM*%
%LPD*%
G01*
G04 APERTURE LIST*
G04 Aperture macros list*
%AMRoundRect*
0 Rectangle with rounded corners*
0 $1 Rounding radius*
0 $2 $3 $4 $5 $6 $7 $8 $9 X,Y pos of 4 corners*
0 Add a 4 corners polygon primitive as box body*
4,1,4,$2,$3,$4,$5,$6,$7,$8,$9,$2,$3,0*
0 Add four circle primitives for the rounded corners*
1,1,$1+$1,$2,$3*
1,1,$1+$1,$4,$5*
1,1,$1+$1,$6,$7*
1,1,$1+$1,$8,$9*
0 Add four rect primitives between the rounded corners*
20,1,$1+$1,$2,$3,$4,$5,0*
20,1,$1+$1,$4,$5,$6,$7,0*
20,1,$1+$1,$6,$7,$8,$9,0*
20,1,$1+$1,$8,$9,$2,$3,0*%
G04 Aperture macros list end*
%ADD10C,0.500000*%
%ADD11C,0.300000*%
%ADD12C,4.000000*%
%ADD13R,1.600000X1.600000*%
%ADD14C,1.600000*%
%ADD15RoundRect,0.250000X-0.600000X-0.600000X0.600000X-0.600000X0.600000X0.600000X-0.600000X0.600000X0*%
%ADD16C,1.700000*%
%ADD17C,1.500000*%
%ADD18C,2.205000*%
G04 APERTURE END LIST*
D10*
X182996200Y-44424400D02*
X180996200Y-44424400D01*
X97800000Y-99680000D02*
X95800000Y-99680000D01*
X182011000Y-43437200D02*
X182011000Y-45437200D01*
X183011000Y-44437200D02*
X181011000Y-44437200D01*
X96820000Y-98670000D02*
X96820000Y-100670000D01*
X181996200Y-43424400D02*
X181996200Y-45424400D01*
D11*
X163335713Y-31066385D02*
X163549999Y-30994957D01*
X163549999Y-30994957D02*
X163621428Y-30923528D01*
X163621428Y-30923528D02*
X163692856Y-30780671D01*
X163692856Y-30780671D02*
X163692856Y-30566385D01*
X163692856Y-30566385D02*
X163621428Y-30423528D01*
X163621428Y-30423528D02*
X163549999Y-30352100D01*
X163549999Y-30352100D02*
X163407142Y-30280671D01*
X163407142Y-30280671D02*
X162835713Y-30280671D01*
X162835713Y-30280671D02*
X162835713Y-31780671D01*
X162835713Y-31780671D02*
X163335713Y-31780671D01*
X163335713Y-31780671D02*
X163478571Y-31709242D01*
X163478571Y-31709242D02*
X163549999Y-31637814D01*
X163549999Y-31637814D02*
X163621428Y-31494957D01*
X163621428Y-31494957D02*
X163621428Y-31352100D01*
X163621428Y-31352100D02*
X163549999Y-31209242D01*
X163549999Y-31209242D02*
X163478571Y-31137814D01*
X163478571Y-31137814D02*
X163335713Y-31066385D01*
X163335713Y-31066385D02*
X162835713Y-31066385D01*
X164621428Y-31780671D02*
X164907142Y-31780671D01*
X164907142Y-31780671D02*
X165049999Y-31709242D01*
X165049999Y-31709242D02*
X165192856Y-31566385D01*
X165192856Y-31566385D02*
X165264285Y-31280671D01*
X165264285Y-31280671D02*
X165264285Y-30780671D01*
X165264285Y-30780671D02*
X165192856Y-30494957D01*
X165192856Y-30494957D02*
X165049999Y-30352100D01*
X165049999Y-30352100D02*
X164907142Y-30280671D01*
X164907142Y-30280671D02*
X164621428Y-30280671D01*
X164621428Y-30280671D02*
X164478571Y-30352100D01*
X164478571Y-30352100D02*
X164335713Y-30494957D01*
X164335713Y-30494957D02*
X164264285Y-30780671D01*
X164264285Y-30780671D02*
X164264285Y-31280671D01*
X164264285Y-31280671D02*
X164335713Y-31566385D01*
X164335713Y-31566385D02*
X164478571Y-31709242D01*
X164478571Y-31709242D02*
X164621428Y-31780671D01*
X165692857Y-31780671D02*
X166550000Y-31780671D01*
X166121428Y-30280671D02*
X166121428Y-31780671D01*
X166835714Y-31780671D02*
X167692857Y-31780671D01*
X167264285Y-30280671D02*
X167264285Y-31780671D01*
X168478571Y-31780671D02*
X168764285Y-31780671D01*
X168764285Y-31780671D02*
X168907142Y-31709242D01*
X168907142Y-31709242D02*
X169049999Y-31566385D01*
X169049999Y-31566385D02*
X169121428Y-31280671D01*
X169121428Y-31280671D02*
X169121428Y-30780671D01*
X169121428Y-30780671D02*
X169049999Y-30494957D01*
X169049999Y-30494957D02*
X168907142Y-30352100D01*
X168907142Y-30352100D02*
X168764285Y-30280671D01*
X168764285Y-30280671D02*
X168478571Y-30280671D01*
X168478571Y-30280671D02*
X168335714Y-30352100D01*
X168335714Y-30352100D02*
X168192856Y-30494957D01*
X168192856Y-30494957D02*
X168121428Y-30780671D01*
X168121428Y-30780671D02*
X168121428Y-31280671D01*
X168121428Y-31280671D02*
X168192856Y-31566385D01*
X168192856Y-31566385D02*
X168335714Y-31709242D01*
X168335714Y-31709242D02*
X168478571Y-31780671D01*
X169764285Y-30280671D02*
X169764285Y-31780671D01*
X169764285Y-31780671D02*
X170264285Y-30709242D01*
X170264285Y-30709242D02*
X170764285Y-31780671D01*
X170764285Y-31780671D02*
X170764285Y-30280671D01*
X171884285Y-30280671D02*
X171884285Y-31280671D01*
X171884285Y-31137814D02*
X171955714Y-31209242D01*
X171955714Y-31209242D02*
X172098571Y-31280671D01*
X172098571Y-31280671D02*
X172312857Y-31280671D01*
X172312857Y-31280671D02*
X172455714Y-31209242D01*
X172455714Y-31209242D02*
X172527143Y-31066385D01*
X172527143Y-31066385D02*
X172527143Y-30280671D01*
X172527143Y-31066385D02*
X172598571Y-31209242D01*
X172598571Y-31209242D02*
X172741428Y-31280671D01*
X172741428Y-31280671D02*
X172955714Y-31280671D01*
X172955714Y-31280671D02*
X173098571Y-31209242D01*
X173098571Y-31209242D02*
X173170000Y-31066385D01*
X173170000Y-31066385D02*
X173170000Y-30280671D01*
X174527143Y-30280671D02*
X174527143Y-31066385D01*
X174527143Y-31066385D02*
X174455714Y-31209242D01*
X174455714Y-31209242D02*
X174312857Y-31280671D01*
X174312857Y-31280671D02*
X174027143Y-31280671D01*
X174027143Y-31280671D02*
X173884285Y-31209242D01*
X174527143Y-30352100D02*
X174384285Y-30280671D01*
X174384285Y-30280671D02*
X174027143Y-30280671D01*
X174027143Y-30280671D02*
X173884285Y-30352100D01*
X173884285Y-30352100D02*
X173812857Y-30494957D01*
X173812857Y-30494957D02*
X173812857Y-30637814D01*
X173812857Y-30637814D02*
X173884285Y-30780671D01*
X173884285Y-30780671D02*
X174027143Y-30852100D01*
X174027143Y-30852100D02*
X174384285Y-30852100D01*
X174384285Y-30852100D02*
X174527143Y-30923528D01*
X175170000Y-30352100D02*
X175312857Y-30280671D01*
X175312857Y-30280671D02*
X175598571Y-30280671D01*
X175598571Y-30280671D02*
X175741428Y-30352100D01*
X175741428Y-30352100D02*
X175812857Y-30494957D01*
X175812857Y-30494957D02*
X175812857Y-30566385D01*
X175812857Y-30566385D02*
X175741428Y-30709242D01*
X175741428Y-30709242D02*
X175598571Y-30780671D01*
X175598571Y-30780671D02*
X175384286Y-30780671D01*
X175384286Y-30780671D02*
X175241428Y-30852100D01*
X175241428Y-30852100D02*
X175170000Y-30994957D01*
X175170000Y-30994957D02*
X175170000Y-31066385D01*
X175170000Y-31066385D02*
X175241428Y-31209242D01*
X175241428Y-31209242D02*
X175384286Y-31280671D01*
X175384286Y-31280671D02*
X175598571Y-31280671D01*
X175598571Y-31280671D02*
X175741428Y-31209242D01*
X176455714Y-30280671D02*
X176455714Y-31780671D01*
X176598572Y-30852100D02*
X177027143Y-30280671D01*
X177027143Y-31280671D02*
X176455714Y-30709242D01*
D12*
%TO.C,CON3*%
X174939000Y-36346300D03*
X127839000Y-36346300D03*
D13*
X168009000Y-37766300D03*
D14*
X165239000Y-37766300D03*
X162469000Y-37766300D03*
X159699000Y-37766300D03*
X156929000Y-37766300D03*
X154159000Y-37766300D03*
X151389000Y-37766300D03*
X148619000Y-37766300D03*
X145849000Y-37766300D03*
X143079000Y-37766300D03*
X140309000Y-37766300D03*
X137539000Y-37766300D03*
X134769000Y-37766300D03*
X166624000Y-34926300D03*
X163854000Y-34926300D03*
X161084000Y-34926300D03*
X158314000Y-34926300D03*
X155544000Y-34926300D03*
X152774000Y-34926300D03*
X150004000Y-34926300D03*
X147234000Y-34926300D03*
X144464000Y-34926300D03*
X141694000Y-34926300D03*
X138924000Y-34926300D03*
X136154000Y-34926300D03*
%TD*%
D12*
%TO.C,CON7*%
X129227100Y-105802700D03*
X104227100Y-105802700D03*
D13*
X111187100Y-107222700D03*
D14*
X113957100Y-107222700D03*
X116727100Y-107222700D03*
X119497100Y-107222700D03*
X122267100Y-107222700D03*
X112572100Y-104382700D03*
X115342100Y-104382700D03*
X118112100Y-104382700D03*
X120882100Y-104382700D03*
%TD*%
D13*
%TO.C,CON2*%
X112059400Y-43033300D03*
D14*
X114559400Y-43033300D03*
X114559400Y-41033300D03*
X112059400Y-41033300D03*
D12*
X107309400Y-38173300D03*
X119309400Y-38173300D03*
%TD*%
%TO.C,CON6*%
X173622000Y-105941000D03*
X140322000Y-105941000D03*
D13*
X147277000Y-107361000D03*
D14*
X150047000Y-107361000D03*
X152817000Y-107361000D03*
X155587000Y-107361000D03*
X158357000Y-107361000D03*
X161127000Y-107361000D03*
X163897000Y-107361000D03*
X166667000Y-107361000D03*
X148662000Y-104521000D03*
X151432000Y-104521000D03*
X154202000Y-104521000D03*
X156972000Y-104521000D03*
X159742000Y-104521000D03*
X162512000Y-104521000D03*
X165282000Y-104521000D03*
%TD*%
D15*
%TO.C,CON4*%
X180582500Y-48150000D03*
D16*
X183122500Y-48150000D03*
X180582500Y-50690000D03*
X183122500Y-50690000D03*
X180582500Y-53230000D03*
X183122500Y-53230000D03*
X180582500Y-55770000D03*
X183122500Y-55770000D03*
X180582500Y-58310000D03*
X183122500Y-58310000D03*
X180582500Y-60850000D03*
X183122500Y-60850000D03*
X180582500Y-63390000D03*
X183122500Y-63390000D03*
%TD*%
D17*
%TO.C,CON8*%
X75372000Y-99660000D03*
D18*
X83500000Y-61675000D03*
X83500000Y-99645000D03*
%TD*%
D15*
%TO.C,CON5*%
X180577500Y-76295000D03*
D16*
X183117500Y-76295000D03*
X180577500Y-78835000D03*
X183117500Y-78835000D03*
X180577500Y-81375000D03*
X183117500Y-81375000D03*
X180577500Y-83915000D03*
X183117500Y-83915000D03*
X180577500Y-86455000D03*
X183117500Y-86455000D03*
%TD*%
M02*
