M48
; DRILL file {KiCad 7.0.1} date Tue Jun  6 18:19:55 2023
; FORMAT={-:-/ absolute / inch / decimal}
; #@! TF.CreationDate,2023-06-06T18:19:55-03:00
; #@! TF.GenerationSoftware,Kicad,Pcbnew,7.0.1
; #@! TF.FileFunction,Plated,1,2,PTH
FMAT,2
INCH
; #@! TA.AperFunction,Plated,PTH,ViaDrill
T1C0.0157
; #@! TA.AperFunction,Plated,PTH,ViaDrill
T2C0.0295
; #@! TA.AperFunction,Plated,PTH,ComponentDrill
T3C0.0374
; #@! TA.AperFunction,Plated,PTH,ComponentDrill
T4C0.0394
; #@! TA.AperFunction,Plated,PTH,ComponentDrill
T5C0.0579
; #@! TA.AperFunction,Plated,PTH,ComponentDrill
T6C0.0701
; #@! TA.AperFunction,Plated,PTH,ViaDrill
T7C0.0709
; #@! TA.AperFunction,Plated,PTH,ComponentDrill
T8C0.0906
; #@! TA.AperFunction,Plated,PTH,ComponentDrill
T9C0.1260
; #@! TA.AperFunction,Plated,PTH,ViaDrill
T10C0.1772
%
G90
G05
T1
X3.3622Y-2.0394
X3.3701Y-2.1811
X3.4055Y-2.1535
X3.6102Y-2.2205
X3.9803Y-2.25
X4.1122Y-3.3474
X4.1417Y-2.4173
X4.1753Y-1.8207
X4.2244Y-2.4099
X4.2783Y-2.1067
X4.2933Y-1.8167
X4.2972Y-2.874
X4.3809Y-1.8181
X4.3937Y-2.6339
X4.4094Y-2.3425
X4.4724Y-2.9606
X4.5074Y-2.8386
X4.517Y-3.494
X4.5606Y-3.0827
X4.5606Y-3.1508
X4.681Y-2.49
X4.7008Y-2.2868
X4.7071Y-2.4119
X4.748Y-3.077
X4.7736Y-2.741
X4.7866Y-3.4076
X4.818Y-3.92
X4.831Y-3.398
X4.9004Y-2.9583
X4.912Y-2.6073
X4.9421Y-2.915
X4.946Y-2.5384
X4.953Y-2.282
X4.9538Y-2.1604
X4.9933Y-2.4441
X5.074Y-2.01
X5.1063Y-2.815
X5.1118Y-3.1535
X5.1181Y-2.8543
X5.121Y-3.187
X5.122Y-2.15
X5.1254Y-2.098
X5.128Y-2.3327
X5.1654Y-2.7165
X5.1657Y-2.4902
X5.172Y-2.413
X5.172Y-2.5323
X5.212Y-3.734
X5.28Y-2.612
X5.292Y-3.479
X5.298Y-1.711
X5.324Y-4.1
X5.3366Y-2.4898
X5.337Y-3.733
X5.3533Y-2.693
X5.374Y-2.456
X5.4094Y-2.456
X5.4406Y-2.8906
X5.4504Y-2.8176
X5.47Y-1.743
X5.4961Y-2.1181
X5.5Y-2.9596
X5.504Y-2.188
X5.5213Y-3.8185
X5.5236Y-3.0118
X5.547Y-2.666
X5.5823Y-3.2523
X5.5866Y-2.581
X5.6197Y-2.6988
X5.6314Y-2.3725
X5.6325Y-3.2385
X5.643Y-2.8904
X5.6565Y-2.9261
X5.661Y-3.0201
X5.662Y-2.109
X5.6628Y-2.3748
X5.665Y-1.763
X5.6693Y-2.622
X5.6717Y-3.2417
X5.677Y-2.0775
X5.6963Y-2.109
X5.6964Y-1.765
X5.699Y-3.9409
X5.7004Y-3.0661
X5.7234Y-3.033
X5.7278Y-2.1087
X5.728Y-1.766
X5.7441Y-2.3685
X5.75Y-2.0785
X5.7531Y-2.9681
X5.7548Y-2.5292
X5.7595Y-1.766
X5.762Y-2.109
X5.7777Y-2.9012
X5.7804Y-2.6205
X5.7953Y-3.3937
X5.7974Y-2.8514
X5.7992Y-3.9409
X5.804Y-2.989
X5.809Y-2.8977
X5.8542Y-2.9804
X5.8985Y-2.529
X5.9026Y-3.0793
X5.9063Y-1.5543
X5.9063Y-2.7906
X5.927Y-2.109
X5.93Y-1.779
X5.9395Y-2.0755
X5.9488Y-2.6142
X5.961Y-1.6426
X5.9613Y-2.109
X5.9685Y-2.9252
X5.9861Y-2.6222
X5.9928Y-2.109
X5.994Y-1.6426
X6.009Y-2.079
X6.0254Y-3.2046
X6.027Y-2.109
X6.0276Y-3.7411
X6.057Y-1.618
X6.0866Y-2.7323
X6.0906Y-2.7677
X6.0953Y-2.9101
X6.1028Y-1.8067
X6.12Y-3.2969
X6.1378Y-2.5394
X6.1398Y-3.9596
X6.1531Y-3.0173
X6.1719Y-2.9455
X6.192Y-2.109
X6.1951Y-2.4027
X6.1955Y-1.789
X6.2045Y-2.0765
X6.2112Y-2.3518
X6.2263Y-2.109
X6.227Y-1.6483
X6.236Y-1.568
X6.2578Y-2.109
X6.277Y-2.0765
X6.279Y-3.12
X6.292Y-2.1094
X6.301Y-2.7008
X6.35Y-2.271
X6.3533Y-3.0295
X6.3794Y-2.5786
X6.4409Y-3.7795
X6.456Y-2.667
X6.459Y-3.071
X6.467Y-2.109
X6.468Y-1.7418
X6.483Y-2.081
X6.5013Y-1.7403
X6.5013Y-2.109
X6.504Y-2.627
X6.504Y-2.877
X6.525Y-3.026
X6.5328Y-2.109
X6.542Y-3.091
X6.5533Y-2.0806
X6.567Y-2.109
X6.5819Y-2.503
X6.631Y-2.4857
X6.6614Y-2.14
X6.6765Y-3.1195
X6.679Y-2.95
X6.7293Y-2.1486
X6.735Y-2.188
X6.7953Y-2.8465
X6.806Y-2.696
X6.854Y-3.738
X6.941Y-2.01
X7.03Y-3.273
X7.032Y-3.105
X7.0807Y-2.7549
X7.2618Y-1.5736
X7.3882Y-1.9106
X7.4319Y-2.9067
X7.4654Y-2.9378
T2
X3.7051Y-1.6772
X3.9965Y-1.3866
X4.2837Y-3.8583
X4.3205Y-3.3515
X4.663Y-3.8956
T3
X4.4118Y-1.6155
X4.4118Y-1.6942
X4.5102Y-1.6155
X4.5102Y-1.6942
T4
X4.3774Y-4.2214
X4.432Y-4.1096
X4.4865Y-4.2214
X4.541Y-4.1096
X4.5956Y-4.2214
X4.6501Y-4.1096
X4.7046Y-4.2214
X4.7591Y-4.1096
X4.8137Y-4.2214
X5.3059Y-1.4869
X5.3604Y-1.3751
X5.4149Y-1.4869
X5.4694Y-1.3751
X5.524Y-1.4869
X5.5785Y-1.3751
X5.633Y-1.4869
X5.6876Y-1.3751
X5.7421Y-1.4869
X5.7966Y-1.3751
X5.7983Y-4.2268
X5.8511Y-1.4869
X5.8528Y-4.115
X5.9057Y-1.3751
X5.9074Y-4.2268
X5.9602Y-1.4869
X5.9619Y-4.115
X6.0147Y-1.3751
X6.0164Y-4.2268
X6.0693Y-1.4869
X6.0709Y-4.115
X6.1238Y-1.3751
X6.1255Y-4.2268
X6.1783Y-1.4869
X6.18Y-4.115
X6.2328Y-1.3751
X6.2345Y-4.2268
X6.2874Y-1.4869
X6.2891Y-4.115
X6.3419Y-1.3751
X6.3436Y-4.2268
X6.3964Y-1.4869
X6.3981Y-4.115
X6.4509Y-1.3751
X6.4526Y-4.2268
X6.5055Y-1.4869
X6.5072Y-4.115
X6.56Y-1.3751
X6.5617Y-4.2268
X6.6145Y-1.4869
X7.1094Y-3.0037
X7.1094Y-3.1037
X7.1094Y-3.2037
X7.1094Y-3.3037
X7.1094Y-3.4037
X7.1095Y-1.8957
X7.1095Y-1.9957
X7.1095Y-2.0957
X7.1095Y-2.1957
X7.1095Y-2.2957
X7.1095Y-2.3957
X7.1095Y-2.4957
X7.2094Y-3.0037
X7.2094Y-3.1037
X7.2094Y-3.2037
X7.2094Y-3.3037
X7.2094Y-3.4037
X7.2095Y-1.8957
X7.2095Y-1.9957
X7.2095Y-2.0957
X7.2095Y-2.1957
X7.2095Y-2.2957
X7.2095Y-2.3957
X7.2095Y-2.4957
T5
X3.2874Y-2.4281
X3.2874Y-3.923
T6
X3.189Y-1.3691
X3.389Y-1.3691
X3.589Y-1.3691
X3.789Y-1.3691
T7
X2.925Y-2.0874
X4.029Y-1.749
X4.1078Y-1.748
X7.377Y-3.295
T8
X4.2248Y-1.5029
X4.6972Y-1.5029
T9
X4.1034Y-4.1655
X5.033Y-1.431
X5.0877Y-4.1655
X5.5245Y-4.1709
X6.8355Y-4.1709
X6.8874Y-1.431
T10
X2.6831Y-1.2563
X2.7028Y-4.3583
X2.7142Y-3.2154
X3.8126Y-3.2126
X7.348Y-1.252
X7.3622Y-4.3691
T0
M30
