%TF.GenerationSoftware,KiCad,Pcbnew,7.0.1*%
%TF.CreationDate,2023-06-06T18:12:30-03:00*%
%TF.ProjectId,HLI-C_main,484c492d-435f-46d6-9169-6e2e6b696361,rev?*%
%TF.SameCoordinates,Original*%
%TF.FileFunction,Legend,Top*%
%TF.FilePolarity,Positive*%
%FSLAX46Y46*%
G04 Gerber Fmt 4.6, Leading zero omitted, Abs format (unit mm)*
G04 Created by KiCad (PCBNEW 7.0.1) date 2023-06-06 18:12:30*
%MOMM*%
%LPD*%
G01*
G04 APERTURE LIST*
%ADD10C,0.150000*%
%ADD11C,0.283607*%
%ADD12C,0.360000*%
%ADD13C,0.076200*%
%ADD14C,0.162500*%
%ADD15C,0.120000*%
%ADD16C,0.152400*%
G04 APERTURE END LIST*
D10*
X188841600Y-67533800D02*
X190619600Y-67533800D01*
D11*
X192572203Y-50698400D02*
G75*
G03*
X192572203Y-50698400I-141803J0D01*
G01*
D12*
X198080000Y-62400000D02*
G75*
G03*
X198080000Y-62400000I-180000J0D01*
G01*
D10*
X184734200Y-68066800D02*
X188036200Y-68066800D01*
D12*
X179780000Y-38250000D02*
G75*
G03*
X179780000Y-38250000I-180000J0D01*
G01*
D10*
X188036200Y-68066800D02*
X188798200Y-67558800D01*
D12*
X178905000Y-46025000D02*
G75*
G03*
X178905000Y-46025000I-180000J0D01*
G01*
X194330000Y-28850000D02*
G75*
G03*
X194330000Y-28850000I-180000J0D01*
G01*
D13*
X184339285Y-53577571D02*
X184710713Y-53577571D01*
X184710713Y-53577571D02*
X184510713Y-53806142D01*
X184510713Y-53806142D02*
X184596428Y-53806142D01*
X184596428Y-53806142D02*
X184653571Y-53834714D01*
X184653571Y-53834714D02*
X184682142Y-53863285D01*
X184682142Y-53863285D02*
X184710713Y-53920428D01*
X184710713Y-53920428D02*
X184710713Y-54063285D01*
X184710713Y-54063285D02*
X184682142Y-54120428D01*
X184682142Y-54120428D02*
X184653571Y-54149000D01*
X184653571Y-54149000D02*
X184596428Y-54177571D01*
X184596428Y-54177571D02*
X184424999Y-54177571D01*
X184424999Y-54177571D02*
X184367856Y-54149000D01*
X184367856Y-54149000D02*
X184339285Y-54120428D01*
X184910714Y-53577571D02*
X185282142Y-53577571D01*
X185282142Y-53577571D02*
X185082142Y-53806142D01*
X185082142Y-53806142D02*
X185167857Y-53806142D01*
X185167857Y-53806142D02*
X185225000Y-53834714D01*
X185225000Y-53834714D02*
X185253571Y-53863285D01*
X185253571Y-53863285D02*
X185282142Y-53920428D01*
X185282142Y-53920428D02*
X185282142Y-54063285D01*
X185282142Y-54063285D02*
X185253571Y-54120428D01*
X185253571Y-54120428D02*
X185225000Y-54149000D01*
X185225000Y-54149000D02*
X185167857Y-54177571D01*
X185167857Y-54177571D02*
X184996428Y-54177571D01*
X184996428Y-54177571D02*
X184939285Y-54149000D01*
X184939285Y-54149000D02*
X184910714Y-54120428D01*
X196869028Y-63523571D02*
X196526171Y-63523571D01*
X196697600Y-63523571D02*
X196697600Y-62923571D01*
X196697600Y-62923571D02*
X196640457Y-63009285D01*
X196640457Y-63009285D02*
X196583314Y-63066428D01*
X196583314Y-63066428D02*
X196526171Y-63095000D01*
X185756571Y-64241171D02*
X185756571Y-64641171D01*
X185613713Y-64012600D02*
X185470856Y-64441171D01*
X185470856Y-64441171D02*
X185842285Y-64441171D01*
X186099428Y-64641171D02*
X186213714Y-64641171D01*
X186213714Y-64641171D02*
X186270857Y-64612600D01*
X186270857Y-64612600D02*
X186299428Y-64584028D01*
X186299428Y-64584028D02*
X186356571Y-64498314D01*
X186356571Y-64498314D02*
X186385142Y-64384028D01*
X186385142Y-64384028D02*
X186385142Y-64155457D01*
X186385142Y-64155457D02*
X186356571Y-64098314D01*
X186356571Y-64098314D02*
X186328000Y-64069742D01*
X186328000Y-64069742D02*
X186270857Y-64041171D01*
X186270857Y-64041171D02*
X186156571Y-64041171D01*
X186156571Y-64041171D02*
X186099428Y-64069742D01*
X186099428Y-64069742D02*
X186070857Y-64098314D01*
X186070857Y-64098314D02*
X186042285Y-64155457D01*
X186042285Y-64155457D02*
X186042285Y-64298314D01*
X186042285Y-64298314D02*
X186070857Y-64355457D01*
X186070857Y-64355457D02*
X186099428Y-64384028D01*
X186099428Y-64384028D02*
X186156571Y-64412600D01*
X186156571Y-64412600D02*
X186270857Y-64412600D01*
X186270857Y-64412600D02*
X186328000Y-64384028D01*
X186328000Y-64384028D02*
X186356571Y-64355457D01*
X186356571Y-64355457D02*
X186385142Y-64298314D01*
X195516513Y-52906371D02*
X195173656Y-52906371D01*
X195345085Y-52906371D02*
X195345085Y-52306371D01*
X195345085Y-52306371D02*
X195287942Y-52392085D01*
X195287942Y-52392085D02*
X195230799Y-52449228D01*
X195230799Y-52449228D02*
X195173656Y-52477800D01*
X195716514Y-52306371D02*
X196116514Y-52306371D01*
X196116514Y-52306371D02*
X195859371Y-52906371D01*
D14*
%TO.C,C11*%
X196388797Y-42230357D02*
X196419750Y-42261309D01*
X196419750Y-42261309D02*
X196450702Y-42354167D01*
X196450702Y-42354167D02*
X196450702Y-42416071D01*
X196450702Y-42416071D02*
X196419750Y-42508928D01*
X196419750Y-42508928D02*
X196357845Y-42570833D01*
X196357845Y-42570833D02*
X196295940Y-42601786D01*
X196295940Y-42601786D02*
X196172130Y-42632738D01*
X196172130Y-42632738D02*
X196079273Y-42632738D01*
X196079273Y-42632738D02*
X195955464Y-42601786D01*
X195955464Y-42601786D02*
X195893559Y-42570833D01*
X195893559Y-42570833D02*
X195831654Y-42508928D01*
X195831654Y-42508928D02*
X195800702Y-42416071D01*
X195800702Y-42416071D02*
X195800702Y-42354167D01*
X195800702Y-42354167D02*
X195831654Y-42261309D01*
X195831654Y-42261309D02*
X195862607Y-42230357D01*
X196450702Y-41611309D02*
X196450702Y-41982738D01*
X196450702Y-41797024D02*
X195800702Y-41797024D01*
X195800702Y-41797024D02*
X195893559Y-41858928D01*
X195893559Y-41858928D02*
X195955464Y-41920833D01*
X195955464Y-41920833D02*
X195986416Y-41982738D01*
X196450702Y-40992261D02*
X196450702Y-41363690D01*
X196450702Y-41177976D02*
X195800702Y-41177976D01*
X195800702Y-41177976D02*
X195893559Y-41239880D01*
X195893559Y-41239880D02*
X195955464Y-41301785D01*
X195955464Y-41301785D02*
X195986416Y-41363690D01*
%TO.C,C15*%
X207703197Y-60666657D02*
X207734150Y-60697609D01*
X207734150Y-60697609D02*
X207765102Y-60790467D01*
X207765102Y-60790467D02*
X207765102Y-60852371D01*
X207765102Y-60852371D02*
X207734150Y-60945228D01*
X207734150Y-60945228D02*
X207672245Y-61007133D01*
X207672245Y-61007133D02*
X207610340Y-61038086D01*
X207610340Y-61038086D02*
X207486530Y-61069038D01*
X207486530Y-61069038D02*
X207393673Y-61069038D01*
X207393673Y-61069038D02*
X207269864Y-61038086D01*
X207269864Y-61038086D02*
X207207959Y-61007133D01*
X207207959Y-61007133D02*
X207146054Y-60945228D01*
X207146054Y-60945228D02*
X207115102Y-60852371D01*
X207115102Y-60852371D02*
X207115102Y-60790467D01*
X207115102Y-60790467D02*
X207146054Y-60697609D01*
X207146054Y-60697609D02*
X207177007Y-60666657D01*
X207765102Y-60047609D02*
X207765102Y-60419038D01*
X207765102Y-60233324D02*
X207115102Y-60233324D01*
X207115102Y-60233324D02*
X207207959Y-60295228D01*
X207207959Y-60295228D02*
X207269864Y-60357133D01*
X207269864Y-60357133D02*
X207300816Y-60419038D01*
X207115102Y-59459514D02*
X207115102Y-59769038D01*
X207115102Y-59769038D02*
X207424626Y-59799990D01*
X207424626Y-59799990D02*
X207393673Y-59769038D01*
X207393673Y-59769038D02*
X207362721Y-59707133D01*
X207362721Y-59707133D02*
X207362721Y-59552371D01*
X207362721Y-59552371D02*
X207393673Y-59490466D01*
X207393673Y-59490466D02*
X207424626Y-59459514D01*
X207424626Y-59459514D02*
X207486530Y-59428561D01*
X207486530Y-59428561D02*
X207641292Y-59428561D01*
X207641292Y-59428561D02*
X207703197Y-59459514D01*
X207703197Y-59459514D02*
X207734150Y-59490466D01*
X207734150Y-59490466D02*
X207765102Y-59552371D01*
X207765102Y-59552371D02*
X207765102Y-59707133D01*
X207765102Y-59707133D02*
X207734150Y-59769038D01*
X207734150Y-59769038D02*
X207703197Y-59799990D01*
%TO.C,C12*%
X203228797Y-47067857D02*
X203259750Y-47098809D01*
X203259750Y-47098809D02*
X203290702Y-47191667D01*
X203290702Y-47191667D02*
X203290702Y-47253571D01*
X203290702Y-47253571D02*
X203259750Y-47346428D01*
X203259750Y-47346428D02*
X203197845Y-47408333D01*
X203197845Y-47408333D02*
X203135940Y-47439286D01*
X203135940Y-47439286D02*
X203012130Y-47470238D01*
X203012130Y-47470238D02*
X202919273Y-47470238D01*
X202919273Y-47470238D02*
X202795464Y-47439286D01*
X202795464Y-47439286D02*
X202733559Y-47408333D01*
X202733559Y-47408333D02*
X202671654Y-47346428D01*
X202671654Y-47346428D02*
X202640702Y-47253571D01*
X202640702Y-47253571D02*
X202640702Y-47191667D01*
X202640702Y-47191667D02*
X202671654Y-47098809D01*
X202671654Y-47098809D02*
X202702607Y-47067857D01*
X203290702Y-46448809D02*
X203290702Y-46820238D01*
X203290702Y-46634524D02*
X202640702Y-46634524D01*
X202640702Y-46634524D02*
X202733559Y-46696428D01*
X202733559Y-46696428D02*
X202795464Y-46758333D01*
X202795464Y-46758333D02*
X202826416Y-46820238D01*
X202702607Y-46201190D02*
X202671654Y-46170238D01*
X202671654Y-46170238D02*
X202640702Y-46108333D01*
X202640702Y-46108333D02*
X202640702Y-45953571D01*
X202640702Y-45953571D02*
X202671654Y-45891666D01*
X202671654Y-45891666D02*
X202702607Y-45860714D01*
X202702607Y-45860714D02*
X202764511Y-45829761D01*
X202764511Y-45829761D02*
X202826416Y-45829761D01*
X202826416Y-45829761D02*
X202919273Y-45860714D01*
X202919273Y-45860714D02*
X203290702Y-46232142D01*
X203290702Y-46232142D02*
X203290702Y-45829761D01*
%TO.C,C8*%
X207228797Y-46388333D02*
X207259750Y-46419285D01*
X207259750Y-46419285D02*
X207290702Y-46512143D01*
X207290702Y-46512143D02*
X207290702Y-46574047D01*
X207290702Y-46574047D02*
X207259750Y-46666904D01*
X207259750Y-46666904D02*
X207197845Y-46728809D01*
X207197845Y-46728809D02*
X207135940Y-46759762D01*
X207135940Y-46759762D02*
X207012130Y-46790714D01*
X207012130Y-46790714D02*
X206919273Y-46790714D01*
X206919273Y-46790714D02*
X206795464Y-46759762D01*
X206795464Y-46759762D02*
X206733559Y-46728809D01*
X206733559Y-46728809D02*
X206671654Y-46666904D01*
X206671654Y-46666904D02*
X206640702Y-46574047D01*
X206640702Y-46574047D02*
X206640702Y-46512143D01*
X206640702Y-46512143D02*
X206671654Y-46419285D01*
X206671654Y-46419285D02*
X206702607Y-46388333D01*
X206919273Y-46016904D02*
X206888321Y-46078809D01*
X206888321Y-46078809D02*
X206857369Y-46109762D01*
X206857369Y-46109762D02*
X206795464Y-46140714D01*
X206795464Y-46140714D02*
X206764511Y-46140714D01*
X206764511Y-46140714D02*
X206702607Y-46109762D01*
X206702607Y-46109762D02*
X206671654Y-46078809D01*
X206671654Y-46078809D02*
X206640702Y-46016904D01*
X206640702Y-46016904D02*
X206640702Y-45893095D01*
X206640702Y-45893095D02*
X206671654Y-45831190D01*
X206671654Y-45831190D02*
X206702607Y-45800238D01*
X206702607Y-45800238D02*
X206764511Y-45769285D01*
X206764511Y-45769285D02*
X206795464Y-45769285D01*
X206795464Y-45769285D02*
X206857369Y-45800238D01*
X206857369Y-45800238D02*
X206888321Y-45831190D01*
X206888321Y-45831190D02*
X206919273Y-45893095D01*
X206919273Y-45893095D02*
X206919273Y-46016904D01*
X206919273Y-46016904D02*
X206950226Y-46078809D01*
X206950226Y-46078809D02*
X206981178Y-46109762D01*
X206981178Y-46109762D02*
X207043083Y-46140714D01*
X207043083Y-46140714D02*
X207166892Y-46140714D01*
X207166892Y-46140714D02*
X207228797Y-46109762D01*
X207228797Y-46109762D02*
X207259750Y-46078809D01*
X207259750Y-46078809D02*
X207290702Y-46016904D01*
X207290702Y-46016904D02*
X207290702Y-45893095D01*
X207290702Y-45893095D02*
X207259750Y-45831190D01*
X207259750Y-45831190D02*
X207228797Y-45800238D01*
X207228797Y-45800238D02*
X207166892Y-45769285D01*
X207166892Y-45769285D02*
X207043083Y-45769285D01*
X207043083Y-45769285D02*
X206981178Y-45800238D01*
X206981178Y-45800238D02*
X206950226Y-45831190D01*
X206950226Y-45831190D02*
X206919273Y-45893095D01*
%TO.C,R11*%
X189701502Y-77190057D02*
X189391978Y-77406724D01*
X189701502Y-77561486D02*
X189051502Y-77561486D01*
X189051502Y-77561486D02*
X189051502Y-77313867D01*
X189051502Y-77313867D02*
X189082454Y-77251962D01*
X189082454Y-77251962D02*
X189113407Y-77221009D01*
X189113407Y-77221009D02*
X189175311Y-77190057D01*
X189175311Y-77190057D02*
X189268169Y-77190057D01*
X189268169Y-77190057D02*
X189330073Y-77221009D01*
X189330073Y-77221009D02*
X189361026Y-77251962D01*
X189361026Y-77251962D02*
X189391978Y-77313867D01*
X189391978Y-77313867D02*
X189391978Y-77561486D01*
X189701502Y-76571009D02*
X189701502Y-76942438D01*
X189701502Y-76756724D02*
X189051502Y-76756724D01*
X189051502Y-76756724D02*
X189144359Y-76818628D01*
X189144359Y-76818628D02*
X189206264Y-76880533D01*
X189206264Y-76880533D02*
X189237216Y-76942438D01*
X189701502Y-75951961D02*
X189701502Y-76323390D01*
X189701502Y-76137676D02*
X189051502Y-76137676D01*
X189051502Y-76137676D02*
X189144359Y-76199580D01*
X189144359Y-76199580D02*
X189206264Y-76261485D01*
X189206264Y-76261485D02*
X189237216Y-76323390D01*
%TO.C,U1*%
X195294761Y-64320702D02*
X195294761Y-64846892D01*
X195294761Y-64846892D02*
X195325714Y-64908797D01*
X195325714Y-64908797D02*
X195356666Y-64939750D01*
X195356666Y-64939750D02*
X195418571Y-64970702D01*
X195418571Y-64970702D02*
X195542380Y-64970702D01*
X195542380Y-64970702D02*
X195604285Y-64939750D01*
X195604285Y-64939750D02*
X195635238Y-64908797D01*
X195635238Y-64908797D02*
X195666190Y-64846892D01*
X195666190Y-64846892D02*
X195666190Y-64320702D01*
X196316190Y-64970702D02*
X195944761Y-64970702D01*
X196130475Y-64970702D02*
X196130475Y-64320702D01*
X196130475Y-64320702D02*
X196068571Y-64413559D01*
X196068571Y-64413559D02*
X196006666Y-64475464D01*
X196006666Y-64475464D02*
X195944761Y-64506416D01*
X197800000Y-62350702D02*
X197800000Y-62505464D01*
X197645238Y-62443559D02*
X197800000Y-62505464D01*
X197800000Y-62505464D02*
X197954761Y-62443559D01*
X197707142Y-62629273D02*
X197800000Y-62505464D01*
X197800000Y-62505464D02*
X197892857Y-62629273D01*
X197800000Y-62350702D02*
X197800000Y-62505464D01*
X197645238Y-62443559D02*
X197800000Y-62505464D01*
X197800000Y-62505464D02*
X197954761Y-62443559D01*
X197707142Y-62629273D02*
X197800000Y-62505464D01*
X197800000Y-62505464D02*
X197892857Y-62629273D01*
%TO.C,U6*%
X199425002Y-31550488D02*
X199951192Y-31550488D01*
X199951192Y-31550488D02*
X200013097Y-31519535D01*
X200013097Y-31519535D02*
X200044050Y-31488583D01*
X200044050Y-31488583D02*
X200075002Y-31426678D01*
X200075002Y-31426678D02*
X200075002Y-31302869D01*
X200075002Y-31302869D02*
X200044050Y-31240964D01*
X200044050Y-31240964D02*
X200013097Y-31210011D01*
X200013097Y-31210011D02*
X199951192Y-31179059D01*
X199951192Y-31179059D02*
X199425002Y-31179059D01*
X199425002Y-30590964D02*
X199425002Y-30714774D01*
X199425002Y-30714774D02*
X199455954Y-30776678D01*
X199455954Y-30776678D02*
X199486907Y-30807631D01*
X199486907Y-30807631D02*
X199579764Y-30869536D01*
X199579764Y-30869536D02*
X199703573Y-30900488D01*
X199703573Y-30900488D02*
X199951192Y-30900488D01*
X199951192Y-30900488D02*
X200013097Y-30869536D01*
X200013097Y-30869536D02*
X200044050Y-30838583D01*
X200044050Y-30838583D02*
X200075002Y-30776678D01*
X200075002Y-30776678D02*
X200075002Y-30652869D01*
X200075002Y-30652869D02*
X200044050Y-30590964D01*
X200044050Y-30590964D02*
X200013097Y-30560012D01*
X200013097Y-30560012D02*
X199951192Y-30529059D01*
X199951192Y-30529059D02*
X199796430Y-30529059D01*
X199796430Y-30529059D02*
X199734526Y-30560012D01*
X199734526Y-30560012D02*
X199703573Y-30590964D01*
X199703573Y-30590964D02*
X199672621Y-30652869D01*
X199672621Y-30652869D02*
X199672621Y-30776678D01*
X199672621Y-30776678D02*
X199703573Y-30838583D01*
X199703573Y-30838583D02*
X199734526Y-30869536D01*
X199734526Y-30869536D02*
X199796430Y-30900488D01*
%TO.C,C1*%
X183533666Y-26146797D02*
X183502714Y-26177750D01*
X183502714Y-26177750D02*
X183409856Y-26208702D01*
X183409856Y-26208702D02*
X183347952Y-26208702D01*
X183347952Y-26208702D02*
X183255095Y-26177750D01*
X183255095Y-26177750D02*
X183193190Y-26115845D01*
X183193190Y-26115845D02*
X183162237Y-26053940D01*
X183162237Y-26053940D02*
X183131285Y-25930130D01*
X183131285Y-25930130D02*
X183131285Y-25837273D01*
X183131285Y-25837273D02*
X183162237Y-25713464D01*
X183162237Y-25713464D02*
X183193190Y-25651559D01*
X183193190Y-25651559D02*
X183255095Y-25589654D01*
X183255095Y-25589654D02*
X183347952Y-25558702D01*
X183347952Y-25558702D02*
X183409856Y-25558702D01*
X183409856Y-25558702D02*
X183502714Y-25589654D01*
X183502714Y-25589654D02*
X183533666Y-25620607D01*
X184152714Y-26208702D02*
X183781285Y-26208702D01*
X183966999Y-26208702D02*
X183966999Y-25558702D01*
X183966999Y-25558702D02*
X183905095Y-25651559D01*
X183905095Y-25651559D02*
X183843190Y-25713464D01*
X183843190Y-25713464D02*
X183781285Y-25744416D01*
%TO.C,U7*%
X199244702Y-34870238D02*
X199770892Y-34870238D01*
X199770892Y-34870238D02*
X199832797Y-34839285D01*
X199832797Y-34839285D02*
X199863750Y-34808333D01*
X199863750Y-34808333D02*
X199894702Y-34746428D01*
X199894702Y-34746428D02*
X199894702Y-34622619D01*
X199894702Y-34622619D02*
X199863750Y-34560714D01*
X199863750Y-34560714D02*
X199832797Y-34529761D01*
X199832797Y-34529761D02*
X199770892Y-34498809D01*
X199770892Y-34498809D02*
X199244702Y-34498809D01*
X199244702Y-34251190D02*
X199244702Y-33817857D01*
X199244702Y-33817857D02*
X199894702Y-34096428D01*
%TO.C,R12*%
X182950702Y-52310057D02*
X182641178Y-52526724D01*
X182950702Y-52681486D02*
X182300702Y-52681486D01*
X182300702Y-52681486D02*
X182300702Y-52433867D01*
X182300702Y-52433867D02*
X182331654Y-52371962D01*
X182331654Y-52371962D02*
X182362607Y-52341009D01*
X182362607Y-52341009D02*
X182424511Y-52310057D01*
X182424511Y-52310057D02*
X182517369Y-52310057D01*
X182517369Y-52310057D02*
X182579273Y-52341009D01*
X182579273Y-52341009D02*
X182610226Y-52371962D01*
X182610226Y-52371962D02*
X182641178Y-52433867D01*
X182641178Y-52433867D02*
X182641178Y-52681486D01*
X182950702Y-51691009D02*
X182950702Y-52062438D01*
X182950702Y-51876724D02*
X182300702Y-51876724D01*
X182300702Y-51876724D02*
X182393559Y-51938628D01*
X182393559Y-51938628D02*
X182455464Y-52000533D01*
X182455464Y-52000533D02*
X182486416Y-52062438D01*
X182362607Y-51443390D02*
X182331654Y-51412438D01*
X182331654Y-51412438D02*
X182300702Y-51350533D01*
X182300702Y-51350533D02*
X182300702Y-51195771D01*
X182300702Y-51195771D02*
X182331654Y-51133866D01*
X182331654Y-51133866D02*
X182362607Y-51102914D01*
X182362607Y-51102914D02*
X182424511Y-51071961D01*
X182424511Y-51071961D02*
X182486416Y-51071961D01*
X182486416Y-51071961D02*
X182579273Y-51102914D01*
X182579273Y-51102914D02*
X182950702Y-51474342D01*
X182950702Y-51474342D02*
X182950702Y-51071961D01*
%TO.C,R15*%
X187484102Y-77157557D02*
X187174578Y-77374224D01*
X187484102Y-77528986D02*
X186834102Y-77528986D01*
X186834102Y-77528986D02*
X186834102Y-77281367D01*
X186834102Y-77281367D02*
X186865054Y-77219462D01*
X186865054Y-77219462D02*
X186896007Y-77188509D01*
X186896007Y-77188509D02*
X186957911Y-77157557D01*
X186957911Y-77157557D02*
X187050769Y-77157557D01*
X187050769Y-77157557D02*
X187112673Y-77188509D01*
X187112673Y-77188509D02*
X187143626Y-77219462D01*
X187143626Y-77219462D02*
X187174578Y-77281367D01*
X187174578Y-77281367D02*
X187174578Y-77528986D01*
X187484102Y-76538509D02*
X187484102Y-76909938D01*
X187484102Y-76724224D02*
X186834102Y-76724224D01*
X186834102Y-76724224D02*
X186926959Y-76786128D01*
X186926959Y-76786128D02*
X186988864Y-76848033D01*
X186988864Y-76848033D02*
X187019816Y-76909938D01*
X186834102Y-75950414D02*
X186834102Y-76259938D01*
X186834102Y-76259938D02*
X187143626Y-76290890D01*
X187143626Y-76290890D02*
X187112673Y-76259938D01*
X187112673Y-76259938D02*
X187081721Y-76198033D01*
X187081721Y-76198033D02*
X187081721Y-76043271D01*
X187081721Y-76043271D02*
X187112673Y-75981366D01*
X187112673Y-75981366D02*
X187143626Y-75950414D01*
X187143626Y-75950414D02*
X187205530Y-75919461D01*
X187205530Y-75919461D02*
X187360292Y-75919461D01*
X187360292Y-75919461D02*
X187422197Y-75950414D01*
X187422197Y-75950414D02*
X187453150Y-75981366D01*
X187453150Y-75981366D02*
X187484102Y-76043271D01*
X187484102Y-76043271D02*
X187484102Y-76198033D01*
X187484102Y-76198033D02*
X187453150Y-76259938D01*
X187453150Y-76259938D02*
X187422197Y-76290890D01*
%TO.C,R4*%
X203941666Y-32838202D02*
X203724999Y-32528678D01*
X203570237Y-32838202D02*
X203570237Y-32188202D01*
X203570237Y-32188202D02*
X203817856Y-32188202D01*
X203817856Y-32188202D02*
X203879761Y-32219154D01*
X203879761Y-32219154D02*
X203910714Y-32250107D01*
X203910714Y-32250107D02*
X203941666Y-32312011D01*
X203941666Y-32312011D02*
X203941666Y-32404869D01*
X203941666Y-32404869D02*
X203910714Y-32466773D01*
X203910714Y-32466773D02*
X203879761Y-32497726D01*
X203879761Y-32497726D02*
X203817856Y-32528678D01*
X203817856Y-32528678D02*
X203570237Y-32528678D01*
X204498809Y-32404869D02*
X204498809Y-32838202D01*
X204344047Y-32157250D02*
X204189285Y-32621535D01*
X204189285Y-32621535D02*
X204591666Y-32621535D01*
%TO.C,R6*%
X192100702Y-46108333D02*
X191791178Y-46325000D01*
X192100702Y-46479762D02*
X191450702Y-46479762D01*
X191450702Y-46479762D02*
X191450702Y-46232143D01*
X191450702Y-46232143D02*
X191481654Y-46170238D01*
X191481654Y-46170238D02*
X191512607Y-46139285D01*
X191512607Y-46139285D02*
X191574511Y-46108333D01*
X191574511Y-46108333D02*
X191667369Y-46108333D01*
X191667369Y-46108333D02*
X191729273Y-46139285D01*
X191729273Y-46139285D02*
X191760226Y-46170238D01*
X191760226Y-46170238D02*
X191791178Y-46232143D01*
X191791178Y-46232143D02*
X191791178Y-46479762D01*
X191450702Y-45551190D02*
X191450702Y-45675000D01*
X191450702Y-45675000D02*
X191481654Y-45736904D01*
X191481654Y-45736904D02*
X191512607Y-45767857D01*
X191512607Y-45767857D02*
X191605464Y-45829762D01*
X191605464Y-45829762D02*
X191729273Y-45860714D01*
X191729273Y-45860714D02*
X191976892Y-45860714D01*
X191976892Y-45860714D02*
X192038797Y-45829762D01*
X192038797Y-45829762D02*
X192069750Y-45798809D01*
X192069750Y-45798809D02*
X192100702Y-45736904D01*
X192100702Y-45736904D02*
X192100702Y-45613095D01*
X192100702Y-45613095D02*
X192069750Y-45551190D01*
X192069750Y-45551190D02*
X192038797Y-45520238D01*
X192038797Y-45520238D02*
X191976892Y-45489285D01*
X191976892Y-45489285D02*
X191822130Y-45489285D01*
X191822130Y-45489285D02*
X191760226Y-45520238D01*
X191760226Y-45520238D02*
X191729273Y-45551190D01*
X191729273Y-45551190D02*
X191698321Y-45613095D01*
X191698321Y-45613095D02*
X191698321Y-45736904D01*
X191698321Y-45736904D02*
X191729273Y-45798809D01*
X191729273Y-45798809D02*
X191760226Y-45829762D01*
X191760226Y-45829762D02*
X191822130Y-45860714D01*
%TO.C,CON1*%
X198409597Y-22887285D02*
X198440550Y-22918237D01*
X198440550Y-22918237D02*
X198471502Y-23011095D01*
X198471502Y-23011095D02*
X198471502Y-23072999D01*
X198471502Y-23072999D02*
X198440550Y-23165856D01*
X198440550Y-23165856D02*
X198378645Y-23227761D01*
X198378645Y-23227761D02*
X198316740Y-23258714D01*
X198316740Y-23258714D02*
X198192930Y-23289666D01*
X198192930Y-23289666D02*
X198100073Y-23289666D01*
X198100073Y-23289666D02*
X197976264Y-23258714D01*
X197976264Y-23258714D02*
X197914359Y-23227761D01*
X197914359Y-23227761D02*
X197852454Y-23165856D01*
X197852454Y-23165856D02*
X197821502Y-23072999D01*
X197821502Y-23072999D02*
X197821502Y-23011095D01*
X197821502Y-23011095D02*
X197852454Y-22918237D01*
X197852454Y-22918237D02*
X197883407Y-22887285D01*
X197821502Y-22484904D02*
X197821502Y-22361095D01*
X197821502Y-22361095D02*
X197852454Y-22299190D01*
X197852454Y-22299190D02*
X197914359Y-22237285D01*
X197914359Y-22237285D02*
X198038169Y-22206333D01*
X198038169Y-22206333D02*
X198254835Y-22206333D01*
X198254835Y-22206333D02*
X198378645Y-22237285D01*
X198378645Y-22237285D02*
X198440550Y-22299190D01*
X198440550Y-22299190D02*
X198471502Y-22361095D01*
X198471502Y-22361095D02*
X198471502Y-22484904D01*
X198471502Y-22484904D02*
X198440550Y-22546809D01*
X198440550Y-22546809D02*
X198378645Y-22608714D01*
X198378645Y-22608714D02*
X198254835Y-22639666D01*
X198254835Y-22639666D02*
X198038169Y-22639666D01*
X198038169Y-22639666D02*
X197914359Y-22608714D01*
X197914359Y-22608714D02*
X197852454Y-22546809D01*
X197852454Y-22546809D02*
X197821502Y-22484904D01*
X198471502Y-21927762D02*
X197821502Y-21927762D01*
X197821502Y-21927762D02*
X198471502Y-21556333D01*
X198471502Y-21556333D02*
X197821502Y-21556333D01*
X198471502Y-20906333D02*
X198471502Y-21277762D01*
X198471502Y-21092048D02*
X197821502Y-21092048D01*
X197821502Y-21092048D02*
X197914359Y-21153952D01*
X197914359Y-21153952D02*
X197976264Y-21215857D01*
X197976264Y-21215857D02*
X198007216Y-21277762D01*
%TO.C,L1*%
X192070702Y-41758333D02*
X192070702Y-42067857D01*
X192070702Y-42067857D02*
X191420702Y-42067857D01*
X192070702Y-41201190D02*
X192070702Y-41572619D01*
X192070702Y-41386905D02*
X191420702Y-41386905D01*
X191420702Y-41386905D02*
X191513559Y-41448809D01*
X191513559Y-41448809D02*
X191575464Y-41510714D01*
X191575464Y-41510714D02*
X191606416Y-41572619D01*
%TO.C,LED2*%
X190506102Y-69888080D02*
X190506102Y-70197604D01*
X190506102Y-70197604D02*
X189856102Y-70197604D01*
X190165626Y-69671414D02*
X190165626Y-69454747D01*
X190506102Y-69361890D02*
X190506102Y-69671414D01*
X190506102Y-69671414D02*
X189856102Y-69671414D01*
X189856102Y-69671414D02*
X189856102Y-69361890D01*
X190506102Y-69083319D02*
X189856102Y-69083319D01*
X189856102Y-69083319D02*
X189856102Y-68928557D01*
X189856102Y-68928557D02*
X189887054Y-68835700D01*
X189887054Y-68835700D02*
X189948959Y-68773795D01*
X189948959Y-68773795D02*
X190010864Y-68742842D01*
X190010864Y-68742842D02*
X190134673Y-68711890D01*
X190134673Y-68711890D02*
X190227530Y-68711890D01*
X190227530Y-68711890D02*
X190351340Y-68742842D01*
X190351340Y-68742842D02*
X190413245Y-68773795D01*
X190413245Y-68773795D02*
X190475150Y-68835700D01*
X190475150Y-68835700D02*
X190506102Y-68928557D01*
X190506102Y-68928557D02*
X190506102Y-69083319D01*
X189918007Y-68464271D02*
X189887054Y-68433319D01*
X189887054Y-68433319D02*
X189856102Y-68371414D01*
X189856102Y-68371414D02*
X189856102Y-68216652D01*
X189856102Y-68216652D02*
X189887054Y-68154747D01*
X189887054Y-68154747D02*
X189918007Y-68123795D01*
X189918007Y-68123795D02*
X189979911Y-68092842D01*
X189979911Y-68092842D02*
X190041816Y-68092842D01*
X190041816Y-68092842D02*
X190134673Y-68123795D01*
X190134673Y-68123795D02*
X190506102Y-68495223D01*
X190506102Y-68495223D02*
X190506102Y-68092842D01*
%TO.C,R9*%
X196744302Y-70263133D02*
X196434778Y-70479800D01*
X196744302Y-70634562D02*
X196094302Y-70634562D01*
X196094302Y-70634562D02*
X196094302Y-70386943D01*
X196094302Y-70386943D02*
X196125254Y-70325038D01*
X196125254Y-70325038D02*
X196156207Y-70294085D01*
X196156207Y-70294085D02*
X196218111Y-70263133D01*
X196218111Y-70263133D02*
X196310969Y-70263133D01*
X196310969Y-70263133D02*
X196372873Y-70294085D01*
X196372873Y-70294085D02*
X196403826Y-70325038D01*
X196403826Y-70325038D02*
X196434778Y-70386943D01*
X196434778Y-70386943D02*
X196434778Y-70634562D01*
X196744302Y-69953609D02*
X196744302Y-69829800D01*
X196744302Y-69829800D02*
X196713350Y-69767895D01*
X196713350Y-69767895D02*
X196682397Y-69736943D01*
X196682397Y-69736943D02*
X196589540Y-69675038D01*
X196589540Y-69675038D02*
X196465730Y-69644085D01*
X196465730Y-69644085D02*
X196218111Y-69644085D01*
X196218111Y-69644085D02*
X196156207Y-69675038D01*
X196156207Y-69675038D02*
X196125254Y-69705990D01*
X196125254Y-69705990D02*
X196094302Y-69767895D01*
X196094302Y-69767895D02*
X196094302Y-69891704D01*
X196094302Y-69891704D02*
X196125254Y-69953609D01*
X196125254Y-69953609D02*
X196156207Y-69984562D01*
X196156207Y-69984562D02*
X196218111Y-70015514D01*
X196218111Y-70015514D02*
X196372873Y-70015514D01*
X196372873Y-70015514D02*
X196434778Y-69984562D01*
X196434778Y-69984562D02*
X196465730Y-69953609D01*
X196465730Y-69953609D02*
X196496683Y-69891704D01*
X196496683Y-69891704D02*
X196496683Y-69767895D01*
X196496683Y-69767895D02*
X196465730Y-69705990D01*
X196465730Y-69705990D02*
X196434778Y-69675038D01*
X196434778Y-69675038D02*
X196372873Y-69644085D01*
%TO.C,C6*%
X183824797Y-43472333D02*
X183855750Y-43503285D01*
X183855750Y-43503285D02*
X183886702Y-43596143D01*
X183886702Y-43596143D02*
X183886702Y-43658047D01*
X183886702Y-43658047D02*
X183855750Y-43750904D01*
X183855750Y-43750904D02*
X183793845Y-43812809D01*
X183793845Y-43812809D02*
X183731940Y-43843762D01*
X183731940Y-43843762D02*
X183608130Y-43874714D01*
X183608130Y-43874714D02*
X183515273Y-43874714D01*
X183515273Y-43874714D02*
X183391464Y-43843762D01*
X183391464Y-43843762D02*
X183329559Y-43812809D01*
X183329559Y-43812809D02*
X183267654Y-43750904D01*
X183267654Y-43750904D02*
X183236702Y-43658047D01*
X183236702Y-43658047D02*
X183236702Y-43596143D01*
X183236702Y-43596143D02*
X183267654Y-43503285D01*
X183267654Y-43503285D02*
X183298607Y-43472333D01*
X183236702Y-42915190D02*
X183236702Y-43039000D01*
X183236702Y-43039000D02*
X183267654Y-43100904D01*
X183267654Y-43100904D02*
X183298607Y-43131857D01*
X183298607Y-43131857D02*
X183391464Y-43193762D01*
X183391464Y-43193762D02*
X183515273Y-43224714D01*
X183515273Y-43224714D02*
X183762892Y-43224714D01*
X183762892Y-43224714D02*
X183824797Y-43193762D01*
X183824797Y-43193762D02*
X183855750Y-43162809D01*
X183855750Y-43162809D02*
X183886702Y-43100904D01*
X183886702Y-43100904D02*
X183886702Y-42977095D01*
X183886702Y-42977095D02*
X183855750Y-42915190D01*
X183855750Y-42915190D02*
X183824797Y-42884238D01*
X183824797Y-42884238D02*
X183762892Y-42853285D01*
X183762892Y-42853285D02*
X183608130Y-42853285D01*
X183608130Y-42853285D02*
X183546226Y-42884238D01*
X183546226Y-42884238D02*
X183515273Y-42915190D01*
X183515273Y-42915190D02*
X183484321Y-42977095D01*
X183484321Y-42977095D02*
X183484321Y-43100904D01*
X183484321Y-43100904D02*
X183515273Y-43162809D01*
X183515273Y-43162809D02*
X183546226Y-43193762D01*
X183546226Y-43193762D02*
X183608130Y-43224714D01*
%TO.C,Y2*%
X182468876Y-59960578D02*
X182468876Y-60270102D01*
X182252209Y-59620102D02*
X182468876Y-59960578D01*
X182468876Y-59960578D02*
X182685543Y-59620102D01*
X182871257Y-59682007D02*
X182902209Y-59651054D01*
X182902209Y-59651054D02*
X182964114Y-59620102D01*
X182964114Y-59620102D02*
X183118876Y-59620102D01*
X183118876Y-59620102D02*
X183180781Y-59651054D01*
X183180781Y-59651054D02*
X183211733Y-59682007D01*
X183211733Y-59682007D02*
X183242686Y-59743911D01*
X183242686Y-59743911D02*
X183242686Y-59805816D01*
X183242686Y-59805816D02*
X183211733Y-59898673D01*
X183211733Y-59898673D02*
X182840305Y-60270102D01*
X182840305Y-60270102D02*
X183242686Y-60270102D01*
%TO.C,R13*%
X182950702Y-54596057D02*
X182641178Y-54812724D01*
X182950702Y-54967486D02*
X182300702Y-54967486D01*
X182300702Y-54967486D02*
X182300702Y-54719867D01*
X182300702Y-54719867D02*
X182331654Y-54657962D01*
X182331654Y-54657962D02*
X182362607Y-54627009D01*
X182362607Y-54627009D02*
X182424511Y-54596057D01*
X182424511Y-54596057D02*
X182517369Y-54596057D01*
X182517369Y-54596057D02*
X182579273Y-54627009D01*
X182579273Y-54627009D02*
X182610226Y-54657962D01*
X182610226Y-54657962D02*
X182641178Y-54719867D01*
X182641178Y-54719867D02*
X182641178Y-54967486D01*
X182950702Y-53977009D02*
X182950702Y-54348438D01*
X182950702Y-54162724D02*
X182300702Y-54162724D01*
X182300702Y-54162724D02*
X182393559Y-54224628D01*
X182393559Y-54224628D02*
X182455464Y-54286533D01*
X182455464Y-54286533D02*
X182486416Y-54348438D01*
X182300702Y-53760342D02*
X182300702Y-53357961D01*
X182300702Y-53357961D02*
X182548321Y-53574628D01*
X182548321Y-53574628D02*
X182548321Y-53481771D01*
X182548321Y-53481771D02*
X182579273Y-53419866D01*
X182579273Y-53419866D02*
X182610226Y-53388914D01*
X182610226Y-53388914D02*
X182672130Y-53357961D01*
X182672130Y-53357961D02*
X182826892Y-53357961D01*
X182826892Y-53357961D02*
X182888797Y-53388914D01*
X182888797Y-53388914D02*
X182919750Y-53419866D01*
X182919750Y-53419866D02*
X182950702Y-53481771D01*
X182950702Y-53481771D02*
X182950702Y-53667485D01*
X182950702Y-53667485D02*
X182919750Y-53729390D01*
X182919750Y-53729390D02*
X182888797Y-53760342D01*
%TO.C,C18*%
X195119597Y-77252557D02*
X195150550Y-77283509D01*
X195150550Y-77283509D02*
X195181502Y-77376367D01*
X195181502Y-77376367D02*
X195181502Y-77438271D01*
X195181502Y-77438271D02*
X195150550Y-77531128D01*
X195150550Y-77531128D02*
X195088645Y-77593033D01*
X195088645Y-77593033D02*
X195026740Y-77623986D01*
X195026740Y-77623986D02*
X194902930Y-77654938D01*
X194902930Y-77654938D02*
X194810073Y-77654938D01*
X194810073Y-77654938D02*
X194686264Y-77623986D01*
X194686264Y-77623986D02*
X194624359Y-77593033D01*
X194624359Y-77593033D02*
X194562454Y-77531128D01*
X194562454Y-77531128D02*
X194531502Y-77438271D01*
X194531502Y-77438271D02*
X194531502Y-77376367D01*
X194531502Y-77376367D02*
X194562454Y-77283509D01*
X194562454Y-77283509D02*
X194593407Y-77252557D01*
X195181502Y-76633509D02*
X195181502Y-77004938D01*
X195181502Y-76819224D02*
X194531502Y-76819224D01*
X194531502Y-76819224D02*
X194624359Y-76881128D01*
X194624359Y-76881128D02*
X194686264Y-76943033D01*
X194686264Y-76943033D02*
X194717216Y-77004938D01*
X194810073Y-76262080D02*
X194779121Y-76323985D01*
X194779121Y-76323985D02*
X194748169Y-76354938D01*
X194748169Y-76354938D02*
X194686264Y-76385890D01*
X194686264Y-76385890D02*
X194655311Y-76385890D01*
X194655311Y-76385890D02*
X194593407Y-76354938D01*
X194593407Y-76354938D02*
X194562454Y-76323985D01*
X194562454Y-76323985D02*
X194531502Y-76262080D01*
X194531502Y-76262080D02*
X194531502Y-76138271D01*
X194531502Y-76138271D02*
X194562454Y-76076366D01*
X194562454Y-76076366D02*
X194593407Y-76045414D01*
X194593407Y-76045414D02*
X194655311Y-76014461D01*
X194655311Y-76014461D02*
X194686264Y-76014461D01*
X194686264Y-76014461D02*
X194748169Y-76045414D01*
X194748169Y-76045414D02*
X194779121Y-76076366D01*
X194779121Y-76076366D02*
X194810073Y-76138271D01*
X194810073Y-76138271D02*
X194810073Y-76262080D01*
X194810073Y-76262080D02*
X194841026Y-76323985D01*
X194841026Y-76323985D02*
X194871978Y-76354938D01*
X194871978Y-76354938D02*
X194933883Y-76385890D01*
X194933883Y-76385890D02*
X195057692Y-76385890D01*
X195057692Y-76385890D02*
X195119597Y-76354938D01*
X195119597Y-76354938D02*
X195150550Y-76323985D01*
X195150550Y-76323985D02*
X195181502Y-76262080D01*
X195181502Y-76262080D02*
X195181502Y-76138271D01*
X195181502Y-76138271D02*
X195150550Y-76076366D01*
X195150550Y-76076366D02*
X195119597Y-76045414D01*
X195119597Y-76045414D02*
X195057692Y-76014461D01*
X195057692Y-76014461D02*
X194933883Y-76014461D01*
X194933883Y-76014461D02*
X194871978Y-76045414D01*
X194871978Y-76045414D02*
X194841026Y-76076366D01*
X194841026Y-76076366D02*
X194810073Y-76138271D01*
%TO.C,C9*%
X208544197Y-49173533D02*
X208575150Y-49204485D01*
X208575150Y-49204485D02*
X208606102Y-49297343D01*
X208606102Y-49297343D02*
X208606102Y-49359247D01*
X208606102Y-49359247D02*
X208575150Y-49452104D01*
X208575150Y-49452104D02*
X208513245Y-49514009D01*
X208513245Y-49514009D02*
X208451340Y-49544962D01*
X208451340Y-49544962D02*
X208327530Y-49575914D01*
X208327530Y-49575914D02*
X208234673Y-49575914D01*
X208234673Y-49575914D02*
X208110864Y-49544962D01*
X208110864Y-49544962D02*
X208048959Y-49514009D01*
X208048959Y-49514009D02*
X207987054Y-49452104D01*
X207987054Y-49452104D02*
X207956102Y-49359247D01*
X207956102Y-49359247D02*
X207956102Y-49297343D01*
X207956102Y-49297343D02*
X207987054Y-49204485D01*
X207987054Y-49204485D02*
X208018007Y-49173533D01*
X208606102Y-48864009D02*
X208606102Y-48740200D01*
X208606102Y-48740200D02*
X208575150Y-48678295D01*
X208575150Y-48678295D02*
X208544197Y-48647343D01*
X208544197Y-48647343D02*
X208451340Y-48585438D01*
X208451340Y-48585438D02*
X208327530Y-48554485D01*
X208327530Y-48554485D02*
X208079911Y-48554485D01*
X208079911Y-48554485D02*
X208018007Y-48585438D01*
X208018007Y-48585438D02*
X207987054Y-48616390D01*
X207987054Y-48616390D02*
X207956102Y-48678295D01*
X207956102Y-48678295D02*
X207956102Y-48802104D01*
X207956102Y-48802104D02*
X207987054Y-48864009D01*
X207987054Y-48864009D02*
X208018007Y-48894962D01*
X208018007Y-48894962D02*
X208079911Y-48925914D01*
X208079911Y-48925914D02*
X208234673Y-48925914D01*
X208234673Y-48925914D02*
X208296578Y-48894962D01*
X208296578Y-48894962D02*
X208327530Y-48864009D01*
X208327530Y-48864009D02*
X208358483Y-48802104D01*
X208358483Y-48802104D02*
X208358483Y-48678295D01*
X208358483Y-48678295D02*
X208327530Y-48616390D01*
X208327530Y-48616390D02*
X208296578Y-48585438D01*
X208296578Y-48585438D02*
X208234673Y-48554485D01*
%TO.C,C4*%
X183559066Y-19208797D02*
X183528114Y-19239750D01*
X183528114Y-19239750D02*
X183435256Y-19270702D01*
X183435256Y-19270702D02*
X183373352Y-19270702D01*
X183373352Y-19270702D02*
X183280495Y-19239750D01*
X183280495Y-19239750D02*
X183218590Y-19177845D01*
X183218590Y-19177845D02*
X183187637Y-19115940D01*
X183187637Y-19115940D02*
X183156685Y-18992130D01*
X183156685Y-18992130D02*
X183156685Y-18899273D01*
X183156685Y-18899273D02*
X183187637Y-18775464D01*
X183187637Y-18775464D02*
X183218590Y-18713559D01*
X183218590Y-18713559D02*
X183280495Y-18651654D01*
X183280495Y-18651654D02*
X183373352Y-18620702D01*
X183373352Y-18620702D02*
X183435256Y-18620702D01*
X183435256Y-18620702D02*
X183528114Y-18651654D01*
X183528114Y-18651654D02*
X183559066Y-18682607D01*
X184116209Y-18837369D02*
X184116209Y-19270702D01*
X183961447Y-18589750D02*
X183806685Y-19054035D01*
X183806685Y-19054035D02*
X184209066Y-19054035D01*
%TO.C,C13*%
X205242197Y-47001457D02*
X205273150Y-47032409D01*
X205273150Y-47032409D02*
X205304102Y-47125267D01*
X205304102Y-47125267D02*
X205304102Y-47187171D01*
X205304102Y-47187171D02*
X205273150Y-47280028D01*
X205273150Y-47280028D02*
X205211245Y-47341933D01*
X205211245Y-47341933D02*
X205149340Y-47372886D01*
X205149340Y-47372886D02*
X205025530Y-47403838D01*
X205025530Y-47403838D02*
X204932673Y-47403838D01*
X204932673Y-47403838D02*
X204808864Y-47372886D01*
X204808864Y-47372886D02*
X204746959Y-47341933D01*
X204746959Y-47341933D02*
X204685054Y-47280028D01*
X204685054Y-47280028D02*
X204654102Y-47187171D01*
X204654102Y-47187171D02*
X204654102Y-47125267D01*
X204654102Y-47125267D02*
X204685054Y-47032409D01*
X204685054Y-47032409D02*
X204716007Y-47001457D01*
X205304102Y-46382409D02*
X205304102Y-46753838D01*
X205304102Y-46568124D02*
X204654102Y-46568124D01*
X204654102Y-46568124D02*
X204746959Y-46630028D01*
X204746959Y-46630028D02*
X204808864Y-46691933D01*
X204808864Y-46691933D02*
X204839816Y-46753838D01*
X204654102Y-46165742D02*
X204654102Y-45763361D01*
X204654102Y-45763361D02*
X204901721Y-45980028D01*
X204901721Y-45980028D02*
X204901721Y-45887171D01*
X204901721Y-45887171D02*
X204932673Y-45825266D01*
X204932673Y-45825266D02*
X204963626Y-45794314D01*
X204963626Y-45794314D02*
X205025530Y-45763361D01*
X205025530Y-45763361D02*
X205180292Y-45763361D01*
X205180292Y-45763361D02*
X205242197Y-45794314D01*
X205242197Y-45794314D02*
X205273150Y-45825266D01*
X205273150Y-45825266D02*
X205304102Y-45887171D01*
X205304102Y-45887171D02*
X205304102Y-46072885D01*
X205304102Y-46072885D02*
X205273150Y-46134790D01*
X205273150Y-46134790D02*
X205242197Y-46165742D01*
%TO.C,R3*%
X201841666Y-32813202D02*
X201624999Y-32503678D01*
X201470237Y-32813202D02*
X201470237Y-32163202D01*
X201470237Y-32163202D02*
X201717856Y-32163202D01*
X201717856Y-32163202D02*
X201779761Y-32194154D01*
X201779761Y-32194154D02*
X201810714Y-32225107D01*
X201810714Y-32225107D02*
X201841666Y-32287011D01*
X201841666Y-32287011D02*
X201841666Y-32379869D01*
X201841666Y-32379869D02*
X201810714Y-32441773D01*
X201810714Y-32441773D02*
X201779761Y-32472726D01*
X201779761Y-32472726D02*
X201717856Y-32503678D01*
X201717856Y-32503678D02*
X201470237Y-32503678D01*
X202058333Y-32163202D02*
X202460714Y-32163202D01*
X202460714Y-32163202D02*
X202244047Y-32410821D01*
X202244047Y-32410821D02*
X202336904Y-32410821D01*
X202336904Y-32410821D02*
X202398809Y-32441773D01*
X202398809Y-32441773D02*
X202429761Y-32472726D01*
X202429761Y-32472726D02*
X202460714Y-32534630D01*
X202460714Y-32534630D02*
X202460714Y-32689392D01*
X202460714Y-32689392D02*
X202429761Y-32751297D01*
X202429761Y-32751297D02*
X202398809Y-32782250D01*
X202398809Y-32782250D02*
X202336904Y-32813202D01*
X202336904Y-32813202D02*
X202151190Y-32813202D01*
X202151190Y-32813202D02*
X202089285Y-32782250D01*
X202089285Y-32782250D02*
X202058333Y-32751297D01*
%TO.C,R5*%
X206038066Y-32838102D02*
X205821399Y-32528578D01*
X205666637Y-32838102D02*
X205666637Y-32188102D01*
X205666637Y-32188102D02*
X205914256Y-32188102D01*
X205914256Y-32188102D02*
X205976161Y-32219054D01*
X205976161Y-32219054D02*
X206007114Y-32250007D01*
X206007114Y-32250007D02*
X206038066Y-32311911D01*
X206038066Y-32311911D02*
X206038066Y-32404769D01*
X206038066Y-32404769D02*
X206007114Y-32466673D01*
X206007114Y-32466673D02*
X205976161Y-32497626D01*
X205976161Y-32497626D02*
X205914256Y-32528578D01*
X205914256Y-32528578D02*
X205666637Y-32528578D01*
X206626161Y-32188102D02*
X206316637Y-32188102D01*
X206316637Y-32188102D02*
X206285685Y-32497626D01*
X206285685Y-32497626D02*
X206316637Y-32466673D01*
X206316637Y-32466673D02*
X206378542Y-32435721D01*
X206378542Y-32435721D02*
X206533304Y-32435721D01*
X206533304Y-32435721D02*
X206595209Y-32466673D01*
X206595209Y-32466673D02*
X206626161Y-32497626D01*
X206626161Y-32497626D02*
X206657114Y-32559530D01*
X206657114Y-32559530D02*
X206657114Y-32714292D01*
X206657114Y-32714292D02*
X206626161Y-32776197D01*
X206626161Y-32776197D02*
X206595209Y-32807150D01*
X206595209Y-32807150D02*
X206533304Y-32838102D01*
X206533304Y-32838102D02*
X206378542Y-32838102D01*
X206378542Y-32838102D02*
X206316637Y-32807150D01*
X206316637Y-32807150D02*
X206285685Y-32776197D01*
%TO.C,C22*%
X182594542Y-76515997D02*
X182563590Y-76546950D01*
X182563590Y-76546950D02*
X182470732Y-76577902D01*
X182470732Y-76577902D02*
X182408828Y-76577902D01*
X182408828Y-76577902D02*
X182315971Y-76546950D01*
X182315971Y-76546950D02*
X182254066Y-76485045D01*
X182254066Y-76485045D02*
X182223113Y-76423140D01*
X182223113Y-76423140D02*
X182192161Y-76299330D01*
X182192161Y-76299330D02*
X182192161Y-76206473D01*
X182192161Y-76206473D02*
X182223113Y-76082664D01*
X182223113Y-76082664D02*
X182254066Y-76020759D01*
X182254066Y-76020759D02*
X182315971Y-75958854D01*
X182315971Y-75958854D02*
X182408828Y-75927902D01*
X182408828Y-75927902D02*
X182470732Y-75927902D01*
X182470732Y-75927902D02*
X182563590Y-75958854D01*
X182563590Y-75958854D02*
X182594542Y-75989807D01*
X182842161Y-75989807D02*
X182873113Y-75958854D01*
X182873113Y-75958854D02*
X182935018Y-75927902D01*
X182935018Y-75927902D02*
X183089780Y-75927902D01*
X183089780Y-75927902D02*
X183151685Y-75958854D01*
X183151685Y-75958854D02*
X183182637Y-75989807D01*
X183182637Y-75989807D02*
X183213590Y-76051711D01*
X183213590Y-76051711D02*
X183213590Y-76113616D01*
X183213590Y-76113616D02*
X183182637Y-76206473D01*
X183182637Y-76206473D02*
X182811209Y-76577902D01*
X182811209Y-76577902D02*
X183213590Y-76577902D01*
X183461209Y-75989807D02*
X183492161Y-75958854D01*
X183492161Y-75958854D02*
X183554066Y-75927902D01*
X183554066Y-75927902D02*
X183708828Y-75927902D01*
X183708828Y-75927902D02*
X183770733Y-75958854D01*
X183770733Y-75958854D02*
X183801685Y-75989807D01*
X183801685Y-75989807D02*
X183832638Y-76051711D01*
X183832638Y-76051711D02*
X183832638Y-76113616D01*
X183832638Y-76113616D02*
X183801685Y-76206473D01*
X183801685Y-76206473D02*
X183430257Y-76577902D01*
X183430257Y-76577902D02*
X183832638Y-76577902D01*
%TO.C,U9*%
X190029761Y-50675702D02*
X190029761Y-51201892D01*
X190029761Y-51201892D02*
X190060714Y-51263797D01*
X190060714Y-51263797D02*
X190091666Y-51294750D01*
X190091666Y-51294750D02*
X190153571Y-51325702D01*
X190153571Y-51325702D02*
X190277380Y-51325702D01*
X190277380Y-51325702D02*
X190339285Y-51294750D01*
X190339285Y-51294750D02*
X190370238Y-51263797D01*
X190370238Y-51263797D02*
X190401190Y-51201892D01*
X190401190Y-51201892D02*
X190401190Y-50675702D01*
X190741666Y-51325702D02*
X190865475Y-51325702D01*
X190865475Y-51325702D02*
X190927380Y-51294750D01*
X190927380Y-51294750D02*
X190958332Y-51263797D01*
X190958332Y-51263797D02*
X191020237Y-51170940D01*
X191020237Y-51170940D02*
X191051190Y-51047130D01*
X191051190Y-51047130D02*
X191051190Y-50799511D01*
X191051190Y-50799511D02*
X191020237Y-50737607D01*
X191020237Y-50737607D02*
X190989285Y-50706654D01*
X190989285Y-50706654D02*
X190927380Y-50675702D01*
X190927380Y-50675702D02*
X190803571Y-50675702D01*
X190803571Y-50675702D02*
X190741666Y-50706654D01*
X190741666Y-50706654D02*
X190710713Y-50737607D01*
X190710713Y-50737607D02*
X190679761Y-50799511D01*
X190679761Y-50799511D02*
X190679761Y-50954273D01*
X190679761Y-50954273D02*
X190710713Y-51016178D01*
X190710713Y-51016178D02*
X190741666Y-51047130D01*
X190741666Y-51047130D02*
X190803571Y-51078083D01*
X190803571Y-51078083D02*
X190927380Y-51078083D01*
X190927380Y-51078083D02*
X190989285Y-51047130D01*
X190989285Y-51047130D02*
X191020237Y-51016178D01*
X191020237Y-51016178D02*
X191051190Y-50954273D01*
%TO.C,R14*%
X185706102Y-77157557D02*
X185396578Y-77374224D01*
X185706102Y-77528986D02*
X185056102Y-77528986D01*
X185056102Y-77528986D02*
X185056102Y-77281367D01*
X185056102Y-77281367D02*
X185087054Y-77219462D01*
X185087054Y-77219462D02*
X185118007Y-77188509D01*
X185118007Y-77188509D02*
X185179911Y-77157557D01*
X185179911Y-77157557D02*
X185272769Y-77157557D01*
X185272769Y-77157557D02*
X185334673Y-77188509D01*
X185334673Y-77188509D02*
X185365626Y-77219462D01*
X185365626Y-77219462D02*
X185396578Y-77281367D01*
X185396578Y-77281367D02*
X185396578Y-77528986D01*
X185706102Y-76538509D02*
X185706102Y-76909938D01*
X185706102Y-76724224D02*
X185056102Y-76724224D01*
X185056102Y-76724224D02*
X185148959Y-76786128D01*
X185148959Y-76786128D02*
X185210864Y-76848033D01*
X185210864Y-76848033D02*
X185241816Y-76909938D01*
X185272769Y-75981366D02*
X185706102Y-75981366D01*
X185025150Y-76136128D02*
X185489435Y-76290890D01*
X185489435Y-76290890D02*
X185489435Y-75888509D01*
%TO.C,R1*%
X179450702Y-43358333D02*
X179141178Y-43575000D01*
X179450702Y-43729762D02*
X178800702Y-43729762D01*
X178800702Y-43729762D02*
X178800702Y-43482143D01*
X178800702Y-43482143D02*
X178831654Y-43420238D01*
X178831654Y-43420238D02*
X178862607Y-43389285D01*
X178862607Y-43389285D02*
X178924511Y-43358333D01*
X178924511Y-43358333D02*
X179017369Y-43358333D01*
X179017369Y-43358333D02*
X179079273Y-43389285D01*
X179079273Y-43389285D02*
X179110226Y-43420238D01*
X179110226Y-43420238D02*
X179141178Y-43482143D01*
X179141178Y-43482143D02*
X179141178Y-43729762D01*
X179450702Y-42739285D02*
X179450702Y-43110714D01*
X179450702Y-42925000D02*
X178800702Y-42925000D01*
X178800702Y-42925000D02*
X178893559Y-42986904D01*
X178893559Y-42986904D02*
X178955464Y-43048809D01*
X178955464Y-43048809D02*
X178986416Y-43110714D01*
%TO.C,C3*%
X183533666Y-21498597D02*
X183502714Y-21529550D01*
X183502714Y-21529550D02*
X183409856Y-21560502D01*
X183409856Y-21560502D02*
X183347952Y-21560502D01*
X183347952Y-21560502D02*
X183255095Y-21529550D01*
X183255095Y-21529550D02*
X183193190Y-21467645D01*
X183193190Y-21467645D02*
X183162237Y-21405740D01*
X183162237Y-21405740D02*
X183131285Y-21281930D01*
X183131285Y-21281930D02*
X183131285Y-21189073D01*
X183131285Y-21189073D02*
X183162237Y-21065264D01*
X183162237Y-21065264D02*
X183193190Y-21003359D01*
X183193190Y-21003359D02*
X183255095Y-20941454D01*
X183255095Y-20941454D02*
X183347952Y-20910502D01*
X183347952Y-20910502D02*
X183409856Y-20910502D01*
X183409856Y-20910502D02*
X183502714Y-20941454D01*
X183502714Y-20941454D02*
X183533666Y-20972407D01*
X183750333Y-20910502D02*
X184152714Y-20910502D01*
X184152714Y-20910502D02*
X183936047Y-21158121D01*
X183936047Y-21158121D02*
X184028904Y-21158121D01*
X184028904Y-21158121D02*
X184090809Y-21189073D01*
X184090809Y-21189073D02*
X184121761Y-21220026D01*
X184121761Y-21220026D02*
X184152714Y-21281930D01*
X184152714Y-21281930D02*
X184152714Y-21436692D01*
X184152714Y-21436692D02*
X184121761Y-21498597D01*
X184121761Y-21498597D02*
X184090809Y-21529550D01*
X184090809Y-21529550D02*
X184028904Y-21560502D01*
X184028904Y-21560502D02*
X183843190Y-21560502D01*
X183843190Y-21560502D02*
X183781285Y-21529550D01*
X183781285Y-21529550D02*
X183750333Y-21498597D01*
%TO.C,C21*%
X179782142Y-55788597D02*
X179751190Y-55819550D01*
X179751190Y-55819550D02*
X179658332Y-55850502D01*
X179658332Y-55850502D02*
X179596428Y-55850502D01*
X179596428Y-55850502D02*
X179503571Y-55819550D01*
X179503571Y-55819550D02*
X179441666Y-55757645D01*
X179441666Y-55757645D02*
X179410713Y-55695740D01*
X179410713Y-55695740D02*
X179379761Y-55571930D01*
X179379761Y-55571930D02*
X179379761Y-55479073D01*
X179379761Y-55479073D02*
X179410713Y-55355264D01*
X179410713Y-55355264D02*
X179441666Y-55293359D01*
X179441666Y-55293359D02*
X179503571Y-55231454D01*
X179503571Y-55231454D02*
X179596428Y-55200502D01*
X179596428Y-55200502D02*
X179658332Y-55200502D01*
X179658332Y-55200502D02*
X179751190Y-55231454D01*
X179751190Y-55231454D02*
X179782142Y-55262407D01*
X180029761Y-55262407D02*
X180060713Y-55231454D01*
X180060713Y-55231454D02*
X180122618Y-55200502D01*
X180122618Y-55200502D02*
X180277380Y-55200502D01*
X180277380Y-55200502D02*
X180339285Y-55231454D01*
X180339285Y-55231454D02*
X180370237Y-55262407D01*
X180370237Y-55262407D02*
X180401190Y-55324311D01*
X180401190Y-55324311D02*
X180401190Y-55386216D01*
X180401190Y-55386216D02*
X180370237Y-55479073D01*
X180370237Y-55479073D02*
X179998809Y-55850502D01*
X179998809Y-55850502D02*
X180401190Y-55850502D01*
X181020238Y-55850502D02*
X180648809Y-55850502D01*
X180834523Y-55850502D02*
X180834523Y-55200502D01*
X180834523Y-55200502D02*
X180772619Y-55293359D01*
X180772619Y-55293359D02*
X180710714Y-55355264D01*
X180710714Y-55355264D02*
X180648809Y-55386216D01*
%TO.C,D2*%
X207158302Y-22653962D02*
X206508302Y-22653962D01*
X206508302Y-22653962D02*
X206508302Y-22499200D01*
X206508302Y-22499200D02*
X206539254Y-22406343D01*
X206539254Y-22406343D02*
X206601159Y-22344438D01*
X206601159Y-22344438D02*
X206663064Y-22313485D01*
X206663064Y-22313485D02*
X206786873Y-22282533D01*
X206786873Y-22282533D02*
X206879730Y-22282533D01*
X206879730Y-22282533D02*
X207003540Y-22313485D01*
X207003540Y-22313485D02*
X207065445Y-22344438D01*
X207065445Y-22344438D02*
X207127350Y-22406343D01*
X207127350Y-22406343D02*
X207158302Y-22499200D01*
X207158302Y-22499200D02*
X207158302Y-22653962D01*
X206570207Y-22034914D02*
X206539254Y-22003962D01*
X206539254Y-22003962D02*
X206508302Y-21942057D01*
X206508302Y-21942057D02*
X206508302Y-21787295D01*
X206508302Y-21787295D02*
X206539254Y-21725390D01*
X206539254Y-21725390D02*
X206570207Y-21694438D01*
X206570207Y-21694438D02*
X206632111Y-21663485D01*
X206632111Y-21663485D02*
X206694016Y-21663485D01*
X206694016Y-21663485D02*
X206786873Y-21694438D01*
X206786873Y-21694438D02*
X207158302Y-22065866D01*
X207158302Y-22065866D02*
X207158302Y-21663485D01*
%TO.C,D3*%
X207590102Y-39900562D02*
X206940102Y-39900562D01*
X206940102Y-39900562D02*
X206940102Y-39745800D01*
X206940102Y-39745800D02*
X206971054Y-39652943D01*
X206971054Y-39652943D02*
X207032959Y-39591038D01*
X207032959Y-39591038D02*
X207094864Y-39560085D01*
X207094864Y-39560085D02*
X207218673Y-39529133D01*
X207218673Y-39529133D02*
X207311530Y-39529133D01*
X207311530Y-39529133D02*
X207435340Y-39560085D01*
X207435340Y-39560085D02*
X207497245Y-39591038D01*
X207497245Y-39591038D02*
X207559150Y-39652943D01*
X207559150Y-39652943D02*
X207590102Y-39745800D01*
X207590102Y-39745800D02*
X207590102Y-39900562D01*
X206940102Y-39312466D02*
X206940102Y-38910085D01*
X206940102Y-38910085D02*
X207187721Y-39126752D01*
X207187721Y-39126752D02*
X207187721Y-39033895D01*
X207187721Y-39033895D02*
X207218673Y-38971990D01*
X207218673Y-38971990D02*
X207249626Y-38941038D01*
X207249626Y-38941038D02*
X207311530Y-38910085D01*
X207311530Y-38910085D02*
X207466292Y-38910085D01*
X207466292Y-38910085D02*
X207528197Y-38941038D01*
X207528197Y-38941038D02*
X207559150Y-38971990D01*
X207559150Y-38971990D02*
X207590102Y-39033895D01*
X207590102Y-39033895D02*
X207590102Y-39219609D01*
X207590102Y-39219609D02*
X207559150Y-39281514D01*
X207559150Y-39281514D02*
X207528197Y-39312466D01*
%TO.C,CON4*%
X204153997Y-84669585D02*
X204184950Y-84700537D01*
X204184950Y-84700537D02*
X204215902Y-84793395D01*
X204215902Y-84793395D02*
X204215902Y-84855299D01*
X204215902Y-84855299D02*
X204184950Y-84948156D01*
X204184950Y-84948156D02*
X204123045Y-85010061D01*
X204123045Y-85010061D02*
X204061140Y-85041014D01*
X204061140Y-85041014D02*
X203937330Y-85071966D01*
X203937330Y-85071966D02*
X203844473Y-85071966D01*
X203844473Y-85071966D02*
X203720664Y-85041014D01*
X203720664Y-85041014D02*
X203658759Y-85010061D01*
X203658759Y-85010061D02*
X203596854Y-84948156D01*
X203596854Y-84948156D02*
X203565902Y-84855299D01*
X203565902Y-84855299D02*
X203565902Y-84793395D01*
X203565902Y-84793395D02*
X203596854Y-84700537D01*
X203596854Y-84700537D02*
X203627807Y-84669585D01*
X203565902Y-84267204D02*
X203565902Y-84143395D01*
X203565902Y-84143395D02*
X203596854Y-84081490D01*
X203596854Y-84081490D02*
X203658759Y-84019585D01*
X203658759Y-84019585D02*
X203782569Y-83988633D01*
X203782569Y-83988633D02*
X203999235Y-83988633D01*
X203999235Y-83988633D02*
X204123045Y-84019585D01*
X204123045Y-84019585D02*
X204184950Y-84081490D01*
X204184950Y-84081490D02*
X204215902Y-84143395D01*
X204215902Y-84143395D02*
X204215902Y-84267204D01*
X204215902Y-84267204D02*
X204184950Y-84329109D01*
X204184950Y-84329109D02*
X204123045Y-84391014D01*
X204123045Y-84391014D02*
X203999235Y-84421966D01*
X203999235Y-84421966D02*
X203782569Y-84421966D01*
X203782569Y-84421966D02*
X203658759Y-84391014D01*
X203658759Y-84391014D02*
X203596854Y-84329109D01*
X203596854Y-84329109D02*
X203565902Y-84267204D01*
X204215902Y-83710062D02*
X203565902Y-83710062D01*
X203565902Y-83710062D02*
X204215902Y-83338633D01*
X204215902Y-83338633D02*
X203565902Y-83338633D01*
X203782569Y-82750538D02*
X204215902Y-82750538D01*
X203534950Y-82905300D02*
X203999235Y-83060062D01*
X203999235Y-83060062D02*
X203999235Y-82657681D01*
%TO.C,R2*%
X181482702Y-43458333D02*
X181173178Y-43675000D01*
X181482702Y-43829762D02*
X180832702Y-43829762D01*
X180832702Y-43829762D02*
X180832702Y-43582143D01*
X180832702Y-43582143D02*
X180863654Y-43520238D01*
X180863654Y-43520238D02*
X180894607Y-43489285D01*
X180894607Y-43489285D02*
X180956511Y-43458333D01*
X180956511Y-43458333D02*
X181049369Y-43458333D01*
X181049369Y-43458333D02*
X181111273Y-43489285D01*
X181111273Y-43489285D02*
X181142226Y-43520238D01*
X181142226Y-43520238D02*
X181173178Y-43582143D01*
X181173178Y-43582143D02*
X181173178Y-43829762D01*
X180894607Y-43210714D02*
X180863654Y-43179762D01*
X180863654Y-43179762D02*
X180832702Y-43117857D01*
X180832702Y-43117857D02*
X180832702Y-42963095D01*
X180832702Y-42963095D02*
X180863654Y-42901190D01*
X180863654Y-42901190D02*
X180894607Y-42870238D01*
X180894607Y-42870238D02*
X180956511Y-42839285D01*
X180956511Y-42839285D02*
X181018416Y-42839285D01*
X181018416Y-42839285D02*
X181111273Y-42870238D01*
X181111273Y-42870238D02*
X181482702Y-43241666D01*
X181482702Y-43241666D02*
X181482702Y-42839285D01*
%TO.C,U2*%
X198481902Y-48145638D02*
X199008092Y-48145638D01*
X199008092Y-48145638D02*
X199069997Y-48114685D01*
X199069997Y-48114685D02*
X199100950Y-48083733D01*
X199100950Y-48083733D02*
X199131902Y-48021828D01*
X199131902Y-48021828D02*
X199131902Y-47898019D01*
X199131902Y-47898019D02*
X199100950Y-47836114D01*
X199100950Y-47836114D02*
X199069997Y-47805161D01*
X199069997Y-47805161D02*
X199008092Y-47774209D01*
X199008092Y-47774209D02*
X198481902Y-47774209D01*
X198543807Y-47495638D02*
X198512854Y-47464686D01*
X198512854Y-47464686D02*
X198481902Y-47402781D01*
X198481902Y-47402781D02*
X198481902Y-47248019D01*
X198481902Y-47248019D02*
X198512854Y-47186114D01*
X198512854Y-47186114D02*
X198543807Y-47155162D01*
X198543807Y-47155162D02*
X198605711Y-47124209D01*
X198605711Y-47124209D02*
X198667616Y-47124209D01*
X198667616Y-47124209D02*
X198760473Y-47155162D01*
X198760473Y-47155162D02*
X199131902Y-47526590D01*
X199131902Y-47526590D02*
X199131902Y-47124209D01*
%TO.C,C10*%
X198287797Y-42255757D02*
X198318750Y-42286709D01*
X198318750Y-42286709D02*
X198349702Y-42379567D01*
X198349702Y-42379567D02*
X198349702Y-42441471D01*
X198349702Y-42441471D02*
X198318750Y-42534328D01*
X198318750Y-42534328D02*
X198256845Y-42596233D01*
X198256845Y-42596233D02*
X198194940Y-42627186D01*
X198194940Y-42627186D02*
X198071130Y-42658138D01*
X198071130Y-42658138D02*
X197978273Y-42658138D01*
X197978273Y-42658138D02*
X197854464Y-42627186D01*
X197854464Y-42627186D02*
X197792559Y-42596233D01*
X197792559Y-42596233D02*
X197730654Y-42534328D01*
X197730654Y-42534328D02*
X197699702Y-42441471D01*
X197699702Y-42441471D02*
X197699702Y-42379567D01*
X197699702Y-42379567D02*
X197730654Y-42286709D01*
X197730654Y-42286709D02*
X197761607Y-42255757D01*
X198349702Y-41636709D02*
X198349702Y-42008138D01*
X198349702Y-41822424D02*
X197699702Y-41822424D01*
X197699702Y-41822424D02*
X197792559Y-41884328D01*
X197792559Y-41884328D02*
X197854464Y-41946233D01*
X197854464Y-41946233D02*
X197885416Y-42008138D01*
X197699702Y-41234328D02*
X197699702Y-41172423D01*
X197699702Y-41172423D02*
X197730654Y-41110519D01*
X197730654Y-41110519D02*
X197761607Y-41079566D01*
X197761607Y-41079566D02*
X197823511Y-41048614D01*
X197823511Y-41048614D02*
X197947321Y-41017661D01*
X197947321Y-41017661D02*
X198102083Y-41017661D01*
X198102083Y-41017661D02*
X198225892Y-41048614D01*
X198225892Y-41048614D02*
X198287797Y-41079566D01*
X198287797Y-41079566D02*
X198318750Y-41110519D01*
X198318750Y-41110519D02*
X198349702Y-41172423D01*
X198349702Y-41172423D02*
X198349702Y-41234328D01*
X198349702Y-41234328D02*
X198318750Y-41296233D01*
X198318750Y-41296233D02*
X198287797Y-41327185D01*
X198287797Y-41327185D02*
X198225892Y-41358138D01*
X198225892Y-41358138D02*
X198102083Y-41389090D01*
X198102083Y-41389090D02*
X197947321Y-41389090D01*
X197947321Y-41389090D02*
X197823511Y-41358138D01*
X197823511Y-41358138D02*
X197761607Y-41327185D01*
X197761607Y-41327185D02*
X197730654Y-41296233D01*
X197730654Y-41296233D02*
X197699702Y-41234328D01*
%TO.C,C2*%
X183533666Y-23809997D02*
X183502714Y-23840950D01*
X183502714Y-23840950D02*
X183409856Y-23871902D01*
X183409856Y-23871902D02*
X183347952Y-23871902D01*
X183347952Y-23871902D02*
X183255095Y-23840950D01*
X183255095Y-23840950D02*
X183193190Y-23779045D01*
X183193190Y-23779045D02*
X183162237Y-23717140D01*
X183162237Y-23717140D02*
X183131285Y-23593330D01*
X183131285Y-23593330D02*
X183131285Y-23500473D01*
X183131285Y-23500473D02*
X183162237Y-23376664D01*
X183162237Y-23376664D02*
X183193190Y-23314759D01*
X183193190Y-23314759D02*
X183255095Y-23252854D01*
X183255095Y-23252854D02*
X183347952Y-23221902D01*
X183347952Y-23221902D02*
X183409856Y-23221902D01*
X183409856Y-23221902D02*
X183502714Y-23252854D01*
X183502714Y-23252854D02*
X183533666Y-23283807D01*
X183781285Y-23283807D02*
X183812237Y-23252854D01*
X183812237Y-23252854D02*
X183874142Y-23221902D01*
X183874142Y-23221902D02*
X184028904Y-23221902D01*
X184028904Y-23221902D02*
X184090809Y-23252854D01*
X184090809Y-23252854D02*
X184121761Y-23283807D01*
X184121761Y-23283807D02*
X184152714Y-23345711D01*
X184152714Y-23345711D02*
X184152714Y-23407616D01*
X184152714Y-23407616D02*
X184121761Y-23500473D01*
X184121761Y-23500473D02*
X183750333Y-23871902D01*
X183750333Y-23871902D02*
X184152714Y-23871902D01*
%TO.C,C16*%
X198959597Y-77252557D02*
X198990550Y-77283509D01*
X198990550Y-77283509D02*
X199021502Y-77376367D01*
X199021502Y-77376367D02*
X199021502Y-77438271D01*
X199021502Y-77438271D02*
X198990550Y-77531128D01*
X198990550Y-77531128D02*
X198928645Y-77593033D01*
X198928645Y-77593033D02*
X198866740Y-77623986D01*
X198866740Y-77623986D02*
X198742930Y-77654938D01*
X198742930Y-77654938D02*
X198650073Y-77654938D01*
X198650073Y-77654938D02*
X198526264Y-77623986D01*
X198526264Y-77623986D02*
X198464359Y-77593033D01*
X198464359Y-77593033D02*
X198402454Y-77531128D01*
X198402454Y-77531128D02*
X198371502Y-77438271D01*
X198371502Y-77438271D02*
X198371502Y-77376367D01*
X198371502Y-77376367D02*
X198402454Y-77283509D01*
X198402454Y-77283509D02*
X198433407Y-77252557D01*
X199021502Y-76633509D02*
X199021502Y-77004938D01*
X199021502Y-76819224D02*
X198371502Y-76819224D01*
X198371502Y-76819224D02*
X198464359Y-76881128D01*
X198464359Y-76881128D02*
X198526264Y-76943033D01*
X198526264Y-76943033D02*
X198557216Y-77004938D01*
X198371502Y-76076366D02*
X198371502Y-76200176D01*
X198371502Y-76200176D02*
X198402454Y-76262080D01*
X198402454Y-76262080D02*
X198433407Y-76293033D01*
X198433407Y-76293033D02*
X198526264Y-76354938D01*
X198526264Y-76354938D02*
X198650073Y-76385890D01*
X198650073Y-76385890D02*
X198897692Y-76385890D01*
X198897692Y-76385890D02*
X198959597Y-76354938D01*
X198959597Y-76354938D02*
X198990550Y-76323985D01*
X198990550Y-76323985D02*
X199021502Y-76262080D01*
X199021502Y-76262080D02*
X199021502Y-76138271D01*
X199021502Y-76138271D02*
X198990550Y-76076366D01*
X198990550Y-76076366D02*
X198959597Y-76045414D01*
X198959597Y-76045414D02*
X198897692Y-76014461D01*
X198897692Y-76014461D02*
X198742930Y-76014461D01*
X198742930Y-76014461D02*
X198681026Y-76045414D01*
X198681026Y-76045414D02*
X198650073Y-76076366D01*
X198650073Y-76076366D02*
X198619121Y-76138271D01*
X198619121Y-76138271D02*
X198619121Y-76262080D01*
X198619121Y-76262080D02*
X198650073Y-76323985D01*
X198650073Y-76323985D02*
X198681026Y-76354938D01*
X198681026Y-76354938D02*
X198742930Y-76385890D01*
%TO.C,LED1*%
X189262102Y-69838080D02*
X189262102Y-70147604D01*
X189262102Y-70147604D02*
X188612102Y-70147604D01*
X188921626Y-69621414D02*
X188921626Y-69404747D01*
X189262102Y-69311890D02*
X189262102Y-69621414D01*
X189262102Y-69621414D02*
X188612102Y-69621414D01*
X188612102Y-69621414D02*
X188612102Y-69311890D01*
X189262102Y-69033319D02*
X188612102Y-69033319D01*
X188612102Y-69033319D02*
X188612102Y-68878557D01*
X188612102Y-68878557D02*
X188643054Y-68785700D01*
X188643054Y-68785700D02*
X188704959Y-68723795D01*
X188704959Y-68723795D02*
X188766864Y-68692842D01*
X188766864Y-68692842D02*
X188890673Y-68661890D01*
X188890673Y-68661890D02*
X188983530Y-68661890D01*
X188983530Y-68661890D02*
X189107340Y-68692842D01*
X189107340Y-68692842D02*
X189169245Y-68723795D01*
X189169245Y-68723795D02*
X189231150Y-68785700D01*
X189231150Y-68785700D02*
X189262102Y-68878557D01*
X189262102Y-68878557D02*
X189262102Y-69033319D01*
X189262102Y-68042842D02*
X189262102Y-68414271D01*
X189262102Y-68228557D02*
X188612102Y-68228557D01*
X188612102Y-68228557D02*
X188704959Y-68290461D01*
X188704959Y-68290461D02*
X188766864Y-68352366D01*
X188766864Y-68352366D02*
X188797816Y-68414271D01*
%TO.C,C20*%
X179795142Y-64653197D02*
X179764190Y-64684150D01*
X179764190Y-64684150D02*
X179671332Y-64715102D01*
X179671332Y-64715102D02*
X179609428Y-64715102D01*
X179609428Y-64715102D02*
X179516571Y-64684150D01*
X179516571Y-64684150D02*
X179454666Y-64622245D01*
X179454666Y-64622245D02*
X179423713Y-64560340D01*
X179423713Y-64560340D02*
X179392761Y-64436530D01*
X179392761Y-64436530D02*
X179392761Y-64343673D01*
X179392761Y-64343673D02*
X179423713Y-64219864D01*
X179423713Y-64219864D02*
X179454666Y-64157959D01*
X179454666Y-64157959D02*
X179516571Y-64096054D01*
X179516571Y-64096054D02*
X179609428Y-64065102D01*
X179609428Y-64065102D02*
X179671332Y-64065102D01*
X179671332Y-64065102D02*
X179764190Y-64096054D01*
X179764190Y-64096054D02*
X179795142Y-64127007D01*
X180042761Y-64127007D02*
X180073713Y-64096054D01*
X180073713Y-64096054D02*
X180135618Y-64065102D01*
X180135618Y-64065102D02*
X180290380Y-64065102D01*
X180290380Y-64065102D02*
X180352285Y-64096054D01*
X180352285Y-64096054D02*
X180383237Y-64127007D01*
X180383237Y-64127007D02*
X180414190Y-64188911D01*
X180414190Y-64188911D02*
X180414190Y-64250816D01*
X180414190Y-64250816D02*
X180383237Y-64343673D01*
X180383237Y-64343673D02*
X180011809Y-64715102D01*
X180011809Y-64715102D02*
X180414190Y-64715102D01*
X180816571Y-64065102D02*
X180878476Y-64065102D01*
X180878476Y-64065102D02*
X180940380Y-64096054D01*
X180940380Y-64096054D02*
X180971333Y-64127007D01*
X180971333Y-64127007D02*
X181002285Y-64188911D01*
X181002285Y-64188911D02*
X181033238Y-64312721D01*
X181033238Y-64312721D02*
X181033238Y-64467483D01*
X181033238Y-64467483D02*
X181002285Y-64591292D01*
X181002285Y-64591292D02*
X180971333Y-64653197D01*
X180971333Y-64653197D02*
X180940380Y-64684150D01*
X180940380Y-64684150D02*
X180878476Y-64715102D01*
X180878476Y-64715102D02*
X180816571Y-64715102D01*
X180816571Y-64715102D02*
X180754666Y-64684150D01*
X180754666Y-64684150D02*
X180723714Y-64653197D01*
X180723714Y-64653197D02*
X180692761Y-64591292D01*
X180692761Y-64591292D02*
X180661809Y-64467483D01*
X180661809Y-64467483D02*
X180661809Y-64312721D01*
X180661809Y-64312721D02*
X180692761Y-64188911D01*
X180692761Y-64188911D02*
X180723714Y-64127007D01*
X180723714Y-64127007D02*
X180754666Y-64096054D01*
X180754666Y-64096054D02*
X180816571Y-64065102D01*
%TO.C,C7*%
X194396397Y-41738933D02*
X194427350Y-41769885D01*
X194427350Y-41769885D02*
X194458302Y-41862743D01*
X194458302Y-41862743D02*
X194458302Y-41924647D01*
X194458302Y-41924647D02*
X194427350Y-42017504D01*
X194427350Y-42017504D02*
X194365445Y-42079409D01*
X194365445Y-42079409D02*
X194303540Y-42110362D01*
X194303540Y-42110362D02*
X194179730Y-42141314D01*
X194179730Y-42141314D02*
X194086873Y-42141314D01*
X194086873Y-42141314D02*
X193963064Y-42110362D01*
X193963064Y-42110362D02*
X193901159Y-42079409D01*
X193901159Y-42079409D02*
X193839254Y-42017504D01*
X193839254Y-42017504D02*
X193808302Y-41924647D01*
X193808302Y-41924647D02*
X193808302Y-41862743D01*
X193808302Y-41862743D02*
X193839254Y-41769885D01*
X193839254Y-41769885D02*
X193870207Y-41738933D01*
X193808302Y-41522266D02*
X193808302Y-41088933D01*
X193808302Y-41088933D02*
X194458302Y-41367504D01*
%TO.C,R8*%
X201340702Y-46508333D02*
X201031178Y-46725000D01*
X201340702Y-46879762D02*
X200690702Y-46879762D01*
X200690702Y-46879762D02*
X200690702Y-46632143D01*
X200690702Y-46632143D02*
X200721654Y-46570238D01*
X200721654Y-46570238D02*
X200752607Y-46539285D01*
X200752607Y-46539285D02*
X200814511Y-46508333D01*
X200814511Y-46508333D02*
X200907369Y-46508333D01*
X200907369Y-46508333D02*
X200969273Y-46539285D01*
X200969273Y-46539285D02*
X201000226Y-46570238D01*
X201000226Y-46570238D02*
X201031178Y-46632143D01*
X201031178Y-46632143D02*
X201031178Y-46879762D01*
X200969273Y-46136904D02*
X200938321Y-46198809D01*
X200938321Y-46198809D02*
X200907369Y-46229762D01*
X200907369Y-46229762D02*
X200845464Y-46260714D01*
X200845464Y-46260714D02*
X200814511Y-46260714D01*
X200814511Y-46260714D02*
X200752607Y-46229762D01*
X200752607Y-46229762D02*
X200721654Y-46198809D01*
X200721654Y-46198809D02*
X200690702Y-46136904D01*
X200690702Y-46136904D02*
X200690702Y-46013095D01*
X200690702Y-46013095D02*
X200721654Y-45951190D01*
X200721654Y-45951190D02*
X200752607Y-45920238D01*
X200752607Y-45920238D02*
X200814511Y-45889285D01*
X200814511Y-45889285D02*
X200845464Y-45889285D01*
X200845464Y-45889285D02*
X200907369Y-45920238D01*
X200907369Y-45920238D02*
X200938321Y-45951190D01*
X200938321Y-45951190D02*
X200969273Y-46013095D01*
X200969273Y-46013095D02*
X200969273Y-46136904D01*
X200969273Y-46136904D02*
X201000226Y-46198809D01*
X201000226Y-46198809D02*
X201031178Y-46229762D01*
X201031178Y-46229762D02*
X201093083Y-46260714D01*
X201093083Y-46260714D02*
X201216892Y-46260714D01*
X201216892Y-46260714D02*
X201278797Y-46229762D01*
X201278797Y-46229762D02*
X201309750Y-46198809D01*
X201309750Y-46198809D02*
X201340702Y-46136904D01*
X201340702Y-46136904D02*
X201340702Y-46013095D01*
X201340702Y-46013095D02*
X201309750Y-45951190D01*
X201309750Y-45951190D02*
X201278797Y-45920238D01*
X201278797Y-45920238D02*
X201216892Y-45889285D01*
X201216892Y-45889285D02*
X201093083Y-45889285D01*
X201093083Y-45889285D02*
X201031178Y-45920238D01*
X201031178Y-45920238D02*
X201000226Y-45951190D01*
X201000226Y-45951190D02*
X200969273Y-46013095D01*
%TO.C,U5*%
X189236302Y-41490838D02*
X189762492Y-41490838D01*
X189762492Y-41490838D02*
X189824397Y-41459885D01*
X189824397Y-41459885D02*
X189855350Y-41428933D01*
X189855350Y-41428933D02*
X189886302Y-41367028D01*
X189886302Y-41367028D02*
X189886302Y-41243219D01*
X189886302Y-41243219D02*
X189855350Y-41181314D01*
X189855350Y-41181314D02*
X189824397Y-41150361D01*
X189824397Y-41150361D02*
X189762492Y-41119409D01*
X189762492Y-41119409D02*
X189236302Y-41119409D01*
X189236302Y-40500362D02*
X189236302Y-40809886D01*
X189236302Y-40809886D02*
X189545826Y-40840838D01*
X189545826Y-40840838D02*
X189514873Y-40809886D01*
X189514873Y-40809886D02*
X189483921Y-40747981D01*
X189483921Y-40747981D02*
X189483921Y-40593219D01*
X189483921Y-40593219D02*
X189514873Y-40531314D01*
X189514873Y-40531314D02*
X189545826Y-40500362D01*
X189545826Y-40500362D02*
X189607730Y-40469409D01*
X189607730Y-40469409D02*
X189762492Y-40469409D01*
X189762492Y-40469409D02*
X189824397Y-40500362D01*
X189824397Y-40500362D02*
X189855350Y-40531314D01*
X189855350Y-40531314D02*
X189886302Y-40593219D01*
X189886302Y-40593219D02*
X189886302Y-40747981D01*
X189886302Y-40747981D02*
X189855350Y-40809886D01*
X189855350Y-40809886D02*
X189824397Y-40840838D01*
%TO.C,D1*%
X207234502Y-19783762D02*
X206584502Y-19783762D01*
X206584502Y-19783762D02*
X206584502Y-19629000D01*
X206584502Y-19629000D02*
X206615454Y-19536143D01*
X206615454Y-19536143D02*
X206677359Y-19474238D01*
X206677359Y-19474238D02*
X206739264Y-19443285D01*
X206739264Y-19443285D02*
X206863073Y-19412333D01*
X206863073Y-19412333D02*
X206955930Y-19412333D01*
X206955930Y-19412333D02*
X207079740Y-19443285D01*
X207079740Y-19443285D02*
X207141645Y-19474238D01*
X207141645Y-19474238D02*
X207203550Y-19536143D01*
X207203550Y-19536143D02*
X207234502Y-19629000D01*
X207234502Y-19629000D02*
X207234502Y-19783762D01*
X207234502Y-18793285D02*
X207234502Y-19164714D01*
X207234502Y-18979000D02*
X206584502Y-18979000D01*
X206584502Y-18979000D02*
X206677359Y-19040904D01*
X206677359Y-19040904D02*
X206739264Y-19102809D01*
X206739264Y-19102809D02*
X206770216Y-19164714D01*
%TO.C,U3*%
X189750702Y-33445238D02*
X190276892Y-33445238D01*
X190276892Y-33445238D02*
X190338797Y-33414285D01*
X190338797Y-33414285D02*
X190369750Y-33383333D01*
X190369750Y-33383333D02*
X190400702Y-33321428D01*
X190400702Y-33321428D02*
X190400702Y-33197619D01*
X190400702Y-33197619D02*
X190369750Y-33135714D01*
X190369750Y-33135714D02*
X190338797Y-33104761D01*
X190338797Y-33104761D02*
X190276892Y-33073809D01*
X190276892Y-33073809D02*
X189750702Y-33073809D01*
X189750702Y-32826190D02*
X189750702Y-32423809D01*
X189750702Y-32423809D02*
X189998321Y-32640476D01*
X189998321Y-32640476D02*
X189998321Y-32547619D01*
X189998321Y-32547619D02*
X190029273Y-32485714D01*
X190029273Y-32485714D02*
X190060226Y-32454762D01*
X190060226Y-32454762D02*
X190122130Y-32423809D01*
X190122130Y-32423809D02*
X190276892Y-32423809D01*
X190276892Y-32423809D02*
X190338797Y-32454762D01*
X190338797Y-32454762D02*
X190369750Y-32485714D01*
X190369750Y-32485714D02*
X190400702Y-32547619D01*
X190400702Y-32547619D02*
X190400702Y-32733333D01*
X190400702Y-32733333D02*
X190369750Y-32795238D01*
X190369750Y-32795238D02*
X190338797Y-32826190D01*
%TO.C,C23*%
X180062542Y-76577997D02*
X180031590Y-76608950D01*
X180031590Y-76608950D02*
X179938732Y-76639902D01*
X179938732Y-76639902D02*
X179876828Y-76639902D01*
X179876828Y-76639902D02*
X179783971Y-76608950D01*
X179783971Y-76608950D02*
X179722066Y-76547045D01*
X179722066Y-76547045D02*
X179691113Y-76485140D01*
X179691113Y-76485140D02*
X179660161Y-76361330D01*
X179660161Y-76361330D02*
X179660161Y-76268473D01*
X179660161Y-76268473D02*
X179691113Y-76144664D01*
X179691113Y-76144664D02*
X179722066Y-76082759D01*
X179722066Y-76082759D02*
X179783971Y-76020854D01*
X179783971Y-76020854D02*
X179876828Y-75989902D01*
X179876828Y-75989902D02*
X179938732Y-75989902D01*
X179938732Y-75989902D02*
X180031590Y-76020854D01*
X180031590Y-76020854D02*
X180062542Y-76051807D01*
X180310161Y-76051807D02*
X180341113Y-76020854D01*
X180341113Y-76020854D02*
X180403018Y-75989902D01*
X180403018Y-75989902D02*
X180557780Y-75989902D01*
X180557780Y-75989902D02*
X180619685Y-76020854D01*
X180619685Y-76020854D02*
X180650637Y-76051807D01*
X180650637Y-76051807D02*
X180681590Y-76113711D01*
X180681590Y-76113711D02*
X180681590Y-76175616D01*
X180681590Y-76175616D02*
X180650637Y-76268473D01*
X180650637Y-76268473D02*
X180279209Y-76639902D01*
X180279209Y-76639902D02*
X180681590Y-76639902D01*
X180898257Y-75989902D02*
X181300638Y-75989902D01*
X181300638Y-75989902D02*
X181083971Y-76237521D01*
X181083971Y-76237521D02*
X181176828Y-76237521D01*
X181176828Y-76237521D02*
X181238733Y-76268473D01*
X181238733Y-76268473D02*
X181269685Y-76299426D01*
X181269685Y-76299426D02*
X181300638Y-76361330D01*
X181300638Y-76361330D02*
X181300638Y-76516092D01*
X181300638Y-76516092D02*
X181269685Y-76577997D01*
X181269685Y-76577997D02*
X181238733Y-76608950D01*
X181238733Y-76608950D02*
X181176828Y-76639902D01*
X181176828Y-76639902D02*
X180991114Y-76639902D01*
X180991114Y-76639902D02*
X180929209Y-76608950D01*
X180929209Y-76608950D02*
X180898257Y-76577997D01*
%TO.C,C17*%
X197035597Y-77185057D02*
X197066550Y-77216009D01*
X197066550Y-77216009D02*
X197097502Y-77308867D01*
X197097502Y-77308867D02*
X197097502Y-77370771D01*
X197097502Y-77370771D02*
X197066550Y-77463628D01*
X197066550Y-77463628D02*
X197004645Y-77525533D01*
X197004645Y-77525533D02*
X196942740Y-77556486D01*
X196942740Y-77556486D02*
X196818930Y-77587438D01*
X196818930Y-77587438D02*
X196726073Y-77587438D01*
X196726073Y-77587438D02*
X196602264Y-77556486D01*
X196602264Y-77556486D02*
X196540359Y-77525533D01*
X196540359Y-77525533D02*
X196478454Y-77463628D01*
X196478454Y-77463628D02*
X196447502Y-77370771D01*
X196447502Y-77370771D02*
X196447502Y-77308867D01*
X196447502Y-77308867D02*
X196478454Y-77216009D01*
X196478454Y-77216009D02*
X196509407Y-77185057D01*
X197097502Y-76566009D02*
X197097502Y-76937438D01*
X197097502Y-76751724D02*
X196447502Y-76751724D01*
X196447502Y-76751724D02*
X196540359Y-76813628D01*
X196540359Y-76813628D02*
X196602264Y-76875533D01*
X196602264Y-76875533D02*
X196633216Y-76937438D01*
X196447502Y-76349342D02*
X196447502Y-75916009D01*
X196447502Y-75916009D02*
X197097502Y-76194580D01*
%TO.C,C5*%
X208188597Y-76333733D02*
X208219550Y-76364685D01*
X208219550Y-76364685D02*
X208250502Y-76457543D01*
X208250502Y-76457543D02*
X208250502Y-76519447D01*
X208250502Y-76519447D02*
X208219550Y-76612304D01*
X208219550Y-76612304D02*
X208157645Y-76674209D01*
X208157645Y-76674209D02*
X208095740Y-76705162D01*
X208095740Y-76705162D02*
X207971930Y-76736114D01*
X207971930Y-76736114D02*
X207879073Y-76736114D01*
X207879073Y-76736114D02*
X207755264Y-76705162D01*
X207755264Y-76705162D02*
X207693359Y-76674209D01*
X207693359Y-76674209D02*
X207631454Y-76612304D01*
X207631454Y-76612304D02*
X207600502Y-76519447D01*
X207600502Y-76519447D02*
X207600502Y-76457543D01*
X207600502Y-76457543D02*
X207631454Y-76364685D01*
X207631454Y-76364685D02*
X207662407Y-76333733D01*
X207600502Y-75745638D02*
X207600502Y-76055162D01*
X207600502Y-76055162D02*
X207910026Y-76086114D01*
X207910026Y-76086114D02*
X207879073Y-76055162D01*
X207879073Y-76055162D02*
X207848121Y-75993257D01*
X207848121Y-75993257D02*
X207848121Y-75838495D01*
X207848121Y-75838495D02*
X207879073Y-75776590D01*
X207879073Y-75776590D02*
X207910026Y-75745638D01*
X207910026Y-75745638D02*
X207971930Y-75714685D01*
X207971930Y-75714685D02*
X208126692Y-75714685D01*
X208126692Y-75714685D02*
X208188597Y-75745638D01*
X208188597Y-75745638D02*
X208219550Y-75776590D01*
X208219550Y-75776590D02*
X208250502Y-75838495D01*
X208250502Y-75838495D02*
X208250502Y-75993257D01*
X208250502Y-75993257D02*
X208219550Y-76055162D01*
X208219550Y-76055162D02*
X208188597Y-76086114D01*
%TO.C,R10*%
X191582702Y-77178557D02*
X191273178Y-77395224D01*
X191582702Y-77549986D02*
X190932702Y-77549986D01*
X190932702Y-77549986D02*
X190932702Y-77302367D01*
X190932702Y-77302367D02*
X190963654Y-77240462D01*
X190963654Y-77240462D02*
X190994607Y-77209509D01*
X190994607Y-77209509D02*
X191056511Y-77178557D01*
X191056511Y-77178557D02*
X191149369Y-77178557D01*
X191149369Y-77178557D02*
X191211273Y-77209509D01*
X191211273Y-77209509D02*
X191242226Y-77240462D01*
X191242226Y-77240462D02*
X191273178Y-77302367D01*
X191273178Y-77302367D02*
X191273178Y-77549986D01*
X191582702Y-76559509D02*
X191582702Y-76930938D01*
X191582702Y-76745224D02*
X190932702Y-76745224D01*
X190932702Y-76745224D02*
X191025559Y-76807128D01*
X191025559Y-76807128D02*
X191087464Y-76869033D01*
X191087464Y-76869033D02*
X191118416Y-76930938D01*
X190932702Y-76157128D02*
X190932702Y-76095223D01*
X190932702Y-76095223D02*
X190963654Y-76033319D01*
X190963654Y-76033319D02*
X190994607Y-76002366D01*
X190994607Y-76002366D02*
X191056511Y-75971414D01*
X191056511Y-75971414D02*
X191180321Y-75940461D01*
X191180321Y-75940461D02*
X191335083Y-75940461D01*
X191335083Y-75940461D02*
X191458892Y-75971414D01*
X191458892Y-75971414D02*
X191520797Y-76002366D01*
X191520797Y-76002366D02*
X191551750Y-76033319D01*
X191551750Y-76033319D02*
X191582702Y-76095223D01*
X191582702Y-76095223D02*
X191582702Y-76157128D01*
X191582702Y-76157128D02*
X191551750Y-76219033D01*
X191551750Y-76219033D02*
X191520797Y-76249985D01*
X191520797Y-76249985D02*
X191458892Y-76280938D01*
X191458892Y-76280938D02*
X191335083Y-76311890D01*
X191335083Y-76311890D02*
X191180321Y-76311890D01*
X191180321Y-76311890D02*
X191056511Y-76280938D01*
X191056511Y-76280938D02*
X190994607Y-76249985D01*
X190994607Y-76249985D02*
X190963654Y-76219033D01*
X190963654Y-76219033D02*
X190932702Y-76157128D01*
%TO.C,C19*%
X207703197Y-64780657D02*
X207734150Y-64811609D01*
X207734150Y-64811609D02*
X207765102Y-64904467D01*
X207765102Y-64904467D02*
X207765102Y-64966371D01*
X207765102Y-64966371D02*
X207734150Y-65059228D01*
X207734150Y-65059228D02*
X207672245Y-65121133D01*
X207672245Y-65121133D02*
X207610340Y-65152086D01*
X207610340Y-65152086D02*
X207486530Y-65183038D01*
X207486530Y-65183038D02*
X207393673Y-65183038D01*
X207393673Y-65183038D02*
X207269864Y-65152086D01*
X207269864Y-65152086D02*
X207207959Y-65121133D01*
X207207959Y-65121133D02*
X207146054Y-65059228D01*
X207146054Y-65059228D02*
X207115102Y-64966371D01*
X207115102Y-64966371D02*
X207115102Y-64904467D01*
X207115102Y-64904467D02*
X207146054Y-64811609D01*
X207146054Y-64811609D02*
X207177007Y-64780657D01*
X207765102Y-64161609D02*
X207765102Y-64533038D01*
X207765102Y-64347324D02*
X207115102Y-64347324D01*
X207115102Y-64347324D02*
X207207959Y-64409228D01*
X207207959Y-64409228D02*
X207269864Y-64471133D01*
X207269864Y-64471133D02*
X207300816Y-64533038D01*
X207765102Y-63852085D02*
X207765102Y-63728276D01*
X207765102Y-63728276D02*
X207734150Y-63666371D01*
X207734150Y-63666371D02*
X207703197Y-63635419D01*
X207703197Y-63635419D02*
X207610340Y-63573514D01*
X207610340Y-63573514D02*
X207486530Y-63542561D01*
X207486530Y-63542561D02*
X207238911Y-63542561D01*
X207238911Y-63542561D02*
X207177007Y-63573514D01*
X207177007Y-63573514D02*
X207146054Y-63604466D01*
X207146054Y-63604466D02*
X207115102Y-63666371D01*
X207115102Y-63666371D02*
X207115102Y-63790180D01*
X207115102Y-63790180D02*
X207146054Y-63852085D01*
X207146054Y-63852085D02*
X207177007Y-63883038D01*
X207177007Y-63883038D02*
X207238911Y-63913990D01*
X207238911Y-63913990D02*
X207393673Y-63913990D01*
X207393673Y-63913990D02*
X207455578Y-63883038D01*
X207455578Y-63883038D02*
X207486530Y-63852085D01*
X207486530Y-63852085D02*
X207517483Y-63790180D01*
X207517483Y-63790180D02*
X207517483Y-63666371D01*
X207517483Y-63666371D02*
X207486530Y-63604466D01*
X207486530Y-63604466D02*
X207455578Y-63573514D01*
X207455578Y-63573514D02*
X207393673Y-63542561D01*
%TO.C,U8*%
X185178761Y-50882502D02*
X185178761Y-51408692D01*
X185178761Y-51408692D02*
X185209714Y-51470597D01*
X185209714Y-51470597D02*
X185240666Y-51501550D01*
X185240666Y-51501550D02*
X185302571Y-51532502D01*
X185302571Y-51532502D02*
X185426380Y-51532502D01*
X185426380Y-51532502D02*
X185488285Y-51501550D01*
X185488285Y-51501550D02*
X185519238Y-51470597D01*
X185519238Y-51470597D02*
X185550190Y-51408692D01*
X185550190Y-51408692D02*
X185550190Y-50882502D01*
X185952571Y-51161073D02*
X185890666Y-51130121D01*
X185890666Y-51130121D02*
X185859713Y-51099169D01*
X185859713Y-51099169D02*
X185828761Y-51037264D01*
X185828761Y-51037264D02*
X185828761Y-51006311D01*
X185828761Y-51006311D02*
X185859713Y-50944407D01*
X185859713Y-50944407D02*
X185890666Y-50913454D01*
X185890666Y-50913454D02*
X185952571Y-50882502D01*
X185952571Y-50882502D02*
X186076380Y-50882502D01*
X186076380Y-50882502D02*
X186138285Y-50913454D01*
X186138285Y-50913454D02*
X186169237Y-50944407D01*
X186169237Y-50944407D02*
X186200190Y-51006311D01*
X186200190Y-51006311D02*
X186200190Y-51037264D01*
X186200190Y-51037264D02*
X186169237Y-51099169D01*
X186169237Y-51099169D02*
X186138285Y-51130121D01*
X186138285Y-51130121D02*
X186076380Y-51161073D01*
X186076380Y-51161073D02*
X185952571Y-51161073D01*
X185952571Y-51161073D02*
X185890666Y-51192026D01*
X185890666Y-51192026D02*
X185859713Y-51222978D01*
X185859713Y-51222978D02*
X185828761Y-51284883D01*
X185828761Y-51284883D02*
X185828761Y-51408692D01*
X185828761Y-51408692D02*
X185859713Y-51470597D01*
X185859713Y-51470597D02*
X185890666Y-51501550D01*
X185890666Y-51501550D02*
X185952571Y-51532502D01*
X185952571Y-51532502D02*
X186076380Y-51532502D01*
X186076380Y-51532502D02*
X186138285Y-51501550D01*
X186138285Y-51501550D02*
X186169237Y-51470597D01*
X186169237Y-51470597D02*
X186200190Y-51408692D01*
X186200190Y-51408692D02*
X186200190Y-51284883D01*
X186200190Y-51284883D02*
X186169237Y-51222978D01*
X186169237Y-51222978D02*
X186138285Y-51192026D01*
X186138285Y-51192026D02*
X186076380Y-51161073D01*
%TO.C,RT1*%
X207437702Y-26086152D02*
X207128178Y-26302819D01*
X207437702Y-26457581D02*
X206787702Y-26457581D01*
X206787702Y-26457581D02*
X206787702Y-26209962D01*
X206787702Y-26209962D02*
X206818654Y-26148057D01*
X206818654Y-26148057D02*
X206849607Y-26117104D01*
X206849607Y-26117104D02*
X206911511Y-26086152D01*
X206911511Y-26086152D02*
X207004369Y-26086152D01*
X207004369Y-26086152D02*
X207066273Y-26117104D01*
X207066273Y-26117104D02*
X207097226Y-26148057D01*
X207097226Y-26148057D02*
X207128178Y-26209962D01*
X207128178Y-26209962D02*
X207128178Y-26457581D01*
X206787702Y-25900438D02*
X206787702Y-25529009D01*
X207437702Y-25714723D02*
X206787702Y-25714723D01*
X207437702Y-24971866D02*
X207437702Y-25343295D01*
X207437702Y-25157581D02*
X206787702Y-25157581D01*
X206787702Y-25157581D02*
X206880559Y-25219485D01*
X206880559Y-25219485D02*
X206942464Y-25281390D01*
X206942464Y-25281390D02*
X206973416Y-25343295D01*
%TO.C,Y1*%
X181452876Y-70933378D02*
X181452876Y-71242902D01*
X181236209Y-70592902D02*
X181452876Y-70933378D01*
X181452876Y-70933378D02*
X181669543Y-70592902D01*
X182226686Y-71242902D02*
X181855257Y-71242902D01*
X182040971Y-71242902D02*
X182040971Y-70592902D01*
X182040971Y-70592902D02*
X181979067Y-70685759D01*
X181979067Y-70685759D02*
X181917162Y-70747664D01*
X181917162Y-70747664D02*
X181855257Y-70778616D01*
%TO.C,R7*%
X192080702Y-44358333D02*
X191771178Y-44575000D01*
X192080702Y-44729762D02*
X191430702Y-44729762D01*
X191430702Y-44729762D02*
X191430702Y-44482143D01*
X191430702Y-44482143D02*
X191461654Y-44420238D01*
X191461654Y-44420238D02*
X191492607Y-44389285D01*
X191492607Y-44389285D02*
X191554511Y-44358333D01*
X191554511Y-44358333D02*
X191647369Y-44358333D01*
X191647369Y-44358333D02*
X191709273Y-44389285D01*
X191709273Y-44389285D02*
X191740226Y-44420238D01*
X191740226Y-44420238D02*
X191771178Y-44482143D01*
X191771178Y-44482143D02*
X191771178Y-44729762D01*
X191430702Y-44141666D02*
X191430702Y-43708333D01*
X191430702Y-43708333D02*
X192080702Y-43986904D01*
%TO.C,C14*%
X198608797Y-70840357D02*
X198639750Y-70871309D01*
X198639750Y-70871309D02*
X198670702Y-70964167D01*
X198670702Y-70964167D02*
X198670702Y-71026071D01*
X198670702Y-71026071D02*
X198639750Y-71118928D01*
X198639750Y-71118928D02*
X198577845Y-71180833D01*
X198577845Y-71180833D02*
X198515940Y-71211786D01*
X198515940Y-71211786D02*
X198392130Y-71242738D01*
X198392130Y-71242738D02*
X198299273Y-71242738D01*
X198299273Y-71242738D02*
X198175464Y-71211786D01*
X198175464Y-71211786D02*
X198113559Y-71180833D01*
X198113559Y-71180833D02*
X198051654Y-71118928D01*
X198051654Y-71118928D02*
X198020702Y-71026071D01*
X198020702Y-71026071D02*
X198020702Y-70964167D01*
X198020702Y-70964167D02*
X198051654Y-70871309D01*
X198051654Y-70871309D02*
X198082607Y-70840357D01*
X198670702Y-70221309D02*
X198670702Y-70592738D01*
X198670702Y-70407024D02*
X198020702Y-70407024D01*
X198020702Y-70407024D02*
X198113559Y-70468928D01*
X198113559Y-70468928D02*
X198175464Y-70530833D01*
X198175464Y-70530833D02*
X198206416Y-70592738D01*
X198237369Y-69664166D02*
X198670702Y-69664166D01*
X197989750Y-69818928D02*
X198454035Y-69973690D01*
X198454035Y-69973690D02*
X198454035Y-69571309D01*
%TO.C,Q1*%
X206912607Y-35201904D02*
X206881654Y-35263809D01*
X206881654Y-35263809D02*
X206819750Y-35325714D01*
X206819750Y-35325714D02*
X206726892Y-35418571D01*
X206726892Y-35418571D02*
X206695940Y-35480476D01*
X206695940Y-35480476D02*
X206695940Y-35542380D01*
X206850702Y-35511428D02*
X206819750Y-35573333D01*
X206819750Y-35573333D02*
X206757845Y-35635238D01*
X206757845Y-35635238D02*
X206634035Y-35666190D01*
X206634035Y-35666190D02*
X206417369Y-35666190D01*
X206417369Y-35666190D02*
X206293559Y-35635238D01*
X206293559Y-35635238D02*
X206231654Y-35573333D01*
X206231654Y-35573333D02*
X206200702Y-35511428D01*
X206200702Y-35511428D02*
X206200702Y-35387619D01*
X206200702Y-35387619D02*
X206231654Y-35325714D01*
X206231654Y-35325714D02*
X206293559Y-35263809D01*
X206293559Y-35263809D02*
X206417369Y-35232857D01*
X206417369Y-35232857D02*
X206634035Y-35232857D01*
X206634035Y-35232857D02*
X206757845Y-35263809D01*
X206757845Y-35263809D02*
X206819750Y-35325714D01*
X206819750Y-35325714D02*
X206850702Y-35387619D01*
X206850702Y-35387619D02*
X206850702Y-35511428D01*
X206850702Y-34613809D02*
X206850702Y-34985238D01*
X206850702Y-34799524D02*
X206200702Y-34799524D01*
X206200702Y-34799524D02*
X206293559Y-34861428D01*
X206293559Y-34861428D02*
X206355464Y-34923333D01*
X206355464Y-34923333D02*
X206386416Y-34985238D01*
D15*
%TO.C,C11*%
X196660000Y-39003733D02*
X196660000Y-39296267D01*
X195640000Y-39003733D02*
X195640000Y-39296267D01*
%TO.C,C15*%
X201479400Y-58738800D02*
X201479400Y-61758800D01*
X201479400Y-61758800D02*
X205864400Y-61758800D01*
X205864400Y-58738800D02*
X201479400Y-58738800D01*
%TO.C,C12*%
X202530000Y-44046267D02*
X202530000Y-43753733D01*
X203550000Y-44046267D02*
X203550000Y-43753733D01*
%TO.C,C8*%
X207500000Y-43733733D02*
X207500000Y-44026267D01*
X206480000Y-43733733D02*
X206480000Y-44026267D01*
%TO.C,R11*%
X188758300Y-74165424D02*
X188758300Y-73655976D01*
X189803300Y-74165424D02*
X189803300Y-73655976D01*
D16*
%TO.C,U1*%
X197612000Y-57962099D02*
X197612000Y-57581099D01*
X197612000Y-57581099D02*
X197358000Y-57581099D01*
X197358000Y-57962099D02*
X197612000Y-57962099D01*
X197358000Y-57581099D02*
X197358000Y-57962099D01*
X195884800Y-63652400D02*
X195884800Y-62744040D01*
X195884800Y-54299160D02*
X195884800Y-53390800D01*
X195884800Y-53390800D02*
X194976440Y-53390800D01*
X194976440Y-63652400D02*
X195884800Y-63652400D01*
X193194501Y-51917600D02*
X193194501Y-51663600D01*
X193194501Y-51663600D02*
X192813501Y-51663600D01*
X192813501Y-51917600D02*
X193194501Y-51917600D01*
X192813501Y-51663600D02*
X192813501Y-51917600D01*
X192694499Y-65379600D02*
X192313499Y-65379600D01*
X192694499Y-65125600D02*
X192694499Y-65379600D01*
X192313499Y-65379600D02*
X192313499Y-65125600D01*
X192313499Y-65125600D02*
X192694499Y-65125600D01*
X188194500Y-51917600D02*
X188194500Y-51663600D01*
X188194500Y-51663600D02*
X187813500Y-51663600D01*
X187813500Y-51917600D02*
X188194500Y-51917600D01*
X187813500Y-51663600D02*
X187813500Y-51917600D01*
X187694499Y-65379600D02*
X187313499Y-65379600D01*
X187694499Y-65125600D02*
X187694499Y-65379600D01*
X187313499Y-65379600D02*
X187313499Y-65125600D01*
X187313499Y-65125600D02*
X187694499Y-65125600D01*
X186531560Y-53390800D02*
X185623200Y-53390800D01*
X185623200Y-63652400D02*
X186531560Y-63652400D01*
X185623200Y-62744040D02*
X185623200Y-63652400D01*
X185623200Y-53390800D02*
X185623200Y-54299160D01*
X184150000Y-58462101D02*
X183896000Y-58462101D01*
X184150000Y-58081100D02*
X184150000Y-58462101D01*
X183896000Y-58462101D02*
X183896000Y-58081100D01*
X183896000Y-58081100D02*
X184150000Y-58081100D01*
D15*
%TO.C,U6*%
X195350000Y-31560000D02*
X198350000Y-31560000D01*
X196850000Y-28340000D02*
X198350000Y-28340000D01*
%TO.C,C1*%
X181338767Y-26430000D02*
X181046233Y-26430000D01*
X181338767Y-25410000D02*
X181046233Y-25410000D01*
%TO.C,U7*%
X196890000Y-32740000D02*
X196090000Y-32740000D01*
X196890000Y-32740000D02*
X197690000Y-32740000D01*
X196890000Y-35860000D02*
X196090000Y-35860000D01*
X196890000Y-35860000D02*
X198690000Y-35860000D01*
%TO.C,R12*%
X180491224Y-52412500D02*
X179981776Y-52412500D01*
X180491224Y-51367500D02*
X179981776Y-51367500D01*
%TO.C,R15*%
X186808300Y-74140024D02*
X186808300Y-73630576D01*
X187853300Y-74140024D02*
X187853300Y-73630576D01*
%TO.C,R4*%
X203527500Y-30517224D02*
X203527500Y-30007776D01*
X204572500Y-30517224D02*
X204572500Y-30007776D01*
%TO.C,R6*%
X189804724Y-46542500D02*
X189295276Y-46542500D01*
X189804724Y-45497500D02*
X189295276Y-45497500D01*
%TO.C,CON1*%
X196660000Y-20485000D02*
X196660000Y-23715000D01*
X196660000Y-16315000D02*
X196660000Y-18265000D01*
X195940000Y-25635000D02*
X194860000Y-25635000D01*
X194860000Y-25635000D02*
X194860000Y-26065000D01*
X190640000Y-25635000D02*
X189560000Y-25635000D01*
X188840000Y-20485000D02*
X188840000Y-23715000D01*
X188840000Y-16315000D02*
X196660000Y-16315000D01*
X188840000Y-16315000D02*
X188840000Y-18265000D01*
%TO.C,L1*%
X191240000Y-39599622D02*
X191240000Y-38800378D01*
X192360000Y-39599622D02*
X192360000Y-38800378D01*
%TO.C,LED2*%
X188065800Y-68550700D02*
X186595800Y-68550700D01*
X186595800Y-68550700D02*
X186595800Y-71010700D01*
X188065800Y-71010700D02*
X188065800Y-68550700D01*
%TO.C,R9*%
X195927500Y-67967224D02*
X195927500Y-67457776D01*
X196972500Y-67967224D02*
X196972500Y-67457776D01*
%TO.C,C6*%
X183084000Y-41081767D02*
X183084000Y-40789233D01*
X184104000Y-41081767D02*
X184104000Y-40789233D01*
%TO.C,Y2*%
X181918400Y-57965200D02*
X178618400Y-57965200D01*
X178618400Y-57965200D02*
X178618400Y-61965200D01*
%TO.C,R13*%
X179961776Y-53504700D02*
X180471224Y-53504700D01*
X179961776Y-54549700D02*
X180471224Y-54549700D01*
%TO.C,C18*%
X195390800Y-73826933D02*
X195390800Y-74119467D01*
X194370800Y-73826933D02*
X194370800Y-74119467D01*
%TO.C,C9*%
X206698500Y-48666300D02*
X206698500Y-49453800D01*
X207092250Y-49060050D02*
X206304750Y-49060050D01*
X207196563Y-49693800D02*
X205911000Y-49693800D01*
X207196563Y-49693800D02*
X208261000Y-50758237D01*
X202505437Y-49693800D02*
X203791000Y-49693800D01*
X202505437Y-49693800D02*
X201441000Y-50758237D01*
X208261000Y-50758237D02*
X208261000Y-56513800D01*
X201441000Y-50758237D02*
X201441000Y-56513800D01*
X208261000Y-56513800D02*
X205911000Y-56513800D01*
X201441000Y-56513800D02*
X203791000Y-56513800D01*
%TO.C,C4*%
X181083733Y-18460000D02*
X181376267Y-18460000D01*
X181083733Y-19480000D02*
X181376267Y-19480000D01*
%TO.C,C13*%
X204450000Y-44026267D02*
X204450000Y-43733733D01*
X205470000Y-44026267D02*
X205470000Y-43733733D01*
%TO.C,R3*%
X202472500Y-30007776D02*
X202472500Y-30517224D01*
X201427500Y-30007776D02*
X201427500Y-30517224D01*
%TO.C,R5*%
X206622500Y-30007776D02*
X206622500Y-30517224D01*
X205577500Y-30007776D02*
X205577500Y-30517224D01*
%TO.C,C22*%
X183572400Y-73790933D02*
X183572400Y-74083467D01*
X182552400Y-73790933D02*
X182552400Y-74083467D01*
%TO.C,U9*%
X189930000Y-47190000D02*
X188130000Y-47190000D01*
X189930000Y-47190000D02*
X190730000Y-47190000D01*
X189930000Y-50310000D02*
X189130000Y-50310000D01*
X189930000Y-50310000D02*
X190730000Y-50310000D01*
%TO.C,R14*%
X184882900Y-74090424D02*
X184882900Y-73580976D01*
X185927900Y-74090424D02*
X185927900Y-73580976D01*
%TO.C,R1*%
X179672500Y-40639276D02*
X179672500Y-41148724D01*
X178627500Y-40639276D02*
X178627500Y-41148724D01*
%TO.C,C3*%
X181338767Y-21780000D02*
X181046233Y-21780000D01*
X181338767Y-20760000D02*
X181046233Y-20760000D01*
%TO.C,C21*%
X180092133Y-56335200D02*
X180384667Y-56335200D01*
X180092133Y-57355200D02*
X180384667Y-57355200D01*
%TO.C,D2*%
X201490000Y-21150000D02*
X201490000Y-23150000D01*
X201490000Y-21150000D02*
X205500000Y-21150000D01*
X201490000Y-23150000D02*
X205500000Y-23150000D01*
%TO.C,D3*%
X206460000Y-40425000D02*
X206460000Y-38425000D01*
X206460000Y-40425000D02*
X202450000Y-40425000D01*
X206460000Y-38425000D02*
X202450000Y-38425000D01*
%TO.C,CON4*%
X198315200Y-77930300D02*
X197315200Y-77930300D01*
X197315200Y-77930300D02*
X197815200Y-78930300D01*
X197815200Y-78930300D02*
X198315200Y-77930300D01*
X203025200Y-79320300D02*
X203025200Y-88440300D01*
X194785200Y-79320300D02*
X194785200Y-80630300D01*
X182445200Y-79320300D02*
X203025200Y-79320300D01*
X201725200Y-80630300D02*
X201725200Y-87130300D01*
X194785200Y-80630300D02*
X201725200Y-80630300D01*
X190685200Y-80630300D02*
X190685200Y-79320300D01*
X190685200Y-80630300D02*
X190685200Y-80630300D01*
X183745200Y-80630300D02*
X190685200Y-80630300D01*
X201725200Y-87130300D02*
X183745200Y-87130300D01*
X183745200Y-87130300D02*
X183745200Y-80630300D01*
X203025200Y-88440300D02*
X182445200Y-88440300D01*
X182445200Y-88440300D02*
X182445200Y-79320300D01*
%TO.C,R2*%
X181704500Y-40639276D02*
X181704500Y-41148724D01*
X180659500Y-40639276D02*
X180659500Y-41148724D01*
%TO.C,U2*%
X192940000Y-47200000D02*
X192940000Y-50650000D01*
X192940000Y-47200000D02*
X192940000Y-45250000D01*
X198060000Y-47200000D02*
X198060000Y-49150000D01*
X198060000Y-47200000D02*
X198060000Y-45250000D01*
%TO.C,C10*%
X198610000Y-39003733D02*
X198610000Y-39296267D01*
X197590000Y-39003733D02*
X197590000Y-39296267D01*
%TO.C,C2*%
X181338767Y-24080000D02*
X181046233Y-24080000D01*
X181338767Y-23060000D02*
X181046233Y-23060000D01*
%TO.C,C16*%
X199190800Y-73826933D02*
X199190800Y-74119467D01*
X198170800Y-73826933D02*
X198170800Y-74119467D01*
%TO.C,LED1*%
X186140400Y-68475700D02*
X184670400Y-68475700D01*
X184670400Y-68475700D02*
X184670400Y-70935700D01*
X186140400Y-70935700D02*
X186140400Y-68475700D01*
%TO.C,C20*%
X180414667Y-63575200D02*
X180122133Y-63575200D01*
X180414667Y-62555200D02*
X180122133Y-62555200D01*
%TO.C,C7*%
X194610000Y-39053733D02*
X194610000Y-39346267D01*
X193590000Y-39053733D02*
X193590000Y-39346267D01*
%TO.C,R8*%
X200517500Y-44154724D02*
X200517500Y-43645276D01*
X201562500Y-44154724D02*
X201562500Y-43645276D01*
%TO.C,U5*%
X186950000Y-42560000D02*
X188750000Y-42560000D01*
X186950000Y-42560000D02*
X186150000Y-42560000D01*
X186950000Y-39440000D02*
X187750000Y-39440000D01*
X186950000Y-39440000D02*
X186150000Y-39440000D01*
%TO.C,D1*%
X201490000Y-18325000D02*
X201490000Y-20325000D01*
X201490000Y-18325000D02*
X205500000Y-18325000D01*
X201490000Y-20325000D02*
X205500000Y-20325000D01*
D10*
%TO.C,U3*%
X178525000Y-35825000D02*
X179100000Y-35825000D01*
X178525000Y-35825000D02*
X178525000Y-30075000D01*
X179100000Y-35825000D02*
X179100000Y-37425000D01*
X189175000Y-35825000D02*
X188525000Y-35825000D01*
X189175000Y-35825000D02*
X189175000Y-30075000D01*
X178525000Y-30075000D02*
X179175000Y-30075000D01*
X189175000Y-30075000D02*
X188525000Y-30075000D01*
D15*
%TO.C,C23*%
X181022400Y-73790933D02*
X181022400Y-74083467D01*
X180002400Y-73790933D02*
X180002400Y-74083467D01*
%TO.C,C17*%
X197306800Y-73826933D02*
X197306800Y-74119467D01*
X196286800Y-73826933D02*
X196286800Y-74119467D01*
%TO.C,C5*%
X206774700Y-67165100D02*
X206774700Y-67952600D01*
X207168450Y-67558850D02*
X206380950Y-67558850D01*
X207272763Y-68192600D02*
X205987200Y-68192600D01*
X207272763Y-68192600D02*
X208337200Y-69257037D01*
X202581637Y-68192600D02*
X203867200Y-68192600D01*
X202581637Y-68192600D02*
X201517200Y-69257037D01*
X208337200Y-69257037D02*
X208337200Y-75012600D01*
X201517200Y-69257037D02*
X201517200Y-75012600D01*
X208337200Y-75012600D02*
X205987200Y-75012600D01*
X201517200Y-75012600D02*
X203867200Y-75012600D01*
%TO.C,R10*%
X190688300Y-74165424D02*
X190688300Y-73655976D01*
X191733300Y-74165424D02*
X191733300Y-73655976D01*
%TO.C,C19*%
X201479400Y-62802800D02*
X201479400Y-65822800D01*
X201479400Y-65822800D02*
X205864400Y-65822800D01*
X205864400Y-62802800D02*
X201479400Y-62802800D01*
%TO.C,U8*%
X182970000Y-45270000D02*
X179520000Y-45270000D01*
X182970000Y-45270000D02*
X184920000Y-45270000D01*
X182970000Y-50390000D02*
X181020000Y-50390000D01*
X182970000Y-50390000D02*
X184920000Y-50390000D01*
%TO.C,RT1*%
X202113748Y-24040000D02*
X204886252Y-24040000D01*
X202113748Y-27460000D02*
X204886252Y-27460000D01*
%TO.C,Y1*%
X179812400Y-68137200D02*
X179812400Y-69937200D01*
X181212400Y-68087200D02*
X182312400Y-68087200D01*
X181212400Y-69987200D02*
X182312400Y-69987200D01*
%TO.C,R7*%
X189794724Y-44772500D02*
X189285276Y-44772500D01*
X189794724Y-43727500D02*
X189285276Y-43727500D01*
%TO.C,C14*%
X198790000Y-67566233D02*
X198790000Y-67858767D01*
X197770000Y-67566233D02*
X197770000Y-67858767D01*
%TO.C,Q1*%
X205820000Y-35180000D02*
X205820000Y-33505000D01*
X205820000Y-35180000D02*
X205820000Y-35830000D01*
X202700000Y-35180000D02*
X202700000Y-34530000D01*
X202700000Y-35180000D02*
X202700000Y-35830000D01*
%TD*%
M02*
