M48
; DRILL file {KiCad 7.0.1} date Tue Jun  6 18:12:25 2023
; FORMAT={-:-/ absolute / inch / decimal}
; #@! TF.CreationDate,2023-06-06T18:12:25-03:00
; #@! TF.GenerationSoftware,Kicad,Pcbnew,7.0.1
; #@! TF.FileFunction,Plated,1,2,PTH
FMAT,2
INCH
; #@! TA.AperFunction,Plated,PTH,ViaDrill
T1C0.0157
; #@! TA.AperFunction,Plated,PTH,ViaDrill
T2C0.0394
; #@! TA.AperFunction,Plated,PTH,ComponentDrill
T3C0.0394
; #@! TA.AperFunction,Plated,PTH,ComponentDrill
T4C0.0579
%
G90
G05
T1
X7.06Y-2.0
X7.204Y-2.422
X7.2298Y-2.107
X7.2615Y-2.9205
X7.3154Y-1.68
X7.328Y-1.068
X7.3387Y-1.613
X7.3406Y-2.3138
X7.3484Y-2.186
X7.382Y-1.922
X7.3994Y-2.171
X7.4008Y-1.3248
X7.4368Y-2.1356
X7.4654Y-2.1709
X7.4736Y-2.0008
X7.4878Y-1.9142
X7.489Y-1.501
X7.4913Y-2.2482
X7.5051Y-1.6531
X7.529Y-2.299
X7.5331Y-2.0083
X7.5429Y-1.063
X7.544Y-1.813
X7.546Y-3.09
X7.5725Y-2.2482
X7.582Y-1.398
X7.6006Y-2.0186
X7.6169Y-2.856
X7.621Y-0.805
X7.6418Y-2.3138
X7.673Y-2.283
X7.685Y-1.647
X7.716Y-3.09
X7.777Y-2.024
X7.784Y-2.825
X7.785Y-2.2745
X7.8218Y-2.2338
X7.8231Y-2.1157
X7.85Y-1.313
X7.8505Y-1.7265
X7.854Y-1.539
X7.8669Y-0.8142
X7.867Y-2.42
X7.871Y-2.669
X7.876Y-2.932
X7.8839Y-1.4441
X7.894Y-2.532
X7.8965Y-2.2736
X7.91Y-0.885
X7.992Y-1.2815
X8.0417Y-0.7579
X8.065Y-1.886
X8.068Y-2.615
X8.0752Y-1.1075
X8.1102Y-2.0994
X8.128Y-1.2923
T2
X7.8587Y-1.0177
T3
X7.388Y-3.2524
X7.388Y-3.3524
X7.488Y-3.2524
X7.488Y-3.3524
X7.588Y-3.2524
X7.588Y-3.3524
X7.688Y-3.2524
X7.688Y-3.3524
X7.788Y-3.2524
X7.788Y-3.3524
T4
X7.5669Y-1.2579
X7.5669Y-2.7528
T0
M30
