%TF.GenerationSoftware,KiCad,Pcbnew,7.0.1*%
%TF.CreationDate,2023-06-06T18:12:30-03:00*%
%TF.ProjectId,HLI-C_main,484c492d-435f-46d6-9169-6e2e6b696361,rev?*%
%TF.SameCoordinates,Original*%
%TF.FileFunction,Paste,Top*%
%TF.FilePolarity,Positive*%
%FSLAX46Y46*%
G04 Gerber Fmt 4.6, Leading zero omitted, Abs format (unit mm)*
G04 Created by KiCad (PCBNEW 7.0.1) date 2023-06-06 18:12:30*
%MOMM*%
%LPD*%
G01*
G04 APERTURE LIST*
G04 Aperture macros list*
%AMRoundRect*
0 Rectangle with rounded corners*
0 $1 Rounding radius*
0 $2 $3 $4 $5 $6 $7 $8 $9 X,Y pos of 4 corners*
0 Add a 4 corners polygon primitive as box body*
4,1,4,$2,$3,$4,$5,$6,$7,$8,$9,$2,$3,0*
0 Add four circle primitives for the rounded corners*
1,1,$1+$1,$2,$3*
1,1,$1+$1,$4,$5*
1,1,$1+$1,$6,$7*
1,1,$1+$1,$8,$9*
0 Add four rect primitives between the rounded corners*
20,1,$1+$1,$2,$3,$4,$5,0*
20,1,$1+$1,$4,$5,$6,$7,0*
20,1,$1+$1,$6,$7,$8,$9,0*
20,1,$1+$1,$8,$9,$2,$3,0*%
G04 Aperture macros list end*
%ADD10RoundRect,0.237500X-0.237500X0.300000X-0.237500X-0.300000X0.237500X-0.300000X0.237500X0.300000X0*%
%ADD11RoundRect,0.250001X-0.499999X-0.924999X0.499999X-0.924999X0.499999X0.924999X-0.499999X0.924999X0*%
%ADD12RoundRect,0.237500X0.237500X-0.300000X0.237500X0.300000X-0.237500X0.300000X-0.237500X-0.300000X0*%
%ADD13RoundRect,0.237500X0.237500X-0.250000X0.237500X0.250000X-0.237500X0.250000X-0.237500X-0.250000X0*%
%ADD14R,1.473200X0.279400*%
%ADD15R,0.279400X1.473200*%
%ADD16RoundRect,0.120000X-0.120000X-0.285000X0.120000X-0.285000X0.120000X0.285000X-0.120000X0.285000X0*%
%ADD17RoundRect,0.062500X-0.375000X-0.062500X0.375000X-0.062500X0.375000X0.062500X-0.375000X0.062500X0*%
%ADD18RoundRect,0.237500X0.300000X0.237500X-0.300000X0.237500X-0.300000X-0.237500X0.300000X-0.237500X0*%
%ADD19RoundRect,0.150000X0.512500X0.150000X-0.512500X0.150000X-0.512500X-0.150000X0.512500X-0.150000X0*%
%ADD20RoundRect,0.237500X0.250000X0.237500X-0.250000X0.237500X-0.250000X-0.237500X0.250000X-0.237500X0*%
%ADD21R,0.500000X2.000000*%
%ADD22R,2.000000X1.700000*%
%ADD23RoundRect,0.218750X0.381250X-0.218750X0.381250X0.218750X-0.381250X0.218750X-0.381250X-0.218750X0*%
%ADD24RoundRect,0.237500X-0.237500X0.287500X-0.237500X-0.287500X0.237500X-0.287500X0.237500X0.287500X0*%
%ADD25R,1.200000X1.400000*%
%ADD26RoundRect,0.237500X-0.250000X-0.237500X0.250000X-0.237500X0.250000X0.237500X-0.250000X0.237500X0*%
%ADD27RoundRect,0.250000X-0.550000X1.500000X-0.550000X-1.500000X0.550000X-1.500000X0.550000X1.500000X0*%
%ADD28RoundRect,0.237500X-0.300000X-0.237500X0.300000X-0.237500X0.300000X0.237500X-0.300000X0.237500X0*%
%ADD29RoundRect,0.237500X-0.237500X0.250000X-0.237500X-0.250000X0.237500X-0.250000X0.237500X0.250000X0*%
%ADD30RoundRect,0.150000X-0.512500X-0.150000X0.512500X-0.150000X0.512500X0.150000X-0.512500X0.150000X0*%
%ADD31RoundRect,0.225000X-0.225000X-0.375000X0.225000X-0.375000X0.225000X0.375000X-0.225000X0.375000X0*%
%ADD32RoundRect,0.225000X0.225000X0.375000X-0.225000X0.375000X-0.225000X-0.375000X0.225000X-0.375000X0*%
%ADD33RoundRect,0.150000X0.150000X-0.825000X0.150000X0.825000X-0.150000X0.825000X-0.150000X-0.825000X0*%
%ADD34R,0.450000X1.750000*%
%ADD35RoundRect,0.150000X-0.825000X-0.150000X0.825000X-0.150000X0.825000X0.150000X-0.825000X0.150000X0*%
%ADD36RoundRect,0.250000X-0.312500X-1.450000X0.312500X-1.450000X0.312500X1.450000X-0.312500X1.450000X0*%
%ADD37R,1.000000X1.800000*%
%ADD38RoundRect,0.150000X-0.150000X0.587500X-0.150000X-0.587500X0.150000X-0.587500X0.150000X0.587500X0*%
G04 APERTURE END LIST*
D10*
%TO.C,C11*%
X196150000Y-38287500D03*
X196150000Y-40012500D03*
%TD*%
D11*
%TO.C,C15*%
X202489400Y-60248800D03*
X205739400Y-60248800D03*
%TD*%
D12*
%TO.C,C12*%
X203040000Y-44762500D03*
X203040000Y-43037500D03*
%TD*%
D10*
%TO.C,C8*%
X206990000Y-43017500D03*
X206990000Y-44742500D03*
%TD*%
D13*
%TO.C,R11*%
X189280800Y-74823200D03*
X189280800Y-72998200D03*
%TD*%
D14*
%TO.C,U1*%
X196367400Y-62271600D03*
X196367400Y-61771601D03*
X196367400Y-61271600D03*
X196367400Y-60771601D03*
X196367400Y-60271599D03*
X196367400Y-59771600D03*
X196367400Y-59271601D03*
X196367400Y-58771600D03*
X196367400Y-58271600D03*
X196367400Y-57771599D03*
X196367400Y-57271600D03*
X196367400Y-56771601D03*
X196367400Y-56271599D03*
X196367400Y-55771600D03*
X196367400Y-55271599D03*
X196367400Y-54771600D03*
D15*
X194504000Y-52908200D03*
X194004001Y-52908200D03*
X193504000Y-52908200D03*
X193004001Y-52908200D03*
X192503999Y-52908200D03*
X192004000Y-52908200D03*
X191504001Y-52908200D03*
X191004000Y-52908200D03*
X190504000Y-52908200D03*
X190003999Y-52908200D03*
X189504000Y-52908200D03*
X189004001Y-52908200D03*
X188503999Y-52908200D03*
X188004000Y-52908200D03*
X187503999Y-52908200D03*
X187004000Y-52908200D03*
D14*
X185140600Y-54771600D03*
X185140600Y-55271599D03*
X185140600Y-55771600D03*
X185140600Y-56271599D03*
X185140600Y-56771601D03*
X185140600Y-57271600D03*
X185140600Y-57771599D03*
X185140600Y-58271600D03*
X185140600Y-58771600D03*
X185140600Y-59271601D03*
X185140600Y-59771600D03*
X185140600Y-60271599D03*
X185140600Y-60771601D03*
X185140600Y-61271600D03*
X185140600Y-61771601D03*
X185140600Y-62271600D03*
D15*
X187004000Y-64135000D03*
X187503999Y-64135000D03*
X188004000Y-64135000D03*
X188503999Y-64135000D03*
X189004001Y-64135000D03*
X189504000Y-64135000D03*
X190003999Y-64135000D03*
X190504000Y-64135000D03*
X191004000Y-64135000D03*
X191504001Y-64135000D03*
X192004000Y-64135000D03*
X192503999Y-64135000D03*
X193004001Y-64135000D03*
X193504000Y-64135000D03*
X194004001Y-64135000D03*
X194504000Y-64135000D03*
%TD*%
D16*
%TO.C,U6*%
X196550000Y-29450000D03*
X196550000Y-30450000D03*
X197150000Y-29450000D03*
X197150000Y-30450000D03*
D17*
X195412500Y-28950000D03*
X195412500Y-29450000D03*
X195412500Y-29950000D03*
X195412500Y-30450000D03*
X195412500Y-30950000D03*
X198287500Y-30950000D03*
X198287500Y-30450000D03*
X198287500Y-29950000D03*
X198287500Y-29450000D03*
X198287500Y-28950000D03*
%TD*%
D18*
%TO.C,C1*%
X182055000Y-25920000D03*
X180330000Y-25920000D03*
%TD*%
D19*
%TO.C,U7*%
X195752500Y-35250000D03*
X195752500Y-33350000D03*
X198027500Y-33350000D03*
X198027500Y-34300000D03*
X198027500Y-35250000D03*
%TD*%
D20*
%TO.C,R12*%
X181149000Y-51890000D03*
X179324000Y-51890000D03*
%TD*%
D13*
%TO.C,R15*%
X187330800Y-74797800D03*
X187330800Y-72972800D03*
%TD*%
%TO.C,R4*%
X204050000Y-31175000D03*
X204050000Y-29350000D03*
%TD*%
D20*
%TO.C,R6*%
X190462500Y-46020000D03*
X188637500Y-46020000D03*
%TD*%
D21*
%TO.C,CON1*%
X194350000Y-24925000D03*
X193550000Y-24925000D03*
X192750000Y-24925000D03*
X191950000Y-24925000D03*
X191150000Y-24925000D03*
D22*
X197200000Y-24825000D03*
X197200000Y-19375000D03*
X188300000Y-24825000D03*
X188300000Y-19375000D03*
%TD*%
D23*
%TO.C,L1*%
X191800000Y-40262500D03*
X191800000Y-38137500D03*
%TD*%
D24*
%TO.C,LED2*%
X187330800Y-69335700D03*
X187330800Y-71085700D03*
%TD*%
D13*
%TO.C,R9*%
X196450000Y-68625000D03*
X196450000Y-66800000D03*
%TD*%
D12*
%TO.C,C6*%
X183594000Y-41798000D03*
X183594000Y-40073000D03*
%TD*%
D25*
%TO.C,Y2*%
X179418400Y-58865200D03*
X179418400Y-61065200D03*
X181118400Y-61065200D03*
X181118400Y-58865200D03*
%TD*%
D26*
%TO.C,R13*%
X179304000Y-54027200D03*
X181129000Y-54027200D03*
%TD*%
D10*
%TO.C,C18*%
X194880800Y-73110700D03*
X194880800Y-74835700D03*
%TD*%
D27*
%TO.C,C9*%
X204851000Y-50403800D03*
X204851000Y-55803800D03*
%TD*%
D28*
%TO.C,C4*%
X180367500Y-18970000D03*
X182092500Y-18970000D03*
%TD*%
D12*
%TO.C,C13*%
X204960000Y-44742500D03*
X204960000Y-43017500D03*
%TD*%
D29*
%TO.C,R3*%
X201950000Y-29350000D03*
X201950000Y-31175000D03*
%TD*%
%TO.C,R5*%
X206100000Y-29350000D03*
X206100000Y-31175000D03*
%TD*%
D10*
%TO.C,C22*%
X183062400Y-73074700D03*
X183062400Y-74799700D03*
%TD*%
D30*
%TO.C,U9*%
X188792500Y-47800000D03*
X188792500Y-48750000D03*
X188792500Y-49700000D03*
X191067500Y-49700000D03*
X191067500Y-47800000D03*
%TD*%
D13*
%TO.C,R14*%
X185405400Y-74748200D03*
X185405400Y-72923200D03*
%TD*%
D29*
%TO.C,R1*%
X179150000Y-39981500D03*
X179150000Y-41806500D03*
%TD*%
D18*
%TO.C,C3*%
X182055000Y-21270000D03*
X180330000Y-21270000D03*
%TD*%
D28*
%TO.C,C21*%
X179375900Y-56845200D03*
X181100900Y-56845200D03*
%TD*%
D31*
%TO.C,D2*%
X202200000Y-22150000D03*
X205500000Y-22150000D03*
%TD*%
D32*
%TO.C,D3*%
X205750000Y-39425000D03*
X202450000Y-39425000D03*
%TD*%
D29*
%TO.C,R2*%
X181182000Y-39981500D03*
X181182000Y-41806500D03*
%TD*%
D33*
%TO.C,U2*%
X193595000Y-49675000D03*
X194865000Y-49675000D03*
X196135000Y-49675000D03*
X197405000Y-49675000D03*
X197405000Y-44725000D03*
X196135000Y-44725000D03*
X194865000Y-44725000D03*
X193595000Y-44725000D03*
%TD*%
D10*
%TO.C,C10*%
X198100000Y-38287500D03*
X198100000Y-40012500D03*
%TD*%
D18*
%TO.C,C2*%
X182055000Y-23570000D03*
X180330000Y-23570000D03*
%TD*%
D10*
%TO.C,C16*%
X198680800Y-73110700D03*
X198680800Y-74835700D03*
%TD*%
D24*
%TO.C,LED1*%
X185405400Y-69260700D03*
X185405400Y-71010700D03*
%TD*%
D18*
%TO.C,C20*%
X181130900Y-63065200D03*
X179405900Y-63065200D03*
%TD*%
D10*
%TO.C,C7*%
X194100000Y-38337500D03*
X194100000Y-40062500D03*
%TD*%
D13*
%TO.C,R8*%
X201040000Y-44812500D03*
X201040000Y-42987500D03*
%TD*%
D19*
%TO.C,U5*%
X188087500Y-41950000D03*
X188087500Y-41000000D03*
X188087500Y-40050000D03*
X185812500Y-40050000D03*
X185812500Y-41950000D03*
%TD*%
D31*
%TO.C,D1*%
X202200000Y-19325000D03*
X205500000Y-19325000D03*
%TD*%
D34*
%TO.C,U3*%
X179625000Y-36550000D03*
X180275000Y-36550000D03*
X180925000Y-36550000D03*
X181575000Y-36550000D03*
X182225000Y-36550000D03*
X182875000Y-36550000D03*
X183525000Y-36550000D03*
X184175000Y-36550000D03*
X184825000Y-36550000D03*
X185475000Y-36550000D03*
X186125000Y-36550000D03*
X186775000Y-36550000D03*
X187425000Y-36550000D03*
X188075000Y-36550000D03*
X188075000Y-29350000D03*
X187425000Y-29350000D03*
X186775000Y-29350000D03*
X186125000Y-29350000D03*
X185475000Y-29350000D03*
X184825000Y-29350000D03*
X184175000Y-29350000D03*
X183525000Y-29350000D03*
X182875000Y-29350000D03*
X182225000Y-29350000D03*
X181575000Y-29350000D03*
X180925000Y-29350000D03*
X180275000Y-29350000D03*
X179625000Y-29350000D03*
%TD*%
D10*
%TO.C,C23*%
X180512400Y-73074700D03*
X180512400Y-74799700D03*
%TD*%
%TO.C,C17*%
X196796800Y-73110700D03*
X196796800Y-74835700D03*
%TD*%
D27*
%TO.C,C5*%
X204927200Y-68902600D03*
X204927200Y-74302600D03*
%TD*%
D13*
%TO.C,R10*%
X191210800Y-74823200D03*
X191210800Y-72998200D03*
%TD*%
D11*
%TO.C,C19*%
X202489400Y-64312800D03*
X205739400Y-64312800D03*
%TD*%
D35*
%TO.C,U8*%
X180495000Y-45925000D03*
X180495000Y-47195000D03*
X180495000Y-48465000D03*
X180495000Y-49735000D03*
X185445000Y-49735000D03*
X185445000Y-48465000D03*
X185445000Y-47195000D03*
X185445000Y-45925000D03*
%TD*%
D36*
%TO.C,RT1*%
X201362500Y-25750000D03*
X205637500Y-25750000D03*
%TD*%
D37*
%TO.C,Y1*%
X180512400Y-69037200D03*
X183012400Y-69037200D03*
%TD*%
D20*
%TO.C,R7*%
X190452500Y-44250000D03*
X188627500Y-44250000D03*
%TD*%
D10*
%TO.C,C14*%
X198280000Y-66850000D03*
X198280000Y-68575000D03*
%TD*%
D38*
%TO.C,Q1*%
X205210000Y-34242500D03*
X203310000Y-34242500D03*
X204260000Y-36117500D03*
%TD*%
M02*
