M48
; DRILL file {KiCad 7.0.1} date Thu Jun  1 09:45:00 2023
; FORMAT={-:-/ absolute / inch / decimal}
; #@! TF.CreationDate,2023-06-01T09:45:00-03:00
; #@! TF.GenerationSoftware,Kicad,Pcbnew,7.0.1
; #@! TF.FileFunction,Plated,1,2,PTH
FMAT,2
INCH
; #@! TA.AperFunction,Plated,PTH,ViaDrill
T1C0.0157
; #@! TA.AperFunction,Plated,PTH,ComponentDrill
T2C0.0295
; #@! TA.AperFunction,Plated,PTH,ComponentDrill
T3C0.0394
; #@! TA.AperFunction,Plated,PTH,ComponentDrill
T4C0.0433
; #@! TA.AperFunction,Plated,PTH,ComponentDrill
T5C0.0520
; #@! TA.AperFunction,Plated,PTH,ComponentDrill
T6C0.0551
; #@! TA.AperFunction,Plated,PTH,ComponentDrill
T7C0.1260
%
G90
G05
T1
X5.3141Y-3.4208
X5.3567Y-3.4261
X5.4748Y-4.0695
X5.5332Y-3.5305
X5.6047Y-3.4799
X5.6999Y-3.4646
X5.7218Y-3.8884
X5.7396Y-3.9839
X5.7526Y-3.2395
X5.7711Y-4.1367
X5.7937Y-4.2301
X5.8397Y-3.6931
X5.8556Y-4.0448
X5.8717Y-3.9849
X5.9036Y-3.9544
X5.9385Y-3.6355
X5.9453Y-3.9058
X5.952Y-4.0735
X5.9591Y-4.847
X5.9636Y-3.5633
X5.9917Y-4.0633
X5.9985Y-4.8459
X6.0283Y-4.0825
X6.1198Y-3.9697
X6.1237Y-4.4629
X6.1502Y-3.9414
X6.1766Y-3.9979
X6.1865Y-3.8283
X6.1968Y-4.1359
X6.2959Y-3.7889
X6.3188Y-4.245
X6.3214Y-4.0252
X6.3547Y-3.9877
X6.3547Y-4.2671
X6.4032Y-4.1019
X6.404Y-4.6126
X6.421Y-3.7098
X6.4501Y-3.6127
X6.4574Y-4.5254
X6.4905Y-4.4617
X6.4913Y-4.333
X6.5755Y-4.2269
X6.6863Y-3.9114
T2
X5.0668Y-4.9799
X5.1168Y-4.9799
X5.1668Y-4.9799
T3
X4.8016Y-3.0978
X4.8016Y-3.1978
X4.8016Y-3.2978
X4.8016Y-3.3978
X4.8371Y-4.7889
X4.8371Y-4.8889
X4.8371Y-4.9889
X5.3284Y-3.2954
X5.3829Y-3.1836
X5.4375Y-3.2954
X5.492Y-3.1836
X5.5465Y-3.2954
X5.601Y-3.1836
X5.6556Y-3.2954
X5.7101Y-3.1836
X5.7646Y-3.2954
X5.8192Y-3.1836
X5.8215Y-4.9868
X5.8737Y-3.2954
X5.9215Y-4.9868
X5.9282Y-3.1836
X5.9827Y-3.2954
X6.0215Y-4.9868
X6.0373Y-3.1836
X6.0918Y-3.2954
X6.1215Y-4.9868
X6.1463Y-3.1836
X6.2008Y-3.2954
X6.2554Y-3.1836
X6.3099Y-3.2954
X6.3644Y-3.1836
X6.419Y-3.2954
X6.4735Y-3.1836
X6.528Y-3.2954
X6.5825Y-3.1836
X6.6371Y-3.2954
X6.8404Y-4.238
X6.8404Y-4.347
X6.8404Y-4.4561
X6.8404Y-4.5651
X6.8404Y-4.6742
X6.9522Y-4.2925
X6.9522Y-4.4015
X6.9522Y-4.5106
X6.9522Y-4.6196
T4
X5.0529Y-4.7636
X5.4529Y-4.7636
T5
X5.0329Y-4.1168
X5.0329Y-4.3136
X5.0329Y-4.5105
T6
X4.8329Y-3.5936
X4.9329Y-3.8936
X5.1329Y-3.5936
X5.5329Y-3.5936
X5.5329Y-3.8936
T7
X5.0556Y-3.2836
X6.8522Y-3.9639
X6.8522Y-4.9482
X6.9099Y-3.2836
T0
M30
