%TF.GenerationSoftware,KiCad,Pcbnew,7.0.1*%
%TF.CreationDate,2023-06-01T09:44:18-03:00*%
%TF.ProjectId,BitBangARM,42697442-616e-4674-9152-4d2e6b696361,rev?*%
%TF.SameCoordinates,Original*%
%TF.FileFunction,Other,User*%
%FSLAX46Y46*%
G04 Gerber Fmt 4.6, Leading zero omitted, Abs format (unit mm)*
G04 Created by KiCad (PCBNEW 7.0.1) date 2023-06-01 09:44:18*
%MOMM*%
%LPD*%
G01*
G04 APERTURE LIST*
%ADD10C,0.050000*%
%ADD11C,0.150000*%
G04 APERTURE END LIST*
D10*
%TO.C,J7*%
X146066500Y-128464100D02*
X157266500Y-128464100D01*
X157266500Y-128464100D02*
X157266500Y-124864100D01*
X146066500Y-124864100D02*
X146066500Y-128464100D01*
X157266500Y-124864100D02*
X146066500Y-124864100D01*
%TO.C,R11*%
X142656500Y-128244100D02*
X142656500Y-125284100D01*
X142656500Y-125284100D02*
X144116500Y-125284100D01*
X144116500Y-128244100D02*
X142656500Y-128244100D01*
X144116500Y-125284100D02*
X144116500Y-128244100D01*
%TO.C,R10*%
X134381500Y-128244100D02*
X134381500Y-125284100D01*
X134381500Y-125284100D02*
X135841500Y-125284100D01*
X135841500Y-128244100D02*
X134381500Y-128244100D01*
X135841500Y-125284100D02*
X135841500Y-128244100D01*
%TO.C,D5*%
X139811500Y-124884100D02*
X141711500Y-124884100D01*
X141711500Y-128244100D02*
X139811500Y-128244100D01*
X141711500Y-124884100D02*
X141711500Y-128244100D01*
X139811500Y-128244100D02*
X139811500Y-124884100D01*
%TO.C,D4*%
X136836500Y-124846600D02*
X138736500Y-124846600D01*
X138736500Y-128206600D02*
X136836500Y-128206600D01*
X138736500Y-124846600D02*
X138736500Y-128206600D01*
X136836500Y-128206600D02*
X136836500Y-124846600D01*
%TO.C,SW1*%
X168486500Y-128664100D02*
X168486500Y-123864100D01*
X168486500Y-123864100D02*
X159086500Y-123864100D01*
X159086500Y-128664100D02*
X168486500Y-128664100D01*
X159086500Y-123864100D02*
X159086500Y-128664100D01*
%TO.C,R5*%
X167016500Y-111259100D02*
X167016500Y-114219100D01*
X167016500Y-114219100D02*
X165556500Y-114219100D01*
X165556500Y-111259100D02*
X167016500Y-111259100D01*
X165556500Y-114219100D02*
X165556500Y-111259100D01*
%TO.C,C16*%
X155971500Y-110009100D02*
X155971500Y-112969100D01*
X154511500Y-110009100D02*
X155971500Y-110009100D01*
X155971500Y-112969100D02*
X154511500Y-112969100D01*
X154511500Y-112969100D02*
X154511500Y-110009100D01*
%TO.C,R4*%
X163031500Y-114194100D02*
X163031500Y-111234100D01*
X164491500Y-114194100D02*
X163031500Y-114194100D01*
X163031500Y-111234100D02*
X164491500Y-111234100D01*
X164491500Y-111234100D02*
X164491500Y-114194100D01*
%TO.C,R9*%
X166984500Y-103482100D02*
X166984500Y-106442100D01*
X165524500Y-103482100D02*
X166984500Y-103482100D01*
X166984500Y-106442100D02*
X165524500Y-106442100D01*
X165524500Y-106442100D02*
X165524500Y-103482100D01*
%TO.C,R8*%
X165556500Y-118269100D02*
X165556500Y-115309100D01*
X167016500Y-118269100D02*
X165556500Y-118269100D01*
X165556500Y-115309100D02*
X167016500Y-115309100D01*
X167016500Y-115309100D02*
X167016500Y-118269100D01*
%TO.C,C10*%
X157111500Y-112969100D02*
X157111500Y-110009100D01*
X158571500Y-112969100D02*
X157111500Y-112969100D01*
X157111500Y-110009100D02*
X158571500Y-110009100D01*
X158571500Y-110009100D02*
X158571500Y-112969100D01*
%TO.C,J1*%
X175211500Y-96651600D02*
X175211500Y-87251600D01*
X181711500Y-96651600D02*
X175211500Y-96651600D01*
X175211500Y-87251600D02*
X181711500Y-87251600D01*
X181711500Y-87251600D02*
X181711500Y-96651600D01*
%TO.C,J3*%
X134316500Y-101736100D02*
X121376500Y-101736100D01*
X134316500Y-101736100D02*
X134316500Y-117986100D01*
X121376500Y-117986100D02*
X121376500Y-101736100D01*
X121376500Y-117986100D02*
X134316500Y-117986100D01*
%TO.C,J5*%
X120161500Y-76884100D02*
X120161500Y-88084100D01*
X120161500Y-88084100D02*
X123761500Y-88084100D01*
X123761500Y-76884100D02*
X120161500Y-76884100D01*
X123761500Y-88084100D02*
X123761500Y-76884100D01*
%TO.C,C17*%
X152011500Y-116979100D02*
X152011500Y-114019100D01*
X153471500Y-116979100D02*
X152011500Y-116979100D01*
X152011500Y-114019100D02*
X153471500Y-114019100D01*
X153471500Y-114019100D02*
X153471500Y-116979100D01*
%TO.C,U3*%
X159561500Y-103639100D02*
X159561500Y-99489100D01*
X159561500Y-95339100D02*
X159561500Y-99489100D01*
X158111500Y-104739100D02*
X158111500Y-103639100D01*
X158111500Y-103639100D02*
X159561500Y-103639100D01*
X158111500Y-95339100D02*
X159561500Y-95339100D01*
X158111500Y-94239100D02*
X158111500Y-95339100D01*
X157011500Y-106189100D02*
X157011500Y-104739100D01*
X157011500Y-104739100D02*
X158111500Y-104739100D01*
X157011500Y-94239100D02*
X158111500Y-94239100D01*
X157011500Y-92789100D02*
X157011500Y-94239100D01*
X152861500Y-106189100D02*
X157011500Y-106189100D01*
X152861500Y-106189100D02*
X148711500Y-106189100D01*
X152861500Y-92789100D02*
X157011500Y-92789100D01*
X152861500Y-92789100D02*
X148711500Y-92789100D01*
X148711500Y-106189100D02*
X148711500Y-104739100D01*
X148711500Y-104739100D02*
X147611500Y-104739100D01*
X148711500Y-94239100D02*
X147611500Y-94239100D01*
X148711500Y-92789100D02*
X148711500Y-94239100D01*
X147611500Y-104739100D02*
X147611500Y-103639100D01*
X147611500Y-103639100D02*
X146161500Y-103639100D01*
X147611500Y-95339100D02*
X146161500Y-95339100D01*
X147611500Y-94239100D02*
X147611500Y-95339100D01*
X146161500Y-103639100D02*
X146161500Y-99489100D01*
X146161500Y-95339100D02*
X146161500Y-99489100D01*
D11*
%TO.C,U2*%
X169486500Y-92566188D02*
X173336500Y-92566188D01*
X173336500Y-92566188D02*
X173336500Y-92566188D01*
X173336500Y-92566188D02*
X173336500Y-87611214D01*
X169486500Y-87611214D02*
X169486500Y-92566188D01*
X173336500Y-87611214D02*
X169486500Y-87611214D01*
D10*
%TO.C,R7*%
X137756500Y-106309100D02*
X140716500Y-106309100D01*
X137756500Y-107769100D02*
X137756500Y-106309100D01*
X140716500Y-106309100D02*
X140716500Y-107769100D01*
X140716500Y-107769100D02*
X137756500Y-107769100D01*
%TO.C,J4*%
X170496500Y-129124100D02*
X188446500Y-129124100D01*
X188446500Y-129124100D02*
X188446500Y-97224100D01*
X170496500Y-97224100D02*
X170496500Y-129124100D01*
X188446500Y-97224100D02*
X170496500Y-97224100D01*
%TO.C,C8*%
X147011500Y-112969100D02*
X147011500Y-110009100D01*
X148471500Y-112969100D02*
X147011500Y-112969100D01*
X147011500Y-110009100D02*
X148471500Y-110009100D01*
X148471500Y-110009100D02*
X148471500Y-112969100D01*
%TO.C,C5*%
X147031500Y-116994100D02*
X147031500Y-114034100D01*
X148491500Y-116994100D02*
X147031500Y-116994100D01*
X147031500Y-114034100D02*
X148491500Y-114034100D01*
X148491500Y-114034100D02*
X148491500Y-116994100D01*
%TO.C,R1*%
X165549500Y-110542100D02*
X165549500Y-107582100D01*
X167009500Y-110542100D02*
X165549500Y-110542100D01*
X165549500Y-107582100D02*
X167009500Y-107582100D01*
X167009500Y-107582100D02*
X167009500Y-110542100D01*
%TO.C,D3*%
X137389000Y-101439100D02*
X140749000Y-101439100D01*
X137389000Y-103339100D02*
X137389000Y-101439100D01*
X140749000Y-101439100D02*
X140749000Y-103339100D01*
X140749000Y-103339100D02*
X137389000Y-103339100D01*
%TO.C,Q1*%
X127236500Y-123759100D02*
X127236500Y-128499100D01*
X127236500Y-123759100D02*
X132696500Y-123759100D01*
X132696500Y-128499100D02*
X127236500Y-128499100D01*
X132696500Y-128499100D02*
X132696500Y-123759100D01*
%TO.C,C9*%
X149511500Y-112969100D02*
X149511500Y-110009100D01*
X150971500Y-112969100D02*
X149511500Y-112969100D01*
X149511500Y-110009100D02*
X150971500Y-110009100D01*
X150971500Y-110009100D02*
X150971500Y-112969100D01*
%TO.C,C19*%
X158591500Y-113984100D02*
X158591500Y-116944100D01*
X157131500Y-113984100D02*
X158591500Y-113984100D01*
X158591500Y-116944100D02*
X157131500Y-116944100D01*
X157131500Y-116944100D02*
X157131500Y-113984100D01*
%TO.C,R2*%
X163039500Y-110542100D02*
X163039500Y-107582100D01*
X164499500Y-110542100D02*
X163039500Y-110542100D01*
X163039500Y-107582100D02*
X164499500Y-107582100D01*
X164499500Y-107582100D02*
X164499500Y-110542100D01*
%TO.C,D1*%
X137389000Y-103939100D02*
X140749000Y-103939100D01*
X137389000Y-105839100D02*
X137389000Y-103939100D01*
X140749000Y-103939100D02*
X140749000Y-105839100D01*
X140749000Y-105839100D02*
X137389000Y-105839100D01*
%TO.C,Y4*%
X167086500Y-94739100D02*
X163386500Y-94739100D01*
X163386500Y-94739100D02*
X163386500Y-101239100D01*
X167086500Y-101239100D02*
X167086500Y-94739100D01*
X163386500Y-101239100D02*
X167086500Y-101239100D01*
%TO.C,D2*%
X126994500Y-119396100D02*
X126994500Y-122596100D01*
X126994500Y-122596100D02*
X139854500Y-122596100D01*
X139854500Y-119396100D02*
X126994500Y-119396100D01*
X139854500Y-122596100D02*
X139854500Y-119396100D01*
%TO.C,C14*%
X164459500Y-103482100D02*
X164459500Y-106442100D01*
X162999500Y-103482100D02*
X164459500Y-103482100D01*
X164459500Y-106442100D02*
X162999500Y-106442100D01*
X162999500Y-106442100D02*
X162999500Y-103482100D01*
%TO.C,C11*%
X154511500Y-116944100D02*
X154511500Y-113984100D01*
X155971500Y-116944100D02*
X154511500Y-116944100D01*
X154511500Y-113984100D02*
X155971500Y-113984100D01*
X155971500Y-113984100D02*
X155971500Y-116944100D01*
%TO.C,J2*%
X179041500Y-86954100D02*
X179041500Y-68854100D01*
X179041500Y-68854100D02*
X124891500Y-68854100D01*
X124891500Y-86954100D02*
X179041500Y-86954100D01*
X124891500Y-68854100D02*
X124891500Y-86954100D01*
D11*
%TO.C,K1*%
X142036500Y-100398101D02*
X142036500Y-89778099D01*
X142036500Y-89778099D02*
X121256498Y-89778099D01*
X121256498Y-100398101D02*
X142036500Y-100398101D01*
X121256498Y-100398101D02*
X121256498Y-100398101D01*
X121256498Y-89778099D02*
X121256498Y-100398101D01*
D10*
%TO.C,R6*%
X162231500Y-87634100D02*
X165191500Y-87634100D01*
X162231500Y-89094100D02*
X162231500Y-87634100D01*
X165191500Y-87634100D02*
X165191500Y-89094100D01*
X165191500Y-89094100D02*
X162231500Y-89094100D01*
%TO.C,C12*%
X150966500Y-114116100D02*
X150966500Y-117076100D01*
X149506500Y-114116100D02*
X150966500Y-114116100D01*
X150966500Y-117076100D02*
X149506500Y-117076100D01*
X149506500Y-117076100D02*
X149506500Y-114116100D01*
%TO.C,C13*%
X138216500Y-118176100D02*
X140316500Y-118176100D01*
X140316500Y-118176100D02*
X140316500Y-116926100D01*
X136866500Y-116926100D02*
X138216500Y-116926100D01*
X136866500Y-116926100D02*
X135716500Y-115776100D01*
X138216500Y-116926100D02*
X138216500Y-118176100D01*
X140316500Y-116926100D02*
X141666500Y-116926100D01*
X141666500Y-116926100D02*
X142816500Y-115776100D01*
X135716500Y-115776100D02*
X135716500Y-109826100D01*
X142816500Y-115776100D02*
X142816500Y-109826100D01*
X135716500Y-109826100D02*
X138216500Y-109826100D01*
X138216500Y-109826100D02*
X138216500Y-108576100D01*
X140316500Y-109826100D02*
X142816500Y-109826100D01*
X138216500Y-108576100D02*
X140316500Y-108576100D01*
X140316500Y-108576100D02*
X140316500Y-109826100D01*
%TO.C,Y3*%
X163986500Y-94064100D02*
X166386500Y-94064100D01*
X166386500Y-94064100D02*
X166386500Y-90064100D01*
X163986500Y-90064100D02*
X163986500Y-94064100D01*
X166386500Y-90064100D02*
X163986500Y-90064100D01*
%TO.C,C15*%
X153471500Y-110009100D02*
X153471500Y-112969100D01*
X152011500Y-110009100D02*
X153471500Y-110009100D01*
X153471500Y-112969100D02*
X152011500Y-112969100D01*
X152011500Y-112969100D02*
X152011500Y-110009100D01*
%TO.C,JP2*%
X121061500Y-119839100D02*
X121061500Y-128489100D01*
X121061500Y-128489100D02*
X124661500Y-128489100D01*
X124661500Y-119839100D02*
X121061500Y-119839100D01*
X124661500Y-128489100D02*
X124661500Y-119839100D01*
%TO.C,R3*%
X163031500Y-118269100D02*
X163031500Y-115309100D01*
X164491500Y-118269100D02*
X163031500Y-118269100D01*
X163031500Y-115309100D02*
X164491500Y-115309100D01*
X164491500Y-115309100D02*
X164491500Y-118269100D01*
%TD*%
M02*
