%TF.GenerationSoftware,KiCad,Pcbnew,(6.0.1)*%
%TF.CreationDate,2022-09-20T17:47:08-03:00*%
%TF.ProjectId,HLI-M,484c492d-4d2e-46b6-9963-61645f706362,rev?*%
%TF.SameCoordinates,Original*%
%TF.FileFunction,Soldermask,Top*%
%TF.FilePolarity,Negative*%
%FSLAX46Y46*%
G04 Gerber Fmt 4.6, Leading zero omitted, Abs format (unit mm)*
G04 Created by KiCad (PCBNEW (6.0.1)) date 2022-09-20 17:47:08*
%MOMM*%
%LPD*%
G01*
G04 APERTURE LIST*
G04 Aperture macros list*
%AMRoundRect*
0 Rectangle with rounded corners*
0 $1 Rounding radius*
0 $2 $3 $4 $5 $6 $7 $8 $9 X,Y pos of 4 corners*
0 Add a 4 corners polygon primitive as box body*
4,1,4,$2,$3,$4,$5,$6,$7,$8,$9,$2,$3,0*
0 Add four circle primitives for the rounded corners*
1,1,$1+$1,$2,$3*
1,1,$1+$1,$4,$5*
1,1,$1+$1,$6,$7*
1,1,$1+$1,$8,$9*
0 Add four rect primitives between the rounded corners*
20,1,$1+$1,$2,$3,$4,$5,0*
20,1,$1+$1,$4,$5,$6,$7,0*
20,1,$1+$1,$6,$7,$8,$9,0*
20,1,$1+$1,$8,$9,$2,$3,0*%
G04 Aperture macros list end*
%ADD10C,0.500000*%
%TA.AperFunction,Profile*%
%ADD11C,0.050000*%
%TD*%
%ADD12C,0.150000*%
%ADD13C,0.300000*%
%ADD14RoundRect,0.237500X-0.300000X-0.237500X0.300000X-0.237500X0.300000X0.237500X-0.300000X0.237500X0*%
%ADD15RoundRect,0.237500X0.300000X0.237500X-0.300000X0.237500X-0.300000X-0.237500X0.300000X-0.237500X0*%
%ADD16RoundRect,0.250001X0.924999X-0.499999X0.924999X0.499999X-0.924999X0.499999X-0.924999X-0.499999X0*%
%ADD17RoundRect,0.237500X0.237500X-0.300000X0.237500X0.300000X-0.237500X0.300000X-0.237500X-0.300000X0*%
%ADD18RoundRect,0.250001X-0.924999X0.499999X-0.924999X-0.499999X0.924999X-0.499999X0.924999X0.499999X0*%
%ADD19R,0.500000X0.800000*%
%ADD20R,0.400000X0.800000*%
%ADD21R,0.900000X1.200000*%
%ADD22RoundRect,0.237500X-0.237500X0.287500X-0.237500X-0.287500X0.237500X-0.287500X0.237500X0.287500X0*%
%ADD23C,4.000000*%
%ADD24R,1.600000X1.600000*%
%ADD25C,1.600000*%
%ADD26RoundRect,0.150000X0.150000X-0.587500X0.150000X0.587500X-0.150000X0.587500X-0.150000X-0.587500X0*%
%ADD27RoundRect,0.150000X0.587500X0.150000X-0.587500X0.150000X-0.587500X-0.150000X0.587500X-0.150000X0*%
%ADD28RoundRect,0.237500X-0.250000X-0.237500X0.250000X-0.237500X0.250000X0.237500X-0.250000X0.237500X0*%
%ADD29RoundRect,0.237500X0.250000X0.237500X-0.250000X0.237500X-0.250000X-0.237500X0.250000X-0.237500X0*%
%ADD30RoundRect,0.237500X-0.237500X0.250000X-0.237500X-0.250000X0.237500X-0.250000X0.237500X0.250000X0*%
%ADD31RoundRect,0.237500X0.237500X-0.250000X0.237500X0.250000X-0.237500X0.250000X-0.237500X-0.250000X0*%
%ADD32RoundRect,0.075000X0.662500X0.075000X-0.662500X0.075000X-0.662500X-0.075000X0.662500X-0.075000X0*%
%ADD33RoundRect,0.075000X0.075000X0.662500X-0.075000X0.662500X-0.075000X-0.662500X0.075000X-0.662500X0*%
%ADD34RoundRect,0.062500X-0.375000X-0.062500X0.375000X-0.062500X0.375000X0.062500X-0.375000X0.062500X0*%
%ADD35R,1.200000X2.000000*%
%ADD36RoundRect,0.150000X-0.512500X-0.150000X0.512500X-0.150000X0.512500X0.150000X-0.512500X0.150000X0*%
%ADD37RoundRect,0.150000X0.825000X0.150000X-0.825000X0.150000X-0.825000X-0.150000X0.825000X-0.150000X0*%
%ADD38RoundRect,0.150000X0.512500X0.150000X-0.512500X0.150000X-0.512500X-0.150000X0.512500X-0.150000X0*%
%ADD39RoundRect,0.150000X-0.150000X0.825000X-0.150000X-0.825000X0.150000X-0.825000X0.150000X0.825000X0*%
%ADD40RoundRect,0.150000X-0.587500X-0.150000X0.587500X-0.150000X0.587500X0.150000X-0.587500X0.150000X0*%
%ADD41RoundRect,0.150000X-0.150000X0.587500X-0.150000X-0.587500X0.150000X-0.587500X0.150000X0.587500X0*%
%ADD42RoundRect,0.237500X-0.237500X0.300000X-0.237500X-0.300000X0.237500X-0.300000X0.237500X0.300000X0*%
%ADD43RoundRect,0.218750X0.381250X-0.218750X0.381250X0.218750X-0.381250X0.218750X-0.381250X-0.218750X0*%
%ADD44C,1.500000*%
%ADD45C,1.000000*%
%ADD46RoundRect,0.250000X-0.312500X-1.450000X0.312500X-1.450000X0.312500X1.450000X-0.312500X1.450000X0*%
%ADD47RoundRect,0.250000X-0.600000X-0.600000X0.600000X-0.600000X0.600000X0.600000X-0.600000X0.600000X0*%
%ADD48C,1.700000*%
%ADD49RoundRect,0.237500X-0.287500X-0.237500X0.287500X-0.237500X0.287500X0.237500X-0.287500X0.237500X0*%
%ADD50RoundRect,0.250000X-1.950000X-1.000000X1.950000X-1.000000X1.950000X1.000000X-1.950000X1.000000X0*%
%ADD51RoundRect,0.250000X0.725000X-0.600000X0.725000X0.600000X-0.725000X0.600000X-0.725000X-0.600000X0*%
%ADD52O,1.950000X1.700000*%
%ADD53RoundRect,0.250000X-1.000000X1.950000X-1.000000X-1.950000X1.000000X-1.950000X1.000000X1.950000X0*%
%ADD54R,1.200000X1.400000*%
%ADD55R,1.100000X0.500000*%
%ADD56R,2.000000X2.000000*%
%ADD57C,2.205000*%
%ADD58RoundRect,0.250000X0.312500X1.450000X-0.312500X1.450000X-0.312500X-1.450000X0.312500X-1.450000X0*%
%ADD59R,1.000000X1.800000*%
%ADD60R,1.500000X1.500000*%
%ADD61R,0.450000X1.750000*%
G04 APERTURE END LIST*
D10*
X97370000Y-103650000D02*
X95370000Y-103650000D01*
X174955200Y-43907200D02*
X174955200Y-45907200D01*
X199400000Y-49100000D02*
X197400000Y-49100000D01*
X175955200Y-44907200D02*
X173955200Y-44907200D01*
X96386000Y-102650000D02*
X96386000Y-104650000D01*
X198400000Y-48100000D02*
X198400000Y-50100000D01*
D11*
X189204600Y-113538000D02*
X189179200Y-28854400D01*
X65030000Y-28825500D02*
X65030000Y-113534500D01*
X189179200Y-28854400D02*
X65030000Y-28825500D01*
X65030000Y-113534500D02*
X189204600Y-113538000D01*
D12*
X162490476Y-30247619D02*
X162490476Y-30914285D01*
X162490476Y-30819047D02*
X162442857Y-30866666D01*
X162347619Y-30914285D01*
X162204761Y-30914285D01*
X162109523Y-30866666D01*
X162061904Y-30771428D01*
X162061904Y-30247619D01*
X162061904Y-30771428D02*
X162014285Y-30866666D01*
X161919047Y-30914285D01*
X161776190Y-30914285D01*
X161680952Y-30866666D01*
X161633333Y-30771428D01*
X161633333Y-30247619D01*
X160728571Y-30247619D02*
X160728571Y-30771428D01*
X160776190Y-30866666D01*
X160871428Y-30914285D01*
X161061904Y-30914285D01*
X161157142Y-30866666D01*
X160728571Y-30295238D02*
X160823809Y-30247619D01*
X161061904Y-30247619D01*
X161157142Y-30295238D01*
X161204761Y-30390476D01*
X161204761Y-30485714D01*
X161157142Y-30580952D01*
X161061904Y-30628571D01*
X160823809Y-30628571D01*
X160728571Y-30676190D01*
X160300000Y-30295238D02*
X160204761Y-30247619D01*
X160014285Y-30247619D01*
X159919047Y-30295238D01*
X159871428Y-30390476D01*
X159871428Y-30438095D01*
X159919047Y-30533333D01*
X160014285Y-30580952D01*
X160157142Y-30580952D01*
X160252380Y-30628571D01*
X160300000Y-30723809D01*
X160300000Y-30771428D01*
X160252380Y-30866666D01*
X160157142Y-30914285D01*
X160014285Y-30914285D01*
X159919047Y-30866666D01*
X159442857Y-30247619D02*
X159442857Y-31247619D01*
X159347619Y-30628571D02*
X159061904Y-30247619D01*
X159061904Y-30914285D02*
X159442857Y-30533333D01*
D13*
X166986285Y-31796028D02*
X166129142Y-31796028D01*
X166557714Y-30296028D02*
X166557714Y-31796028D01*
X165343428Y-31796028D02*
X165057714Y-31796028D01*
X164914857Y-31724600D01*
X164772000Y-31581742D01*
X164700571Y-31296028D01*
X164700571Y-30796028D01*
X164772000Y-30510314D01*
X164914857Y-30367457D01*
X165057714Y-30296028D01*
X165343428Y-30296028D01*
X165486285Y-30367457D01*
X165629142Y-30510314D01*
X165700571Y-30796028D01*
X165700571Y-31296028D01*
X165629142Y-31581742D01*
X165486285Y-31724600D01*
X165343428Y-31796028D01*
X164057714Y-30296028D02*
X164057714Y-31796028D01*
X163486285Y-31796028D01*
X163343428Y-31724600D01*
X163272000Y-31653171D01*
X163200571Y-31510314D01*
X163200571Y-31296028D01*
X163272000Y-31153171D01*
X163343428Y-31081742D01*
X163486285Y-31010314D01*
X164057714Y-31010314D01*
D14*
%TO.C,C6*%
X110775000Y-75150000D03*
X112500000Y-75150000D03*
%TD*%
%TO.C,C9*%
X132775000Y-58775000D03*
X134500000Y-58775000D03*
%TD*%
%TO.C,C12*%
X132723800Y-62723800D03*
X134448800Y-62723800D03*
%TD*%
D15*
%TO.C,C13*%
X168781900Y-68605400D03*
X167056900Y-68605400D03*
%TD*%
D14*
%TO.C,C14*%
X167006100Y-70612000D03*
X168731100Y-70612000D03*
%TD*%
D15*
%TO.C,C15*%
X162662500Y-68600000D03*
X160937500Y-68600000D03*
%TD*%
D16*
%TO.C,C16*%
X154100000Y-64525000D03*
X154100000Y-61275000D03*
%TD*%
D17*
%TO.C,C17*%
X151155400Y-63752900D03*
X151155400Y-62027900D03*
%TD*%
%TO.C,C18*%
X145900000Y-63002478D03*
X145900000Y-61277478D03*
%TD*%
D18*
%TO.C,C20*%
X144145000Y-83719000D03*
X144145000Y-86969000D03*
%TD*%
D19*
%TO.C,CA1*%
X166751800Y-50254400D03*
D20*
X165951800Y-50254400D03*
X165151800Y-50254400D03*
D19*
X164351800Y-50254400D03*
X164351800Y-52054400D03*
D20*
X165151800Y-52054400D03*
X165951800Y-52054400D03*
D19*
X166751800Y-52054400D03*
%TD*%
%TO.C,CA4*%
X146284800Y-50203600D03*
D20*
X145484800Y-50203600D03*
X144684800Y-50203600D03*
D19*
X143884800Y-50203600D03*
X143884800Y-52003600D03*
D20*
X144684800Y-52003600D03*
X145484800Y-52003600D03*
D19*
X146284800Y-52003600D03*
%TD*%
D21*
%TO.C,D1*%
X114050000Y-59500000D03*
X110750000Y-59500000D03*
%TD*%
%TO.C,D2*%
X114050000Y-62400000D03*
X110750000Y-62400000D03*
%TD*%
%TO.C,D3*%
X102511500Y-90906600D03*
X105811500Y-90906600D03*
%TD*%
D22*
%TO.C,LED2*%
X157632400Y-89625200D03*
X157632400Y-91375200D03*
%TD*%
%TO.C,LED3*%
X154406600Y-89585800D03*
X154406600Y-91335800D03*
%TD*%
D23*
%TO.C,CON3*%
X174939000Y-36346300D03*
X127839000Y-36346300D03*
D24*
X168009000Y-37766300D03*
D25*
X165239000Y-37766300D03*
X162469000Y-37766300D03*
X159699000Y-37766300D03*
X156929000Y-37766300D03*
X154159000Y-37766300D03*
X151389000Y-37766300D03*
X148619000Y-37766300D03*
X145849000Y-37766300D03*
X143079000Y-37766300D03*
X140309000Y-37766300D03*
X137539000Y-37766300D03*
X134769000Y-37766300D03*
X166624000Y-34926300D03*
X163854000Y-34926300D03*
X161084000Y-34926300D03*
X158314000Y-34926300D03*
X155544000Y-34926300D03*
X152774000Y-34926300D03*
X150004000Y-34926300D03*
X147234000Y-34926300D03*
X144464000Y-34926300D03*
X141694000Y-34926300D03*
X138924000Y-34926300D03*
X136154000Y-34926300D03*
%TD*%
D26*
%TO.C,Q3*%
X139044600Y-62407800D03*
X140944600Y-62407800D03*
X139994600Y-60532800D03*
%TD*%
D27*
%TO.C,Q5*%
X132672000Y-96633600D03*
X132672000Y-94733600D03*
X130797000Y-95683600D03*
%TD*%
D28*
%TO.C,R1*%
X81041900Y-45339000D03*
X82866900Y-45339000D03*
%TD*%
%TO.C,R2*%
X120905900Y-63906400D03*
X122730900Y-63906400D03*
%TD*%
D29*
%TO.C,R3*%
X122756300Y-65659000D03*
X120931300Y-65659000D03*
%TD*%
%TO.C,R5*%
X168831900Y-66649600D03*
X167006900Y-66649600D03*
%TD*%
D30*
%TO.C,R7*%
X127254000Y-86233000D03*
X127254000Y-88058000D03*
%TD*%
%TO.C,R6*%
X125501400Y-86233000D03*
X125501400Y-88058000D03*
%TD*%
D28*
%TO.C,R10*%
X160887500Y-66600000D03*
X162712500Y-66600000D03*
%TD*%
D31*
%TO.C,R11*%
X146812000Y-85240500D03*
X146812000Y-83415500D03*
%TD*%
%TO.C,R27*%
X157632400Y-95603700D03*
X157632400Y-93778700D03*
%TD*%
%TO.C,R28*%
X154406600Y-95564300D03*
X154406600Y-93739300D03*
%TD*%
D29*
%TO.C,R25*%
X134523100Y-67095600D03*
X132698100Y-67095600D03*
%TD*%
D28*
%TO.C,R26*%
X132698100Y-68721200D03*
X134523100Y-68721200D03*
%TD*%
%TO.C,R18*%
X139123800Y-64413000D03*
X140948800Y-64413000D03*
%TD*%
D30*
%TO.C,R22*%
X132613400Y-90679900D03*
X132613400Y-92504900D03*
%TD*%
D19*
%TO.C,RA1*%
X166732800Y-46393600D03*
D20*
X165932800Y-46393600D03*
X165132800Y-46393600D03*
D19*
X164332800Y-46393600D03*
X164332800Y-48193600D03*
D20*
X165132800Y-48193600D03*
X165932800Y-48193600D03*
D19*
X166732800Y-48193600D03*
%TD*%
%TO.C,RA3*%
X153016800Y-46266600D03*
D20*
X152216800Y-46266600D03*
X151416800Y-46266600D03*
D19*
X150616800Y-46266600D03*
X150616800Y-48066600D03*
D20*
X151416800Y-48066600D03*
X152216800Y-48066600D03*
D19*
X153016800Y-48066600D03*
%TD*%
%TO.C,RA4*%
X146284800Y-46266600D03*
D20*
X145484800Y-46266600D03*
X144684800Y-46266600D03*
D19*
X143884800Y-46266600D03*
X143884800Y-48066600D03*
D20*
X144684800Y-48066600D03*
X145484800Y-48066600D03*
D19*
X146284800Y-48066600D03*
%TD*%
%TO.C,RA5*%
X166732800Y-54394600D03*
D20*
X165932800Y-54394600D03*
X165132800Y-54394600D03*
D19*
X164332800Y-54394600D03*
X164332800Y-56194600D03*
D20*
X165132800Y-56194600D03*
X165932800Y-56194600D03*
D19*
X166732800Y-56194600D03*
%TD*%
%TO.C,RA7*%
X153016800Y-54394600D03*
D20*
X152216800Y-54394600D03*
X151416800Y-54394600D03*
D19*
X150616800Y-54394600D03*
X150616800Y-56194600D03*
D20*
X151416800Y-56194600D03*
X152216800Y-56194600D03*
D19*
X153016800Y-56194600D03*
%TD*%
%TO.C,RA8*%
X146284800Y-54394600D03*
D20*
X145484800Y-54394600D03*
X144684800Y-54394600D03*
D19*
X143884800Y-54394600D03*
X143884800Y-56194600D03*
D20*
X144684800Y-56194600D03*
X145484800Y-56194600D03*
D19*
X146284800Y-56194600D03*
%TD*%
D32*
%TO.C,U1*%
X153109500Y-77791000D03*
X153109500Y-77291000D03*
X153109500Y-76791000D03*
X153109500Y-76291000D03*
X153109500Y-75791000D03*
X153109500Y-75291000D03*
X153109500Y-74791000D03*
X153109500Y-74291000D03*
X153109500Y-73791000D03*
X153109500Y-73291000D03*
X153109500Y-72791000D03*
X153109500Y-72291000D03*
X153109500Y-71791000D03*
X153109500Y-71291000D03*
X153109500Y-70791000D03*
X153109500Y-70291000D03*
D33*
X151197000Y-68378500D03*
X150697000Y-68378500D03*
X150197000Y-68378500D03*
X149697000Y-68378500D03*
X149197000Y-68378500D03*
X148697000Y-68378500D03*
X148197000Y-68378500D03*
X147697000Y-68378500D03*
X147197000Y-68378500D03*
X146697000Y-68378500D03*
X146197000Y-68378500D03*
X145697000Y-68378500D03*
X145197000Y-68378500D03*
X144697000Y-68378500D03*
X144197000Y-68378500D03*
X143697000Y-68378500D03*
D32*
X141784500Y-70291000D03*
X141784500Y-70791000D03*
X141784500Y-71291000D03*
X141784500Y-71791000D03*
X141784500Y-72291000D03*
X141784500Y-72791000D03*
X141784500Y-73291000D03*
X141784500Y-73791000D03*
X141784500Y-74291000D03*
X141784500Y-74791000D03*
X141784500Y-75291000D03*
X141784500Y-75791000D03*
X141784500Y-76291000D03*
X141784500Y-76791000D03*
X141784500Y-77291000D03*
X141784500Y-77791000D03*
D33*
X143697000Y-79703500D03*
X144197000Y-79703500D03*
X144697000Y-79703500D03*
X145197000Y-79703500D03*
X145697000Y-79703500D03*
X146197000Y-79703500D03*
X146697000Y-79703500D03*
X147197000Y-79703500D03*
X147697000Y-79703500D03*
X148197000Y-79703500D03*
X148697000Y-79703500D03*
X149197000Y-79703500D03*
X149697000Y-79703500D03*
X150197000Y-79703500D03*
X150697000Y-79703500D03*
X151197000Y-79703500D03*
%TD*%
D34*
%TO.C,U6*%
X120680900Y-59952000D03*
X120680900Y-60452000D03*
X120680900Y-60952000D03*
X120680900Y-61452000D03*
X120680900Y-61952000D03*
X123555900Y-61952000D03*
X123555900Y-61452000D03*
X123555900Y-60952000D03*
X123555900Y-60452000D03*
X123555900Y-59952000D03*
D35*
X122118400Y-60952000D03*
%TD*%
D36*
%TO.C,U4*%
X127000000Y-63800000D03*
X127000000Y-64750000D03*
X127000000Y-65700000D03*
X129275000Y-65700000D03*
X129275000Y-63800000D03*
%TD*%
D37*
%TO.C,U2*%
X163359500Y-76911200D03*
X163359500Y-75641200D03*
X163359500Y-74371200D03*
X163359500Y-73101200D03*
X158409500Y-73101200D03*
X158409500Y-74371200D03*
X158409500Y-75641200D03*
X158409500Y-76911200D03*
%TD*%
D38*
%TO.C,U10*%
X128365600Y-72867600D03*
X128365600Y-71917600D03*
X128365600Y-70967600D03*
X126090600Y-70967600D03*
X126090600Y-72867600D03*
%TD*%
D39*
%TO.C,U13*%
X179425600Y-91632000D03*
X178155600Y-91632000D03*
X176885600Y-91632000D03*
X175615600Y-91632000D03*
X174345600Y-91632000D03*
X173075600Y-91632000D03*
X171805600Y-91632000D03*
X170535600Y-91632000D03*
X170535600Y-96582000D03*
X171805600Y-96582000D03*
X173075600Y-96582000D03*
X174345600Y-96582000D03*
X175615600Y-96582000D03*
X176885600Y-96582000D03*
X178155600Y-96582000D03*
X179425600Y-96582000D03*
%TD*%
%TO.C,U12*%
X151130000Y-91694000D03*
X149860000Y-91694000D03*
X148590000Y-91694000D03*
X147320000Y-91694000D03*
X146050000Y-91694000D03*
X144780000Y-91694000D03*
X143510000Y-91694000D03*
X142240000Y-91694000D03*
X142240000Y-96644000D03*
X143510000Y-96644000D03*
X144780000Y-96644000D03*
X146050000Y-96644000D03*
X147320000Y-96644000D03*
X148590000Y-96644000D03*
X149860000Y-96644000D03*
X151130000Y-96644000D03*
%TD*%
%TO.C,U11*%
X127330200Y-91555800D03*
X126060200Y-91555800D03*
X124790200Y-91555800D03*
X123520200Y-91555800D03*
X122250200Y-91555800D03*
X120980200Y-91555800D03*
X119710200Y-91555800D03*
X118440200Y-91555800D03*
X118440200Y-96505800D03*
X119710200Y-96505800D03*
X120980200Y-96505800D03*
X122250200Y-96505800D03*
X123520200Y-96505800D03*
X124790200Y-96505800D03*
X126060200Y-96505800D03*
X127330200Y-96505800D03*
%TD*%
D30*
%TO.C,R21*%
X130700000Y-90679900D03*
X130700000Y-92504900D03*
%TD*%
D40*
%TO.C,Q4*%
X136574300Y-94734100D03*
X136574300Y-96634100D03*
X138449300Y-95684100D03*
%TD*%
D41*
%TO.C,Q7*%
X162084300Y-94652600D03*
X160184300Y-94652600D03*
X161134300Y-96527600D03*
%TD*%
D28*
%TO.C,R24*%
X160225100Y-91592400D03*
X162050100Y-91592400D03*
%TD*%
%TO.C,R23*%
X165305100Y-91592300D03*
X167130100Y-91592300D03*
%TD*%
D41*
%TO.C,Q6*%
X167193000Y-94693500D03*
X165293000Y-94693500D03*
X166243000Y-96568500D03*
%TD*%
D30*
%TO.C,R8*%
X177190400Y-87174700D03*
X177190400Y-88999700D03*
%TD*%
D37*
%TO.C,U9*%
X122865000Y-79121000D03*
X122865000Y-77851000D03*
X122865000Y-76581000D03*
X122865000Y-75311000D03*
X117915000Y-75311000D03*
X117915000Y-76581000D03*
X117915000Y-77851000D03*
X117915000Y-79121000D03*
%TD*%
D28*
%TO.C,R13*%
X131015500Y-72466200D03*
X132840500Y-72466200D03*
%TD*%
%TO.C,R14*%
X130992000Y-70866000D03*
X132817000Y-70866000D03*
%TD*%
D23*
%TO.C,CON7*%
X104227100Y-105802700D03*
X129227100Y-105802700D03*
D24*
X111187100Y-107222700D03*
D25*
X113957100Y-107222700D03*
X116727100Y-107222700D03*
X119497100Y-107222700D03*
X122267100Y-107222700D03*
X112572100Y-104382700D03*
X115342100Y-104382700D03*
X118112100Y-104382700D03*
X120882100Y-104382700D03*
%TD*%
D38*
%TO.C,U5*%
X113137500Y-73050000D03*
X113137500Y-72100000D03*
X113137500Y-71150000D03*
X110862500Y-71150000D03*
X110862500Y-73050000D03*
%TD*%
D42*
%TO.C,C19*%
X141478000Y-85116500D03*
X141478000Y-86841500D03*
%TD*%
D37*
%TO.C,U3*%
X132384600Y-54874000D03*
X132384600Y-53604000D03*
X132384600Y-52334000D03*
X132384600Y-51064000D03*
X132384600Y-49794000D03*
X132384600Y-48524000D03*
X132384600Y-47254000D03*
X132384600Y-45984000D03*
X127434600Y-45984000D03*
X127434600Y-47254000D03*
X127434600Y-48524000D03*
X127434600Y-49794000D03*
X127434600Y-51064000D03*
X127434600Y-52334000D03*
X127434600Y-53604000D03*
X127434600Y-54874000D03*
%TD*%
D14*
%TO.C,C27*%
X136222100Y-50530600D03*
X137947100Y-50530600D03*
%TD*%
%TO.C,C28*%
X136222100Y-52816600D03*
X137947100Y-52816600D03*
%TD*%
%TO.C,C25*%
X136285100Y-46212600D03*
X138010100Y-46212600D03*
%TD*%
%TO.C,C29*%
X136222100Y-54975600D03*
X137947100Y-54975600D03*
%TD*%
D15*
%TO.C,C26*%
X137947100Y-48371600D03*
X136222100Y-48371600D03*
%TD*%
D43*
%TO.C,L2*%
X119278400Y-50414700D03*
X119278400Y-48289700D03*
%TD*%
D30*
%TO.C,R9*%
X178968400Y-87174700D03*
X178968400Y-88999700D03*
%TD*%
D19*
%TO.C,CA2*%
X159746800Y-50203600D03*
D20*
X158946800Y-50203600D03*
X158146800Y-50203600D03*
D19*
X157346800Y-50203600D03*
X157346800Y-52003600D03*
D20*
X158146800Y-52003600D03*
X158946800Y-52003600D03*
D19*
X159746800Y-52003600D03*
%TD*%
%TO.C,RA2*%
X159766800Y-46328600D03*
D20*
X158966800Y-46328600D03*
X158166800Y-46328600D03*
D19*
X157366800Y-46328600D03*
X157366800Y-48128600D03*
D20*
X158166800Y-48128600D03*
X158966800Y-48128600D03*
D19*
X159766800Y-48128600D03*
%TD*%
%TO.C,RA6*%
X159746800Y-54394600D03*
D20*
X158946800Y-54394600D03*
X158146800Y-54394600D03*
D19*
X157346800Y-54394600D03*
X157346800Y-56194600D03*
D20*
X158146800Y-56194600D03*
X158946800Y-56194600D03*
D19*
X159746800Y-56194600D03*
%TD*%
D24*
%TO.C,CON2*%
X112059400Y-43033300D03*
D25*
X114559400Y-43033300D03*
X114559400Y-41033300D03*
X112059400Y-41033300D03*
D23*
X119309400Y-38173300D03*
X107309400Y-38173300D03*
%TD*%
D41*
%TO.C,Q2*%
X113751400Y-94668100D03*
X111851400Y-94668100D03*
X112801400Y-96543100D03*
%TD*%
D23*
%TO.C,CON6*%
X140322000Y-105941000D03*
X173622000Y-105941000D03*
D24*
X147277000Y-107361000D03*
D25*
X150047000Y-107361000D03*
X152817000Y-107361000D03*
X155587000Y-107361000D03*
X158357000Y-107361000D03*
X161127000Y-107361000D03*
X163897000Y-107361000D03*
X166667000Y-107361000D03*
X148662000Y-104521000D03*
X151432000Y-104521000D03*
X154202000Y-104521000D03*
X156972000Y-104521000D03*
X159742000Y-104521000D03*
X162512000Y-104521000D03*
X165282000Y-104521000D03*
%TD*%
D17*
%TO.C,C7*%
X117200000Y-56100000D03*
X117200000Y-54375000D03*
%TD*%
%TO.C,C8*%
X119400000Y-56100000D03*
X119400000Y-54375000D03*
%TD*%
D19*
%TO.C,CA3*%
X153016800Y-50203600D03*
D20*
X152216800Y-50203600D03*
X151416800Y-50203600D03*
D19*
X150616800Y-50203600D03*
X150616800Y-52003600D03*
D20*
X151416800Y-52003600D03*
X152216800Y-52003600D03*
D19*
X153016800Y-52003600D03*
%TD*%
D31*
%TO.C,R16*%
X113766600Y-92479500D03*
X113766600Y-90654500D03*
%TD*%
D44*
%TO.C,TP2*%
X80416400Y-51866800D03*
%TD*%
D45*
%TO.C,TP3*%
X83400000Y-51800000D03*
%TD*%
D46*
%TO.C,RT2*%
X101465200Y-95351600D03*
X105740200Y-95351600D03*
%TD*%
D47*
%TO.C,CON4*%
X179163700Y-62331600D03*
D48*
X181703700Y-62331600D03*
X179163700Y-64871600D03*
X181703700Y-64871600D03*
X179163700Y-67411600D03*
X181703700Y-67411600D03*
X179163700Y-69951600D03*
X181703700Y-69951600D03*
X179163700Y-72491600D03*
X181703700Y-72491600D03*
X179163700Y-75031600D03*
X181703700Y-75031600D03*
X179163700Y-77571600D03*
X181703700Y-77571600D03*
%TD*%
D31*
%TO.C,R19*%
X124460000Y-50163100D03*
X124460000Y-48338100D03*
%TD*%
D42*
%TO.C,C23*%
X136420000Y-84957500D03*
X136420000Y-86682500D03*
%TD*%
D28*
%TO.C,R4*%
X132684000Y-64872800D03*
X134509000Y-64872800D03*
%TD*%
D49*
%TO.C,LED1*%
X81079400Y-43307000D03*
X82829400Y-43307000D03*
%TD*%
D15*
%TO.C,C21*%
X136952500Y-77610000D03*
X135227500Y-77610000D03*
%TD*%
D27*
%TO.C,Q1*%
X129037500Y-60900000D03*
X129037500Y-59000000D03*
X127162500Y-59950000D03*
%TD*%
D50*
%TO.C,C5*%
X104437500Y-82360000D03*
X112837500Y-82360000D03*
%TD*%
D42*
%TO.C,C4*%
X117271800Y-48413500D03*
X117271800Y-50138500D03*
%TD*%
D21*
%TO.C,D5*%
X114050000Y-68300000D03*
X110750000Y-68300000D03*
%TD*%
D51*
%TO.C,CON5*%
X184556400Y-94843600D03*
D52*
X184556400Y-92343600D03*
X184556400Y-89843600D03*
%TD*%
D53*
%TO.C,C10*%
X101010000Y-63370000D03*
X101010000Y-71770000D03*
%TD*%
D29*
%TO.C,R12*%
X155471500Y-82016600D03*
X153646500Y-82016600D03*
%TD*%
D54*
%TO.C,Y2*%
X135260000Y-73420000D03*
X135260000Y-75620000D03*
X136960000Y-75620000D03*
X136960000Y-73420000D03*
%TD*%
D28*
%TO.C,R17*%
X139158300Y-58574700D03*
X140983300Y-58574700D03*
%TD*%
D17*
%TO.C,C1*%
X98800000Y-50400000D03*
X98800000Y-48675000D03*
%TD*%
D31*
%TO.C,R20*%
X122656600Y-50163100D03*
X122656600Y-48338100D03*
%TD*%
D44*
%TO.C,TP6*%
X80416400Y-54508400D03*
%TD*%
D55*
%TO.C,U2-A*%
X172598300Y-76860400D03*
X172598300Y-75590400D03*
X172598300Y-74320400D03*
X172598300Y-73050400D03*
X166798300Y-73050400D03*
X166798300Y-74320400D03*
X166798300Y-75590400D03*
X166798300Y-76860400D03*
D56*
X169698300Y-74955400D03*
%TD*%
D44*
%TO.C,CON8*%
X75236800Y-100602800D03*
D57*
X83736800Y-62617800D03*
X83736800Y-100587800D03*
%TD*%
D21*
%TO.C,D4*%
X114050000Y-65300000D03*
X110750000Y-65300000D03*
%TD*%
D30*
%TO.C,R15*%
X112014000Y-90654500D03*
X112014000Y-92479500D03*
%TD*%
D45*
%TO.C,TP5*%
X83312000Y-54660800D03*
%TD*%
%TO.C,TP4*%
X85500000Y-53700000D03*
%TD*%
D58*
%TO.C,RT1*%
X92094300Y-44474600D03*
X87819300Y-44474600D03*
%TD*%
D42*
%TO.C,C22*%
X133180000Y-74447500D03*
X133180000Y-76172500D03*
%TD*%
%TO.C,C24*%
X138880000Y-84977500D03*
X138880000Y-86702500D03*
%TD*%
D14*
%TO.C,C11*%
X132775000Y-60875000D03*
X134500000Y-60875000D03*
%TD*%
D17*
%TO.C,C2*%
X101000000Y-50362500D03*
X101000000Y-48637500D03*
%TD*%
D59*
%TO.C,Y1*%
X136440000Y-82560000D03*
X138940000Y-82560000D03*
%TD*%
D60*
%TO.C,TP1*%
X77241400Y-53086000D03*
%TD*%
D17*
%TO.C,C3*%
X103100000Y-50325000D03*
X103100000Y-48600000D03*
%TD*%
D37*
%TO.C,U10-A*%
X122865000Y-73431400D03*
X122865000Y-72161400D03*
X122865000Y-70891400D03*
X122865000Y-69621400D03*
X117915000Y-69621400D03*
X117915000Y-70891400D03*
X117915000Y-72161400D03*
X117915000Y-73431400D03*
%TD*%
D61*
%TO.C,U8*%
X105858600Y-54984200D03*
X106508600Y-54984200D03*
X107158600Y-54984200D03*
X107808600Y-54984200D03*
X108458600Y-54984200D03*
X109108600Y-54984200D03*
X109758600Y-54984200D03*
X110408600Y-54984200D03*
X111058600Y-54984200D03*
X111708600Y-54984200D03*
X112358600Y-54984200D03*
X113008600Y-54984200D03*
X113658600Y-54984200D03*
X114308600Y-54984200D03*
X114308600Y-47784200D03*
X113658600Y-47784200D03*
X113008600Y-47784200D03*
X112358600Y-47784200D03*
X111708600Y-47784200D03*
X111058600Y-47784200D03*
X110408600Y-47784200D03*
X109758600Y-47784200D03*
X109108600Y-47784200D03*
X108458600Y-47784200D03*
X107808600Y-47784200D03*
X107158600Y-47784200D03*
X106508600Y-47784200D03*
X105858600Y-47784200D03*
%TD*%
M02*
