M48
; DRILL file {KiCad (6.0.1)} date Tue Sep 20 17:47:17 2022
; FORMAT={-:-/ absolute / inch / decimal}
; #@! TF.CreationDate,2022-09-20T17:47:17-03:00
; #@! TF.GenerationSoftware,Kicad,Pcbnew,(6.0.1)
; #@! TF.FileFunction,Plated,1,2,PTH
FMAT,2
INCH
; #@! TA.AperFunction,Plated,PTH,ComponentDrill
T1C0.0118
; #@! TA.AperFunction,Plated,PTH,ViaDrill
T2C0.0157
; #@! TA.AperFunction,Plated,PTH,ViaDrill
T3C0.0295
; #@! TA.AperFunction,Plated,PTH,ComponentDrill
T4C0.0374
; #@! TA.AperFunction,Plated,PTH,ComponentDrill
T5C0.0394
; #@! TA.AperFunction,Plated,PTH,ComponentDrill
T6C0.0579
; #@! TA.AperFunction,Plated,PTH,ComponentDrill
T7C0.0701
; #@! TA.AperFunction,Plated,PTH,ViaDrill
T8C0.0709
; #@! TA.AperFunction,Plated,PTH,ComponentDrill
T9C0.0906
; #@! TA.AperFunction,Plated,PTH,ComponentDrill
T10C0.1260
; #@! TA.AperFunction,Plated,PTH,ViaDrill
T11C0.1772
%
G90
G05
T1
X4.8078Y-2.3721
X4.8078Y-2.4272
T2
X3.208Y-1.648
X3.3622Y-2.0394
X3.3661Y-2.1772
X3.4055Y-2.1535
X3.6102Y-2.2205
X4.1339Y-2.311
X4.2323Y-2.311
X4.2551Y-3.0394
X4.2795Y-2.3071
X4.321Y-2.11
X4.336Y-1.82
X4.4236Y-1.8214
X4.4331Y-2.3425
X4.4409Y-2.6732
X4.4724Y-2.9606
X4.5074Y-2.8386
X4.524Y-3.5039
X4.5587Y-3.0244
X4.5606Y-3.1457
X4.6969Y-2.3307
X4.7126Y-2.4173
X4.7418Y-3.07
X4.8819Y-2.6299
X4.9155Y-2.8937
X4.9488Y-2.7441
X4.953Y-2.282
X4.9537Y-2.5305
X4.9538Y-2.1604
X4.9545Y-3.2745
X4.9651Y-3.2291
X5.0Y-2.4488
X5.074Y-2.01
X5.1063Y-2.815
X5.1181Y-2.8543
X5.121Y-3.187
X5.122Y-2.15
X5.1254Y-2.098
X5.1272Y-3.1535
X5.128Y-2.3327
X5.1688Y-2.5147
X5.1703Y-2.4183
X5.1727Y-2.4694
X5.1815Y-2.7046
X5.3228Y-2.6033
X5.3363Y-2.4724
X5.374Y-2.4547
X5.4055Y-2.6772
X5.4094Y-2.456
X5.435Y-2.7972
X5.438Y-2.208
X5.4504Y-2.8906
X5.47Y-1.743
X5.5193Y-2.9736
X5.547Y-2.666
X5.55Y-1.75
X5.5866Y-2.581
X5.5906Y-2.4567
X5.605Y-2.648
X5.632Y-2.364
X5.6413Y-2.9079
X5.6417Y-2.9961
X5.6417Y-3.1929
X5.642Y-3.2283
X5.6602Y-2.9366
X5.662Y-2.374
X5.662Y-2.109
X5.665Y-1.763
X5.6693Y-2.622
X5.677Y-2.0775
X5.6963Y-2.109
X5.6964Y-1.765
X5.6969Y-3.2087
X5.699Y-3.9409
X5.7087Y-3.0236
X5.7278Y-2.1087
X5.728Y-1.766
X5.7283Y-2.9961
X5.7441Y-2.3685
X5.75Y-2.0785
X5.7543Y-2.5287
X5.7595Y-1.766
X5.762Y-2.109
X5.764Y-2.844
X5.7953Y-3.3937
X5.7992Y-3.9409
X5.888Y-3.081
X5.9173Y-2.5669
X5.9213Y-2.5354
X5.927Y-2.109
X5.93Y-1.762
X5.9395Y-2.0755
X5.9488Y-2.6142
X5.9488Y-2.8898
X5.9567Y-2.9252
X5.958Y-2.965
X5.961Y-1.653
X5.9613Y-2.109
X5.9861Y-2.6222
X5.9928Y-2.109
X5.994Y-1.653
X6.009Y-2.079
X6.027Y-2.109
X6.039Y-3.175
X6.057Y-1.618
X6.0866Y-2.7323
X6.0866Y-2.9173
X6.0906Y-2.7677
X6.116Y-1.801
X6.126Y-3.6772
X6.1378Y-2.5394
X6.1693Y-2.951
X6.176Y-3.044
X6.192Y-2.109
X6.195Y-1.77
X6.2045Y-2.0765
X6.2126Y-3.2323
X6.2263Y-2.109
X6.2285Y-1.622
X6.2577Y-2.2777
X6.2578Y-2.109
X6.2638Y-2.5787
X6.277Y-2.0765
X6.287Y-3.064
X6.2874Y-2.7008
X6.2892Y-2.2777
X6.292Y-2.1094
X6.322Y-3.028
X6.35Y-2.271
X6.374Y-2.6614
X6.406Y-1.797
X6.4409Y-3.7795
X6.467Y-2.109
X6.4695Y-1.769
X6.483Y-2.081
X6.501Y-1.769
X6.5013Y-2.109
X6.504Y-2.877
X6.525Y-3.026
X6.53Y-2.41
X6.5328Y-2.109
X6.5533Y-2.0806
X6.567Y-2.109
X6.658Y-3.7527
X6.679Y-2.95
X6.8307Y-2.8583
T3
X4.2421Y-3.5177
X4.3583Y-3.8583
T4
X4.4118Y-1.6155
X4.4118Y-1.6942
X4.5102Y-1.6155
X4.5102Y-1.6942
X7.266Y-3.5371
X7.266Y-3.6356
X7.266Y-3.734
T5
X4.3774Y-4.2214
X4.432Y-4.1096
X4.4865Y-4.2214
X4.541Y-4.1096
X4.5956Y-4.2214
X4.6501Y-4.1096
X4.7046Y-4.2214
X4.7591Y-4.1096
X4.8137Y-4.2214
X5.3059Y-1.4869
X5.3604Y-1.3751
X5.4149Y-1.4869
X5.4694Y-1.3751
X5.524Y-1.4869
X5.5785Y-1.3751
X5.633Y-1.4869
X5.6876Y-1.3751
X5.7421Y-1.4869
X5.7966Y-1.3751
X5.7983Y-4.2268
X5.8511Y-1.4869
X5.8528Y-4.115
X5.9057Y-1.3751
X5.9074Y-4.2268
X5.9602Y-1.4869
X5.9619Y-4.115
X6.0147Y-1.3751
X6.0164Y-4.2268
X6.0693Y-1.4869
X6.0709Y-4.115
X6.1238Y-1.3751
X6.1255Y-4.2268
X6.1783Y-1.4869
X6.18Y-4.115
X6.2328Y-1.3751
X6.2345Y-4.2268
X6.2874Y-1.4869
X6.2891Y-4.115
X6.3419Y-1.3751
X6.3436Y-4.2268
X6.3964Y-1.4869
X6.3981Y-4.115
X6.4509Y-1.3751
X6.4526Y-4.2268
X6.5055Y-1.4869
X6.5072Y-4.115
X6.56Y-1.3751
X6.5617Y-4.2268
X6.6145Y-1.4869
X7.0537Y-2.454
X7.0537Y-2.554
X7.0537Y-2.654
X7.0537Y-2.754
X7.0537Y-2.854
X7.0537Y-2.954
X7.0537Y-3.054
X7.1537Y-2.454
X7.1537Y-2.554
X7.1537Y-2.654
X7.1537Y-2.754
X7.1537Y-2.854
X7.1537Y-2.954
X7.1537Y-3.054
T6
X3.2967Y-2.4653
X3.2967Y-3.9601
T7
X3.201Y-1.3691
X3.401Y-1.3691
X3.601Y-1.3691
X3.801Y-1.3691
T8
X2.925Y-2.092
X3.7008Y-1.752
X3.7795Y-1.751
T9
X4.2248Y-1.5029
X4.6972Y-1.5029
T10
X4.1034Y-4.1655
X5.033Y-1.431
X5.0877Y-4.1655
X5.5245Y-4.1709
X6.8355Y-4.1709
X6.8874Y-1.431
T11
X2.6795Y-1.2531
X2.6862Y-4.3504
X2.7142Y-3.2154
X3.8126Y-3.2126
X7.312Y-1.265
X7.319Y-4.344
T0
M30
