%TF.GenerationSoftware,KiCad,Pcbnew,(6.0.0)*%
%TF.CreationDate,2022-01-24T11:23:06-03:00*%
%TF.ProjectId,HLI-M,484c492d-4d2e-46b6-9963-61645f706362,rev?*%
%TF.SameCoordinates,Original*%
%TF.FileFunction,Soldermask,Top*%
%TF.FilePolarity,Negative*%
%FSLAX46Y46*%
G04 Gerber Fmt 4.6, Leading zero omitted, Abs format (unit mm)*
G04 Created by KiCad (PCBNEW (6.0.0)) date 2022-01-24 11:23:06*
%MOMM*%
%LPD*%
G01*
G04 APERTURE LIST*
G04 Aperture macros list*
%AMRoundRect*
0 Rectangle with rounded corners*
0 $1 Rounding radius*
0 $2 $3 $4 $5 $6 $7 $8 $9 X,Y pos of 4 corners*
0 Add a 4 corners polygon primitive as box body*
4,1,4,$2,$3,$4,$5,$6,$7,$8,$9,$2,$3,0*
0 Add four circle primitives for the rounded corners*
1,1,$1+$1,$2,$3*
1,1,$1+$1,$4,$5*
1,1,$1+$1,$6,$7*
1,1,$1+$1,$8,$9*
0 Add four rect primitives between the rounded corners*
20,1,$1+$1,$2,$3,$4,$5,0*
20,1,$1+$1,$4,$5,$6,$7,0*
20,1,$1+$1,$6,$7,$8,$9,0*
20,1,$1+$1,$8,$9,$2,$3,0*%
G04 Aperture macros list end*
%ADD10C,0.500000*%
%TA.AperFunction,Profile*%
%ADD11C,0.050000*%
%TD*%
%ADD12C,0.150000*%
%ADD13C,0.300000*%
%ADD14RoundRect,0.237500X0.300000X0.237500X-0.300000X0.237500X-0.300000X-0.237500X0.300000X-0.237500X0*%
%ADD15RoundRect,0.237500X-0.300000X-0.237500X0.300000X-0.237500X0.300000X0.237500X-0.300000X0.237500X0*%
%ADD16RoundRect,0.237500X0.237500X-0.300000X0.237500X0.300000X-0.237500X0.300000X-0.237500X-0.300000X0*%
%ADD17RoundRect,0.237500X-0.237500X0.300000X-0.237500X-0.300000X0.237500X-0.300000X0.237500X0.300000X0*%
%ADD18RoundRect,0.250000X-0.325000X-0.650000X0.325000X-0.650000X0.325000X0.650000X-0.325000X0.650000X0*%
%ADD19RoundRect,0.250000X-0.650000X0.325000X-0.650000X-0.325000X0.650000X-0.325000X0.650000X0.325000X0*%
%ADD20R,0.640000X0.700000*%
%ADD21R,0.500000X0.700000*%
%ADD22RoundRect,0.237500X0.287500X0.237500X-0.287500X0.237500X-0.287500X-0.237500X0.287500X-0.237500X0*%
%ADD23RoundRect,0.250001X-0.462499X-0.624999X0.462499X-0.624999X0.462499X0.624999X-0.462499X0.624999X0*%
%ADD24RoundRect,0.237500X-0.287500X-0.237500X0.287500X-0.237500X0.287500X0.237500X-0.287500X0.237500X0*%
%ADD25RoundRect,0.237500X-0.237500X0.287500X-0.237500X-0.287500X0.237500X-0.287500X0.237500X0.287500X0*%
%ADD26RoundRect,0.250000X0.275000X0.700000X-0.275000X0.700000X-0.275000X-0.700000X0.275000X-0.700000X0*%
%ADD27RoundRect,0.250000X-0.700000X0.275000X-0.700000X-0.275000X0.700000X-0.275000X0.700000X0.275000X0*%
%ADD28C,4.000000*%
%ADD29R,1.600000X1.600000*%
%ADD30C,1.600000*%
%ADD31R,1.700000X1.700000*%
%ADD32O,1.700000X1.700000*%
%ADD33R,0.800000X0.900000*%
%ADD34RoundRect,0.237500X-0.237500X0.250000X-0.237500X-0.250000X0.237500X-0.250000X0.237500X0.250000X0*%
%ADD35RoundRect,0.237500X0.250000X0.237500X-0.250000X0.237500X-0.250000X-0.237500X0.250000X-0.237500X0*%
%ADD36RoundRect,0.237500X-0.250000X-0.237500X0.250000X-0.237500X0.250000X0.237500X-0.250000X0.237500X0*%
%ADD37RoundRect,0.237500X0.237500X-0.250000X0.237500X0.250000X-0.237500X0.250000X-0.237500X-0.250000X0*%
%ADD38R,1.473200X0.279400*%
%ADD39R,0.279400X1.473200*%
%ADD40R,0.650000X1.060000*%
%ADD41RoundRect,0.062500X0.375000X0.062500X-0.375000X0.062500X-0.375000X-0.062500X0.375000X-0.062500X0*%
%ADD42RoundRect,0.062500X0.062500X0.375000X-0.062500X0.375000X-0.062500X-0.375000X0.062500X-0.375000X0*%
%ADD43R,3.450000X3.450000*%
%ADD44R,0.254000X0.812800*%
%ADD45R,2.000000X1.600000*%
%ADD46R,1.460500X0.538480*%
%ADD47R,1.060000X0.650000*%
%ADD48RoundRect,0.150000X-0.150000X0.825000X-0.150000X-0.825000X0.150000X-0.825000X0.150000X0.825000X0*%
%ADD49R,0.600000X2.100000*%
%ADD50R,1.981200X0.560800*%
%ADD51RoundRect,0.150000X0.825000X0.150000X-0.825000X0.150000X-0.825000X-0.150000X0.825000X-0.150000X0*%
%ADD52C,1.500000*%
%ADD53C,2.205000*%
G04 APERTURE END LIST*
D10*
X100000000Y-89500000D02*
X98000000Y-89500000D01*
X180500000Y-40500000D02*
X180500000Y-42500000D01*
X181500000Y-41500000D02*
X179500000Y-41500000D01*
X99000000Y-88500000D02*
X99000000Y-90500000D01*
D11*
X186436000Y-113538000D02*
X186436000Y-29500000D01*
X70104000Y-29500000D02*
X70104000Y-113538000D01*
X186436000Y-29500000D02*
X70104000Y-29500000D01*
X70104000Y-113538000D02*
X186436000Y-113538000D01*
D12*
X175109523Y-33252380D02*
X175109523Y-32585714D01*
X175109523Y-32680952D02*
X175157142Y-32633333D01*
X175252380Y-32585714D01*
X175395238Y-32585714D01*
X175490476Y-32633333D01*
X175538095Y-32728571D01*
X175538095Y-33252380D01*
X175538095Y-32728571D02*
X175585714Y-32633333D01*
X175680952Y-32585714D01*
X175823809Y-32585714D01*
X175919047Y-32633333D01*
X175966666Y-32728571D01*
X175966666Y-33252380D01*
X176871428Y-33252380D02*
X176871428Y-32728571D01*
X176823809Y-32633333D01*
X176728571Y-32585714D01*
X176538095Y-32585714D01*
X176442857Y-32633333D01*
X176871428Y-33204761D02*
X176776190Y-33252380D01*
X176538095Y-33252380D01*
X176442857Y-33204761D01*
X176395238Y-33109523D01*
X176395238Y-33014285D01*
X176442857Y-32919047D01*
X176538095Y-32871428D01*
X176776190Y-32871428D01*
X176871428Y-32823809D01*
X177300000Y-33204761D02*
X177395238Y-33252380D01*
X177585714Y-33252380D01*
X177680952Y-33204761D01*
X177728571Y-33109523D01*
X177728571Y-33061904D01*
X177680952Y-32966666D01*
X177585714Y-32919047D01*
X177442857Y-32919047D01*
X177347619Y-32871428D01*
X177300000Y-32776190D01*
X177300000Y-32728571D01*
X177347619Y-32633333D01*
X177442857Y-32585714D01*
X177585714Y-32585714D01*
X177680952Y-32633333D01*
X178157142Y-33252380D02*
X178157142Y-32252380D01*
X178252380Y-32871428D02*
X178538095Y-33252380D01*
X178538095Y-32585714D02*
X178157142Y-32966666D01*
D13*
X171035714Y-31678571D02*
X171892857Y-31678571D01*
X171464285Y-33178571D02*
X171464285Y-31678571D01*
X172678571Y-31678571D02*
X172964285Y-31678571D01*
X173107142Y-31750000D01*
X173250000Y-31892857D01*
X173321428Y-32178571D01*
X173321428Y-32678571D01*
X173250000Y-32964285D01*
X173107142Y-33107142D01*
X172964285Y-33178571D01*
X172678571Y-33178571D01*
X172535714Y-33107142D01*
X172392857Y-32964285D01*
X172321428Y-32678571D01*
X172321428Y-32178571D01*
X172392857Y-31892857D01*
X172535714Y-31750000D01*
X172678571Y-31678571D01*
X173964285Y-33178571D02*
X173964285Y-31678571D01*
X174535714Y-31678571D01*
X174678571Y-31750000D01*
X174750000Y-31821428D01*
X174821428Y-31964285D01*
X174821428Y-32178571D01*
X174750000Y-32321428D01*
X174678571Y-32392857D01*
X174535714Y-32464285D01*
X173964285Y-32464285D01*
D14*
%TO.C,C3*%
X93255000Y-55626000D03*
X91530000Y-55626000D03*
%TD*%
D15*
%TO.C,C6*%
X91530000Y-53721000D03*
X93255000Y-53721000D03*
%TD*%
D16*
%TO.C,C7*%
X103441000Y-48424000D03*
X103441000Y-46699000D03*
%TD*%
D17*
%TO.C,C11*%
X110617000Y-80671500D03*
X110617000Y-82396500D03*
%TD*%
D15*
%TO.C,C15*%
X126645500Y-66802000D03*
X128370500Y-66802000D03*
%TD*%
%TO.C,C16*%
X126645500Y-68897500D03*
X128370500Y-68897500D03*
%TD*%
%TO.C,C17*%
X173381500Y-79502000D03*
X175106500Y-79502000D03*
%TD*%
%TO.C,C18*%
X168047500Y-73406000D03*
X169772500Y-73406000D03*
%TD*%
%TO.C,C19*%
X159665500Y-73914000D03*
X161390500Y-73914000D03*
%TD*%
D18*
%TO.C,C20*%
X159561000Y-69342000D03*
X162511000Y-69342000D03*
%TD*%
D16*
%TO.C,C21*%
X150914100Y-63740200D03*
X150914100Y-62015200D03*
%TD*%
%TO.C,C22*%
X146024600Y-63727500D03*
X146024600Y-62002500D03*
%TD*%
D19*
%TO.C,C24*%
X143256000Y-83869000D03*
X143256000Y-86819000D03*
%TD*%
D17*
%TO.C,C25*%
X135394700Y-80531800D03*
X135394700Y-82256800D03*
%TD*%
%TO.C,C26*%
X140030700Y-80569900D03*
X140030700Y-82294900D03*
%TD*%
D20*
%TO.C,CA1*%
X164167000Y-50277800D03*
D21*
X163297000Y-50277800D03*
X162497000Y-50277800D03*
D20*
X161627000Y-50277800D03*
X161627000Y-51677800D03*
D21*
X162497000Y-51677800D03*
X163297000Y-51677800D03*
D20*
X164167000Y-51677800D03*
%TD*%
%TO.C,CA3*%
X143700000Y-50227000D03*
D21*
X142830000Y-50227000D03*
X142030000Y-50227000D03*
D20*
X141160000Y-50227000D03*
X141160000Y-51627000D03*
D21*
X142030000Y-51627000D03*
X142830000Y-51627000D03*
D20*
X143700000Y-51627000D03*
%TD*%
D22*
%TO.C,DLED2*%
X115939500Y-44950000D03*
X114189500Y-44950000D03*
%TD*%
D23*
%TO.C,D4*%
X110907500Y-56515000D03*
X113882500Y-56515000D03*
%TD*%
%TO.C,D5*%
X110907500Y-59245500D03*
X113882500Y-59245500D03*
%TD*%
D24*
%TO.C,DLED6*%
X109450000Y-72500000D03*
X111200000Y-72500000D03*
%TD*%
D23*
%TO.C,D8*%
X101350000Y-72000000D03*
X104325000Y-72000000D03*
%TD*%
D25*
%TO.C,DLED9*%
X153162000Y-90184000D03*
X153162000Y-91934000D03*
%TD*%
%TO.C,DLED10*%
X155829000Y-90184000D03*
X155829000Y-91934000D03*
%TD*%
D26*
%TO.C,FT1*%
X104285500Y-74857500D03*
X101135500Y-74857500D03*
%TD*%
D27*
%TO.C,FT2*%
X118500000Y-36225000D03*
X118500000Y-39375000D03*
%TD*%
D28*
%TO.C,CON4*%
X172610800Y-37518200D03*
X125510800Y-37518200D03*
D29*
X165680800Y-38938200D03*
D30*
X162910800Y-38938200D03*
X160140800Y-38938200D03*
X157370800Y-38938200D03*
X154600800Y-38938200D03*
X151830800Y-38938200D03*
X149060800Y-38938200D03*
X146290800Y-38938200D03*
X143520800Y-38938200D03*
X140750800Y-38938200D03*
X137980800Y-38938200D03*
X135210800Y-38938200D03*
X132440800Y-38938200D03*
X164295800Y-36098200D03*
X161525800Y-36098200D03*
X158755800Y-36098200D03*
X155985800Y-36098200D03*
X153215800Y-36098200D03*
X150445800Y-36098200D03*
X147675800Y-36098200D03*
X144905800Y-36098200D03*
X142135800Y-36098200D03*
X139365800Y-36098200D03*
X136595800Y-36098200D03*
X133825800Y-36098200D03*
%TD*%
D31*
%TO.C,CON6*%
X180848000Y-62230000D03*
D32*
X180848000Y-64770000D03*
X180848000Y-67310000D03*
X180848000Y-69850000D03*
X180848000Y-72390000D03*
X180848000Y-74930000D03*
%TD*%
D33*
%TO.C,Q1*%
X137927000Y-61579000D03*
X139827000Y-61579000D03*
X138877000Y-59579000D03*
%TD*%
%TO.C,Q5*%
X107884000Y-89424000D03*
X105984000Y-89424000D03*
X106934000Y-91424000D03*
%TD*%
%TO.C,Q6*%
X110106000Y-94631000D03*
X108206000Y-94631000D03*
X109156000Y-96631000D03*
%TD*%
%TO.C,Q8*%
X129374400Y-94935800D03*
X127474400Y-94935800D03*
X128424400Y-96935800D03*
%TD*%
D34*
%TO.C,R2*%
X105664000Y-46649000D03*
X105664000Y-48474000D03*
%TD*%
D35*
%TO.C,R4*%
X111850000Y-44950000D03*
X110025000Y-44950000D03*
%TD*%
D36*
%TO.C,R5*%
X114022500Y-81026000D03*
X115847500Y-81026000D03*
%TD*%
D37*
%TO.C,R6*%
X118999000Y-69516000D03*
X118999000Y-67691000D03*
%TD*%
D36*
%TO.C,R7*%
X126595500Y-64706500D03*
X128420500Y-64706500D03*
%TD*%
%TO.C,R8*%
X113146300Y-72500000D03*
X114971300Y-72500000D03*
%TD*%
D35*
%TO.C,R9*%
X114984500Y-70150000D03*
X113159500Y-70150000D03*
%TD*%
%TO.C,R16*%
X175156500Y-77470000D03*
X173331500Y-77470000D03*
%TD*%
D34*
%TO.C,R17*%
X118554000Y-85424000D03*
X118554000Y-87249000D03*
%TD*%
%TO.C,R18*%
X120332000Y-85424000D03*
X120332000Y-87249000D03*
%TD*%
%TO.C,R19*%
X122110000Y-85447500D03*
X122110000Y-87272500D03*
%TD*%
%TO.C,R20*%
X123888000Y-85424000D03*
X123888000Y-87249000D03*
%TD*%
D36*
%TO.C,R23*%
X159615500Y-71628000D03*
X161440500Y-71628000D03*
%TD*%
D37*
%TO.C,R24*%
X145478500Y-85621500D03*
X145478500Y-83796500D03*
%TD*%
%TO.C,R10*%
X153162000Y-96162500D03*
X153162000Y-94337500D03*
%TD*%
%TO.C,R11*%
X155829000Y-96162500D03*
X155829000Y-94337500D03*
%TD*%
D35*
%TO.C,R12*%
X135532500Y-67373500D03*
X133707500Y-67373500D03*
%TD*%
D36*
%TO.C,R13*%
X133707500Y-69215000D03*
X135532500Y-69215000D03*
%TD*%
%TO.C,R26*%
X137898500Y-63500000D03*
X139723500Y-63500000D03*
%TD*%
%TO.C,R30*%
X127573900Y-92125800D03*
X129398900Y-92125800D03*
%TD*%
D34*
%TO.C,R31*%
X110871000Y-89511500D03*
X110871000Y-91336500D03*
%TD*%
D20*
%TO.C,RN1*%
X164148000Y-46417000D03*
D21*
X163278000Y-46417000D03*
X162478000Y-46417000D03*
D20*
X161608000Y-46417000D03*
X161608000Y-47817000D03*
D21*
X162478000Y-47817000D03*
X163278000Y-47817000D03*
D20*
X164148000Y-47817000D03*
%TD*%
%TO.C,RN2*%
X150432000Y-46290000D03*
D21*
X149562000Y-46290000D03*
X148762000Y-46290000D03*
D20*
X147892000Y-46290000D03*
X147892000Y-47690000D03*
D21*
X148762000Y-47690000D03*
X149562000Y-47690000D03*
D20*
X150432000Y-47690000D03*
%TD*%
%TO.C,RN3*%
X143700000Y-46290000D03*
D21*
X142830000Y-46290000D03*
X142030000Y-46290000D03*
D20*
X141160000Y-46290000D03*
X141160000Y-47690000D03*
D21*
X142030000Y-47690000D03*
X142830000Y-47690000D03*
D20*
X143700000Y-47690000D03*
%TD*%
%TO.C,RN5*%
X164148000Y-54418000D03*
D21*
X163278000Y-54418000D03*
X162478000Y-54418000D03*
D20*
X161608000Y-54418000D03*
X161608000Y-55818000D03*
D21*
X162478000Y-55818000D03*
X163278000Y-55818000D03*
D20*
X164148000Y-55818000D03*
%TD*%
%TO.C,RN6*%
X150432000Y-54418000D03*
D21*
X149562000Y-54418000D03*
X148762000Y-54418000D03*
D20*
X147892000Y-54418000D03*
X147892000Y-55818000D03*
D21*
X148762000Y-55818000D03*
X149562000Y-55818000D03*
D20*
X150432000Y-55818000D03*
%TD*%
%TO.C,RN7*%
X143700000Y-54418000D03*
D21*
X142830000Y-54418000D03*
X142030000Y-54418000D03*
D20*
X141160000Y-54418000D03*
X141160000Y-55818000D03*
D21*
X142030000Y-55818000D03*
X142830000Y-55818000D03*
D20*
X143700000Y-55818000D03*
%TD*%
D38*
%TO.C,U1*%
X153060400Y-77791000D03*
X153060400Y-77291001D03*
X153060400Y-76791000D03*
X153060400Y-76291001D03*
X153060400Y-75790999D03*
X153060400Y-75291000D03*
X153060400Y-74791001D03*
X153060400Y-74291000D03*
X153060400Y-73791000D03*
X153060400Y-73290999D03*
X153060400Y-72791000D03*
X153060400Y-72291001D03*
X153060400Y-71790999D03*
X153060400Y-71291000D03*
X153060400Y-70790999D03*
X153060400Y-70291000D03*
D39*
X151197000Y-68427600D03*
X150697001Y-68427600D03*
X150197000Y-68427600D03*
X149697001Y-68427600D03*
X149196999Y-68427600D03*
X148697000Y-68427600D03*
X148197001Y-68427600D03*
X147697000Y-68427600D03*
X147197000Y-68427600D03*
X146696999Y-68427600D03*
X146197000Y-68427600D03*
X145697001Y-68427600D03*
X145196999Y-68427600D03*
X144697000Y-68427600D03*
X144196999Y-68427600D03*
X143697000Y-68427600D03*
D38*
X141833600Y-70291000D03*
X141833600Y-70790999D03*
X141833600Y-71291000D03*
X141833600Y-71790999D03*
X141833600Y-72291001D03*
X141833600Y-72791000D03*
X141833600Y-73290999D03*
X141833600Y-73791000D03*
X141833600Y-74291000D03*
X141833600Y-74791001D03*
X141833600Y-75291000D03*
X141833600Y-75790999D03*
X141833600Y-76291001D03*
X141833600Y-76791000D03*
X141833600Y-77291001D03*
X141833600Y-77791000D03*
D39*
X143697000Y-79654400D03*
X144196999Y-79654400D03*
X144697000Y-79654400D03*
X145196999Y-79654400D03*
X145697001Y-79654400D03*
X146197000Y-79654400D03*
X146696999Y-79654400D03*
X147197000Y-79654400D03*
X147697000Y-79654400D03*
X148197001Y-79654400D03*
X148697000Y-79654400D03*
X149196999Y-79654400D03*
X149697001Y-79654400D03*
X150197000Y-79654400D03*
X150697001Y-79654400D03*
X151197000Y-79654400D03*
%TD*%
D40*
%TO.C,U2*%
X100962500Y-46715500D03*
X100012500Y-46715500D03*
X99062500Y-46715500D03*
X99062500Y-48915500D03*
X100012500Y-48915500D03*
X100962500Y-48915500D03*
%TD*%
D41*
%TO.C,U3*%
X102259500Y-56169500D03*
X102259500Y-55669500D03*
X102259500Y-55169500D03*
X102259500Y-54669500D03*
X102259500Y-54169500D03*
X102259500Y-53669500D03*
X102259500Y-53169500D03*
X102259500Y-52669500D03*
D42*
X101572000Y-51982000D03*
X101072000Y-51982000D03*
X100572000Y-51982000D03*
X100072000Y-51982000D03*
X99572000Y-51982000D03*
X99072000Y-51982000D03*
X98572000Y-51982000D03*
X98072000Y-51982000D03*
D41*
X97384500Y-52669500D03*
X97384500Y-53169500D03*
X97384500Y-53669500D03*
X97384500Y-54169500D03*
X97384500Y-54669500D03*
X97384500Y-55169500D03*
X97384500Y-55669500D03*
X97384500Y-56169500D03*
D42*
X98072000Y-56857000D03*
X98572000Y-56857000D03*
X99072000Y-56857000D03*
X99572000Y-56857000D03*
X100072000Y-56857000D03*
X100572000Y-56857000D03*
X101072000Y-56857000D03*
X101572000Y-56857000D03*
D43*
X99822000Y-54419500D03*
%TD*%
D44*
%TO.C,U5*%
X121015001Y-59385200D03*
X120514999Y-59385200D03*
X120015000Y-59385200D03*
X119515001Y-59385200D03*
X119014999Y-59385200D03*
X119014999Y-62280800D03*
X119515001Y-62280800D03*
X120015000Y-62280800D03*
X120514999Y-62280800D03*
X121015001Y-62280800D03*
D45*
X120015000Y-60833000D03*
%TD*%
D40*
%TO.C,U6*%
X123886000Y-65575000D03*
X122936000Y-65575000D03*
X121986000Y-65575000D03*
X121986000Y-67775000D03*
X123886000Y-67775000D03*
%TD*%
D46*
%TO.C,U7*%
X169602150Y-79629000D03*
X169602150Y-78359000D03*
X169602150Y-77089000D03*
X169602150Y-75819000D03*
X164153850Y-75819000D03*
X164153850Y-77089000D03*
X164153850Y-78359000D03*
X164153850Y-79629000D03*
%TD*%
D47*
%TO.C,U9*%
X131148000Y-73340000D03*
X131148000Y-72390000D03*
X131148000Y-71440000D03*
X128948000Y-71440000D03*
X128948000Y-73340000D03*
%TD*%
D48*
%TO.C,U12*%
X175641000Y-91251000D03*
X174371000Y-91251000D03*
X173101000Y-91251000D03*
X171831000Y-91251000D03*
X170561000Y-91251000D03*
X169291000Y-91251000D03*
X168021000Y-91251000D03*
X166751000Y-91251000D03*
X166751000Y-96201000D03*
X168021000Y-96201000D03*
X169291000Y-96201000D03*
X170561000Y-96201000D03*
X171831000Y-96201000D03*
X173101000Y-96201000D03*
X174371000Y-96201000D03*
X175641000Y-96201000D03*
%TD*%
%TO.C,U13*%
X149987000Y-91378000D03*
X148717000Y-91378000D03*
X147447000Y-91378000D03*
X146177000Y-91378000D03*
X144907000Y-91378000D03*
X143637000Y-91378000D03*
X142367000Y-91378000D03*
X141097000Y-91378000D03*
X141097000Y-96328000D03*
X142367000Y-96328000D03*
X143637000Y-96328000D03*
X144907000Y-96328000D03*
X146177000Y-96328000D03*
X147447000Y-96328000D03*
X148717000Y-96328000D03*
X149987000Y-96328000D03*
%TD*%
%TO.C,U14*%
X123825000Y-91378000D03*
X122555000Y-91378000D03*
X121285000Y-91378000D03*
X120015000Y-91378000D03*
X118745000Y-91378000D03*
X117475000Y-91378000D03*
X116205000Y-91378000D03*
X114935000Y-91378000D03*
X114935000Y-96328000D03*
X116205000Y-96328000D03*
X117475000Y-96328000D03*
X118745000Y-96328000D03*
X120015000Y-96328000D03*
X121285000Y-96328000D03*
X122555000Y-96328000D03*
X123825000Y-96328000D03*
%TD*%
D49*
%TO.C,Y1*%
X137230700Y-80588300D03*
X137230700Y-87788300D03*
X138130700Y-87788300D03*
X138130700Y-80588300D03*
%TD*%
D37*
%TO.C,R32*%
X112522000Y-96543500D03*
X112522000Y-94718500D03*
%TD*%
D36*
%TO.C,R29*%
X131509900Y-92125800D03*
X133334900Y-92125800D03*
%TD*%
D33*
%TO.C,Q7*%
X133372400Y-94935800D03*
X131472400Y-94935800D03*
X132422400Y-96935800D03*
%TD*%
%TO.C,Q4*%
X160462000Y-94567500D03*
X158562000Y-94567500D03*
X159512000Y-96567500D03*
%TD*%
D36*
%TO.C,R34*%
X158600000Y-91100000D03*
X160425000Y-91100000D03*
%TD*%
%TO.C,R33*%
X162663500Y-91059000D03*
X164488500Y-91059000D03*
%TD*%
D33*
%TO.C,Q3*%
X164462000Y-94567500D03*
X162562000Y-94567500D03*
X163512000Y-96567500D03*
%TD*%
D34*
%TO.C,R21*%
X174180000Y-85765000D03*
X174180000Y-87590000D03*
%TD*%
D50*
%TO.C,U10*%
X120471001Y-72517000D03*
X120471001Y-73787000D03*
X120471001Y-75057000D03*
X120471001Y-76327000D03*
X125400999Y-76327000D03*
X125400999Y-75057000D03*
X125400999Y-73787000D03*
X125400999Y-72517000D03*
%TD*%
D37*
%TO.C,R14*%
X130492500Y-78027500D03*
X130492500Y-76202500D03*
%TD*%
%TO.C,R15*%
X128587500Y-78001500D03*
X128587500Y-76176500D03*
%TD*%
D28*
%TO.C,CON5*%
X128403000Y-105832000D03*
X103403000Y-105832000D03*
D29*
X110363000Y-107252000D03*
D30*
X113133000Y-107252000D03*
X115903000Y-107252000D03*
X118673000Y-107252000D03*
X121443000Y-107252000D03*
X111748000Y-104412000D03*
X114518000Y-104412000D03*
X117288000Y-104412000D03*
X120058000Y-104412000D03*
%TD*%
D14*
%TO.C,C1*%
X93255000Y-57594500D03*
X91530000Y-57594500D03*
%TD*%
D22*
%TO.C,DLED1*%
X115952000Y-47000000D03*
X114202000Y-47000000D03*
%TD*%
D35*
%TO.C,R3*%
X111862500Y-47000000D03*
X110037500Y-47000000D03*
%TD*%
D15*
%TO.C,C4*%
X98578500Y-59309000D03*
X100303500Y-59309000D03*
%TD*%
%TO.C,C9*%
X105350000Y-57750000D03*
X107075000Y-57750000D03*
%TD*%
D47*
%TO.C,U4*%
X115908000Y-78293000D03*
X115908000Y-77343000D03*
X115908000Y-76393000D03*
X113708000Y-76393000D03*
X113708000Y-78293000D03*
%TD*%
D17*
%TO.C,C23*%
X140843000Y-86841500D03*
X140843000Y-85116500D03*
%TD*%
D51*
%TO.C,U8*%
X131074850Y-55035150D03*
X131074850Y-53765150D03*
X131074850Y-52495150D03*
X131074850Y-51225150D03*
X131074850Y-49955150D03*
X131074850Y-48685150D03*
X131074850Y-47415150D03*
X131074850Y-46145150D03*
X126124850Y-46145150D03*
X126124850Y-47415150D03*
X126124850Y-48685150D03*
X126124850Y-49955150D03*
X126124850Y-51225150D03*
X126124850Y-52495150D03*
X126124850Y-53765150D03*
X126124850Y-55035150D03*
%TD*%
D15*
%TO.C,C27*%
X134912350Y-50691750D03*
X136637350Y-50691750D03*
%TD*%
%TO.C,C30*%
X134912350Y-52977750D03*
X136637350Y-52977750D03*
%TD*%
%TO.C,C31*%
X134975350Y-46373750D03*
X136700350Y-46373750D03*
%TD*%
D36*
%TO.C,R28*%
X120187500Y-47146000D03*
X122012500Y-47146000D03*
%TD*%
D15*
%TO.C,C28*%
X134912350Y-55136750D03*
X136637350Y-55136750D03*
%TD*%
D14*
%TO.C,C29*%
X136637350Y-48532750D03*
X134912350Y-48532750D03*
%TD*%
D36*
%TO.C,R27*%
X120137500Y-45400000D03*
X121962500Y-45400000D03*
%TD*%
D24*
%TO.C,DLED7*%
X109450000Y-70150000D03*
X111200000Y-70150000D03*
%TD*%
D37*
%TO.C,L1*%
X116050000Y-39312500D03*
X116050000Y-37487500D03*
%TD*%
D34*
%TO.C,R22*%
X176276000Y-85765000D03*
X176276000Y-87590000D03*
%TD*%
D20*
%TO.C,CA4*%
X157162000Y-50227000D03*
D21*
X156292000Y-50227000D03*
X155492000Y-50227000D03*
D20*
X154622000Y-50227000D03*
X154622000Y-51627000D03*
D21*
X155492000Y-51627000D03*
X156292000Y-51627000D03*
D20*
X157162000Y-51627000D03*
%TD*%
%TO.C,RN4*%
X157182000Y-46352000D03*
D21*
X156312000Y-46352000D03*
X155512000Y-46352000D03*
D20*
X154642000Y-46352000D03*
X154642000Y-47752000D03*
D21*
X155512000Y-47752000D03*
X156312000Y-47752000D03*
D20*
X157182000Y-47752000D03*
%TD*%
%TO.C,RN8*%
X157162000Y-54418000D03*
D21*
X156292000Y-54418000D03*
X155492000Y-54418000D03*
D20*
X154622000Y-54418000D03*
X154622000Y-55818000D03*
D21*
X155492000Y-55818000D03*
X156292000Y-55818000D03*
D20*
X157162000Y-55818000D03*
%TD*%
D35*
%TO.C,R1*%
X93305000Y-51879500D03*
X91480000Y-51879500D03*
%TD*%
D25*
%TO.C,L2*%
X96774000Y-46877000D03*
X96774000Y-48627000D03*
%TD*%
D29*
%TO.C,CON1*%
X103454200Y-39966900D03*
D30*
X105954200Y-39966900D03*
X105954200Y-37966900D03*
X103454200Y-37966900D03*
D28*
X110704200Y-35106900D03*
X98704200Y-35106900D03*
%TD*%
D33*
%TO.C,Q2*%
X105725000Y-94821500D03*
X103825000Y-94821500D03*
X104775000Y-96821500D03*
%TD*%
D28*
%TO.C,CON3*%
X139539000Y-105768000D03*
X172839000Y-105768000D03*
D29*
X146494000Y-107188000D03*
D30*
X149264000Y-107188000D03*
X152034000Y-107188000D03*
X154804000Y-107188000D03*
X157574000Y-107188000D03*
X160344000Y-107188000D03*
X163114000Y-107188000D03*
X165884000Y-107188000D03*
X147879000Y-104348000D03*
X150649000Y-104348000D03*
X153419000Y-104348000D03*
X156189000Y-104348000D03*
X158959000Y-104348000D03*
X161729000Y-104348000D03*
X164499000Y-104348000D03*
%TD*%
D29*
%TO.C,C2*%
X108005113Y-64250000D03*
D30*
X105505113Y-64250000D03*
%TD*%
D29*
%TO.C,C5*%
X93662500Y-43916600D03*
D30*
X91162500Y-43916600D03*
%TD*%
D29*
%TO.C,C8*%
X99044888Y-64150000D03*
D30*
X101544888Y-64150000D03*
%TD*%
D29*
%TO.C,C10*%
X105750000Y-80344888D03*
D30*
X105750000Y-82844888D03*
%TD*%
D29*
%TO.C,C12*%
X109650000Y-52050000D03*
D30*
X107150000Y-52050000D03*
%TD*%
D29*
%TO.C,C13*%
X111694888Y-64350000D03*
D30*
X114194888Y-64350000D03*
%TD*%
D29*
%TO.C,C14*%
X117447349Y-52900000D03*
D30*
X120947349Y-52900000D03*
%TD*%
D20*
%TO.C,CA2*%
X150432000Y-50227000D03*
D21*
X149562000Y-50227000D03*
X148762000Y-50227000D03*
D20*
X147892000Y-50227000D03*
X147892000Y-51627000D03*
D21*
X148762000Y-51627000D03*
X149562000Y-51627000D03*
D20*
X150432000Y-51627000D03*
%TD*%
D52*
%TO.C,BT1*%
X94352000Y-63550000D03*
D53*
X85852000Y-101535000D03*
X85852000Y-63565000D03*
%TD*%
D24*
%TO.C,DLED3*%
X114047300Y-82753200D03*
X115797300Y-82753200D03*
%TD*%
D34*
%TO.C,R25*%
X101638100Y-94909000D03*
X101638100Y-96734000D03*
%TD*%
M02*
