%TF.GenerationSoftware,KiCad,Pcbnew,(6.0.0)*%
%TF.CreationDate,2022-01-24T11:23:06-03:00*%
%TF.ProjectId,HLI-M,484c492d-4d2e-46b6-9963-61645f706362,rev?*%
%TF.SameCoordinates,Original*%
%TF.FileFunction,Legend,Top*%
%TF.FilePolarity,Positive*%
%FSLAX46Y46*%
G04 Gerber Fmt 4.6, Leading zero omitted, Abs format (unit mm)*
G04 Created by KiCad (PCBNEW (6.0.0)) date 2022-01-24 11:23:06*
%MOMM*%
%LPD*%
G01*
G04 APERTURE LIST*
%ADD10C,0.120000*%
%ADD11C,0.500000*%
%TA.AperFunction,Profile*%
%ADD12C,0.050000*%
%TD*%
%ADD13C,0.300000*%
%ADD14C,0.076200*%
%ADD15C,0.150000*%
%ADD16C,0.101600*%
%ADD17C,0.101500*%
%ADD18C,0.152400*%
%ADD19C,0.127000*%
%ADD20C,0.200000*%
%ADD21C,0.250000*%
G04 APERTURE END LIST*
D10*
X103392990Y-57023000D02*
G75*
G03*
X103392990Y-57023000I-141990J0D01*
G01*
X150636990Y-89789000D02*
G75*
G03*
X150636990Y-89789000I-141990J0D01*
G01*
X124474990Y-89789000D02*
G75*
G03*
X124474990Y-89789000I-141990J0D01*
G01*
X154700990Y-78105000D02*
G75*
G03*
X154700990Y-78105000I-141990J0D01*
G01*
X132833980Y-55600000D02*
G75*
G03*
X132833980Y-55600000I-141990J0D01*
G01*
X122041990Y-58650000D02*
G75*
G03*
X122041990Y-58650000I-141990J0D01*
G01*
X171141990Y-80050000D02*
G75*
G03*
X171141990Y-80050000I-141990J0D01*
G01*
X119013990Y-72390000D02*
G75*
G03*
X119013990Y-72390000I-141990J0D01*
G01*
D11*
X99000000Y-88500000D02*
X99000000Y-90500000D01*
D10*
X176290990Y-89662000D02*
G75*
G03*
X176290990Y-89662000I-141990J0D01*
G01*
X158000000Y-87950000D02*
X158000000Y-88750000D01*
D11*
X180500000Y-40500000D02*
X180500000Y-42500000D01*
X100000000Y-89500000D02*
X98000000Y-89500000D01*
D10*
X101741990Y-45593000D02*
G75*
G03*
X101741990Y-45593000I-141990J0D01*
G01*
X151100000Y-87950000D02*
X157800000Y-87950000D01*
X151100000Y-88850000D02*
X151100000Y-87950000D01*
D11*
X181500000Y-41500000D02*
X179500000Y-41500000D01*
D10*
X157800000Y-87950000D02*
X158000000Y-87950000D01*
D12*
X186436000Y-113538000D02*
X186436000Y-29500000D01*
X70104000Y-29500000D02*
X70104000Y-113538000D01*
X186436000Y-29500000D02*
X70104000Y-29500000D01*
X70104000Y-113538000D02*
X186436000Y-113538000D01*
D13*
X79642857Y-108178571D02*
X79928571Y-108178571D01*
X80071428Y-108250000D01*
X80214285Y-108392857D01*
X80285714Y-108678571D01*
X80285714Y-109178571D01*
X80214285Y-109464285D01*
X80071428Y-109607142D01*
X79928571Y-109678571D01*
X79642857Y-109678571D01*
X79500000Y-109607142D01*
X79357142Y-109464285D01*
X79285714Y-109178571D01*
X79285714Y-108678571D01*
X79357142Y-108392857D01*
X79500000Y-108250000D01*
X79642857Y-108178571D01*
X80928571Y-109678571D02*
X80928571Y-108678571D01*
X80928571Y-108964285D02*
X81000000Y-108821428D01*
X81071428Y-108750000D01*
X81214285Y-108678571D01*
X81357142Y-108678571D01*
X81857142Y-109678571D02*
X81857142Y-108678571D01*
X81857142Y-108178571D02*
X81785714Y-108250000D01*
X81857142Y-108321428D01*
X81928571Y-108250000D01*
X81857142Y-108178571D01*
X81857142Y-108321428D01*
X82785714Y-109678571D02*
X82642857Y-109607142D01*
X82571428Y-109535714D01*
X82500000Y-109392857D01*
X82500000Y-108964285D01*
X82571428Y-108821428D01*
X82642857Y-108750000D01*
X82785714Y-108678571D01*
X83000000Y-108678571D01*
X83142857Y-108750000D01*
X83214285Y-108821428D01*
X83285714Y-108964285D01*
X83285714Y-109392857D01*
X83214285Y-109535714D01*
X83142857Y-109607142D01*
X83000000Y-109678571D01*
X82785714Y-109678571D01*
X83928571Y-108678571D02*
X83928571Y-109678571D01*
X83928571Y-108821428D02*
X84000000Y-108750000D01*
X84142857Y-108678571D01*
X84357142Y-108678571D01*
X84500000Y-108750000D01*
X84571428Y-108892857D01*
X84571428Y-109678571D01*
X86071428Y-108250000D02*
X85928571Y-108178571D01*
X85714285Y-108178571D01*
X85500000Y-108250000D01*
X85357142Y-108392857D01*
X85285714Y-108535714D01*
X85214285Y-108821428D01*
X85214285Y-109035714D01*
X85285714Y-109321428D01*
X85357142Y-109464285D01*
X85500000Y-109607142D01*
X85714285Y-109678571D01*
X85857142Y-109678571D01*
X86071428Y-109607142D01*
X86142857Y-109535714D01*
X86142857Y-109035714D01*
X85857142Y-109035714D01*
X87428571Y-109678571D02*
X87428571Y-108892857D01*
X87357142Y-108750000D01*
X87214285Y-108678571D01*
X86928571Y-108678571D01*
X86785714Y-108750000D01*
X87428571Y-109607142D02*
X87285714Y-109678571D01*
X86928571Y-109678571D01*
X86785714Y-109607142D01*
X86714285Y-109464285D01*
X86714285Y-109321428D01*
X86785714Y-109178571D01*
X86928571Y-109107142D01*
X87285714Y-109107142D01*
X87428571Y-109035714D01*
X88142857Y-109678571D02*
X88142857Y-108678571D01*
X88142857Y-108821428D02*
X88214285Y-108750000D01*
X88357142Y-108678571D01*
X88571428Y-108678571D01*
X88714285Y-108750000D01*
X88785714Y-108892857D01*
X88785714Y-109678571D01*
X88785714Y-108892857D02*
X88857142Y-108750000D01*
X89000000Y-108678571D01*
X89214285Y-108678571D01*
X89357142Y-108750000D01*
X89428571Y-108892857D01*
X89428571Y-109678571D01*
X90714285Y-109607142D02*
X90571428Y-109678571D01*
X90285714Y-109678571D01*
X90142857Y-109607142D01*
X90071428Y-109464285D01*
X90071428Y-108892857D01*
X90142857Y-108750000D01*
X90285714Y-108678571D01*
X90571428Y-108678571D01*
X90714285Y-108750000D01*
X90785714Y-108892857D01*
X90785714Y-109035714D01*
X90071428Y-109178571D01*
X91357142Y-109607142D02*
X91500000Y-109678571D01*
X91785714Y-109678571D01*
X91928571Y-109607142D01*
X92000000Y-109464285D01*
X92000000Y-109392857D01*
X91928571Y-109250000D01*
X91785714Y-109178571D01*
X91571428Y-109178571D01*
X91428571Y-109107142D01*
X91357142Y-108964285D01*
X91357142Y-108892857D01*
X91428571Y-108750000D01*
X91571428Y-108678571D01*
X91785714Y-108678571D01*
X91928571Y-108750000D01*
X93714285Y-108321428D02*
X93785714Y-108250000D01*
X93928571Y-108178571D01*
X94285714Y-108178571D01*
X94428571Y-108250000D01*
X94500000Y-108321428D01*
X94571428Y-108464285D01*
X94571428Y-108607142D01*
X94500000Y-108821428D01*
X93642857Y-109678571D01*
X94571428Y-109678571D01*
X95214285Y-109535714D02*
X95285714Y-109607142D01*
X95214285Y-109678571D01*
X95142857Y-109607142D01*
X95214285Y-109535714D01*
X95214285Y-109678571D01*
X96214285Y-108178571D02*
X96357142Y-108178571D01*
X96500000Y-108250000D01*
X96571428Y-108321428D01*
X96642857Y-108464285D01*
X96714285Y-108750000D01*
X96714285Y-109107142D01*
X96642857Y-109392857D01*
X96571428Y-109535714D01*
X96500000Y-109607142D01*
X96357142Y-109678571D01*
X96214285Y-109678571D01*
X96071428Y-109607142D01*
X96000000Y-109535714D01*
X95928571Y-109392857D01*
X95857142Y-109107142D01*
X95857142Y-108750000D01*
X95928571Y-108464285D01*
X96000000Y-108321428D01*
X96071428Y-108250000D01*
X96214285Y-108178571D01*
D14*
X152073428Y-67863357D02*
X151855714Y-67863357D01*
X151964571Y-67863357D02*
X151964571Y-67482357D01*
X151928285Y-67536785D01*
X151892000Y-67573071D01*
X151855714Y-67591214D01*
X152200428Y-67482357D02*
X152454428Y-67482357D01*
X152291142Y-67863357D01*
D15*
X152733333Y-87566666D02*
X152400000Y-87566666D01*
X152400000Y-86866666D01*
X153100000Y-86866666D02*
X153233333Y-86866666D01*
X153300000Y-86900000D01*
X153366666Y-86966666D01*
X153400000Y-87100000D01*
X153400000Y-87333333D01*
X153366666Y-87466666D01*
X153300000Y-87533333D01*
X153233333Y-87566666D01*
X153100000Y-87566666D01*
X153033333Y-87533333D01*
X152966666Y-87466666D01*
X152933333Y-87333333D01*
X152933333Y-87100000D01*
X152966666Y-86966666D01*
X153033333Y-86900000D01*
X153100000Y-86866666D01*
X154100000Y-87500000D02*
X154066666Y-87533333D01*
X153966666Y-87566666D01*
X153900000Y-87566666D01*
X153800000Y-87533333D01*
X153733333Y-87466666D01*
X153700000Y-87400000D01*
X153666666Y-87266666D01*
X153666666Y-87166666D01*
X153700000Y-87033333D01*
X153733333Y-86966666D01*
X153800000Y-86900000D01*
X153900000Y-86866666D01*
X153966666Y-86866666D01*
X154066666Y-86900000D01*
X154100000Y-86933333D01*
X154400000Y-87566666D02*
X154400000Y-86866666D01*
X154800000Y-87566666D02*
X154500000Y-87166666D01*
X154800000Y-86866666D02*
X154400000Y-87266666D01*
X155333333Y-87200000D02*
X155433333Y-87233333D01*
X155466666Y-87266666D01*
X155500000Y-87333333D01*
X155500000Y-87433333D01*
X155466666Y-87500000D01*
X155433333Y-87533333D01*
X155366666Y-87566666D01*
X155100000Y-87566666D01*
X155100000Y-86866666D01*
X155333333Y-86866666D01*
X155400000Y-86900000D01*
X155433333Y-86933333D01*
X155466666Y-87000000D01*
X155466666Y-87066666D01*
X155433333Y-87133333D01*
X155400000Y-87166666D01*
X155333333Y-87200000D01*
X155100000Y-87200000D01*
X155800000Y-87566666D02*
X155800000Y-86866666D01*
X156033333Y-86866666D02*
X156433333Y-86866666D01*
X156233333Y-87566666D02*
X156233333Y-86866666D01*
X156633333Y-87533333D02*
X156733333Y-87566666D01*
X156900000Y-87566666D01*
X156966666Y-87533333D01*
X157000000Y-87500000D01*
X157033333Y-87433333D01*
X157033333Y-87366666D01*
X157000000Y-87300000D01*
X156966666Y-87266666D01*
X156900000Y-87233333D01*
X156766666Y-87200000D01*
X156700000Y-87166666D01*
X156666666Y-87133333D01*
X156633333Y-87066666D01*
X156633333Y-87000000D01*
X156666666Y-86933333D01*
X156700000Y-86900000D01*
X156766666Y-86866666D01*
X156933333Y-86866666D01*
X157033333Y-86900000D01*
D14*
X142639142Y-80309357D02*
X142639142Y-80563357D01*
X142548428Y-80164214D02*
X142457714Y-80436357D01*
X142693571Y-80436357D01*
X142856857Y-80563357D02*
X142929428Y-80563357D01*
X142965714Y-80545214D01*
X142983857Y-80527071D01*
X143020142Y-80472642D01*
X143038285Y-80400071D01*
X143038285Y-80254928D01*
X143020142Y-80218642D01*
X143002000Y-80200500D01*
X142965714Y-80182357D01*
X142893142Y-80182357D01*
X142856857Y-80200500D01*
X142838714Y-80218642D01*
X142820571Y-80254928D01*
X142820571Y-80345642D01*
X142838714Y-80381928D01*
X142856857Y-80400071D01*
X142893142Y-80418214D01*
X142965714Y-80418214D01*
X143002000Y-80400071D01*
X143020142Y-80381928D01*
X143038285Y-80345642D01*
X140915571Y-69260357D02*
X141151428Y-69260357D01*
X141024428Y-69405500D01*
X141078857Y-69405500D01*
X141115142Y-69423642D01*
X141133285Y-69441785D01*
X141151428Y-69478071D01*
X141151428Y-69568785D01*
X141133285Y-69605071D01*
X141115142Y-69623214D01*
X141078857Y-69641357D01*
X140970000Y-69641357D01*
X140933714Y-69623214D01*
X140915571Y-69605071D01*
X141278428Y-69260357D02*
X141514285Y-69260357D01*
X141387285Y-69405500D01*
X141441714Y-69405500D01*
X141478000Y-69423642D01*
X141496142Y-69441785D01*
X141514285Y-69478071D01*
X141514285Y-69568785D01*
X141496142Y-69605071D01*
X141478000Y-69623214D01*
X141441714Y-69641357D01*
X141332857Y-69641357D01*
X141296571Y-69623214D01*
X141278428Y-69605071D01*
D13*
X171035714Y-31678571D02*
X171892857Y-31678571D01*
X171464285Y-33178571D02*
X171464285Y-31678571D01*
X172678571Y-31678571D02*
X172964285Y-31678571D01*
X173107142Y-31750000D01*
X173250000Y-31892857D01*
X173321428Y-32178571D01*
X173321428Y-32678571D01*
X173250000Y-32964285D01*
X173107142Y-33107142D01*
X172964285Y-33178571D01*
X172678571Y-33178571D01*
X172535714Y-33107142D01*
X172392857Y-32964285D01*
X172321428Y-32678571D01*
X172321428Y-32178571D01*
X172392857Y-31892857D01*
X172535714Y-31750000D01*
X172678571Y-31678571D01*
X173964285Y-33178571D02*
X173964285Y-31678571D01*
X174535714Y-31678571D01*
X174678571Y-31750000D01*
X174750000Y-31821428D01*
X174821428Y-31964285D01*
X174821428Y-32178571D01*
X174750000Y-32321428D01*
X174678571Y-32392857D01*
X174535714Y-32464285D01*
X173964285Y-32464285D01*
D14*
X154032857Y-78785357D02*
X153815142Y-78785357D01*
X153924000Y-78785357D02*
X153924000Y-78404357D01*
X153887714Y-78458785D01*
X153851428Y-78495071D01*
X153815142Y-78513214D01*
D16*
%TO.C,C3*%
X89941400Y-55780214D02*
X89912371Y-55809242D01*
X89825285Y-55838271D01*
X89767228Y-55838271D01*
X89680142Y-55809242D01*
X89622085Y-55751185D01*
X89593057Y-55693128D01*
X89564028Y-55577014D01*
X89564028Y-55489928D01*
X89593057Y-55373814D01*
X89622085Y-55315757D01*
X89680142Y-55257700D01*
X89767228Y-55228671D01*
X89825285Y-55228671D01*
X89912371Y-55257700D01*
X89941400Y-55286728D01*
X90144600Y-55228671D02*
X90521971Y-55228671D01*
X90318771Y-55460900D01*
X90405857Y-55460900D01*
X90463914Y-55489928D01*
X90492942Y-55518957D01*
X90521971Y-55577014D01*
X90521971Y-55722157D01*
X90492942Y-55780214D01*
X90463914Y-55809242D01*
X90405857Y-55838271D01*
X90231685Y-55838271D01*
X90173628Y-55809242D01*
X90144600Y-55780214D01*
%TO.C,C6*%
X89941400Y-54002214D02*
X89912371Y-54031242D01*
X89825285Y-54060271D01*
X89767228Y-54060271D01*
X89680142Y-54031242D01*
X89622085Y-53973185D01*
X89593057Y-53915128D01*
X89564028Y-53799014D01*
X89564028Y-53711928D01*
X89593057Y-53595814D01*
X89622085Y-53537757D01*
X89680142Y-53479700D01*
X89767228Y-53450671D01*
X89825285Y-53450671D01*
X89912371Y-53479700D01*
X89941400Y-53508728D01*
X90463914Y-53450671D02*
X90347800Y-53450671D01*
X90289742Y-53479700D01*
X90260714Y-53508728D01*
X90202657Y-53595814D01*
X90173628Y-53711928D01*
X90173628Y-53944157D01*
X90202657Y-54002214D01*
X90231685Y-54031242D01*
X90289742Y-54060271D01*
X90405857Y-54060271D01*
X90463914Y-54031242D01*
X90492942Y-54002214D01*
X90521971Y-53944157D01*
X90521971Y-53799014D01*
X90492942Y-53740957D01*
X90463914Y-53711928D01*
X90405857Y-53682900D01*
X90289742Y-53682900D01*
X90231685Y-53711928D01*
X90202657Y-53740957D01*
X90173628Y-53799014D01*
%TO.C,C7*%
X103402900Y-45556714D02*
X103373871Y-45585742D01*
X103286785Y-45614771D01*
X103228728Y-45614771D01*
X103141642Y-45585742D01*
X103083585Y-45527685D01*
X103054557Y-45469628D01*
X103025528Y-45353514D01*
X103025528Y-45266428D01*
X103054557Y-45150314D01*
X103083585Y-45092257D01*
X103141642Y-45034200D01*
X103228728Y-45005171D01*
X103286785Y-45005171D01*
X103373871Y-45034200D01*
X103402900Y-45063228D01*
X103606100Y-45005171D02*
X104012500Y-45005171D01*
X103751242Y-45614771D01*
%TO.C,C11*%
X110275914Y-84050414D02*
X110246885Y-84079442D01*
X110159800Y-84108471D01*
X110101742Y-84108471D01*
X110014657Y-84079442D01*
X109956600Y-84021385D01*
X109927571Y-83963328D01*
X109898542Y-83847214D01*
X109898542Y-83760128D01*
X109927571Y-83644014D01*
X109956600Y-83585957D01*
X110014657Y-83527900D01*
X110101742Y-83498871D01*
X110159800Y-83498871D01*
X110246885Y-83527900D01*
X110275914Y-83556928D01*
X110856485Y-84108471D02*
X110508142Y-84108471D01*
X110682314Y-84108471D02*
X110682314Y-83498871D01*
X110624257Y-83585957D01*
X110566200Y-83644014D01*
X110508142Y-83673042D01*
X111437057Y-84108471D02*
X111088714Y-84108471D01*
X111262885Y-84108471D02*
X111262885Y-83498871D01*
X111204828Y-83585957D01*
X111146771Y-83644014D01*
X111088714Y-83673042D01*
%TO.C,C15*%
X129719614Y-67019714D02*
X129690585Y-67048742D01*
X129603500Y-67077771D01*
X129545442Y-67077771D01*
X129458357Y-67048742D01*
X129400300Y-66990685D01*
X129371271Y-66932628D01*
X129342242Y-66816514D01*
X129342242Y-66729428D01*
X129371271Y-66613314D01*
X129400300Y-66555257D01*
X129458357Y-66497200D01*
X129545442Y-66468171D01*
X129603500Y-66468171D01*
X129690585Y-66497200D01*
X129719614Y-66526228D01*
X130300185Y-67077771D02*
X129951842Y-67077771D01*
X130126014Y-67077771D02*
X130126014Y-66468171D01*
X130067957Y-66555257D01*
X130009900Y-66613314D01*
X129951842Y-66642342D01*
X130851728Y-66468171D02*
X130561442Y-66468171D01*
X130532414Y-66758457D01*
X130561442Y-66729428D01*
X130619500Y-66700400D01*
X130764642Y-66700400D01*
X130822700Y-66729428D01*
X130851728Y-66758457D01*
X130880757Y-66816514D01*
X130880757Y-66961657D01*
X130851728Y-67019714D01*
X130822700Y-67048742D01*
X130764642Y-67077771D01*
X130619500Y-67077771D01*
X130561442Y-67048742D01*
X130532414Y-67019714D01*
%TO.C,C16*%
X129719614Y-69178714D02*
X129690585Y-69207742D01*
X129603500Y-69236771D01*
X129545442Y-69236771D01*
X129458357Y-69207742D01*
X129400300Y-69149685D01*
X129371271Y-69091628D01*
X129342242Y-68975514D01*
X129342242Y-68888428D01*
X129371271Y-68772314D01*
X129400300Y-68714257D01*
X129458357Y-68656200D01*
X129545442Y-68627171D01*
X129603500Y-68627171D01*
X129690585Y-68656200D01*
X129719614Y-68685228D01*
X130300185Y-69236771D02*
X129951842Y-69236771D01*
X130126014Y-69236771D02*
X130126014Y-68627171D01*
X130067957Y-68714257D01*
X130009900Y-68772314D01*
X129951842Y-68801342D01*
X130822700Y-68627171D02*
X130706585Y-68627171D01*
X130648528Y-68656200D01*
X130619500Y-68685228D01*
X130561442Y-68772314D01*
X130532414Y-68888428D01*
X130532414Y-69120657D01*
X130561442Y-69178714D01*
X130590471Y-69207742D01*
X130648528Y-69236771D01*
X130764642Y-69236771D01*
X130822700Y-69207742D01*
X130851728Y-69178714D01*
X130880757Y-69120657D01*
X130880757Y-68975514D01*
X130851728Y-68917457D01*
X130822700Y-68888428D01*
X130764642Y-68859400D01*
X130648528Y-68859400D01*
X130590471Y-68888428D01*
X130561442Y-68917457D01*
X130532414Y-68975514D01*
%TO.C,C17*%
X174614114Y-80989714D02*
X174585085Y-81018742D01*
X174498000Y-81047771D01*
X174439942Y-81047771D01*
X174352857Y-81018742D01*
X174294800Y-80960685D01*
X174265771Y-80902628D01*
X174236742Y-80786514D01*
X174236742Y-80699428D01*
X174265771Y-80583314D01*
X174294800Y-80525257D01*
X174352857Y-80467200D01*
X174439942Y-80438171D01*
X174498000Y-80438171D01*
X174585085Y-80467200D01*
X174614114Y-80496228D01*
X175194685Y-81047771D02*
X174846342Y-81047771D01*
X175020514Y-81047771D02*
X175020514Y-80438171D01*
X174962457Y-80525257D01*
X174904400Y-80583314D01*
X174846342Y-80612342D01*
X175397885Y-80438171D02*
X175804285Y-80438171D01*
X175543028Y-81047771D01*
%TO.C,C18*%
X167658114Y-72367714D02*
X167629085Y-72396742D01*
X167542000Y-72425771D01*
X167483942Y-72425771D01*
X167396857Y-72396742D01*
X167338800Y-72338685D01*
X167309771Y-72280628D01*
X167280742Y-72164514D01*
X167280742Y-72077428D01*
X167309771Y-71961314D01*
X167338800Y-71903257D01*
X167396857Y-71845200D01*
X167483942Y-71816171D01*
X167542000Y-71816171D01*
X167629085Y-71845200D01*
X167658114Y-71874228D01*
X168238685Y-72425771D02*
X167890342Y-72425771D01*
X168064514Y-72425771D02*
X168064514Y-71816171D01*
X168006457Y-71903257D01*
X167948400Y-71961314D01*
X167890342Y-71990342D01*
X168587028Y-72077428D02*
X168528971Y-72048400D01*
X168499942Y-72019371D01*
X168470914Y-71961314D01*
X168470914Y-71932285D01*
X168499942Y-71874228D01*
X168528971Y-71845200D01*
X168587028Y-71816171D01*
X168703142Y-71816171D01*
X168761200Y-71845200D01*
X168790228Y-71874228D01*
X168819257Y-71932285D01*
X168819257Y-71961314D01*
X168790228Y-72019371D01*
X168761200Y-72048400D01*
X168703142Y-72077428D01*
X168587028Y-72077428D01*
X168528971Y-72106457D01*
X168499942Y-72135485D01*
X168470914Y-72193542D01*
X168470914Y-72309657D01*
X168499942Y-72367714D01*
X168528971Y-72396742D01*
X168587028Y-72425771D01*
X168703142Y-72425771D01*
X168761200Y-72396742D01*
X168790228Y-72367714D01*
X168819257Y-72309657D01*
X168819257Y-72193542D01*
X168790228Y-72135485D01*
X168761200Y-72106457D01*
X168703142Y-72077428D01*
%TO.C,C19*%
X162858114Y-74567714D02*
X162829085Y-74596742D01*
X162742000Y-74625771D01*
X162683942Y-74625771D01*
X162596857Y-74596742D01*
X162538800Y-74538685D01*
X162509771Y-74480628D01*
X162480742Y-74364514D01*
X162480742Y-74277428D01*
X162509771Y-74161314D01*
X162538800Y-74103257D01*
X162596857Y-74045200D01*
X162683942Y-74016171D01*
X162742000Y-74016171D01*
X162829085Y-74045200D01*
X162858114Y-74074228D01*
X163438685Y-74625771D02*
X163090342Y-74625771D01*
X163264514Y-74625771D02*
X163264514Y-74016171D01*
X163206457Y-74103257D01*
X163148400Y-74161314D01*
X163090342Y-74190342D01*
X163728971Y-74625771D02*
X163845085Y-74625771D01*
X163903142Y-74596742D01*
X163932171Y-74567714D01*
X163990228Y-74480628D01*
X164019257Y-74364514D01*
X164019257Y-74132285D01*
X163990228Y-74074228D01*
X163961200Y-74045200D01*
X163903142Y-74016171D01*
X163787028Y-74016171D01*
X163728971Y-74045200D01*
X163699942Y-74074228D01*
X163670914Y-74132285D01*
X163670914Y-74277428D01*
X163699942Y-74335485D01*
X163728971Y-74364514D01*
X163787028Y-74393542D01*
X163903142Y-74393542D01*
X163961200Y-74364514D01*
X163990228Y-74335485D01*
X164019257Y-74277428D01*
%TO.C,C20*%
X162168114Y-67867714D02*
X162139085Y-67896742D01*
X162052000Y-67925771D01*
X161993942Y-67925771D01*
X161906857Y-67896742D01*
X161848800Y-67838685D01*
X161819771Y-67780628D01*
X161790742Y-67664514D01*
X161790742Y-67577428D01*
X161819771Y-67461314D01*
X161848800Y-67403257D01*
X161906857Y-67345200D01*
X161993942Y-67316171D01*
X162052000Y-67316171D01*
X162139085Y-67345200D01*
X162168114Y-67374228D01*
X162400342Y-67374228D02*
X162429371Y-67345200D01*
X162487428Y-67316171D01*
X162632571Y-67316171D01*
X162690628Y-67345200D01*
X162719657Y-67374228D01*
X162748685Y-67432285D01*
X162748685Y-67490342D01*
X162719657Y-67577428D01*
X162371314Y-67925771D01*
X162748685Y-67925771D01*
X163126057Y-67316171D02*
X163184114Y-67316171D01*
X163242171Y-67345200D01*
X163271200Y-67374228D01*
X163300228Y-67432285D01*
X163329257Y-67548400D01*
X163329257Y-67693542D01*
X163300228Y-67809657D01*
X163271200Y-67867714D01*
X163242171Y-67896742D01*
X163184114Y-67925771D01*
X163126057Y-67925771D01*
X163068000Y-67896742D01*
X163038971Y-67867714D01*
X163009942Y-67809657D01*
X162980914Y-67693542D01*
X162980914Y-67548400D01*
X163009942Y-67432285D01*
X163038971Y-67374228D01*
X163068000Y-67345200D01*
X163126057Y-67316171D01*
%TO.C,C21*%
X150522214Y-60817714D02*
X150493185Y-60846742D01*
X150406100Y-60875771D01*
X150348042Y-60875771D01*
X150260957Y-60846742D01*
X150202900Y-60788685D01*
X150173871Y-60730628D01*
X150144842Y-60614514D01*
X150144842Y-60527428D01*
X150173871Y-60411314D01*
X150202900Y-60353257D01*
X150260957Y-60295200D01*
X150348042Y-60266171D01*
X150406100Y-60266171D01*
X150493185Y-60295200D01*
X150522214Y-60324228D01*
X150754442Y-60324228D02*
X150783471Y-60295200D01*
X150841528Y-60266171D01*
X150986671Y-60266171D01*
X151044728Y-60295200D01*
X151073757Y-60324228D01*
X151102785Y-60382285D01*
X151102785Y-60440342D01*
X151073757Y-60527428D01*
X150725414Y-60875771D01*
X151102785Y-60875771D01*
X151683357Y-60875771D02*
X151335014Y-60875771D01*
X151509185Y-60875771D02*
X151509185Y-60266171D01*
X151451128Y-60353257D01*
X151393071Y-60411314D01*
X151335014Y-60440342D01*
%TO.C,C22*%
X145607314Y-60767714D02*
X145578285Y-60796742D01*
X145491200Y-60825771D01*
X145433142Y-60825771D01*
X145346057Y-60796742D01*
X145288000Y-60738685D01*
X145258971Y-60680628D01*
X145229942Y-60564514D01*
X145229942Y-60477428D01*
X145258971Y-60361314D01*
X145288000Y-60303257D01*
X145346057Y-60245200D01*
X145433142Y-60216171D01*
X145491200Y-60216171D01*
X145578285Y-60245200D01*
X145607314Y-60274228D01*
X145839542Y-60274228D02*
X145868571Y-60245200D01*
X145926628Y-60216171D01*
X146071771Y-60216171D01*
X146129828Y-60245200D01*
X146158857Y-60274228D01*
X146187885Y-60332285D01*
X146187885Y-60390342D01*
X146158857Y-60477428D01*
X145810514Y-60825771D01*
X146187885Y-60825771D01*
X146420114Y-60274228D02*
X146449142Y-60245200D01*
X146507200Y-60216171D01*
X146652342Y-60216171D01*
X146710400Y-60245200D01*
X146739428Y-60274228D01*
X146768457Y-60332285D01*
X146768457Y-60390342D01*
X146739428Y-60477428D01*
X146391085Y-60825771D01*
X146768457Y-60825771D01*
%TO.C,C24*%
X143245114Y-88417714D02*
X143216085Y-88446742D01*
X143129000Y-88475771D01*
X143070942Y-88475771D01*
X142983857Y-88446742D01*
X142925800Y-88388685D01*
X142896771Y-88330628D01*
X142867742Y-88214514D01*
X142867742Y-88127428D01*
X142896771Y-88011314D01*
X142925800Y-87953257D01*
X142983857Y-87895200D01*
X143070942Y-87866171D01*
X143129000Y-87866171D01*
X143216085Y-87895200D01*
X143245114Y-87924228D01*
X143477342Y-87924228D02*
X143506371Y-87895200D01*
X143564428Y-87866171D01*
X143709571Y-87866171D01*
X143767628Y-87895200D01*
X143796657Y-87924228D01*
X143825685Y-87982285D01*
X143825685Y-88040342D01*
X143796657Y-88127428D01*
X143448314Y-88475771D01*
X143825685Y-88475771D01*
X144348200Y-88069371D02*
X144348200Y-88475771D01*
X144203057Y-87837142D02*
X144057914Y-88272571D01*
X144435285Y-88272571D01*
%TO.C,C25*%
X135002814Y-83834514D02*
X134973785Y-83863542D01*
X134886700Y-83892571D01*
X134828642Y-83892571D01*
X134741557Y-83863542D01*
X134683500Y-83805485D01*
X134654471Y-83747428D01*
X134625442Y-83631314D01*
X134625442Y-83544228D01*
X134654471Y-83428114D01*
X134683500Y-83370057D01*
X134741557Y-83312000D01*
X134828642Y-83282971D01*
X134886700Y-83282971D01*
X134973785Y-83312000D01*
X135002814Y-83341028D01*
X135235042Y-83341028D02*
X135264071Y-83312000D01*
X135322128Y-83282971D01*
X135467271Y-83282971D01*
X135525328Y-83312000D01*
X135554357Y-83341028D01*
X135583385Y-83399085D01*
X135583385Y-83457142D01*
X135554357Y-83544228D01*
X135206014Y-83892571D01*
X135583385Y-83892571D01*
X136134928Y-83282971D02*
X135844642Y-83282971D01*
X135815614Y-83573257D01*
X135844642Y-83544228D01*
X135902700Y-83515200D01*
X136047842Y-83515200D01*
X136105900Y-83544228D01*
X136134928Y-83573257D01*
X136163957Y-83631314D01*
X136163957Y-83776457D01*
X136134928Y-83834514D01*
X136105900Y-83863542D01*
X136047842Y-83892571D01*
X135902700Y-83892571D01*
X135844642Y-83863542D01*
X135815614Y-83834514D01*
%TO.C,C26*%
X139575314Y-83961514D02*
X139546285Y-83990542D01*
X139459200Y-84019571D01*
X139401142Y-84019571D01*
X139314057Y-83990542D01*
X139256000Y-83932485D01*
X139226971Y-83874428D01*
X139197942Y-83758314D01*
X139197942Y-83671228D01*
X139226971Y-83555114D01*
X139256000Y-83497057D01*
X139314057Y-83439000D01*
X139401142Y-83409971D01*
X139459200Y-83409971D01*
X139546285Y-83439000D01*
X139575314Y-83468028D01*
X139807542Y-83468028D02*
X139836571Y-83439000D01*
X139894628Y-83409971D01*
X140039771Y-83409971D01*
X140097828Y-83439000D01*
X140126857Y-83468028D01*
X140155885Y-83526085D01*
X140155885Y-83584142D01*
X140126857Y-83671228D01*
X139778514Y-84019571D01*
X140155885Y-84019571D01*
X140678400Y-83409971D02*
X140562285Y-83409971D01*
X140504228Y-83439000D01*
X140475200Y-83468028D01*
X140417142Y-83555114D01*
X140388114Y-83671228D01*
X140388114Y-83903457D01*
X140417142Y-83961514D01*
X140446171Y-83990542D01*
X140504228Y-84019571D01*
X140620342Y-84019571D01*
X140678400Y-83990542D01*
X140707428Y-83961514D01*
X140736457Y-83903457D01*
X140736457Y-83758314D01*
X140707428Y-83700257D01*
X140678400Y-83671228D01*
X140620342Y-83642200D01*
X140504228Y-83642200D01*
X140446171Y-83671228D01*
X140417142Y-83700257D01*
X140388114Y-83758314D01*
%TO.C,CA1*%
X165435842Y-50192214D02*
X165406814Y-50221242D01*
X165319728Y-50250271D01*
X165261671Y-50250271D01*
X165174585Y-50221242D01*
X165116528Y-50163185D01*
X165087500Y-50105128D01*
X165058471Y-49989014D01*
X165058471Y-49901928D01*
X165087500Y-49785814D01*
X165116528Y-49727757D01*
X165174585Y-49669700D01*
X165261671Y-49640671D01*
X165319728Y-49640671D01*
X165406814Y-49669700D01*
X165435842Y-49698728D01*
X165668071Y-50076100D02*
X165958357Y-50076100D01*
X165610014Y-50250271D02*
X165813214Y-49640671D01*
X166016414Y-50250271D01*
X166538928Y-50250271D02*
X166190585Y-50250271D01*
X166364757Y-50250271D02*
X166364757Y-49640671D01*
X166306700Y-49727757D01*
X166248642Y-49785814D01*
X166190585Y-49814842D01*
%TO.C,CA3*%
X144924642Y-50192214D02*
X144895614Y-50221242D01*
X144808528Y-50250271D01*
X144750471Y-50250271D01*
X144663385Y-50221242D01*
X144605328Y-50163185D01*
X144576300Y-50105128D01*
X144547271Y-49989014D01*
X144547271Y-49901928D01*
X144576300Y-49785814D01*
X144605328Y-49727757D01*
X144663385Y-49669700D01*
X144750471Y-49640671D01*
X144808528Y-49640671D01*
X144895614Y-49669700D01*
X144924642Y-49698728D01*
X145156871Y-50076100D02*
X145447157Y-50076100D01*
X145098814Y-50250271D02*
X145302014Y-49640671D01*
X145505214Y-50250271D01*
X145650357Y-49640671D02*
X146027728Y-49640671D01*
X145824528Y-49872900D01*
X145911614Y-49872900D01*
X145969671Y-49901928D01*
X145998700Y-49930957D01*
X146027728Y-49989014D01*
X146027728Y-50134157D01*
X145998700Y-50192214D01*
X145969671Y-50221242D01*
X145911614Y-50250271D01*
X145737442Y-50250271D01*
X145679385Y-50221242D01*
X145650357Y-50192214D01*
%TO.C,DLED2*%
X114168242Y-43892271D02*
X114168242Y-43282671D01*
X114313385Y-43282671D01*
X114400471Y-43311700D01*
X114458528Y-43369757D01*
X114487557Y-43427814D01*
X114516585Y-43543928D01*
X114516585Y-43631014D01*
X114487557Y-43747128D01*
X114458528Y-43805185D01*
X114400471Y-43863242D01*
X114313385Y-43892271D01*
X114168242Y-43892271D01*
X115068128Y-43892271D02*
X114777842Y-43892271D01*
X114777842Y-43282671D01*
X115271328Y-43572957D02*
X115474528Y-43572957D01*
X115561614Y-43892271D02*
X115271328Y-43892271D01*
X115271328Y-43282671D01*
X115561614Y-43282671D01*
X115822871Y-43892271D02*
X115822871Y-43282671D01*
X115968014Y-43282671D01*
X116055100Y-43311700D01*
X116113157Y-43369757D01*
X116142185Y-43427814D01*
X116171214Y-43543928D01*
X116171214Y-43631014D01*
X116142185Y-43747128D01*
X116113157Y-43805185D01*
X116055100Y-43863242D01*
X115968014Y-43892271D01*
X115822871Y-43892271D01*
X116403442Y-43340728D02*
X116432471Y-43311700D01*
X116490528Y-43282671D01*
X116635671Y-43282671D01*
X116693728Y-43311700D01*
X116722757Y-43340728D01*
X116751785Y-43398785D01*
X116751785Y-43456842D01*
X116722757Y-43543928D01*
X116374414Y-43892271D01*
X116751785Y-43892271D01*
%TO.C,D4*%
X115150057Y-56975771D02*
X115150057Y-56366171D01*
X115295200Y-56366171D01*
X115382285Y-56395200D01*
X115440342Y-56453257D01*
X115469371Y-56511314D01*
X115498400Y-56627428D01*
X115498400Y-56714514D01*
X115469371Y-56830628D01*
X115440342Y-56888685D01*
X115382285Y-56946742D01*
X115295200Y-56975771D01*
X115150057Y-56975771D01*
X116020914Y-56569371D02*
X116020914Y-56975771D01*
X115875771Y-56337142D02*
X115730628Y-56772571D01*
X116108000Y-56772571D01*
%TO.C,D5*%
X115247057Y-58949771D02*
X115247057Y-58340171D01*
X115392200Y-58340171D01*
X115479285Y-58369200D01*
X115537342Y-58427257D01*
X115566371Y-58485314D01*
X115595400Y-58601428D01*
X115595400Y-58688514D01*
X115566371Y-58804628D01*
X115537342Y-58862685D01*
X115479285Y-58920742D01*
X115392200Y-58949771D01*
X115247057Y-58949771D01*
X116146942Y-58340171D02*
X115856657Y-58340171D01*
X115827628Y-58630457D01*
X115856657Y-58601428D01*
X115914714Y-58572400D01*
X116059857Y-58572400D01*
X116117914Y-58601428D01*
X116146942Y-58630457D01*
X116175971Y-58688514D01*
X116175971Y-58833657D01*
X116146942Y-58891714D01*
X116117914Y-58920742D01*
X116059857Y-58949771D01*
X115914714Y-58949771D01*
X115856657Y-58920742D01*
X115827628Y-58891714D01*
%TO.C,DLED6*%
X108717542Y-74109271D02*
X108717542Y-73499671D01*
X108862685Y-73499671D01*
X108949771Y-73528700D01*
X109007828Y-73586757D01*
X109036857Y-73644814D01*
X109065885Y-73760928D01*
X109065885Y-73848014D01*
X109036857Y-73964128D01*
X109007828Y-74022185D01*
X108949771Y-74080242D01*
X108862685Y-74109271D01*
X108717542Y-74109271D01*
X109617428Y-74109271D02*
X109327142Y-74109271D01*
X109327142Y-73499671D01*
X109820628Y-73789957D02*
X110023828Y-73789957D01*
X110110914Y-74109271D02*
X109820628Y-74109271D01*
X109820628Y-73499671D01*
X110110914Y-73499671D01*
X110372171Y-74109271D02*
X110372171Y-73499671D01*
X110517314Y-73499671D01*
X110604400Y-73528700D01*
X110662457Y-73586757D01*
X110691485Y-73644814D01*
X110720514Y-73760928D01*
X110720514Y-73848014D01*
X110691485Y-73964128D01*
X110662457Y-74022185D01*
X110604400Y-74080242D01*
X110517314Y-74109271D01*
X110372171Y-74109271D01*
X111243028Y-73499671D02*
X111126914Y-73499671D01*
X111068857Y-73528700D01*
X111039828Y-73557728D01*
X110981771Y-73644814D01*
X110952742Y-73760928D01*
X110952742Y-73993157D01*
X110981771Y-74051214D01*
X111010800Y-74080242D01*
X111068857Y-74109271D01*
X111184971Y-74109271D01*
X111243028Y-74080242D01*
X111272057Y-74051214D01*
X111301085Y-73993157D01*
X111301085Y-73848014D01*
X111272057Y-73789957D01*
X111243028Y-73760928D01*
X111184971Y-73731900D01*
X111068857Y-73731900D01*
X111010800Y-73760928D01*
X110981771Y-73789957D01*
X110952742Y-73848014D01*
%TO.C,D8*%
X105600057Y-72325771D02*
X105600057Y-71716171D01*
X105745200Y-71716171D01*
X105832285Y-71745200D01*
X105890342Y-71803257D01*
X105919371Y-71861314D01*
X105948400Y-71977428D01*
X105948400Y-72064514D01*
X105919371Y-72180628D01*
X105890342Y-72238685D01*
X105832285Y-72296742D01*
X105745200Y-72325771D01*
X105600057Y-72325771D01*
X106296742Y-71977428D02*
X106238685Y-71948400D01*
X106209657Y-71919371D01*
X106180628Y-71861314D01*
X106180628Y-71832285D01*
X106209657Y-71774228D01*
X106238685Y-71745200D01*
X106296742Y-71716171D01*
X106412857Y-71716171D01*
X106470914Y-71745200D01*
X106499942Y-71774228D01*
X106528971Y-71832285D01*
X106528971Y-71861314D01*
X106499942Y-71919371D01*
X106470914Y-71948400D01*
X106412857Y-71977428D01*
X106296742Y-71977428D01*
X106238685Y-72006457D01*
X106209657Y-72035485D01*
X106180628Y-72093542D01*
X106180628Y-72209657D01*
X106209657Y-72267714D01*
X106238685Y-72296742D01*
X106296742Y-72325771D01*
X106412857Y-72325771D01*
X106470914Y-72296742D01*
X106499942Y-72267714D01*
X106528971Y-72209657D01*
X106528971Y-72093542D01*
X106499942Y-72035485D01*
X106470914Y-72006457D01*
X106412857Y-71977428D01*
%TO.C,DLED9*%
X151479961Y-88810280D02*
X151479961Y-88226080D01*
X151619057Y-88226080D01*
X151702514Y-88253900D01*
X151758152Y-88309538D01*
X151785971Y-88365176D01*
X151813790Y-88476452D01*
X151813790Y-88559909D01*
X151785971Y-88671185D01*
X151758152Y-88726823D01*
X151702514Y-88782461D01*
X151619057Y-88810280D01*
X151479961Y-88810280D01*
X152342352Y-88810280D02*
X152064161Y-88810280D01*
X152064161Y-88226080D01*
X152537085Y-88504271D02*
X152731819Y-88504271D01*
X152815276Y-88810280D02*
X152537085Y-88810280D01*
X152537085Y-88226080D01*
X152815276Y-88226080D01*
X153065647Y-88810280D02*
X153065647Y-88226080D01*
X153204742Y-88226080D01*
X153288200Y-88253900D01*
X153343838Y-88309538D01*
X153371657Y-88365176D01*
X153399476Y-88476452D01*
X153399476Y-88559909D01*
X153371657Y-88671185D01*
X153343838Y-88726823D01*
X153288200Y-88782461D01*
X153204742Y-88810280D01*
X153065647Y-88810280D01*
X153677666Y-88810280D02*
X153788942Y-88810280D01*
X153844580Y-88782461D01*
X153872400Y-88754642D01*
X153928038Y-88671185D01*
X153955857Y-88559909D01*
X153955857Y-88337357D01*
X153928038Y-88281719D01*
X153900219Y-88253900D01*
X153844580Y-88226080D01*
X153733304Y-88226080D01*
X153677666Y-88253900D01*
X153649847Y-88281719D01*
X153622028Y-88337357D01*
X153622028Y-88476452D01*
X153649847Y-88532090D01*
X153677666Y-88559909D01*
X153733304Y-88587728D01*
X153844580Y-88587728D01*
X153900219Y-88559909D01*
X153928038Y-88532090D01*
X153955857Y-88476452D01*
%TO.C,DLED10*%
X154630771Y-88810280D02*
X154630771Y-88226080D01*
X154769866Y-88226080D01*
X154853323Y-88253900D01*
X154908961Y-88309538D01*
X154936780Y-88365176D01*
X154964600Y-88476452D01*
X154964600Y-88559909D01*
X154936780Y-88671185D01*
X154908961Y-88726823D01*
X154853323Y-88782461D01*
X154769866Y-88810280D01*
X154630771Y-88810280D01*
X155493161Y-88810280D02*
X155214971Y-88810280D01*
X155214971Y-88226080D01*
X155687895Y-88504271D02*
X155882628Y-88504271D01*
X155966085Y-88810280D02*
X155687895Y-88810280D01*
X155687895Y-88226080D01*
X155966085Y-88226080D01*
X156216457Y-88810280D02*
X156216457Y-88226080D01*
X156355552Y-88226080D01*
X156439009Y-88253900D01*
X156494647Y-88309538D01*
X156522466Y-88365176D01*
X156550285Y-88476452D01*
X156550285Y-88559909D01*
X156522466Y-88671185D01*
X156494647Y-88726823D01*
X156439009Y-88782461D01*
X156355552Y-88810280D01*
X156216457Y-88810280D01*
X157106666Y-88810280D02*
X156772838Y-88810280D01*
X156939752Y-88810280D02*
X156939752Y-88226080D01*
X156884114Y-88309538D01*
X156828476Y-88365176D01*
X156772838Y-88392995D01*
X157468314Y-88226080D02*
X157523952Y-88226080D01*
X157579590Y-88253900D01*
X157607409Y-88281719D01*
X157635228Y-88337357D01*
X157663047Y-88448633D01*
X157663047Y-88587728D01*
X157635228Y-88699004D01*
X157607409Y-88754642D01*
X157579590Y-88782461D01*
X157523952Y-88810280D01*
X157468314Y-88810280D01*
X157412676Y-88782461D01*
X157384857Y-88754642D01*
X157357038Y-88699004D01*
X157329219Y-88587728D01*
X157329219Y-88448633D01*
X157357038Y-88337357D01*
X157384857Y-88281719D01*
X157412676Y-88253900D01*
X157468314Y-88226080D01*
%TO.C,FT1*%
X105614571Y-74806457D02*
X105411371Y-74806457D01*
X105411371Y-75125771D02*
X105411371Y-74516171D01*
X105701657Y-74516171D01*
X105846800Y-74516171D02*
X106195142Y-74516171D01*
X106020971Y-75125771D02*
X106020971Y-74516171D01*
X106717657Y-75125771D02*
X106369314Y-75125771D01*
X106543485Y-75125771D02*
X106543485Y-74516171D01*
X106485428Y-74603257D01*
X106427371Y-74661314D01*
X106369314Y-74690342D01*
%TO.C,FT2*%
X118014571Y-34656457D02*
X117811371Y-34656457D01*
X117811371Y-34975771D02*
X117811371Y-34366171D01*
X118101657Y-34366171D01*
X118246800Y-34366171D02*
X118595142Y-34366171D01*
X118420971Y-34975771D02*
X118420971Y-34366171D01*
X118769314Y-34424228D02*
X118798342Y-34395200D01*
X118856400Y-34366171D01*
X119001542Y-34366171D01*
X119059600Y-34395200D01*
X119088628Y-34424228D01*
X119117657Y-34482285D01*
X119117657Y-34540342D01*
X119088628Y-34627428D01*
X118740285Y-34975771D01*
X119117657Y-34975771D01*
D17*
%TO.C,CON4*%
X174209771Y-45517714D02*
X174180742Y-45546742D01*
X174093657Y-45575771D01*
X174035600Y-45575771D01*
X173948514Y-45546742D01*
X173890457Y-45488685D01*
X173861428Y-45430628D01*
X173832400Y-45314514D01*
X173832400Y-45227428D01*
X173861428Y-45111314D01*
X173890457Y-45053257D01*
X173948514Y-44995200D01*
X174035600Y-44966171D01*
X174093657Y-44966171D01*
X174180742Y-44995200D01*
X174209771Y-45024228D01*
X174587142Y-44966171D02*
X174703257Y-44966171D01*
X174761314Y-44995200D01*
X174819371Y-45053257D01*
X174848400Y-45169371D01*
X174848400Y-45372571D01*
X174819371Y-45488685D01*
X174761314Y-45546742D01*
X174703257Y-45575771D01*
X174587142Y-45575771D01*
X174529085Y-45546742D01*
X174471028Y-45488685D01*
X174442000Y-45372571D01*
X174442000Y-45169371D01*
X174471028Y-45053257D01*
X174529085Y-44995200D01*
X174587142Y-44966171D01*
X175109657Y-45575771D02*
X175109657Y-44966171D01*
X175458000Y-45575771D01*
X175458000Y-44966171D01*
X176009542Y-45169371D02*
X176009542Y-45575771D01*
X175864400Y-44937142D02*
X175719257Y-45372571D01*
X176096628Y-45372571D01*
D16*
%TO.C,CON6*%
X179509771Y-59917714D02*
X179480742Y-59946742D01*
X179393657Y-59975771D01*
X179335600Y-59975771D01*
X179248514Y-59946742D01*
X179190457Y-59888685D01*
X179161428Y-59830628D01*
X179132400Y-59714514D01*
X179132400Y-59627428D01*
X179161428Y-59511314D01*
X179190457Y-59453257D01*
X179248514Y-59395200D01*
X179335600Y-59366171D01*
X179393657Y-59366171D01*
X179480742Y-59395200D01*
X179509771Y-59424228D01*
X179887142Y-59366171D02*
X180003257Y-59366171D01*
X180061314Y-59395200D01*
X180119371Y-59453257D01*
X180148400Y-59569371D01*
X180148400Y-59772571D01*
X180119371Y-59888685D01*
X180061314Y-59946742D01*
X180003257Y-59975771D01*
X179887142Y-59975771D01*
X179829085Y-59946742D01*
X179771028Y-59888685D01*
X179742000Y-59772571D01*
X179742000Y-59569371D01*
X179771028Y-59453257D01*
X179829085Y-59395200D01*
X179887142Y-59366171D01*
X180409657Y-59975771D02*
X180409657Y-59366171D01*
X180758000Y-59975771D01*
X180758000Y-59366171D01*
X181309542Y-59366171D02*
X181193428Y-59366171D01*
X181135371Y-59395200D01*
X181106342Y-59424228D01*
X181048285Y-59511314D01*
X181019257Y-59627428D01*
X181019257Y-59859657D01*
X181048285Y-59917714D01*
X181077314Y-59946742D01*
X181135371Y-59975771D01*
X181251485Y-59975771D01*
X181309542Y-59946742D01*
X181338571Y-59917714D01*
X181367600Y-59859657D01*
X181367600Y-59714514D01*
X181338571Y-59656457D01*
X181309542Y-59627428D01*
X181251485Y-59598400D01*
X181135371Y-59598400D01*
X181077314Y-59627428D01*
X181048285Y-59656457D01*
X181019257Y-59714514D01*
%TO.C,Q1*%
X137548942Y-58499828D02*
X137490885Y-58470800D01*
X137432828Y-58412742D01*
X137345742Y-58325657D01*
X137287685Y-58296628D01*
X137229628Y-58296628D01*
X137258657Y-58441771D02*
X137200600Y-58412742D01*
X137142542Y-58354685D01*
X137113514Y-58238571D01*
X137113514Y-58035371D01*
X137142542Y-57919257D01*
X137200600Y-57861200D01*
X137258657Y-57832171D01*
X137374771Y-57832171D01*
X137432828Y-57861200D01*
X137490885Y-57919257D01*
X137519914Y-58035371D01*
X137519914Y-58238571D01*
X137490885Y-58354685D01*
X137432828Y-58412742D01*
X137374771Y-58441771D01*
X137258657Y-58441771D01*
X138100485Y-58441771D02*
X137752142Y-58441771D01*
X137926314Y-58441771D02*
X137926314Y-57832171D01*
X137868257Y-57919257D01*
X137810200Y-57977314D01*
X137752142Y-58006342D01*
%TO.C,Q5*%
X107691942Y-88433828D02*
X107633885Y-88404800D01*
X107575828Y-88346742D01*
X107488742Y-88259657D01*
X107430685Y-88230628D01*
X107372628Y-88230628D01*
X107401657Y-88375771D02*
X107343600Y-88346742D01*
X107285542Y-88288685D01*
X107256514Y-88172571D01*
X107256514Y-87969371D01*
X107285542Y-87853257D01*
X107343600Y-87795200D01*
X107401657Y-87766171D01*
X107517771Y-87766171D01*
X107575828Y-87795200D01*
X107633885Y-87853257D01*
X107662914Y-87969371D01*
X107662914Y-88172571D01*
X107633885Y-88288685D01*
X107575828Y-88346742D01*
X107517771Y-88375771D01*
X107401657Y-88375771D01*
X108214457Y-87766171D02*
X107924171Y-87766171D01*
X107895142Y-88056457D01*
X107924171Y-88027428D01*
X107982228Y-87998400D01*
X108127371Y-87998400D01*
X108185428Y-88027428D01*
X108214457Y-88056457D01*
X108243485Y-88114514D01*
X108243485Y-88259657D01*
X108214457Y-88317714D01*
X108185428Y-88346742D01*
X108127371Y-88375771D01*
X107982228Y-88375771D01*
X107924171Y-88346742D01*
X107895142Y-88317714D01*
%TO.C,Q6*%
X109891942Y-93733828D02*
X109833885Y-93704800D01*
X109775828Y-93646742D01*
X109688742Y-93559657D01*
X109630685Y-93530628D01*
X109572628Y-93530628D01*
X109601657Y-93675771D02*
X109543600Y-93646742D01*
X109485542Y-93588685D01*
X109456514Y-93472571D01*
X109456514Y-93269371D01*
X109485542Y-93153257D01*
X109543600Y-93095200D01*
X109601657Y-93066171D01*
X109717771Y-93066171D01*
X109775828Y-93095200D01*
X109833885Y-93153257D01*
X109862914Y-93269371D01*
X109862914Y-93472571D01*
X109833885Y-93588685D01*
X109775828Y-93646742D01*
X109717771Y-93675771D01*
X109601657Y-93675771D01*
X110385428Y-93066171D02*
X110269314Y-93066171D01*
X110211257Y-93095200D01*
X110182228Y-93124228D01*
X110124171Y-93211314D01*
X110095142Y-93327428D01*
X110095142Y-93559657D01*
X110124171Y-93617714D01*
X110153200Y-93646742D01*
X110211257Y-93675771D01*
X110327371Y-93675771D01*
X110385428Y-93646742D01*
X110414457Y-93617714D01*
X110443485Y-93559657D01*
X110443485Y-93414514D01*
X110414457Y-93356457D01*
X110385428Y-93327428D01*
X110327371Y-93298400D01*
X110211257Y-93298400D01*
X110153200Y-93327428D01*
X110124171Y-93356457D01*
X110095142Y-93414514D01*
%TO.C,Q8*%
X129506842Y-93920128D02*
X129448785Y-93891100D01*
X129390728Y-93833042D01*
X129303642Y-93745957D01*
X129245585Y-93716928D01*
X129187528Y-93716928D01*
X129216557Y-93862071D02*
X129158500Y-93833042D01*
X129100442Y-93774985D01*
X129071414Y-93658871D01*
X129071414Y-93455671D01*
X129100442Y-93339557D01*
X129158500Y-93281500D01*
X129216557Y-93252471D01*
X129332671Y-93252471D01*
X129390728Y-93281500D01*
X129448785Y-93339557D01*
X129477814Y-93455671D01*
X129477814Y-93658871D01*
X129448785Y-93774985D01*
X129390728Y-93833042D01*
X129332671Y-93862071D01*
X129216557Y-93862071D01*
X129826157Y-93513728D02*
X129768100Y-93484700D01*
X129739071Y-93455671D01*
X129710042Y-93397614D01*
X129710042Y-93368585D01*
X129739071Y-93310528D01*
X129768100Y-93281500D01*
X129826157Y-93252471D01*
X129942271Y-93252471D01*
X130000328Y-93281500D01*
X130029357Y-93310528D01*
X130058385Y-93368585D01*
X130058385Y-93397614D01*
X130029357Y-93455671D01*
X130000328Y-93484700D01*
X129942271Y-93513728D01*
X129826157Y-93513728D01*
X129768100Y-93542757D01*
X129739071Y-93571785D01*
X129710042Y-93629842D01*
X129710042Y-93745957D01*
X129739071Y-93804014D01*
X129768100Y-93833042D01*
X129826157Y-93862071D01*
X129942271Y-93862071D01*
X130000328Y-93833042D01*
X130029357Y-93804014D01*
X130058385Y-93745957D01*
X130058385Y-93629842D01*
X130029357Y-93571785D01*
X130000328Y-93542757D01*
X129942271Y-93513728D01*
%TO.C,R2*%
X105498900Y-45614771D02*
X105295700Y-45324485D01*
X105150557Y-45614771D02*
X105150557Y-45005171D01*
X105382785Y-45005171D01*
X105440842Y-45034200D01*
X105469871Y-45063228D01*
X105498900Y-45121285D01*
X105498900Y-45208371D01*
X105469871Y-45266428D01*
X105440842Y-45295457D01*
X105382785Y-45324485D01*
X105150557Y-45324485D01*
X105731128Y-45063228D02*
X105760157Y-45034200D01*
X105818214Y-45005171D01*
X105963357Y-45005171D01*
X106021414Y-45034200D01*
X106050442Y-45063228D01*
X106079471Y-45121285D01*
X106079471Y-45179342D01*
X106050442Y-45266428D01*
X105702100Y-45614771D01*
X106079471Y-45614771D01*
%TO.C,R4*%
X111914900Y-44019271D02*
X111711700Y-43728985D01*
X111566557Y-44019271D02*
X111566557Y-43409671D01*
X111798785Y-43409671D01*
X111856842Y-43438700D01*
X111885871Y-43467728D01*
X111914900Y-43525785D01*
X111914900Y-43612871D01*
X111885871Y-43670928D01*
X111856842Y-43699957D01*
X111798785Y-43728985D01*
X111566557Y-43728985D01*
X112437414Y-43612871D02*
X112437414Y-44019271D01*
X112292271Y-43380642D02*
X112147128Y-43816071D01*
X112524500Y-43816071D01*
%TO.C,R5*%
X117182900Y-81339871D02*
X116979700Y-81049585D01*
X116834557Y-81339871D02*
X116834557Y-80730271D01*
X117066785Y-80730271D01*
X117124842Y-80759300D01*
X117153871Y-80788328D01*
X117182900Y-80846385D01*
X117182900Y-80933471D01*
X117153871Y-80991528D01*
X117124842Y-81020557D01*
X117066785Y-81049585D01*
X116834557Y-81049585D01*
X117734442Y-80730271D02*
X117444157Y-80730271D01*
X117415128Y-81020557D01*
X117444157Y-80991528D01*
X117502214Y-80962500D01*
X117647357Y-80962500D01*
X117705414Y-80991528D01*
X117734442Y-81020557D01*
X117763471Y-81078614D01*
X117763471Y-81223757D01*
X117734442Y-81281814D01*
X117705414Y-81310842D01*
X117647357Y-81339871D01*
X117502214Y-81339871D01*
X117444157Y-81310842D01*
X117415128Y-81281814D01*
%TO.C,R6*%
X118935500Y-66658671D02*
X118732300Y-66368385D01*
X118587157Y-66658671D02*
X118587157Y-66049071D01*
X118819385Y-66049071D01*
X118877442Y-66078100D01*
X118906471Y-66107128D01*
X118935500Y-66165185D01*
X118935500Y-66252271D01*
X118906471Y-66310328D01*
X118877442Y-66339357D01*
X118819385Y-66368385D01*
X118587157Y-66368385D01*
X119458014Y-66049071D02*
X119341900Y-66049071D01*
X119283842Y-66078100D01*
X119254814Y-66107128D01*
X119196757Y-66194214D01*
X119167728Y-66310328D01*
X119167728Y-66542557D01*
X119196757Y-66600614D01*
X119225785Y-66629642D01*
X119283842Y-66658671D01*
X119399957Y-66658671D01*
X119458014Y-66629642D01*
X119487042Y-66600614D01*
X119516071Y-66542557D01*
X119516071Y-66397414D01*
X119487042Y-66339357D01*
X119458014Y-66310328D01*
X119399957Y-66281300D01*
X119283842Y-66281300D01*
X119225785Y-66310328D01*
X119196757Y-66339357D01*
X119167728Y-66397414D01*
%TO.C,R7*%
X129692400Y-64982271D02*
X129489200Y-64691985D01*
X129344057Y-64982271D02*
X129344057Y-64372671D01*
X129576285Y-64372671D01*
X129634342Y-64401700D01*
X129663371Y-64430728D01*
X129692400Y-64488785D01*
X129692400Y-64575871D01*
X129663371Y-64633928D01*
X129634342Y-64662957D01*
X129576285Y-64691985D01*
X129344057Y-64691985D01*
X129895600Y-64372671D02*
X130302000Y-64372671D01*
X130040742Y-64982271D01*
%TO.C,R8*%
X115036700Y-74045771D02*
X114833500Y-73755485D01*
X114688357Y-74045771D02*
X114688357Y-73436171D01*
X114920585Y-73436171D01*
X114978642Y-73465200D01*
X115007671Y-73494228D01*
X115036700Y-73552285D01*
X115036700Y-73639371D01*
X115007671Y-73697428D01*
X114978642Y-73726457D01*
X114920585Y-73755485D01*
X114688357Y-73755485D01*
X115385042Y-73697428D02*
X115326985Y-73668400D01*
X115297957Y-73639371D01*
X115268928Y-73581314D01*
X115268928Y-73552285D01*
X115297957Y-73494228D01*
X115326985Y-73465200D01*
X115385042Y-73436171D01*
X115501157Y-73436171D01*
X115559214Y-73465200D01*
X115588242Y-73494228D01*
X115617271Y-73552285D01*
X115617271Y-73581314D01*
X115588242Y-73639371D01*
X115559214Y-73668400D01*
X115501157Y-73697428D01*
X115385042Y-73697428D01*
X115326985Y-73726457D01*
X115297957Y-73755485D01*
X115268928Y-73813542D01*
X115268928Y-73929657D01*
X115297957Y-73987714D01*
X115326985Y-74016742D01*
X115385042Y-74045771D01*
X115501157Y-74045771D01*
X115559214Y-74016742D01*
X115588242Y-73987714D01*
X115617271Y-73929657D01*
X115617271Y-73813542D01*
X115588242Y-73755485D01*
X115559214Y-73726457D01*
X115501157Y-73697428D01*
%TO.C,R9*%
X115176400Y-69155771D02*
X114973200Y-68865485D01*
X114828057Y-69155771D02*
X114828057Y-68546171D01*
X115060285Y-68546171D01*
X115118342Y-68575200D01*
X115147371Y-68604228D01*
X115176400Y-68662285D01*
X115176400Y-68749371D01*
X115147371Y-68807428D01*
X115118342Y-68836457D01*
X115060285Y-68865485D01*
X114828057Y-68865485D01*
X115466685Y-69155771D02*
X115582800Y-69155771D01*
X115640857Y-69126742D01*
X115669885Y-69097714D01*
X115727942Y-69010628D01*
X115756971Y-68894514D01*
X115756971Y-68662285D01*
X115727942Y-68604228D01*
X115698914Y-68575200D01*
X115640857Y-68546171D01*
X115524742Y-68546171D01*
X115466685Y-68575200D01*
X115437657Y-68604228D01*
X115408628Y-68662285D01*
X115408628Y-68807428D01*
X115437657Y-68865485D01*
X115466685Y-68894514D01*
X115524742Y-68923542D01*
X115640857Y-68923542D01*
X115698914Y-68894514D01*
X115727942Y-68865485D01*
X115756971Y-68807428D01*
%TO.C,R16*%
X174658114Y-76525771D02*
X174454914Y-76235485D01*
X174309771Y-76525771D02*
X174309771Y-75916171D01*
X174542000Y-75916171D01*
X174600057Y-75945200D01*
X174629085Y-75974228D01*
X174658114Y-76032285D01*
X174658114Y-76119371D01*
X174629085Y-76177428D01*
X174600057Y-76206457D01*
X174542000Y-76235485D01*
X174309771Y-76235485D01*
X175238685Y-76525771D02*
X174890342Y-76525771D01*
X175064514Y-76525771D02*
X175064514Y-75916171D01*
X175006457Y-76003257D01*
X174948400Y-76061314D01*
X174890342Y-76090342D01*
X175761200Y-75916171D02*
X175645085Y-75916171D01*
X175587028Y-75945200D01*
X175558000Y-75974228D01*
X175499942Y-76061314D01*
X175470914Y-76177428D01*
X175470914Y-76409657D01*
X175499942Y-76467714D01*
X175528971Y-76496742D01*
X175587028Y-76525771D01*
X175703142Y-76525771D01*
X175761200Y-76496742D01*
X175790228Y-76467714D01*
X175819257Y-76409657D01*
X175819257Y-76264514D01*
X175790228Y-76206457D01*
X175761200Y-76177428D01*
X175703142Y-76148400D01*
X175587028Y-76148400D01*
X175528971Y-76177428D01*
X175499942Y-76206457D01*
X175470914Y-76264514D01*
%TO.C,R17*%
X118212914Y-88714338D02*
X118068980Y-88508719D01*
X117966171Y-88714338D02*
X117966171Y-88282538D01*
X118130666Y-88282538D01*
X118171790Y-88303100D01*
X118192352Y-88323661D01*
X118212914Y-88364785D01*
X118212914Y-88426471D01*
X118192352Y-88467595D01*
X118171790Y-88488157D01*
X118130666Y-88508719D01*
X117966171Y-88508719D01*
X118624152Y-88714338D02*
X118377409Y-88714338D01*
X118500780Y-88714338D02*
X118500780Y-88282538D01*
X118459657Y-88344223D01*
X118418533Y-88385347D01*
X118377409Y-88405909D01*
X118768085Y-88282538D02*
X119055952Y-88282538D01*
X118870895Y-88714338D01*
%TO.C,R18*%
X119990914Y-88714338D02*
X119846980Y-88508719D01*
X119744171Y-88714338D02*
X119744171Y-88282538D01*
X119908666Y-88282538D01*
X119949790Y-88303100D01*
X119970352Y-88323661D01*
X119990914Y-88364785D01*
X119990914Y-88426471D01*
X119970352Y-88467595D01*
X119949790Y-88488157D01*
X119908666Y-88508719D01*
X119744171Y-88508719D01*
X120402152Y-88714338D02*
X120155409Y-88714338D01*
X120278780Y-88714338D02*
X120278780Y-88282538D01*
X120237657Y-88344223D01*
X120196533Y-88385347D01*
X120155409Y-88405909D01*
X120648895Y-88467595D02*
X120607771Y-88447033D01*
X120587209Y-88426471D01*
X120566647Y-88385347D01*
X120566647Y-88364785D01*
X120587209Y-88323661D01*
X120607771Y-88303100D01*
X120648895Y-88282538D01*
X120731142Y-88282538D01*
X120772266Y-88303100D01*
X120792828Y-88323661D01*
X120813390Y-88364785D01*
X120813390Y-88385347D01*
X120792828Y-88426471D01*
X120772266Y-88447033D01*
X120731142Y-88467595D01*
X120648895Y-88467595D01*
X120607771Y-88488157D01*
X120587209Y-88508719D01*
X120566647Y-88549842D01*
X120566647Y-88632090D01*
X120587209Y-88673214D01*
X120607771Y-88693776D01*
X120648895Y-88714338D01*
X120731142Y-88714338D01*
X120772266Y-88693776D01*
X120792828Y-88673214D01*
X120813390Y-88632090D01*
X120813390Y-88549842D01*
X120792828Y-88508719D01*
X120772266Y-88488157D01*
X120731142Y-88467595D01*
%TO.C,R19*%
X121768914Y-88714338D02*
X121624980Y-88508719D01*
X121522171Y-88714338D02*
X121522171Y-88282538D01*
X121686666Y-88282538D01*
X121727790Y-88303100D01*
X121748352Y-88323661D01*
X121768914Y-88364785D01*
X121768914Y-88426471D01*
X121748352Y-88467595D01*
X121727790Y-88488157D01*
X121686666Y-88508719D01*
X121522171Y-88508719D01*
X122180152Y-88714338D02*
X121933409Y-88714338D01*
X122056780Y-88714338D02*
X122056780Y-88282538D01*
X122015657Y-88344223D01*
X121974533Y-88385347D01*
X121933409Y-88405909D01*
X122385771Y-88714338D02*
X122468019Y-88714338D01*
X122509142Y-88693776D01*
X122529704Y-88673214D01*
X122570828Y-88611528D01*
X122591390Y-88529280D01*
X122591390Y-88364785D01*
X122570828Y-88323661D01*
X122550266Y-88303100D01*
X122509142Y-88282538D01*
X122426895Y-88282538D01*
X122385771Y-88303100D01*
X122365209Y-88323661D01*
X122344647Y-88364785D01*
X122344647Y-88467595D01*
X122365209Y-88508719D01*
X122385771Y-88529280D01*
X122426895Y-88549842D01*
X122509142Y-88549842D01*
X122550266Y-88529280D01*
X122570828Y-88508719D01*
X122591390Y-88467595D01*
%TO.C,R20*%
X123546914Y-88714338D02*
X123402980Y-88508719D01*
X123300171Y-88714338D02*
X123300171Y-88282538D01*
X123464666Y-88282538D01*
X123505790Y-88303100D01*
X123526352Y-88323661D01*
X123546914Y-88364785D01*
X123546914Y-88426471D01*
X123526352Y-88467595D01*
X123505790Y-88488157D01*
X123464666Y-88508719D01*
X123300171Y-88508719D01*
X123711409Y-88323661D02*
X123731971Y-88303100D01*
X123773095Y-88282538D01*
X123875904Y-88282538D01*
X123917028Y-88303100D01*
X123937590Y-88323661D01*
X123958152Y-88364785D01*
X123958152Y-88405909D01*
X123937590Y-88467595D01*
X123690847Y-88714338D01*
X123958152Y-88714338D01*
X124225457Y-88282538D02*
X124266580Y-88282538D01*
X124307704Y-88303100D01*
X124328266Y-88323661D01*
X124348828Y-88364785D01*
X124369390Y-88447033D01*
X124369390Y-88549842D01*
X124348828Y-88632090D01*
X124328266Y-88673214D01*
X124307704Y-88693776D01*
X124266580Y-88714338D01*
X124225457Y-88714338D01*
X124184333Y-88693776D01*
X124163771Y-88673214D01*
X124143209Y-88632090D01*
X124122647Y-88549842D01*
X124122647Y-88447033D01*
X124143209Y-88364785D01*
X124163771Y-88323661D01*
X124184333Y-88303100D01*
X124225457Y-88282538D01*
%TO.C,R23*%
X162858114Y-71925771D02*
X162654914Y-71635485D01*
X162509771Y-71925771D02*
X162509771Y-71316171D01*
X162742000Y-71316171D01*
X162800057Y-71345200D01*
X162829085Y-71374228D01*
X162858114Y-71432285D01*
X162858114Y-71519371D01*
X162829085Y-71577428D01*
X162800057Y-71606457D01*
X162742000Y-71635485D01*
X162509771Y-71635485D01*
X163090342Y-71374228D02*
X163119371Y-71345200D01*
X163177428Y-71316171D01*
X163322571Y-71316171D01*
X163380628Y-71345200D01*
X163409657Y-71374228D01*
X163438685Y-71432285D01*
X163438685Y-71490342D01*
X163409657Y-71577428D01*
X163061314Y-71925771D01*
X163438685Y-71925771D01*
X163641885Y-71316171D02*
X164019257Y-71316171D01*
X163816057Y-71548400D01*
X163903142Y-71548400D01*
X163961200Y-71577428D01*
X163990228Y-71606457D01*
X164019257Y-71664514D01*
X164019257Y-71809657D01*
X163990228Y-71867714D01*
X163961200Y-71896742D01*
X163903142Y-71925771D01*
X163728971Y-71925771D01*
X163670914Y-71896742D01*
X163641885Y-71867714D01*
%TO.C,R24*%
X145086614Y-87270771D02*
X144883414Y-86980485D01*
X144738271Y-87270771D02*
X144738271Y-86661171D01*
X144970500Y-86661171D01*
X145028557Y-86690200D01*
X145057585Y-86719228D01*
X145086614Y-86777285D01*
X145086614Y-86864371D01*
X145057585Y-86922428D01*
X145028557Y-86951457D01*
X144970500Y-86980485D01*
X144738271Y-86980485D01*
X145318842Y-86719228D02*
X145347871Y-86690200D01*
X145405928Y-86661171D01*
X145551071Y-86661171D01*
X145609128Y-86690200D01*
X145638157Y-86719228D01*
X145667185Y-86777285D01*
X145667185Y-86835342D01*
X145638157Y-86922428D01*
X145289814Y-87270771D01*
X145667185Y-87270771D01*
X146189700Y-86864371D02*
X146189700Y-87270771D01*
X146044557Y-86632142D02*
X145899414Y-87067571D01*
X146276785Y-87067571D01*
%TO.C,R10*%
X152770114Y-97811771D02*
X152566914Y-97521485D01*
X152421771Y-97811771D02*
X152421771Y-97202171D01*
X152654000Y-97202171D01*
X152712057Y-97231200D01*
X152741085Y-97260228D01*
X152770114Y-97318285D01*
X152770114Y-97405371D01*
X152741085Y-97463428D01*
X152712057Y-97492457D01*
X152654000Y-97521485D01*
X152421771Y-97521485D01*
X153350685Y-97811771D02*
X153002342Y-97811771D01*
X153176514Y-97811771D02*
X153176514Y-97202171D01*
X153118457Y-97289257D01*
X153060400Y-97347314D01*
X153002342Y-97376342D01*
X153728057Y-97202171D02*
X153786114Y-97202171D01*
X153844171Y-97231200D01*
X153873200Y-97260228D01*
X153902228Y-97318285D01*
X153931257Y-97434400D01*
X153931257Y-97579542D01*
X153902228Y-97695657D01*
X153873200Y-97753714D01*
X153844171Y-97782742D01*
X153786114Y-97811771D01*
X153728057Y-97811771D01*
X153670000Y-97782742D01*
X153640971Y-97753714D01*
X153611942Y-97695657D01*
X153582914Y-97579542D01*
X153582914Y-97434400D01*
X153611942Y-97318285D01*
X153640971Y-97260228D01*
X153670000Y-97231200D01*
X153728057Y-97202171D01*
%TO.C,R11*%
X155437114Y-97811771D02*
X155233914Y-97521485D01*
X155088771Y-97811771D02*
X155088771Y-97202171D01*
X155321000Y-97202171D01*
X155379057Y-97231200D01*
X155408085Y-97260228D01*
X155437114Y-97318285D01*
X155437114Y-97405371D01*
X155408085Y-97463428D01*
X155379057Y-97492457D01*
X155321000Y-97521485D01*
X155088771Y-97521485D01*
X156017685Y-97811771D02*
X155669342Y-97811771D01*
X155843514Y-97811771D02*
X155843514Y-97202171D01*
X155785457Y-97289257D01*
X155727400Y-97347314D01*
X155669342Y-97376342D01*
X156598257Y-97811771D02*
X156249914Y-97811771D01*
X156424085Y-97811771D02*
X156424085Y-97202171D01*
X156366028Y-97289257D01*
X156307971Y-97347314D01*
X156249914Y-97376342D01*
%TO.C,R12*%
X136831614Y-67649271D02*
X136628414Y-67358985D01*
X136483271Y-67649271D02*
X136483271Y-67039671D01*
X136715500Y-67039671D01*
X136773557Y-67068700D01*
X136802585Y-67097728D01*
X136831614Y-67155785D01*
X136831614Y-67242871D01*
X136802585Y-67300928D01*
X136773557Y-67329957D01*
X136715500Y-67358985D01*
X136483271Y-67358985D01*
X137412185Y-67649271D02*
X137063842Y-67649271D01*
X137238014Y-67649271D02*
X137238014Y-67039671D01*
X137179957Y-67126757D01*
X137121900Y-67184814D01*
X137063842Y-67213842D01*
X137644414Y-67097728D02*
X137673442Y-67068700D01*
X137731500Y-67039671D01*
X137876642Y-67039671D01*
X137934700Y-67068700D01*
X137963728Y-67097728D01*
X137992757Y-67155785D01*
X137992757Y-67213842D01*
X137963728Y-67300928D01*
X137615385Y-67649271D01*
X137992757Y-67649271D01*
%TO.C,R13*%
X136831614Y-69478071D02*
X136628414Y-69187785D01*
X136483271Y-69478071D02*
X136483271Y-68868471D01*
X136715500Y-68868471D01*
X136773557Y-68897500D01*
X136802585Y-68926528D01*
X136831614Y-68984585D01*
X136831614Y-69071671D01*
X136802585Y-69129728D01*
X136773557Y-69158757D01*
X136715500Y-69187785D01*
X136483271Y-69187785D01*
X137412185Y-69478071D02*
X137063842Y-69478071D01*
X137238014Y-69478071D02*
X137238014Y-68868471D01*
X137179957Y-68955557D01*
X137121900Y-69013614D01*
X137063842Y-69042642D01*
X137615385Y-68868471D02*
X137992757Y-68868471D01*
X137789557Y-69100700D01*
X137876642Y-69100700D01*
X137934700Y-69129728D01*
X137963728Y-69158757D01*
X137992757Y-69216814D01*
X137992757Y-69361957D01*
X137963728Y-69420014D01*
X137934700Y-69449042D01*
X137876642Y-69478071D01*
X137702471Y-69478071D01*
X137644414Y-69449042D01*
X137615385Y-69420014D01*
%TO.C,R26*%
X135625114Y-63775771D02*
X135421914Y-63485485D01*
X135276771Y-63775771D02*
X135276771Y-63166171D01*
X135509000Y-63166171D01*
X135567057Y-63195200D01*
X135596085Y-63224228D01*
X135625114Y-63282285D01*
X135625114Y-63369371D01*
X135596085Y-63427428D01*
X135567057Y-63456457D01*
X135509000Y-63485485D01*
X135276771Y-63485485D01*
X135857342Y-63224228D02*
X135886371Y-63195200D01*
X135944428Y-63166171D01*
X136089571Y-63166171D01*
X136147628Y-63195200D01*
X136176657Y-63224228D01*
X136205685Y-63282285D01*
X136205685Y-63340342D01*
X136176657Y-63427428D01*
X135828314Y-63775771D01*
X136205685Y-63775771D01*
X136728200Y-63166171D02*
X136612085Y-63166171D01*
X136554028Y-63195200D01*
X136525000Y-63224228D01*
X136466942Y-63311314D01*
X136437914Y-63427428D01*
X136437914Y-63659657D01*
X136466942Y-63717714D01*
X136495971Y-63746742D01*
X136554028Y-63775771D01*
X136670142Y-63775771D01*
X136728200Y-63746742D01*
X136757228Y-63717714D01*
X136786257Y-63659657D01*
X136786257Y-63514514D01*
X136757228Y-63456457D01*
X136728200Y-63427428D01*
X136670142Y-63398400D01*
X136554028Y-63398400D01*
X136495971Y-63427428D01*
X136466942Y-63456457D01*
X136437914Y-63514514D01*
%TO.C,R30*%
X128920014Y-91068071D02*
X128716814Y-90777785D01*
X128571671Y-91068071D02*
X128571671Y-90458471D01*
X128803900Y-90458471D01*
X128861957Y-90487500D01*
X128890985Y-90516528D01*
X128920014Y-90574585D01*
X128920014Y-90661671D01*
X128890985Y-90719728D01*
X128861957Y-90748757D01*
X128803900Y-90777785D01*
X128571671Y-90777785D01*
X129123214Y-90458471D02*
X129500585Y-90458471D01*
X129297385Y-90690700D01*
X129384471Y-90690700D01*
X129442528Y-90719728D01*
X129471557Y-90748757D01*
X129500585Y-90806814D01*
X129500585Y-90951957D01*
X129471557Y-91010014D01*
X129442528Y-91039042D01*
X129384471Y-91068071D01*
X129210300Y-91068071D01*
X129152242Y-91039042D01*
X129123214Y-91010014D01*
X129877957Y-90458471D02*
X129936014Y-90458471D01*
X129994071Y-90487500D01*
X130023100Y-90516528D01*
X130052128Y-90574585D01*
X130081157Y-90690700D01*
X130081157Y-90835842D01*
X130052128Y-90951957D01*
X130023100Y-91010014D01*
X129994071Y-91039042D01*
X129936014Y-91068071D01*
X129877957Y-91068071D01*
X129819900Y-91039042D01*
X129790871Y-91010014D01*
X129761842Y-90951957D01*
X129732814Y-90835842D01*
X129732814Y-90690700D01*
X129761842Y-90574585D01*
X129790871Y-90516528D01*
X129819900Y-90487500D01*
X129877957Y-90458471D01*
%TO.C,R31*%
X110479114Y-88286771D02*
X110275914Y-87996485D01*
X110130771Y-88286771D02*
X110130771Y-87677171D01*
X110363000Y-87677171D01*
X110421057Y-87706200D01*
X110450085Y-87735228D01*
X110479114Y-87793285D01*
X110479114Y-87880371D01*
X110450085Y-87938428D01*
X110421057Y-87967457D01*
X110363000Y-87996485D01*
X110130771Y-87996485D01*
X110682314Y-87677171D02*
X111059685Y-87677171D01*
X110856485Y-87909400D01*
X110943571Y-87909400D01*
X111001628Y-87938428D01*
X111030657Y-87967457D01*
X111059685Y-88025514D01*
X111059685Y-88170657D01*
X111030657Y-88228714D01*
X111001628Y-88257742D01*
X110943571Y-88286771D01*
X110769400Y-88286771D01*
X110711342Y-88257742D01*
X110682314Y-88228714D01*
X111640257Y-88286771D02*
X111291914Y-88286771D01*
X111466085Y-88286771D02*
X111466085Y-87677171D01*
X111408028Y-87764257D01*
X111349971Y-87822314D01*
X111291914Y-87851342D01*
%TO.C,RN1*%
X165378085Y-46440271D02*
X165174885Y-46149985D01*
X165029742Y-46440271D02*
X165029742Y-45830671D01*
X165261971Y-45830671D01*
X165320028Y-45859700D01*
X165349057Y-45888728D01*
X165378085Y-45946785D01*
X165378085Y-46033871D01*
X165349057Y-46091928D01*
X165320028Y-46120957D01*
X165261971Y-46149985D01*
X165029742Y-46149985D01*
X165639342Y-46440271D02*
X165639342Y-45830671D01*
X165987685Y-46440271D01*
X165987685Y-45830671D01*
X166597285Y-46440271D02*
X166248942Y-46440271D01*
X166423114Y-46440271D02*
X166423114Y-45830671D01*
X166365057Y-45917757D01*
X166307000Y-45975814D01*
X166248942Y-46004842D01*
%TO.C,RN2*%
X151662085Y-46313271D02*
X151458885Y-46022985D01*
X151313742Y-46313271D02*
X151313742Y-45703671D01*
X151545971Y-45703671D01*
X151604028Y-45732700D01*
X151633057Y-45761728D01*
X151662085Y-45819785D01*
X151662085Y-45906871D01*
X151633057Y-45964928D01*
X151604028Y-45993957D01*
X151545971Y-46022985D01*
X151313742Y-46022985D01*
X151923342Y-46313271D02*
X151923342Y-45703671D01*
X152271685Y-46313271D01*
X152271685Y-45703671D01*
X152532942Y-45761728D02*
X152561971Y-45732700D01*
X152620028Y-45703671D01*
X152765171Y-45703671D01*
X152823228Y-45732700D01*
X152852257Y-45761728D01*
X152881285Y-45819785D01*
X152881285Y-45877842D01*
X152852257Y-45964928D01*
X152503914Y-46313271D01*
X152881285Y-46313271D01*
%TO.C,RN3*%
X144930085Y-46313271D02*
X144726885Y-46022985D01*
X144581742Y-46313271D02*
X144581742Y-45703671D01*
X144813971Y-45703671D01*
X144872028Y-45732700D01*
X144901057Y-45761728D01*
X144930085Y-45819785D01*
X144930085Y-45906871D01*
X144901057Y-45964928D01*
X144872028Y-45993957D01*
X144813971Y-46022985D01*
X144581742Y-46022985D01*
X145191342Y-46313271D02*
X145191342Y-45703671D01*
X145539685Y-46313271D01*
X145539685Y-45703671D01*
X145771914Y-45703671D02*
X146149285Y-45703671D01*
X145946085Y-45935900D01*
X146033171Y-45935900D01*
X146091228Y-45964928D01*
X146120257Y-45993957D01*
X146149285Y-46052014D01*
X146149285Y-46197157D01*
X146120257Y-46255214D01*
X146091228Y-46284242D01*
X146033171Y-46313271D01*
X145859000Y-46313271D01*
X145800942Y-46284242D01*
X145771914Y-46255214D01*
%TO.C,RN5*%
X165378085Y-56409771D02*
X165174885Y-56119485D01*
X165029742Y-56409771D02*
X165029742Y-55800171D01*
X165261971Y-55800171D01*
X165320028Y-55829200D01*
X165349057Y-55858228D01*
X165378085Y-55916285D01*
X165378085Y-56003371D01*
X165349057Y-56061428D01*
X165320028Y-56090457D01*
X165261971Y-56119485D01*
X165029742Y-56119485D01*
X165639342Y-56409771D02*
X165639342Y-55800171D01*
X165987685Y-56409771D01*
X165987685Y-55800171D01*
X166568257Y-55800171D02*
X166277971Y-55800171D01*
X166248942Y-56090457D01*
X166277971Y-56061428D01*
X166336028Y-56032400D01*
X166481171Y-56032400D01*
X166539228Y-56061428D01*
X166568257Y-56090457D01*
X166597285Y-56148514D01*
X166597285Y-56293657D01*
X166568257Y-56351714D01*
X166539228Y-56380742D01*
X166481171Y-56409771D01*
X166336028Y-56409771D01*
X166277971Y-56380742D01*
X166248942Y-56351714D01*
%TO.C,RN6*%
X151662085Y-56409771D02*
X151458885Y-56119485D01*
X151313742Y-56409771D02*
X151313742Y-55800171D01*
X151545971Y-55800171D01*
X151604028Y-55829200D01*
X151633057Y-55858228D01*
X151662085Y-55916285D01*
X151662085Y-56003371D01*
X151633057Y-56061428D01*
X151604028Y-56090457D01*
X151545971Y-56119485D01*
X151313742Y-56119485D01*
X151923342Y-56409771D02*
X151923342Y-55800171D01*
X152271685Y-56409771D01*
X152271685Y-55800171D01*
X152823228Y-55800171D02*
X152707114Y-55800171D01*
X152649057Y-55829200D01*
X152620028Y-55858228D01*
X152561971Y-55945314D01*
X152532942Y-56061428D01*
X152532942Y-56293657D01*
X152561971Y-56351714D01*
X152591000Y-56380742D01*
X152649057Y-56409771D01*
X152765171Y-56409771D01*
X152823228Y-56380742D01*
X152852257Y-56351714D01*
X152881285Y-56293657D01*
X152881285Y-56148514D01*
X152852257Y-56090457D01*
X152823228Y-56061428D01*
X152765171Y-56032400D01*
X152649057Y-56032400D01*
X152591000Y-56061428D01*
X152561971Y-56090457D01*
X152532942Y-56148514D01*
%TO.C,RN7*%
X144930085Y-56409771D02*
X144726885Y-56119485D01*
X144581742Y-56409771D02*
X144581742Y-55800171D01*
X144813971Y-55800171D01*
X144872028Y-55829200D01*
X144901057Y-55858228D01*
X144930085Y-55916285D01*
X144930085Y-56003371D01*
X144901057Y-56061428D01*
X144872028Y-56090457D01*
X144813971Y-56119485D01*
X144581742Y-56119485D01*
X145191342Y-56409771D02*
X145191342Y-55800171D01*
X145539685Y-56409771D01*
X145539685Y-55800171D01*
X145771914Y-55800171D02*
X146178314Y-55800171D01*
X145917057Y-56409771D01*
%TO.C,U1*%
X142085542Y-67766171D02*
X142085542Y-68259657D01*
X142114571Y-68317714D01*
X142143600Y-68346742D01*
X142201657Y-68375771D01*
X142317771Y-68375771D01*
X142375828Y-68346742D01*
X142404857Y-68317714D01*
X142433885Y-68259657D01*
X142433885Y-67766171D01*
X143043485Y-68375771D02*
X142695142Y-68375771D01*
X142869314Y-68375771D02*
X142869314Y-67766171D01*
X142811257Y-67853257D01*
X142753200Y-67911314D01*
X142695142Y-67940342D01*
%TO.C,U2*%
X98341542Y-45068671D02*
X98341542Y-45562157D01*
X98370571Y-45620214D01*
X98399600Y-45649242D01*
X98457657Y-45678271D01*
X98573771Y-45678271D01*
X98631828Y-45649242D01*
X98660857Y-45620214D01*
X98689885Y-45562157D01*
X98689885Y-45068671D01*
X98951142Y-45126728D02*
X98980171Y-45097700D01*
X99038228Y-45068671D01*
X99183371Y-45068671D01*
X99241428Y-45097700D01*
X99270457Y-45126728D01*
X99299485Y-45184785D01*
X99299485Y-45242842D01*
X99270457Y-45329928D01*
X98922114Y-45678271D01*
X99299485Y-45678271D01*
%TO.C,U3*%
X95420542Y-51355171D02*
X95420542Y-51848657D01*
X95449571Y-51906714D01*
X95478600Y-51935742D01*
X95536657Y-51964771D01*
X95652771Y-51964771D01*
X95710828Y-51935742D01*
X95739857Y-51906714D01*
X95768885Y-51848657D01*
X95768885Y-51355171D01*
X96001114Y-51355171D02*
X96378485Y-51355171D01*
X96175285Y-51587400D01*
X96262371Y-51587400D01*
X96320428Y-51616428D01*
X96349457Y-51645457D01*
X96378485Y-51703514D01*
X96378485Y-51848657D01*
X96349457Y-51906714D01*
X96320428Y-51935742D01*
X96262371Y-51964771D01*
X96088200Y-51964771D01*
X96030142Y-51935742D01*
X96001114Y-51906714D01*
%TO.C,U5*%
X122154042Y-61896171D02*
X122154042Y-62389657D01*
X122183071Y-62447714D01*
X122212100Y-62476742D01*
X122270157Y-62505771D01*
X122386271Y-62505771D01*
X122444328Y-62476742D01*
X122473357Y-62447714D01*
X122502385Y-62389657D01*
X122502385Y-61896171D01*
X123082957Y-61896171D02*
X122792671Y-61896171D01*
X122763642Y-62186457D01*
X122792671Y-62157428D01*
X122850728Y-62128400D01*
X122995871Y-62128400D01*
X123053928Y-62157428D01*
X123082957Y-62186457D01*
X123111985Y-62244514D01*
X123111985Y-62389657D01*
X123082957Y-62447714D01*
X123053928Y-62476742D01*
X122995871Y-62505771D01*
X122850728Y-62505771D01*
X122792671Y-62476742D01*
X122763642Y-62447714D01*
D15*
D16*
%TO.C,U6*%
X122471542Y-68754171D02*
X122471542Y-69247657D01*
X122500571Y-69305714D01*
X122529600Y-69334742D01*
X122587657Y-69363771D01*
X122703771Y-69363771D01*
X122761828Y-69334742D01*
X122790857Y-69305714D01*
X122819885Y-69247657D01*
X122819885Y-68754171D01*
X123371428Y-68754171D02*
X123255314Y-68754171D01*
X123197257Y-68783200D01*
X123168228Y-68812228D01*
X123110171Y-68899314D01*
X123081142Y-69015428D01*
X123081142Y-69247657D01*
X123110171Y-69305714D01*
X123139200Y-69334742D01*
X123197257Y-69363771D01*
X123313371Y-69363771D01*
X123371428Y-69334742D01*
X123400457Y-69305714D01*
X123429485Y-69247657D01*
X123429485Y-69102514D01*
X123400457Y-69044457D01*
X123371428Y-69015428D01*
X123313371Y-68986400D01*
X123197257Y-68986400D01*
X123139200Y-69015428D01*
X123110171Y-69044457D01*
X123081142Y-69102514D01*
%TO.C,U7*%
X163365542Y-80438171D02*
X163365542Y-80931657D01*
X163394571Y-80989714D01*
X163423600Y-81018742D01*
X163481657Y-81047771D01*
X163597771Y-81047771D01*
X163655828Y-81018742D01*
X163684857Y-80989714D01*
X163713885Y-80931657D01*
X163713885Y-80438171D01*
X163946114Y-80438171D02*
X164352514Y-80438171D01*
X164091257Y-81047771D01*
%TO.C,U9*%
X130853542Y-74342171D02*
X130853542Y-74835657D01*
X130882571Y-74893714D01*
X130911600Y-74922742D01*
X130969657Y-74951771D01*
X131085771Y-74951771D01*
X131143828Y-74922742D01*
X131172857Y-74893714D01*
X131201885Y-74835657D01*
X131201885Y-74342171D01*
X131521200Y-74951771D02*
X131637314Y-74951771D01*
X131695371Y-74922742D01*
X131724400Y-74893714D01*
X131782457Y-74806628D01*
X131811485Y-74690514D01*
X131811485Y-74458285D01*
X131782457Y-74400228D01*
X131753428Y-74371200D01*
X131695371Y-74342171D01*
X131579257Y-74342171D01*
X131521200Y-74371200D01*
X131492171Y-74400228D01*
X131463142Y-74458285D01*
X131463142Y-74603428D01*
X131492171Y-74661485D01*
X131521200Y-74690514D01*
X131579257Y-74719542D01*
X131695371Y-74719542D01*
X131753428Y-74690514D01*
X131782457Y-74661485D01*
X131811485Y-74603428D01*
%TO.C,U12*%
X174745257Y-97837171D02*
X174745257Y-98330657D01*
X174774285Y-98388714D01*
X174803314Y-98417742D01*
X174861371Y-98446771D01*
X174977485Y-98446771D01*
X175035542Y-98417742D01*
X175064571Y-98388714D01*
X175093600Y-98330657D01*
X175093600Y-97837171D01*
X175703200Y-98446771D02*
X175354857Y-98446771D01*
X175529028Y-98446771D02*
X175529028Y-97837171D01*
X175470971Y-97924257D01*
X175412914Y-97982314D01*
X175354857Y-98011342D01*
X175935428Y-97895228D02*
X175964457Y-97866200D01*
X176022514Y-97837171D01*
X176167657Y-97837171D01*
X176225714Y-97866200D01*
X176254742Y-97895228D01*
X176283771Y-97953285D01*
X176283771Y-98011342D01*
X176254742Y-98098428D01*
X175906400Y-98446771D01*
X176283771Y-98446771D01*
%TO.C,U13*%
X140469257Y-98027671D02*
X140469257Y-98521157D01*
X140498285Y-98579214D01*
X140527314Y-98608242D01*
X140585371Y-98637271D01*
X140701485Y-98637271D01*
X140759542Y-98608242D01*
X140788571Y-98579214D01*
X140817600Y-98521157D01*
X140817600Y-98027671D01*
X141427200Y-98637271D02*
X141078857Y-98637271D01*
X141253028Y-98637271D02*
X141253028Y-98027671D01*
X141194971Y-98114757D01*
X141136914Y-98172814D01*
X141078857Y-98201842D01*
X141630400Y-98027671D02*
X142007771Y-98027671D01*
X141804571Y-98259900D01*
X141891657Y-98259900D01*
X141949714Y-98288928D01*
X141978742Y-98317957D01*
X142007771Y-98376014D01*
X142007771Y-98521157D01*
X141978742Y-98579214D01*
X141949714Y-98608242D01*
X141891657Y-98637271D01*
X141717485Y-98637271D01*
X141659428Y-98608242D01*
X141630400Y-98579214D01*
%TO.C,U14*%
X122752757Y-97900671D02*
X122752757Y-98394157D01*
X122781785Y-98452214D01*
X122810814Y-98481242D01*
X122868871Y-98510271D01*
X122984985Y-98510271D01*
X123043042Y-98481242D01*
X123072071Y-98452214D01*
X123101100Y-98394157D01*
X123101100Y-97900671D01*
X123710700Y-98510271D02*
X123362357Y-98510271D01*
X123536528Y-98510271D02*
X123536528Y-97900671D01*
X123478471Y-97987757D01*
X123420414Y-98045814D01*
X123362357Y-98074842D01*
X124233214Y-98103871D02*
X124233214Y-98510271D01*
X124088071Y-97871642D02*
X123942928Y-98307071D01*
X124320300Y-98307071D01*
%TO.C,Y1*%
X137390414Y-89698285D02*
X137390414Y-89988571D01*
X137187214Y-89378971D02*
X137390414Y-89698285D01*
X137593614Y-89378971D01*
X138116128Y-89988571D02*
X137767785Y-89988571D01*
X137941957Y-89988571D02*
X137941957Y-89378971D01*
X137883900Y-89466057D01*
X137825842Y-89524114D01*
X137767785Y-89553142D01*
%TO.C,Y2*%
X133948714Y-74915485D02*
X133948714Y-75205771D01*
X133745514Y-74596171D02*
X133948714Y-74915485D01*
X134151914Y-74596171D01*
X134326085Y-74654228D02*
X134355114Y-74625200D01*
X134413171Y-74596171D01*
X134558314Y-74596171D01*
X134616371Y-74625200D01*
X134645400Y-74654228D01*
X134674428Y-74712285D01*
X134674428Y-74770342D01*
X134645400Y-74857428D01*
X134297057Y-75205771D01*
X134674428Y-75205771D01*
%TO.C,R32*%
X112066614Y-93620771D02*
X111863414Y-93330485D01*
X111718271Y-93620771D02*
X111718271Y-93011171D01*
X111950500Y-93011171D01*
X112008557Y-93040200D01*
X112037585Y-93069228D01*
X112066614Y-93127285D01*
X112066614Y-93214371D01*
X112037585Y-93272428D01*
X112008557Y-93301457D01*
X111950500Y-93330485D01*
X111718271Y-93330485D01*
X112269814Y-93011171D02*
X112647185Y-93011171D01*
X112443985Y-93243400D01*
X112531071Y-93243400D01*
X112589128Y-93272428D01*
X112618157Y-93301457D01*
X112647185Y-93359514D01*
X112647185Y-93504657D01*
X112618157Y-93562714D01*
X112589128Y-93591742D01*
X112531071Y-93620771D01*
X112356900Y-93620771D01*
X112298842Y-93591742D01*
X112269814Y-93562714D01*
X112879414Y-93069228D02*
X112908442Y-93040200D01*
X112966500Y-93011171D01*
X113111642Y-93011171D01*
X113169700Y-93040200D01*
X113198728Y-93069228D01*
X113227757Y-93127285D01*
X113227757Y-93185342D01*
X113198728Y-93272428D01*
X112850385Y-93620771D01*
X113227757Y-93620771D01*
%TO.C,R29*%
X132856014Y-91075771D02*
X132652814Y-90785485D01*
X132507671Y-91075771D02*
X132507671Y-90466171D01*
X132739900Y-90466171D01*
X132797957Y-90495200D01*
X132826985Y-90524228D01*
X132856014Y-90582285D01*
X132856014Y-90669371D01*
X132826985Y-90727428D01*
X132797957Y-90756457D01*
X132739900Y-90785485D01*
X132507671Y-90785485D01*
X133088242Y-90524228D02*
X133117271Y-90495200D01*
X133175328Y-90466171D01*
X133320471Y-90466171D01*
X133378528Y-90495200D01*
X133407557Y-90524228D01*
X133436585Y-90582285D01*
X133436585Y-90640342D01*
X133407557Y-90727428D01*
X133059214Y-91075771D01*
X133436585Y-91075771D01*
X133726871Y-91075771D02*
X133842985Y-91075771D01*
X133901042Y-91046742D01*
X133930071Y-91017714D01*
X133988128Y-90930628D01*
X134017157Y-90814514D01*
X134017157Y-90582285D01*
X133988128Y-90524228D01*
X133959100Y-90495200D01*
X133901042Y-90466171D01*
X133784928Y-90466171D01*
X133726871Y-90495200D01*
X133697842Y-90524228D01*
X133668814Y-90582285D01*
X133668814Y-90727428D01*
X133697842Y-90785485D01*
X133726871Y-90814514D01*
X133784928Y-90843542D01*
X133901042Y-90843542D01*
X133959100Y-90814514D01*
X133988128Y-90785485D01*
X134017157Y-90727428D01*
%TO.C,Q7*%
X133443842Y-93920128D02*
X133385785Y-93891100D01*
X133327728Y-93833042D01*
X133240642Y-93745957D01*
X133182585Y-93716928D01*
X133124528Y-93716928D01*
X133153557Y-93862071D02*
X133095500Y-93833042D01*
X133037442Y-93774985D01*
X133008414Y-93658871D01*
X133008414Y-93455671D01*
X133037442Y-93339557D01*
X133095500Y-93281500D01*
X133153557Y-93252471D01*
X133269671Y-93252471D01*
X133327728Y-93281500D01*
X133385785Y-93339557D01*
X133414814Y-93455671D01*
X133414814Y-93658871D01*
X133385785Y-93774985D01*
X133327728Y-93833042D01*
X133269671Y-93862071D01*
X133153557Y-93862071D01*
X133618014Y-93252471D02*
X134024414Y-93252471D01*
X133763157Y-93862071D01*
%TO.C,Q4*%
X159453942Y-93615328D02*
X159395885Y-93586300D01*
X159337828Y-93528242D01*
X159250742Y-93441157D01*
X159192685Y-93412128D01*
X159134628Y-93412128D01*
X159163657Y-93557271D02*
X159105600Y-93528242D01*
X159047542Y-93470185D01*
X159018514Y-93354071D01*
X159018514Y-93150871D01*
X159047542Y-93034757D01*
X159105600Y-92976700D01*
X159163657Y-92947671D01*
X159279771Y-92947671D01*
X159337828Y-92976700D01*
X159395885Y-93034757D01*
X159424914Y-93150871D01*
X159424914Y-93354071D01*
X159395885Y-93470185D01*
X159337828Y-93528242D01*
X159279771Y-93557271D01*
X159163657Y-93557271D01*
X159947428Y-93150871D02*
X159947428Y-93557271D01*
X159802285Y-92918642D02*
X159657142Y-93354071D01*
X160034514Y-93354071D01*
%TO.C,R34*%
X159882614Y-89978771D02*
X159679414Y-89688485D01*
X159534271Y-89978771D02*
X159534271Y-89369171D01*
X159766500Y-89369171D01*
X159824557Y-89398200D01*
X159853585Y-89427228D01*
X159882614Y-89485285D01*
X159882614Y-89572371D01*
X159853585Y-89630428D01*
X159824557Y-89659457D01*
X159766500Y-89688485D01*
X159534271Y-89688485D01*
X160085814Y-89369171D02*
X160463185Y-89369171D01*
X160259985Y-89601400D01*
X160347071Y-89601400D01*
X160405128Y-89630428D01*
X160434157Y-89659457D01*
X160463185Y-89717514D01*
X160463185Y-89862657D01*
X160434157Y-89920714D01*
X160405128Y-89949742D01*
X160347071Y-89978771D01*
X160172900Y-89978771D01*
X160114842Y-89949742D01*
X160085814Y-89920714D01*
X160985700Y-89572371D02*
X160985700Y-89978771D01*
X160840557Y-89340142D02*
X160695414Y-89775571D01*
X161072785Y-89775571D01*
%TO.C,R33*%
X163946114Y-89937771D02*
X163742914Y-89647485D01*
X163597771Y-89937771D02*
X163597771Y-89328171D01*
X163830000Y-89328171D01*
X163888057Y-89357200D01*
X163917085Y-89386228D01*
X163946114Y-89444285D01*
X163946114Y-89531371D01*
X163917085Y-89589428D01*
X163888057Y-89618457D01*
X163830000Y-89647485D01*
X163597771Y-89647485D01*
X164149314Y-89328171D02*
X164526685Y-89328171D01*
X164323485Y-89560400D01*
X164410571Y-89560400D01*
X164468628Y-89589428D01*
X164497657Y-89618457D01*
X164526685Y-89676514D01*
X164526685Y-89821657D01*
X164497657Y-89879714D01*
X164468628Y-89908742D01*
X164410571Y-89937771D01*
X164236400Y-89937771D01*
X164178342Y-89908742D01*
X164149314Y-89879714D01*
X164729885Y-89328171D02*
X165107257Y-89328171D01*
X164904057Y-89560400D01*
X164991142Y-89560400D01*
X165049200Y-89589428D01*
X165078228Y-89618457D01*
X165107257Y-89676514D01*
X165107257Y-89821657D01*
X165078228Y-89879714D01*
X165049200Y-89908742D01*
X164991142Y-89937771D01*
X164816971Y-89937771D01*
X164758914Y-89908742D01*
X164729885Y-89879714D01*
%TO.C,Q3*%
X163517442Y-93615328D02*
X163459385Y-93586300D01*
X163401328Y-93528242D01*
X163314242Y-93441157D01*
X163256185Y-93412128D01*
X163198128Y-93412128D01*
X163227157Y-93557271D02*
X163169100Y-93528242D01*
X163111042Y-93470185D01*
X163082014Y-93354071D01*
X163082014Y-93150871D01*
X163111042Y-93034757D01*
X163169100Y-92976700D01*
X163227157Y-92947671D01*
X163343271Y-92947671D01*
X163401328Y-92976700D01*
X163459385Y-93034757D01*
X163488414Y-93150871D01*
X163488414Y-93354071D01*
X163459385Y-93470185D01*
X163401328Y-93528242D01*
X163343271Y-93557271D01*
X163227157Y-93557271D01*
X163691614Y-92947671D02*
X164068985Y-92947671D01*
X163865785Y-93179900D01*
X163952871Y-93179900D01*
X164010928Y-93208928D01*
X164039957Y-93237957D01*
X164068985Y-93296014D01*
X164068985Y-93441157D01*
X164039957Y-93499214D01*
X164010928Y-93528242D01*
X163952871Y-93557271D01*
X163778700Y-93557271D01*
X163720642Y-93528242D01*
X163691614Y-93499214D01*
%TO.C,R21*%
X173788114Y-84730771D02*
X173584914Y-84440485D01*
X173439771Y-84730771D02*
X173439771Y-84121171D01*
X173672000Y-84121171D01*
X173730057Y-84150200D01*
X173759085Y-84179228D01*
X173788114Y-84237285D01*
X173788114Y-84324371D01*
X173759085Y-84382428D01*
X173730057Y-84411457D01*
X173672000Y-84440485D01*
X173439771Y-84440485D01*
X174020342Y-84179228D02*
X174049371Y-84150200D01*
X174107428Y-84121171D01*
X174252571Y-84121171D01*
X174310628Y-84150200D01*
X174339657Y-84179228D01*
X174368685Y-84237285D01*
X174368685Y-84295342D01*
X174339657Y-84382428D01*
X173991314Y-84730771D01*
X174368685Y-84730771D01*
X174949257Y-84730771D02*
X174600914Y-84730771D01*
X174775085Y-84730771D02*
X174775085Y-84121171D01*
X174717028Y-84208257D01*
X174658971Y-84266314D01*
X174600914Y-84295342D01*
%TO.C,U10*%
X120149257Y-77517171D02*
X120149257Y-78010657D01*
X120178285Y-78068714D01*
X120207314Y-78097742D01*
X120265371Y-78126771D01*
X120381485Y-78126771D01*
X120439542Y-78097742D01*
X120468571Y-78068714D01*
X120497600Y-78010657D01*
X120497600Y-77517171D01*
X121107200Y-78126771D02*
X120758857Y-78126771D01*
X120933028Y-78126771D02*
X120933028Y-77517171D01*
X120874971Y-77604257D01*
X120816914Y-77662314D01*
X120758857Y-77691342D01*
X121484571Y-77517171D02*
X121542628Y-77517171D01*
X121600685Y-77546200D01*
X121629714Y-77575228D01*
X121658742Y-77633285D01*
X121687771Y-77749400D01*
X121687771Y-77894542D01*
X121658742Y-78010657D01*
X121629714Y-78068714D01*
X121600685Y-78097742D01*
X121542628Y-78126771D01*
X121484571Y-78126771D01*
X121426514Y-78097742D01*
X121397485Y-78068714D01*
X121368457Y-78010657D01*
X121339428Y-77894542D01*
X121339428Y-77749400D01*
X121368457Y-77633285D01*
X121397485Y-77575228D01*
X121426514Y-77546200D01*
X121484571Y-77517171D01*
%TO.C,R14*%
X131815114Y-78761771D02*
X131611914Y-78471485D01*
X131466771Y-78761771D02*
X131466771Y-78152171D01*
X131699000Y-78152171D01*
X131757057Y-78181200D01*
X131786085Y-78210228D01*
X131815114Y-78268285D01*
X131815114Y-78355371D01*
X131786085Y-78413428D01*
X131757057Y-78442457D01*
X131699000Y-78471485D01*
X131466771Y-78471485D01*
X132395685Y-78761771D02*
X132047342Y-78761771D01*
X132221514Y-78761771D02*
X132221514Y-78152171D01*
X132163457Y-78239257D01*
X132105400Y-78297314D01*
X132047342Y-78326342D01*
X132918200Y-78355371D02*
X132918200Y-78761771D01*
X132773057Y-78123142D02*
X132627914Y-78558571D01*
X133005285Y-78558571D01*
%TO.C,R15*%
X126481114Y-78761771D02*
X126277914Y-78471485D01*
X126132771Y-78761771D02*
X126132771Y-78152171D01*
X126365000Y-78152171D01*
X126423057Y-78181200D01*
X126452085Y-78210228D01*
X126481114Y-78268285D01*
X126481114Y-78355371D01*
X126452085Y-78413428D01*
X126423057Y-78442457D01*
X126365000Y-78471485D01*
X126132771Y-78471485D01*
X127061685Y-78761771D02*
X126713342Y-78761771D01*
X126887514Y-78761771D02*
X126887514Y-78152171D01*
X126829457Y-78239257D01*
X126771400Y-78297314D01*
X126713342Y-78326342D01*
X127613228Y-78152171D02*
X127322942Y-78152171D01*
X127293914Y-78442457D01*
X127322942Y-78413428D01*
X127381000Y-78384400D01*
X127526142Y-78384400D01*
X127584200Y-78413428D01*
X127613228Y-78442457D01*
X127642257Y-78500514D01*
X127642257Y-78645657D01*
X127613228Y-78703714D01*
X127584200Y-78732742D01*
X127526142Y-78761771D01*
X127381000Y-78761771D01*
X127322942Y-78732742D01*
X127293914Y-78703714D01*
%TO.C,CON5*%
X97652271Y-112295714D02*
X97623242Y-112324742D01*
X97536157Y-112353771D01*
X97478100Y-112353771D01*
X97391014Y-112324742D01*
X97332957Y-112266685D01*
X97303928Y-112208628D01*
X97274900Y-112092514D01*
X97274900Y-112005428D01*
X97303928Y-111889314D01*
X97332957Y-111831257D01*
X97391014Y-111773200D01*
X97478100Y-111744171D01*
X97536157Y-111744171D01*
X97623242Y-111773200D01*
X97652271Y-111802228D01*
X98029642Y-111744171D02*
X98145757Y-111744171D01*
X98203814Y-111773200D01*
X98261871Y-111831257D01*
X98290900Y-111947371D01*
X98290900Y-112150571D01*
X98261871Y-112266685D01*
X98203814Y-112324742D01*
X98145757Y-112353771D01*
X98029642Y-112353771D01*
X97971585Y-112324742D01*
X97913528Y-112266685D01*
X97884500Y-112150571D01*
X97884500Y-111947371D01*
X97913528Y-111831257D01*
X97971585Y-111773200D01*
X98029642Y-111744171D01*
X98552157Y-112353771D02*
X98552157Y-111744171D01*
X98900500Y-112353771D01*
X98900500Y-111744171D01*
X99481071Y-111744171D02*
X99190785Y-111744171D01*
X99161757Y-112034457D01*
X99190785Y-112005428D01*
X99248842Y-111976400D01*
X99393985Y-111976400D01*
X99452042Y-112005428D01*
X99481071Y-112034457D01*
X99510100Y-112092514D01*
X99510100Y-112237657D01*
X99481071Y-112295714D01*
X99452042Y-112324742D01*
X99393985Y-112353771D01*
X99248842Y-112353771D01*
X99190785Y-112324742D01*
X99161757Y-112295714D01*
%TO.C,C1*%
X90004900Y-57812214D02*
X89975871Y-57841242D01*
X89888785Y-57870271D01*
X89830728Y-57870271D01*
X89743642Y-57841242D01*
X89685585Y-57783185D01*
X89656557Y-57725128D01*
X89627528Y-57609014D01*
X89627528Y-57521928D01*
X89656557Y-57405814D01*
X89685585Y-57347757D01*
X89743642Y-57289700D01*
X89830728Y-57260671D01*
X89888785Y-57260671D01*
X89975871Y-57289700D01*
X90004900Y-57318728D01*
X90585471Y-57870271D02*
X90237128Y-57870271D01*
X90411300Y-57870271D02*
X90411300Y-57260671D01*
X90353242Y-57347757D01*
X90295185Y-57405814D01*
X90237128Y-57434842D01*
%TO.C,DLED1*%
X114307742Y-48672771D02*
X114307742Y-48063171D01*
X114452885Y-48063171D01*
X114539971Y-48092200D01*
X114598028Y-48150257D01*
X114627057Y-48208314D01*
X114656085Y-48324428D01*
X114656085Y-48411514D01*
X114627057Y-48527628D01*
X114598028Y-48585685D01*
X114539971Y-48643742D01*
X114452885Y-48672771D01*
X114307742Y-48672771D01*
X115207628Y-48672771D02*
X114917342Y-48672771D01*
X114917342Y-48063171D01*
X115410828Y-48353457D02*
X115614028Y-48353457D01*
X115701114Y-48672771D02*
X115410828Y-48672771D01*
X115410828Y-48063171D01*
X115701114Y-48063171D01*
X115962371Y-48672771D02*
X115962371Y-48063171D01*
X116107514Y-48063171D01*
X116194600Y-48092200D01*
X116252657Y-48150257D01*
X116281685Y-48208314D01*
X116310714Y-48324428D01*
X116310714Y-48411514D01*
X116281685Y-48527628D01*
X116252657Y-48585685D01*
X116194600Y-48643742D01*
X116107514Y-48672771D01*
X115962371Y-48672771D01*
X116891285Y-48672771D02*
X116542942Y-48672771D01*
X116717114Y-48672771D02*
X116717114Y-48063171D01*
X116659057Y-48150257D01*
X116601000Y-48208314D01*
X116542942Y-48237342D01*
%TO.C,R3*%
X111927400Y-48545771D02*
X111724200Y-48255485D01*
X111579057Y-48545771D02*
X111579057Y-47936171D01*
X111811285Y-47936171D01*
X111869342Y-47965200D01*
X111898371Y-47994228D01*
X111927400Y-48052285D01*
X111927400Y-48139371D01*
X111898371Y-48197428D01*
X111869342Y-48226457D01*
X111811285Y-48255485D01*
X111579057Y-48255485D01*
X112130600Y-47936171D02*
X112507971Y-47936171D01*
X112304771Y-48168400D01*
X112391857Y-48168400D01*
X112449914Y-48197428D01*
X112478942Y-48226457D01*
X112507971Y-48284514D01*
X112507971Y-48429657D01*
X112478942Y-48487714D01*
X112449914Y-48516742D01*
X112391857Y-48545771D01*
X112217685Y-48545771D01*
X112159628Y-48516742D01*
X112130600Y-48487714D01*
%TO.C,C4*%
X96798400Y-59526714D02*
X96769371Y-59555742D01*
X96682285Y-59584771D01*
X96624228Y-59584771D01*
X96537142Y-59555742D01*
X96479085Y-59497685D01*
X96450057Y-59439628D01*
X96421028Y-59323514D01*
X96421028Y-59236428D01*
X96450057Y-59120314D01*
X96479085Y-59062257D01*
X96537142Y-59004200D01*
X96624228Y-58975171D01*
X96682285Y-58975171D01*
X96769371Y-59004200D01*
X96798400Y-59033228D01*
X97320914Y-59178371D02*
X97320914Y-59584771D01*
X97175771Y-58946142D02*
X97030628Y-59381571D01*
X97408000Y-59381571D01*
%TO.C,C9*%
X106110900Y-59237714D02*
X106081871Y-59266742D01*
X105994785Y-59295771D01*
X105936728Y-59295771D01*
X105849642Y-59266742D01*
X105791585Y-59208685D01*
X105762557Y-59150628D01*
X105733528Y-59034514D01*
X105733528Y-58947428D01*
X105762557Y-58831314D01*
X105791585Y-58773257D01*
X105849642Y-58715200D01*
X105936728Y-58686171D01*
X105994785Y-58686171D01*
X106081871Y-58715200D01*
X106110900Y-58744228D01*
X106401185Y-59295771D02*
X106517300Y-59295771D01*
X106575357Y-59266742D01*
X106604385Y-59237714D01*
X106662442Y-59150628D01*
X106691471Y-59034514D01*
X106691471Y-58802285D01*
X106662442Y-58744228D01*
X106633414Y-58715200D01*
X106575357Y-58686171D01*
X106459242Y-58686171D01*
X106401185Y-58715200D01*
X106372157Y-58744228D01*
X106343128Y-58802285D01*
X106343128Y-58947428D01*
X106372157Y-59005485D01*
X106401185Y-59034514D01*
X106459242Y-59063542D01*
X106575357Y-59063542D01*
X106633414Y-59034514D01*
X106662442Y-59005485D01*
X106691471Y-58947428D01*
%TO.C,U4*%
X111585542Y-75616171D02*
X111585542Y-76109657D01*
X111614571Y-76167714D01*
X111643600Y-76196742D01*
X111701657Y-76225771D01*
X111817771Y-76225771D01*
X111875828Y-76196742D01*
X111904857Y-76167714D01*
X111933885Y-76109657D01*
X111933885Y-75616171D01*
X112485428Y-75819371D02*
X112485428Y-76225771D01*
X112340285Y-75587142D02*
X112195142Y-76022571D01*
X112572514Y-76022571D01*
%TO.C,C23*%
X140451114Y-88417714D02*
X140422085Y-88446742D01*
X140335000Y-88475771D01*
X140276942Y-88475771D01*
X140189857Y-88446742D01*
X140131800Y-88388685D01*
X140102771Y-88330628D01*
X140073742Y-88214514D01*
X140073742Y-88127428D01*
X140102771Y-88011314D01*
X140131800Y-87953257D01*
X140189857Y-87895200D01*
X140276942Y-87866171D01*
X140335000Y-87866171D01*
X140422085Y-87895200D01*
X140451114Y-87924228D01*
X140683342Y-87924228D02*
X140712371Y-87895200D01*
X140770428Y-87866171D01*
X140915571Y-87866171D01*
X140973628Y-87895200D01*
X141002657Y-87924228D01*
X141031685Y-87982285D01*
X141031685Y-88040342D01*
X141002657Y-88127428D01*
X140654314Y-88475771D01*
X141031685Y-88475771D01*
X141234885Y-87866171D02*
X141612257Y-87866171D01*
X141409057Y-88098400D01*
X141496142Y-88098400D01*
X141554200Y-88127428D01*
X141583228Y-88156457D01*
X141612257Y-88214514D01*
X141612257Y-88359657D01*
X141583228Y-88417714D01*
X141554200Y-88446742D01*
X141496142Y-88475771D01*
X141321971Y-88475771D01*
X141263914Y-88446742D01*
X141234885Y-88417714D01*
%TO.C,U8*%
X131285542Y-56116171D02*
X131285542Y-56609657D01*
X131314571Y-56667714D01*
X131343600Y-56696742D01*
X131401657Y-56725771D01*
X131517771Y-56725771D01*
X131575828Y-56696742D01*
X131604857Y-56667714D01*
X131633885Y-56609657D01*
X131633885Y-56116171D01*
X132011257Y-56377428D02*
X131953200Y-56348400D01*
X131924171Y-56319371D01*
X131895142Y-56261314D01*
X131895142Y-56232285D01*
X131924171Y-56174228D01*
X131953200Y-56145200D01*
X132011257Y-56116171D01*
X132127371Y-56116171D01*
X132185428Y-56145200D01*
X132214457Y-56174228D01*
X132243485Y-56232285D01*
X132243485Y-56261314D01*
X132214457Y-56319371D01*
X132185428Y-56348400D01*
X132127371Y-56377428D01*
X132011257Y-56377428D01*
X131953200Y-56406457D01*
X131924171Y-56435485D01*
X131895142Y-56493542D01*
X131895142Y-56609657D01*
X131924171Y-56667714D01*
X131953200Y-56696742D01*
X132011257Y-56725771D01*
X132127371Y-56725771D01*
X132185428Y-56696742D01*
X132214457Y-56667714D01*
X132243485Y-56609657D01*
X132243485Y-56493542D01*
X132214457Y-56435485D01*
X132185428Y-56406457D01*
X132127371Y-56377428D01*
%TO.C,C27*%
X138049964Y-50972964D02*
X138020935Y-51001992D01*
X137933850Y-51031021D01*
X137875792Y-51031021D01*
X137788707Y-51001992D01*
X137730650Y-50943935D01*
X137701621Y-50885878D01*
X137672592Y-50769764D01*
X137672592Y-50682678D01*
X137701621Y-50566564D01*
X137730650Y-50508507D01*
X137788707Y-50450450D01*
X137875792Y-50421421D01*
X137933850Y-50421421D01*
X138020935Y-50450450D01*
X138049964Y-50479478D01*
X138282192Y-50479478D02*
X138311221Y-50450450D01*
X138369278Y-50421421D01*
X138514421Y-50421421D01*
X138572478Y-50450450D01*
X138601507Y-50479478D01*
X138630535Y-50537535D01*
X138630535Y-50595592D01*
X138601507Y-50682678D01*
X138253164Y-51031021D01*
X138630535Y-51031021D01*
X138833735Y-50421421D02*
X139240135Y-50421421D01*
X138978878Y-51031021D01*
%TO.C,C30*%
X138049964Y-53195464D02*
X138020935Y-53224492D01*
X137933850Y-53253521D01*
X137875792Y-53253521D01*
X137788707Y-53224492D01*
X137730650Y-53166435D01*
X137701621Y-53108378D01*
X137672592Y-52992264D01*
X137672592Y-52905178D01*
X137701621Y-52789064D01*
X137730650Y-52731007D01*
X137788707Y-52672950D01*
X137875792Y-52643921D01*
X137933850Y-52643921D01*
X138020935Y-52672950D01*
X138049964Y-52701978D01*
X138253164Y-52643921D02*
X138630535Y-52643921D01*
X138427335Y-52876150D01*
X138514421Y-52876150D01*
X138572478Y-52905178D01*
X138601507Y-52934207D01*
X138630535Y-52992264D01*
X138630535Y-53137407D01*
X138601507Y-53195464D01*
X138572478Y-53224492D01*
X138514421Y-53253521D01*
X138340250Y-53253521D01*
X138282192Y-53224492D01*
X138253164Y-53195464D01*
X139007907Y-52643921D02*
X139065964Y-52643921D01*
X139124021Y-52672950D01*
X139153050Y-52701978D01*
X139182078Y-52760035D01*
X139211107Y-52876150D01*
X139211107Y-53021292D01*
X139182078Y-53137407D01*
X139153050Y-53195464D01*
X139124021Y-53224492D01*
X139065964Y-53253521D01*
X139007907Y-53253521D01*
X138949850Y-53224492D01*
X138920821Y-53195464D01*
X138891792Y-53137407D01*
X138862764Y-53021292D01*
X138862764Y-52876150D01*
X138891792Y-52760035D01*
X138920821Y-52701978D01*
X138949850Y-52672950D01*
X139007907Y-52643921D01*
%TO.C,C31*%
X138112964Y-46654964D02*
X138083935Y-46683992D01*
X137996850Y-46713021D01*
X137938792Y-46713021D01*
X137851707Y-46683992D01*
X137793650Y-46625935D01*
X137764621Y-46567878D01*
X137735592Y-46451764D01*
X137735592Y-46364678D01*
X137764621Y-46248564D01*
X137793650Y-46190507D01*
X137851707Y-46132450D01*
X137938792Y-46103421D01*
X137996850Y-46103421D01*
X138083935Y-46132450D01*
X138112964Y-46161478D01*
X138316164Y-46103421D02*
X138693535Y-46103421D01*
X138490335Y-46335650D01*
X138577421Y-46335650D01*
X138635478Y-46364678D01*
X138664507Y-46393707D01*
X138693535Y-46451764D01*
X138693535Y-46596907D01*
X138664507Y-46654964D01*
X138635478Y-46683992D01*
X138577421Y-46713021D01*
X138403250Y-46713021D01*
X138345192Y-46683992D01*
X138316164Y-46654964D01*
X139274107Y-46713021D02*
X138925764Y-46713021D01*
X139099935Y-46713021D02*
X139099935Y-46103421D01*
X139041878Y-46190507D01*
X138983821Y-46248564D01*
X138925764Y-46277592D01*
%TO.C,R28*%
X121608114Y-48675771D02*
X121404914Y-48385485D01*
X121259771Y-48675771D02*
X121259771Y-48066171D01*
X121492000Y-48066171D01*
X121550057Y-48095200D01*
X121579085Y-48124228D01*
X121608114Y-48182285D01*
X121608114Y-48269371D01*
X121579085Y-48327428D01*
X121550057Y-48356457D01*
X121492000Y-48385485D01*
X121259771Y-48385485D01*
X121840342Y-48124228D02*
X121869371Y-48095200D01*
X121927428Y-48066171D01*
X122072571Y-48066171D01*
X122130628Y-48095200D01*
X122159657Y-48124228D01*
X122188685Y-48182285D01*
X122188685Y-48240342D01*
X122159657Y-48327428D01*
X121811314Y-48675771D01*
X122188685Y-48675771D01*
X122537028Y-48327428D02*
X122478971Y-48298400D01*
X122449942Y-48269371D01*
X122420914Y-48211314D01*
X122420914Y-48182285D01*
X122449942Y-48124228D01*
X122478971Y-48095200D01*
X122537028Y-48066171D01*
X122653142Y-48066171D01*
X122711200Y-48095200D01*
X122740228Y-48124228D01*
X122769257Y-48182285D01*
X122769257Y-48211314D01*
X122740228Y-48269371D01*
X122711200Y-48298400D01*
X122653142Y-48327428D01*
X122537028Y-48327428D01*
X122478971Y-48356457D01*
X122449942Y-48385485D01*
X122420914Y-48443542D01*
X122420914Y-48559657D01*
X122449942Y-48617714D01*
X122478971Y-48646742D01*
X122537028Y-48675771D01*
X122653142Y-48675771D01*
X122711200Y-48646742D01*
X122740228Y-48617714D01*
X122769257Y-48559657D01*
X122769257Y-48443542D01*
X122740228Y-48385485D01*
X122711200Y-48356457D01*
X122653142Y-48327428D01*
%TO.C,C28*%
X138049964Y-55354464D02*
X138020935Y-55383492D01*
X137933850Y-55412521D01*
X137875792Y-55412521D01*
X137788707Y-55383492D01*
X137730650Y-55325435D01*
X137701621Y-55267378D01*
X137672592Y-55151264D01*
X137672592Y-55064178D01*
X137701621Y-54948064D01*
X137730650Y-54890007D01*
X137788707Y-54831950D01*
X137875792Y-54802921D01*
X137933850Y-54802921D01*
X138020935Y-54831950D01*
X138049964Y-54860978D01*
X138282192Y-54860978D02*
X138311221Y-54831950D01*
X138369278Y-54802921D01*
X138514421Y-54802921D01*
X138572478Y-54831950D01*
X138601507Y-54860978D01*
X138630535Y-54919035D01*
X138630535Y-54977092D01*
X138601507Y-55064178D01*
X138253164Y-55412521D01*
X138630535Y-55412521D01*
X138978878Y-55064178D02*
X138920821Y-55035150D01*
X138891792Y-55006121D01*
X138862764Y-54948064D01*
X138862764Y-54919035D01*
X138891792Y-54860978D01*
X138920821Y-54831950D01*
X138978878Y-54802921D01*
X139094992Y-54802921D01*
X139153050Y-54831950D01*
X139182078Y-54860978D01*
X139211107Y-54919035D01*
X139211107Y-54948064D01*
X139182078Y-55006121D01*
X139153050Y-55035150D01*
X139094992Y-55064178D01*
X138978878Y-55064178D01*
X138920821Y-55093207D01*
X138891792Y-55122235D01*
X138862764Y-55180292D01*
X138862764Y-55296407D01*
X138891792Y-55354464D01*
X138920821Y-55383492D01*
X138978878Y-55412521D01*
X139094992Y-55412521D01*
X139153050Y-55383492D01*
X139182078Y-55354464D01*
X139211107Y-55296407D01*
X139211107Y-55180292D01*
X139182078Y-55122235D01*
X139153050Y-55093207D01*
X139094992Y-55064178D01*
%TO.C,C29*%
X138049964Y-48813964D02*
X138020935Y-48842992D01*
X137933850Y-48872021D01*
X137875792Y-48872021D01*
X137788707Y-48842992D01*
X137730650Y-48784935D01*
X137701621Y-48726878D01*
X137672592Y-48610764D01*
X137672592Y-48523678D01*
X137701621Y-48407564D01*
X137730650Y-48349507D01*
X137788707Y-48291450D01*
X137875792Y-48262421D01*
X137933850Y-48262421D01*
X138020935Y-48291450D01*
X138049964Y-48320478D01*
X138282192Y-48320478D02*
X138311221Y-48291450D01*
X138369278Y-48262421D01*
X138514421Y-48262421D01*
X138572478Y-48291450D01*
X138601507Y-48320478D01*
X138630535Y-48378535D01*
X138630535Y-48436592D01*
X138601507Y-48523678D01*
X138253164Y-48872021D01*
X138630535Y-48872021D01*
X138920821Y-48872021D02*
X139036935Y-48872021D01*
X139094992Y-48842992D01*
X139124021Y-48813964D01*
X139182078Y-48726878D01*
X139211107Y-48610764D01*
X139211107Y-48378535D01*
X139182078Y-48320478D01*
X139153050Y-48291450D01*
X139094992Y-48262421D01*
X138978878Y-48262421D01*
X138920821Y-48291450D01*
X138891792Y-48320478D01*
X138862764Y-48378535D01*
X138862764Y-48523678D01*
X138891792Y-48581735D01*
X138920821Y-48610764D01*
X138978878Y-48639792D01*
X139094992Y-48639792D01*
X139153050Y-48610764D01*
X139182078Y-48581735D01*
X139211107Y-48523678D01*
%TO.C,R27*%
X119808114Y-44425771D02*
X119604914Y-44135485D01*
X119459771Y-44425771D02*
X119459771Y-43816171D01*
X119692000Y-43816171D01*
X119750057Y-43845200D01*
X119779085Y-43874228D01*
X119808114Y-43932285D01*
X119808114Y-44019371D01*
X119779085Y-44077428D01*
X119750057Y-44106457D01*
X119692000Y-44135485D01*
X119459771Y-44135485D01*
X120040342Y-43874228D02*
X120069371Y-43845200D01*
X120127428Y-43816171D01*
X120272571Y-43816171D01*
X120330628Y-43845200D01*
X120359657Y-43874228D01*
X120388685Y-43932285D01*
X120388685Y-43990342D01*
X120359657Y-44077428D01*
X120011314Y-44425771D01*
X120388685Y-44425771D01*
X120591885Y-43816171D02*
X120998285Y-43816171D01*
X120737028Y-44425771D01*
%TO.C,DLED7*%
X108730242Y-69155771D02*
X108730242Y-68546171D01*
X108875385Y-68546171D01*
X108962471Y-68575200D01*
X109020528Y-68633257D01*
X109049557Y-68691314D01*
X109078585Y-68807428D01*
X109078585Y-68894514D01*
X109049557Y-69010628D01*
X109020528Y-69068685D01*
X108962471Y-69126742D01*
X108875385Y-69155771D01*
X108730242Y-69155771D01*
X109630128Y-69155771D02*
X109339842Y-69155771D01*
X109339842Y-68546171D01*
X109833328Y-68836457D02*
X110036528Y-68836457D01*
X110123614Y-69155771D02*
X109833328Y-69155771D01*
X109833328Y-68546171D01*
X110123614Y-68546171D01*
X110384871Y-69155771D02*
X110384871Y-68546171D01*
X110530014Y-68546171D01*
X110617100Y-68575200D01*
X110675157Y-68633257D01*
X110704185Y-68691314D01*
X110733214Y-68807428D01*
X110733214Y-68894514D01*
X110704185Y-69010628D01*
X110675157Y-69068685D01*
X110617100Y-69126742D01*
X110530014Y-69155771D01*
X110384871Y-69155771D01*
X110936414Y-68546171D02*
X111342814Y-68546171D01*
X111081557Y-69155771D01*
%TO.C,L1*%
X115998400Y-36425771D02*
X115708114Y-36425771D01*
X115708114Y-35816171D01*
X116520914Y-36425771D02*
X116172571Y-36425771D01*
X116346742Y-36425771D02*
X116346742Y-35816171D01*
X116288685Y-35903257D01*
X116230628Y-35961314D01*
X116172571Y-35990342D01*
%TO.C,R22*%
X175884114Y-84730771D02*
X175680914Y-84440485D01*
X175535771Y-84730771D02*
X175535771Y-84121171D01*
X175768000Y-84121171D01*
X175826057Y-84150200D01*
X175855085Y-84179228D01*
X175884114Y-84237285D01*
X175884114Y-84324371D01*
X175855085Y-84382428D01*
X175826057Y-84411457D01*
X175768000Y-84440485D01*
X175535771Y-84440485D01*
X176116342Y-84179228D02*
X176145371Y-84150200D01*
X176203428Y-84121171D01*
X176348571Y-84121171D01*
X176406628Y-84150200D01*
X176435657Y-84179228D01*
X176464685Y-84237285D01*
X176464685Y-84295342D01*
X176435657Y-84382428D01*
X176087314Y-84730771D01*
X176464685Y-84730771D01*
X176696914Y-84179228D02*
X176725942Y-84150200D01*
X176784000Y-84121171D01*
X176929142Y-84121171D01*
X176987200Y-84150200D01*
X177016228Y-84179228D01*
X177045257Y-84237285D01*
X177045257Y-84295342D01*
X177016228Y-84382428D01*
X176667885Y-84730771D01*
X177045257Y-84730771D01*
%TO.C,CA4*%
X158450142Y-50192214D02*
X158421114Y-50221242D01*
X158334028Y-50250271D01*
X158275971Y-50250271D01*
X158188885Y-50221242D01*
X158130828Y-50163185D01*
X158101800Y-50105128D01*
X158072771Y-49989014D01*
X158072771Y-49901928D01*
X158101800Y-49785814D01*
X158130828Y-49727757D01*
X158188885Y-49669700D01*
X158275971Y-49640671D01*
X158334028Y-49640671D01*
X158421114Y-49669700D01*
X158450142Y-49698728D01*
X158682371Y-50076100D02*
X158972657Y-50076100D01*
X158624314Y-50250271D02*
X158827514Y-49640671D01*
X159030714Y-50250271D01*
X159495171Y-49843871D02*
X159495171Y-50250271D01*
X159350028Y-49611642D02*
X159204885Y-50047071D01*
X159582257Y-50047071D01*
%TO.C,RN4*%
X158393085Y-46376771D02*
X158189885Y-46086485D01*
X158044742Y-46376771D02*
X158044742Y-45767171D01*
X158276971Y-45767171D01*
X158335028Y-45796200D01*
X158364057Y-45825228D01*
X158393085Y-45883285D01*
X158393085Y-45970371D01*
X158364057Y-46028428D01*
X158335028Y-46057457D01*
X158276971Y-46086485D01*
X158044742Y-46086485D01*
X158654342Y-46376771D02*
X158654342Y-45767171D01*
X159002685Y-46376771D01*
X159002685Y-45767171D01*
X159554228Y-45970371D02*
X159554228Y-46376771D01*
X159409085Y-45738142D02*
X159263942Y-46173571D01*
X159641314Y-46173571D01*
%TO.C,RN8*%
X158392085Y-56409771D02*
X158188885Y-56119485D01*
X158043742Y-56409771D02*
X158043742Y-55800171D01*
X158275971Y-55800171D01*
X158334028Y-55829200D01*
X158363057Y-55858228D01*
X158392085Y-55916285D01*
X158392085Y-56003371D01*
X158363057Y-56061428D01*
X158334028Y-56090457D01*
X158275971Y-56119485D01*
X158043742Y-56119485D01*
X158653342Y-56409771D02*
X158653342Y-55800171D01*
X159001685Y-56409771D01*
X159001685Y-55800171D01*
X159379057Y-56061428D02*
X159321000Y-56032400D01*
X159291971Y-56003371D01*
X159262942Y-55945314D01*
X159262942Y-55916285D01*
X159291971Y-55858228D01*
X159321000Y-55829200D01*
X159379057Y-55800171D01*
X159495171Y-55800171D01*
X159553228Y-55829200D01*
X159582257Y-55858228D01*
X159611285Y-55916285D01*
X159611285Y-55945314D01*
X159582257Y-56003371D01*
X159553228Y-56032400D01*
X159495171Y-56061428D01*
X159379057Y-56061428D01*
X159321000Y-56090457D01*
X159291971Y-56119485D01*
X159262942Y-56177542D01*
X159262942Y-56293657D01*
X159291971Y-56351714D01*
X159321000Y-56380742D01*
X159379057Y-56409771D01*
X159495171Y-56409771D01*
X159553228Y-56380742D01*
X159582257Y-56351714D01*
X159611285Y-56293657D01*
X159611285Y-56177542D01*
X159582257Y-56119485D01*
X159553228Y-56090457D01*
X159495171Y-56061428D01*
%TO.C,CON2*%
X79299525Y-56097714D02*
X79270497Y-56126742D01*
X79183411Y-56155771D01*
X79125354Y-56155771D01*
X79038268Y-56126742D01*
X78980211Y-56068685D01*
X78951182Y-56010628D01*
X78922154Y-55894514D01*
X78922154Y-55807428D01*
X78951182Y-55691314D01*
X78980211Y-55633257D01*
X79038268Y-55575200D01*
X79125354Y-55546171D01*
X79183411Y-55546171D01*
X79270497Y-55575200D01*
X79299525Y-55604228D01*
X79676897Y-55546171D02*
X79793011Y-55546171D01*
X79851068Y-55575200D01*
X79909125Y-55633257D01*
X79938154Y-55749371D01*
X79938154Y-55952571D01*
X79909125Y-56068685D01*
X79851068Y-56126742D01*
X79793011Y-56155771D01*
X79676897Y-56155771D01*
X79618840Y-56126742D01*
X79560782Y-56068685D01*
X79531754Y-55952571D01*
X79531754Y-55749371D01*
X79560782Y-55633257D01*
X79618840Y-55575200D01*
X79676897Y-55546171D01*
X80199411Y-56155771D02*
X80199411Y-55546171D01*
X80547754Y-56155771D01*
X80547754Y-55546171D01*
X80809011Y-55604228D02*
X80838040Y-55575200D01*
X80896097Y-55546171D01*
X81041240Y-55546171D01*
X81099297Y-55575200D01*
X81128325Y-55604228D01*
X81157354Y-55662285D01*
X81157354Y-55720342D01*
X81128325Y-55807428D01*
X80779982Y-56155771D01*
X81157354Y-56155771D01*
%TO.C,R1*%
X89941400Y-52155271D02*
X89738200Y-51864985D01*
X89593057Y-52155271D02*
X89593057Y-51545671D01*
X89825285Y-51545671D01*
X89883342Y-51574700D01*
X89912371Y-51603728D01*
X89941400Y-51661785D01*
X89941400Y-51748871D01*
X89912371Y-51806928D01*
X89883342Y-51835957D01*
X89825285Y-51864985D01*
X89593057Y-51864985D01*
X90521971Y-52155271D02*
X90173628Y-52155271D01*
X90347800Y-52155271D02*
X90347800Y-51545671D01*
X90289742Y-51632757D01*
X90231685Y-51690814D01*
X90173628Y-51719842D01*
%TO.C,L2*%
X96648400Y-45825771D02*
X96358114Y-45825771D01*
X96358114Y-45216171D01*
X96822571Y-45274228D02*
X96851600Y-45245200D01*
X96909657Y-45216171D01*
X97054800Y-45216171D01*
X97112857Y-45245200D01*
X97141885Y-45274228D01*
X97170914Y-45332285D01*
X97170914Y-45390342D01*
X97141885Y-45477428D01*
X96793542Y-45825771D01*
X97170914Y-45825771D01*
%TO.C,CON1*%
X96209771Y-41067714D02*
X96180742Y-41096742D01*
X96093657Y-41125771D01*
X96035600Y-41125771D01*
X95948514Y-41096742D01*
X95890457Y-41038685D01*
X95861428Y-40980628D01*
X95832400Y-40864514D01*
X95832400Y-40777428D01*
X95861428Y-40661314D01*
X95890457Y-40603257D01*
X95948514Y-40545200D01*
X96035600Y-40516171D01*
X96093657Y-40516171D01*
X96180742Y-40545200D01*
X96209771Y-40574228D01*
X96587142Y-40516171D02*
X96703257Y-40516171D01*
X96761314Y-40545200D01*
X96819371Y-40603257D01*
X96848400Y-40719371D01*
X96848400Y-40922571D01*
X96819371Y-41038685D01*
X96761314Y-41096742D01*
X96703257Y-41125771D01*
X96587142Y-41125771D01*
X96529085Y-41096742D01*
X96471028Y-41038685D01*
X96442000Y-40922571D01*
X96442000Y-40719371D01*
X96471028Y-40603257D01*
X96529085Y-40545200D01*
X96587142Y-40516171D01*
X97109657Y-41125771D02*
X97109657Y-40516171D01*
X97458000Y-41125771D01*
X97458000Y-40516171D01*
X98067600Y-41125771D02*
X97719257Y-41125771D01*
X97893428Y-41125771D02*
X97893428Y-40516171D01*
X97835371Y-40603257D01*
X97777314Y-40661314D01*
X97719257Y-40690342D01*
%TO.C,Q2*%
X105732942Y-93805828D02*
X105674885Y-93776800D01*
X105616828Y-93718742D01*
X105529742Y-93631657D01*
X105471685Y-93602628D01*
X105413628Y-93602628D01*
X105442657Y-93747771D02*
X105384600Y-93718742D01*
X105326542Y-93660685D01*
X105297514Y-93544571D01*
X105297514Y-93341371D01*
X105326542Y-93225257D01*
X105384600Y-93167200D01*
X105442657Y-93138171D01*
X105558771Y-93138171D01*
X105616828Y-93167200D01*
X105674885Y-93225257D01*
X105703914Y-93341371D01*
X105703914Y-93544571D01*
X105674885Y-93660685D01*
X105616828Y-93718742D01*
X105558771Y-93747771D01*
X105442657Y-93747771D01*
X105936142Y-93196228D02*
X105965171Y-93167200D01*
X106023228Y-93138171D01*
X106168371Y-93138171D01*
X106226428Y-93167200D01*
X106255457Y-93196228D01*
X106284485Y-93254285D01*
X106284485Y-93312342D01*
X106255457Y-93399428D01*
X105907114Y-93747771D01*
X106284485Y-93747771D01*
%TO.C,CON3*%
X177009771Y-112367714D02*
X176980742Y-112396742D01*
X176893657Y-112425771D01*
X176835600Y-112425771D01*
X176748514Y-112396742D01*
X176690457Y-112338685D01*
X176661428Y-112280628D01*
X176632400Y-112164514D01*
X176632400Y-112077428D01*
X176661428Y-111961314D01*
X176690457Y-111903257D01*
X176748514Y-111845200D01*
X176835600Y-111816171D01*
X176893657Y-111816171D01*
X176980742Y-111845200D01*
X177009771Y-111874228D01*
X177387142Y-111816171D02*
X177503257Y-111816171D01*
X177561314Y-111845200D01*
X177619371Y-111903257D01*
X177648400Y-112019371D01*
X177648400Y-112222571D01*
X177619371Y-112338685D01*
X177561314Y-112396742D01*
X177503257Y-112425771D01*
X177387142Y-112425771D01*
X177329085Y-112396742D01*
X177271028Y-112338685D01*
X177242000Y-112222571D01*
X177242000Y-112019371D01*
X177271028Y-111903257D01*
X177329085Y-111845200D01*
X177387142Y-111816171D01*
X177909657Y-112425771D02*
X177909657Y-111816171D01*
X178258000Y-112425771D01*
X178258000Y-111816171D01*
X178490228Y-111816171D02*
X178867600Y-111816171D01*
X178664400Y-112048400D01*
X178751485Y-112048400D01*
X178809542Y-112077428D01*
X178838571Y-112106457D01*
X178867600Y-112164514D01*
X178867600Y-112309657D01*
X178838571Y-112367714D01*
X178809542Y-112396742D01*
X178751485Y-112425771D01*
X178577314Y-112425771D01*
X178519257Y-112396742D01*
X178490228Y-112367714D01*
%TO.C,C2*%
X108648400Y-61567714D02*
X108619371Y-61596742D01*
X108532285Y-61625771D01*
X108474228Y-61625771D01*
X108387142Y-61596742D01*
X108329085Y-61538685D01*
X108300057Y-61480628D01*
X108271028Y-61364514D01*
X108271028Y-61277428D01*
X108300057Y-61161314D01*
X108329085Y-61103257D01*
X108387142Y-61045200D01*
X108474228Y-61016171D01*
X108532285Y-61016171D01*
X108619371Y-61045200D01*
X108648400Y-61074228D01*
X108880628Y-61074228D02*
X108909657Y-61045200D01*
X108967714Y-61016171D01*
X109112857Y-61016171D01*
X109170914Y-61045200D01*
X109199942Y-61074228D01*
X109228971Y-61132285D01*
X109228971Y-61190342D01*
X109199942Y-61277428D01*
X108851600Y-61625771D01*
X109228971Y-61625771D01*
%TO.C,C5*%
X89798400Y-41617714D02*
X89769371Y-41646742D01*
X89682285Y-41675771D01*
X89624228Y-41675771D01*
X89537142Y-41646742D01*
X89479085Y-41588685D01*
X89450057Y-41530628D01*
X89421028Y-41414514D01*
X89421028Y-41327428D01*
X89450057Y-41211314D01*
X89479085Y-41153257D01*
X89537142Y-41095200D01*
X89624228Y-41066171D01*
X89682285Y-41066171D01*
X89769371Y-41095200D01*
X89798400Y-41124228D01*
X90349942Y-41066171D02*
X90059657Y-41066171D01*
X90030628Y-41356457D01*
X90059657Y-41327428D01*
X90117714Y-41298400D01*
X90262857Y-41298400D01*
X90320914Y-41327428D01*
X90349942Y-41356457D01*
X90378971Y-41414514D01*
X90378971Y-41559657D01*
X90349942Y-41617714D01*
X90320914Y-41646742D01*
X90262857Y-41675771D01*
X90117714Y-41675771D01*
X90059657Y-41646742D01*
X90030628Y-41617714D01*
%TO.C,C8*%
X97700088Y-61857314D02*
X97671059Y-61886342D01*
X97583973Y-61915371D01*
X97525916Y-61915371D01*
X97438830Y-61886342D01*
X97380773Y-61828285D01*
X97351745Y-61770228D01*
X97322716Y-61654114D01*
X97322716Y-61567028D01*
X97351745Y-61450914D01*
X97380773Y-61392857D01*
X97438830Y-61334800D01*
X97525916Y-61305771D01*
X97583973Y-61305771D01*
X97671059Y-61334800D01*
X97700088Y-61363828D01*
X98048430Y-61567028D02*
X97990373Y-61538000D01*
X97961345Y-61508971D01*
X97932316Y-61450914D01*
X97932316Y-61421885D01*
X97961345Y-61363828D01*
X97990373Y-61334800D01*
X98048430Y-61305771D01*
X98164545Y-61305771D01*
X98222602Y-61334800D01*
X98251630Y-61363828D01*
X98280659Y-61421885D01*
X98280659Y-61450914D01*
X98251630Y-61508971D01*
X98222602Y-61538000D01*
X98164545Y-61567028D01*
X98048430Y-61567028D01*
X97990373Y-61596057D01*
X97961345Y-61625085D01*
X97932316Y-61683142D01*
X97932316Y-61799257D01*
X97961345Y-61857314D01*
X97990373Y-61886342D01*
X98048430Y-61915371D01*
X98164545Y-61915371D01*
X98222602Y-61886342D01*
X98251630Y-61857314D01*
X98280659Y-61799257D01*
X98280659Y-61683142D01*
X98251630Y-61625085D01*
X98222602Y-61596057D01*
X98164545Y-61567028D01*
%TO.C,C10*%
X105308114Y-85217714D02*
X105279085Y-85246742D01*
X105192000Y-85275771D01*
X105133942Y-85275771D01*
X105046857Y-85246742D01*
X104988800Y-85188685D01*
X104959771Y-85130628D01*
X104930742Y-85014514D01*
X104930742Y-84927428D01*
X104959771Y-84811314D01*
X104988800Y-84753257D01*
X105046857Y-84695200D01*
X105133942Y-84666171D01*
X105192000Y-84666171D01*
X105279085Y-84695200D01*
X105308114Y-84724228D01*
X105888685Y-85275771D02*
X105540342Y-85275771D01*
X105714514Y-85275771D02*
X105714514Y-84666171D01*
X105656457Y-84753257D01*
X105598400Y-84811314D01*
X105540342Y-84840342D01*
X106266057Y-84666171D02*
X106324114Y-84666171D01*
X106382171Y-84695200D01*
X106411200Y-84724228D01*
X106440228Y-84782285D01*
X106469257Y-84898400D01*
X106469257Y-85043542D01*
X106440228Y-85159657D01*
X106411200Y-85217714D01*
X106382171Y-85246742D01*
X106324114Y-85275771D01*
X106266057Y-85275771D01*
X106208000Y-85246742D01*
X106178971Y-85217714D01*
X106149942Y-85159657D01*
X106120914Y-85043542D01*
X106120914Y-84898400D01*
X106149942Y-84782285D01*
X106178971Y-84724228D01*
X106208000Y-84695200D01*
X106266057Y-84666171D01*
%TO.C,C12*%
X111708114Y-52967714D02*
X111679085Y-52996742D01*
X111592000Y-53025771D01*
X111533942Y-53025771D01*
X111446857Y-52996742D01*
X111388800Y-52938685D01*
X111359771Y-52880628D01*
X111330742Y-52764514D01*
X111330742Y-52677428D01*
X111359771Y-52561314D01*
X111388800Y-52503257D01*
X111446857Y-52445200D01*
X111533942Y-52416171D01*
X111592000Y-52416171D01*
X111679085Y-52445200D01*
X111708114Y-52474228D01*
X112288685Y-53025771D02*
X111940342Y-53025771D01*
X112114514Y-53025771D02*
X112114514Y-52416171D01*
X112056457Y-52503257D01*
X111998400Y-52561314D01*
X111940342Y-52590342D01*
X112520914Y-52474228D02*
X112549942Y-52445200D01*
X112608000Y-52416171D01*
X112753142Y-52416171D01*
X112811200Y-52445200D01*
X112840228Y-52474228D01*
X112869257Y-52532285D01*
X112869257Y-52590342D01*
X112840228Y-52677428D01*
X112491885Y-53025771D01*
X112869257Y-53025771D01*
%TO.C,C13*%
X115308114Y-61917714D02*
X115279085Y-61946742D01*
X115192000Y-61975771D01*
X115133942Y-61975771D01*
X115046857Y-61946742D01*
X114988800Y-61888685D01*
X114959771Y-61830628D01*
X114930742Y-61714514D01*
X114930742Y-61627428D01*
X114959771Y-61511314D01*
X114988800Y-61453257D01*
X115046857Y-61395200D01*
X115133942Y-61366171D01*
X115192000Y-61366171D01*
X115279085Y-61395200D01*
X115308114Y-61424228D01*
X115888685Y-61975771D02*
X115540342Y-61975771D01*
X115714514Y-61975771D02*
X115714514Y-61366171D01*
X115656457Y-61453257D01*
X115598400Y-61511314D01*
X115540342Y-61540342D01*
X116091885Y-61366171D02*
X116469257Y-61366171D01*
X116266057Y-61598400D01*
X116353142Y-61598400D01*
X116411200Y-61627428D01*
X116440228Y-61656457D01*
X116469257Y-61714514D01*
X116469257Y-61859657D01*
X116440228Y-61917714D01*
X116411200Y-61946742D01*
X116353142Y-61975771D01*
X116178971Y-61975771D01*
X116120914Y-61946742D01*
X116091885Y-61917714D01*
D17*
%TO.C,C14*%
X122566857Y-56667714D02*
X122537828Y-56696742D01*
X122450743Y-56725771D01*
X122392685Y-56725771D01*
X122305600Y-56696742D01*
X122247543Y-56638685D01*
X122218514Y-56580628D01*
X122189485Y-56464514D01*
X122189485Y-56377428D01*
X122218514Y-56261314D01*
X122247543Y-56203257D01*
X122305600Y-56145200D01*
X122392685Y-56116171D01*
X122450743Y-56116171D01*
X122537828Y-56145200D01*
X122566857Y-56174228D01*
X123147428Y-56725771D02*
X122799085Y-56725771D01*
X122973257Y-56725771D02*
X122973257Y-56116171D01*
X122915200Y-56203257D01*
X122857143Y-56261314D01*
X122799085Y-56290342D01*
X123669943Y-56319371D02*
X123669943Y-56725771D01*
X123524800Y-56087142D02*
X123379657Y-56522571D01*
X123757028Y-56522571D01*
D16*
%TO.C,CA2*%
X151656642Y-50192214D02*
X151627614Y-50221242D01*
X151540528Y-50250271D01*
X151482471Y-50250271D01*
X151395385Y-50221242D01*
X151337328Y-50163185D01*
X151308300Y-50105128D01*
X151279271Y-49989014D01*
X151279271Y-49901928D01*
X151308300Y-49785814D01*
X151337328Y-49727757D01*
X151395385Y-49669700D01*
X151482471Y-49640671D01*
X151540528Y-49640671D01*
X151627614Y-49669700D01*
X151656642Y-49698728D01*
X151888871Y-50076100D02*
X152179157Y-50076100D01*
X151830814Y-50250271D02*
X152034014Y-49640671D01*
X152237214Y-50250271D01*
X152411385Y-49698728D02*
X152440414Y-49669700D01*
X152498471Y-49640671D01*
X152643614Y-49640671D01*
X152701671Y-49669700D01*
X152730700Y-49698728D01*
X152759728Y-49756785D01*
X152759728Y-49814842D01*
X152730700Y-49901928D01*
X152382357Y-50250271D01*
X152759728Y-50250271D01*
%TO.C,BT1*%
X85817528Y-105048957D02*
X85904614Y-105077985D01*
X85933642Y-105107014D01*
X85962671Y-105165071D01*
X85962671Y-105252157D01*
X85933642Y-105310214D01*
X85904614Y-105339242D01*
X85846557Y-105368271D01*
X85614328Y-105368271D01*
X85614328Y-104758671D01*
X85817528Y-104758671D01*
X85875585Y-104787700D01*
X85904614Y-104816728D01*
X85933642Y-104874785D01*
X85933642Y-104932842D01*
X85904614Y-104990900D01*
X85875585Y-105019928D01*
X85817528Y-105048957D01*
X85614328Y-105048957D01*
X86136842Y-104758671D02*
X86485185Y-104758671D01*
X86311014Y-105368271D02*
X86311014Y-104758671D01*
X87007700Y-105368271D02*
X86659357Y-105368271D01*
X86833528Y-105368271D02*
X86833528Y-104758671D01*
X86775471Y-104845757D01*
X86717414Y-104903814D01*
X86659357Y-104932842D01*
%TO.C,DLED3*%
X116875961Y-83014280D02*
X116875961Y-82430080D01*
X117015057Y-82430080D01*
X117098514Y-82457900D01*
X117154152Y-82513538D01*
X117181971Y-82569176D01*
X117209790Y-82680452D01*
X117209790Y-82763909D01*
X117181971Y-82875185D01*
X117154152Y-82930823D01*
X117098514Y-82986461D01*
X117015057Y-83014280D01*
X116875961Y-83014280D01*
X117738352Y-83014280D02*
X117460161Y-83014280D01*
X117460161Y-82430080D01*
X117933085Y-82708271D02*
X118127819Y-82708271D01*
X118211276Y-83014280D02*
X117933085Y-83014280D01*
X117933085Y-82430080D01*
X118211276Y-82430080D01*
X118461647Y-83014280D02*
X118461647Y-82430080D01*
X118600742Y-82430080D01*
X118684200Y-82457900D01*
X118739838Y-82513538D01*
X118767657Y-82569176D01*
X118795476Y-82680452D01*
X118795476Y-82763909D01*
X118767657Y-82875185D01*
X118739838Y-82930823D01*
X118684200Y-82986461D01*
X118600742Y-83014280D01*
X118461647Y-83014280D01*
X118990209Y-82430080D02*
X119351857Y-82430080D01*
X119157123Y-82652633D01*
X119240580Y-82652633D01*
X119296219Y-82680452D01*
X119324038Y-82708271D01*
X119351857Y-82763909D01*
X119351857Y-82903004D01*
X119324038Y-82958642D01*
X119296219Y-82986461D01*
X119240580Y-83014280D01*
X119073666Y-83014280D01*
X119018028Y-82986461D01*
X118990209Y-82958642D01*
%TO.C,R25*%
X101309714Y-93836671D02*
X101106514Y-93546385D01*
X100961371Y-93836671D02*
X100961371Y-93227071D01*
X101193600Y-93227071D01*
X101251657Y-93256100D01*
X101280685Y-93285128D01*
X101309714Y-93343185D01*
X101309714Y-93430271D01*
X101280685Y-93488328D01*
X101251657Y-93517357D01*
X101193600Y-93546385D01*
X100961371Y-93546385D01*
X101541942Y-93285128D02*
X101570971Y-93256100D01*
X101629028Y-93227071D01*
X101774171Y-93227071D01*
X101832228Y-93256100D01*
X101861257Y-93285128D01*
X101890285Y-93343185D01*
X101890285Y-93401242D01*
X101861257Y-93488328D01*
X101512914Y-93836671D01*
X101890285Y-93836671D01*
X102441828Y-93227071D02*
X102151542Y-93227071D01*
X102122514Y-93517357D01*
X102151542Y-93488328D01*
X102209600Y-93459300D01*
X102354742Y-93459300D01*
X102412800Y-93488328D01*
X102441828Y-93517357D01*
X102470857Y-93575414D01*
X102470857Y-93720557D01*
X102441828Y-93778614D01*
X102412800Y-93807642D01*
X102354742Y-93836671D01*
X102209600Y-93836671D01*
X102151542Y-93807642D01*
X102122514Y-93778614D01*
D10*
%TO.C,C3*%
X92538767Y-56136000D02*
X92246233Y-56136000D01*
X92538767Y-55116000D02*
X92246233Y-55116000D01*
%TO.C,C6*%
X92246233Y-53211000D02*
X92538767Y-53211000D01*
X92246233Y-54231000D02*
X92538767Y-54231000D01*
%TO.C,C7*%
X103951000Y-47707767D02*
X103951000Y-47415233D01*
X102931000Y-47707767D02*
X102931000Y-47415233D01*
%TO.C,C11*%
X110107000Y-81387733D02*
X110107000Y-81680267D01*
X111127000Y-81387733D02*
X111127000Y-81680267D01*
%TO.C,C15*%
X127361733Y-67312000D02*
X127654267Y-67312000D01*
X127361733Y-66292000D02*
X127654267Y-66292000D01*
%TO.C,C16*%
X127361733Y-69407500D02*
X127654267Y-69407500D01*
X127361733Y-68387500D02*
X127654267Y-68387500D01*
%TO.C,C17*%
X174097733Y-80012000D02*
X174390267Y-80012000D01*
X174097733Y-78992000D02*
X174390267Y-78992000D01*
%TO.C,C18*%
X168763733Y-73916000D02*
X169056267Y-73916000D01*
X168763733Y-72896000D02*
X169056267Y-72896000D01*
%TO.C,C19*%
X160381733Y-73404000D02*
X160674267Y-73404000D01*
X160381733Y-74424000D02*
X160674267Y-74424000D01*
%TO.C,C20*%
X160324748Y-68432000D02*
X161747252Y-68432000D01*
X160324748Y-70252000D02*
X161747252Y-70252000D01*
%TO.C,C21*%
X150404100Y-63023967D02*
X150404100Y-62731433D01*
X151424100Y-63023967D02*
X151424100Y-62731433D01*
%TO.C,C22*%
X146534600Y-63011267D02*
X146534600Y-62718733D01*
X145514600Y-63011267D02*
X145514600Y-62718733D01*
%TO.C,C24*%
X144166000Y-84632748D02*
X144166000Y-86055252D01*
X142346000Y-84632748D02*
X142346000Y-86055252D01*
%TO.C,C25*%
X135904700Y-81248033D02*
X135904700Y-81540567D01*
X134884700Y-81248033D02*
X134884700Y-81540567D01*
%TO.C,C26*%
X139520700Y-81286133D02*
X139520700Y-81578667D01*
X140540700Y-81286133D02*
X140540700Y-81578667D01*
%TO.C,CA1*%
X161217000Y-51477800D02*
X161217000Y-50477800D01*
X164577000Y-51477800D02*
X164577000Y-50477800D01*
%TO.C,CA3*%
X144110000Y-51427000D02*
X144110000Y-50427000D01*
X140750000Y-51427000D02*
X140750000Y-50427000D01*
%TO.C,DLED2*%
X116724500Y-44215000D02*
X114264500Y-44215000D01*
X114264500Y-45685000D02*
X116724500Y-45685000D01*
X116724500Y-45685000D02*
X116724500Y-44215000D01*
%TO.C,D4*%
X113995000Y-55380000D02*
X109935000Y-55380000D01*
X109935000Y-55380000D02*
X109935000Y-57650000D01*
X109935000Y-57650000D02*
X113995000Y-57650000D01*
%TO.C,D5*%
X113995000Y-58110500D02*
X109935000Y-58110500D01*
X109935000Y-58110500D02*
X109935000Y-60380500D01*
X109935000Y-60380500D02*
X113995000Y-60380500D01*
%TO.C,DLED6*%
X111125000Y-71765000D02*
X108665000Y-71765000D01*
X108665000Y-73235000D02*
X111125000Y-73235000D01*
X108665000Y-71765000D02*
X108665000Y-73235000D01*
%TO.C,D8*%
X104437500Y-70865000D02*
X100377500Y-70865000D01*
X100377500Y-70865000D02*
X100377500Y-73135000D01*
X100377500Y-73135000D02*
X104437500Y-73135000D01*
%TO.C,DLED9*%
X153897000Y-89399000D02*
X152427000Y-89399000D01*
X153897000Y-91859000D02*
X153897000Y-89399000D01*
X152427000Y-89399000D02*
X152427000Y-91859000D01*
%TO.C,DLED10*%
X155094000Y-89399000D02*
X155094000Y-91859000D01*
X156564000Y-91859000D02*
X156564000Y-89399000D01*
X156564000Y-89399000D02*
X155094000Y-89399000D01*
%TO.C,FT1*%
X103545742Y-73947500D02*
X101875258Y-73947500D01*
X103545742Y-75767500D02*
X101875258Y-75767500D01*
%TO.C,FT2*%
X119410000Y-36964758D02*
X119410000Y-38635242D01*
X117590000Y-36964758D02*
X117590000Y-38635242D01*
%TO.C,CON4*%
X122450800Y-42768200D02*
X122450800Y-32268200D01*
X167927270Y-39779944D02*
X167028002Y-34679944D01*
X166292489Y-41728200D02*
X131829111Y-41728200D01*
X165430800Y-44722538D02*
X165680800Y-44289525D01*
X123510800Y-31208200D02*
X174610800Y-31208200D01*
X130194330Y-39779944D02*
X131093598Y-34679944D01*
X165680800Y-44289525D02*
X165930800Y-44722538D01*
X175670800Y-32268200D02*
X175670800Y-42768200D01*
X165930800Y-44722538D02*
X165430800Y-44722538D01*
X174610800Y-43828200D02*
X123510800Y-43828200D01*
X165393221Y-33308200D02*
X132728379Y-33308200D01*
X175670800Y-32268200D02*
G75*
G03*
X174610800Y-31208200I-1060001J-1D01*
G01*
X122450800Y-42768200D02*
G75*
G03*
X123510800Y-43828200I1060001J1D01*
G01*
X166292489Y-41728200D02*
G75*
G03*
X167927270Y-39779944I1J1659999D01*
G01*
X123510800Y-31208200D02*
G75*
G03*
X122450800Y-32268200I1J-1060001D01*
G01*
X130194330Y-39779944D02*
G75*
G03*
X131829111Y-41728200I1634781J-288256D01*
G01*
X132728379Y-33308200D02*
G75*
G03*
X131093598Y-34679944I-1J-1659999D01*
G01*
X174610800Y-43828200D02*
G75*
G03*
X175670800Y-42768200I-1J1060001D01*
G01*
X167028002Y-34679944D02*
G75*
G03*
X165393221Y-33308200I-1634780J-288255D01*
G01*
%TO.C,CON6*%
X179518000Y-62230000D02*
X179518000Y-60900000D01*
X179518000Y-63500000D02*
X179518000Y-76260000D01*
X179518000Y-63500000D02*
X182178000Y-63500000D01*
X182178000Y-63500000D02*
X182178000Y-76260000D01*
X179518000Y-60900000D02*
X180848000Y-60900000D01*
X179518000Y-76260000D02*
X182178000Y-76260000D01*
%TO.C,Q1*%
X140457000Y-59819000D02*
X140457000Y-61279000D01*
X140457000Y-59819000D02*
X139527000Y-59819000D01*
X137297000Y-59819000D02*
X137297000Y-61979000D01*
X137297000Y-59819000D02*
X138227000Y-59819000D01*
%TO.C,Q5*%
X105354000Y-91184000D02*
X105354000Y-89724000D01*
X108514000Y-91184000D02*
X107584000Y-91184000D01*
X105354000Y-91184000D02*
X106284000Y-91184000D01*
X108514000Y-91184000D02*
X108514000Y-89024000D01*
%TO.C,Q6*%
X110736000Y-96391000D02*
X110736000Y-94231000D01*
X107576000Y-96391000D02*
X108506000Y-96391000D01*
X107576000Y-96391000D02*
X107576000Y-94931000D01*
X110736000Y-96391000D02*
X109806000Y-96391000D01*
%TO.C,Q8*%
X126844400Y-96695800D02*
X126844400Y-95235800D01*
X130004400Y-96695800D02*
X129074400Y-96695800D01*
X130004400Y-96695800D02*
X130004400Y-94535800D01*
X126844400Y-96695800D02*
X127774400Y-96695800D01*
%TO.C,R2*%
X106186500Y-47306776D02*
X106186500Y-47816224D01*
X105141500Y-47306776D02*
X105141500Y-47816224D01*
%TO.C,R4*%
X111192224Y-44427500D02*
X110682776Y-44427500D01*
X111192224Y-45472500D02*
X110682776Y-45472500D01*
%TO.C,R5*%
X114680276Y-81548500D02*
X115189724Y-81548500D01*
X114680276Y-80503500D02*
X115189724Y-80503500D01*
%TO.C,R6*%
X119521500Y-68858224D02*
X119521500Y-68348776D01*
X118476500Y-68858224D02*
X118476500Y-68348776D01*
%TO.C,R7*%
X127253276Y-64184000D02*
X127762724Y-64184000D01*
X127253276Y-65229000D02*
X127762724Y-65229000D01*
%TO.C,R8*%
X113804076Y-71977500D02*
X114313524Y-71977500D01*
X113804076Y-73022500D02*
X114313524Y-73022500D01*
%TO.C,R9*%
X114326724Y-70672500D02*
X113817276Y-70672500D01*
X114326724Y-69627500D02*
X113817276Y-69627500D01*
%TO.C,R16*%
X174498724Y-77992500D02*
X173989276Y-77992500D01*
X174498724Y-76947500D02*
X173989276Y-76947500D01*
%TO.C,R17*%
X118031500Y-86081776D02*
X118031500Y-86591224D01*
X119076500Y-86081776D02*
X119076500Y-86591224D01*
%TO.C,R18*%
X119809500Y-86081776D02*
X119809500Y-86591224D01*
X120854500Y-86081776D02*
X120854500Y-86591224D01*
%TO.C,R19*%
X122632500Y-86105276D02*
X122632500Y-86614724D01*
X121587500Y-86105276D02*
X121587500Y-86614724D01*
%TO.C,R20*%
X124410500Y-86081776D02*
X124410500Y-86591224D01*
X123365500Y-86081776D02*
X123365500Y-86591224D01*
%TO.C,R23*%
X160273276Y-71105500D02*
X160782724Y-71105500D01*
X160273276Y-72150500D02*
X160782724Y-72150500D01*
%TO.C,R24*%
X146001000Y-84963724D02*
X146001000Y-84454276D01*
X144956000Y-84963724D02*
X144956000Y-84454276D01*
%TO.C,R10*%
X152639500Y-95504724D02*
X152639500Y-94995276D01*
X153684500Y-95504724D02*
X153684500Y-94995276D01*
%TO.C,R11*%
X155306500Y-95504724D02*
X155306500Y-94995276D01*
X156351500Y-95504724D02*
X156351500Y-94995276D01*
%TO.C,R12*%
X134874724Y-67896000D02*
X134365276Y-67896000D01*
X134874724Y-66851000D02*
X134365276Y-66851000D01*
%TO.C,R13*%
X134365276Y-68692500D02*
X134874724Y-68692500D01*
X134365276Y-69737500D02*
X134874724Y-69737500D01*
%TO.C,R26*%
X138556276Y-64022500D02*
X139065724Y-64022500D01*
X138556276Y-62977500D02*
X139065724Y-62977500D01*
%TO.C,R30*%
X128231676Y-91603300D02*
X128741124Y-91603300D01*
X128231676Y-92648300D02*
X128741124Y-92648300D01*
%TO.C,R31*%
X110348500Y-90169276D02*
X110348500Y-90678724D01*
X111393500Y-90169276D02*
X111393500Y-90678724D01*
%TO.C,RN1*%
X161198000Y-47617000D02*
X161198000Y-46617000D01*
X164558000Y-47617000D02*
X164558000Y-46617000D01*
%TO.C,RN2*%
X150842000Y-47490000D02*
X150842000Y-46490000D01*
X147482000Y-47490000D02*
X147482000Y-46490000D01*
%TO.C,RN3*%
X144110000Y-47490000D02*
X144110000Y-46490000D01*
X140750000Y-47490000D02*
X140750000Y-46490000D01*
%TO.C,RN5*%
X161198000Y-55618000D02*
X161198000Y-54618000D01*
X164558000Y-55618000D02*
X164558000Y-54618000D01*
%TO.C,RN6*%
X150842000Y-55618000D02*
X150842000Y-54618000D01*
X147482000Y-55618000D02*
X147482000Y-54618000D01*
%TO.C,RN7*%
X140750000Y-55618000D02*
X140750000Y-54618000D01*
X144110000Y-55618000D02*
X144110000Y-54618000D01*
D18*
%TO.C,U1*%
X144887500Y-67437000D02*
X144887500Y-67183000D01*
X143224560Y-68910200D02*
X142316200Y-68910200D01*
X140589000Y-73600500D02*
X140843000Y-73600500D01*
X142316200Y-68910200D02*
X142316200Y-69818560D01*
X144887500Y-67183000D02*
X144506500Y-67183000D01*
X144387499Y-80899000D02*
X144006499Y-80899000D01*
X154305000Y-73481499D02*
X154305000Y-73100499D01*
X149387499Y-80899000D02*
X149006499Y-80899000D01*
X152577800Y-79171800D02*
X152577800Y-78263440D01*
X140589000Y-73981501D02*
X140589000Y-73600500D01*
X140843000Y-73981501D02*
X140589000Y-73981501D01*
X154305000Y-73100499D02*
X154051000Y-73100499D01*
X154051000Y-73481499D02*
X154305000Y-73481499D01*
X149006499Y-80899000D02*
X149006499Y-80645000D01*
X144006499Y-80899000D02*
X144006499Y-80645000D01*
X144387499Y-80645000D02*
X144387499Y-80899000D01*
X152577800Y-68910200D02*
X151669440Y-68910200D01*
X140843000Y-73600500D02*
X140843000Y-73981501D01*
X144006499Y-80645000D02*
X144387499Y-80645000D01*
X152577800Y-69818560D02*
X152577800Y-68910200D01*
X151669440Y-79171800D02*
X152577800Y-79171800D01*
X149506501Y-67183000D02*
X149506501Y-67437000D01*
X149887501Y-67437000D02*
X149887501Y-67183000D01*
X142316200Y-79171800D02*
X143224560Y-79171800D01*
X149387499Y-80645000D02*
X149387499Y-80899000D01*
X154051000Y-73100499D02*
X154051000Y-73481499D01*
X142316200Y-78263440D02*
X142316200Y-79171800D01*
X149006499Y-80645000D02*
X149387499Y-80645000D01*
X149887501Y-67183000D02*
X149506501Y-67183000D01*
X144506500Y-67437000D02*
X144887500Y-67437000D01*
X149506501Y-67437000D02*
X149887501Y-67437000D01*
X144506500Y-67183000D02*
X144506500Y-67437000D01*
D10*
%TO.C,U2*%
X101622500Y-48715500D02*
X101622500Y-46265500D01*
X98402500Y-46915500D02*
X98402500Y-48715500D01*
%TO.C,U3*%
X102432000Y-51809500D02*
X102432000Y-52284500D01*
X97212000Y-57029500D02*
X97212000Y-56554500D01*
X101957000Y-57029500D02*
X102432000Y-57029500D01*
X97212000Y-51809500D02*
X97212000Y-52284500D01*
X97687000Y-57029500D02*
X97212000Y-57029500D01*
X97687000Y-51809500D02*
X97212000Y-51809500D01*
X101957000Y-51809500D02*
X102432000Y-51809500D01*
D18*
%TO.C,U5*%
X121474741Y-62509400D02*
X121691400Y-62509400D01*
X121691400Y-62509400D02*
X121691400Y-59156600D01*
X118555259Y-59156600D02*
X118338600Y-59156600D01*
X118338600Y-62509400D02*
X118555259Y-62509400D01*
X118338600Y-59156600D02*
X118338600Y-62509400D01*
X121691400Y-59156600D02*
X121474741Y-59156600D01*
D10*
%TO.C,U6*%
X124546000Y-67575000D02*
X124546000Y-65125000D01*
X121326000Y-65775000D02*
X121326000Y-67575000D01*
D18*
%TO.C,U7*%
X168998900Y-75107800D02*
X164757100Y-75107800D01*
X164757100Y-80340200D02*
X168998900Y-80340200D01*
D10*
%TO.C,U9*%
X129148000Y-74000000D02*
X131598000Y-74000000D01*
X130948000Y-70780000D02*
X129148000Y-70780000D01*
%TO.C,U12*%
X176256000Y-93726000D02*
X176256000Y-95676000D01*
X166136000Y-93726000D02*
X166136000Y-91776000D01*
X166136000Y-93726000D02*
X166136000Y-95676000D01*
X176256000Y-93726000D02*
X176256000Y-90276000D01*
%TO.C,U13*%
X150602000Y-93853000D02*
X150602000Y-90403000D01*
X150602000Y-93853000D02*
X150602000Y-95803000D01*
X140482000Y-93853000D02*
X140482000Y-91903000D01*
X140482000Y-93853000D02*
X140482000Y-95803000D01*
%TO.C,U14*%
X114320000Y-93853000D02*
X114320000Y-95803000D01*
X124440000Y-93853000D02*
X124440000Y-90403000D01*
X114320000Y-93853000D02*
X114320000Y-91903000D01*
X124440000Y-93853000D02*
X124440000Y-95803000D01*
%TO.C,Y1*%
X136730700Y-79338300D02*
X136730700Y-89038300D01*
X138630700Y-79338300D02*
X136730700Y-79338300D01*
D19*
%TO.C,Y2*%
X136858000Y-71749500D02*
X135558000Y-71749500D01*
X136858000Y-75189500D02*
X135558000Y-75189500D01*
D20*
X136308000Y-71249500D02*
G75*
G03*
X136308000Y-71249500I-100000J0D01*
G01*
D10*
%TO.C,R32*%
X111999500Y-95885724D02*
X111999500Y-95376276D01*
X113044500Y-95885724D02*
X113044500Y-95376276D01*
%TO.C,R29*%
X132167676Y-92648300D02*
X132677124Y-92648300D01*
X132167676Y-91603300D02*
X132677124Y-91603300D01*
%TO.C,Q7*%
X130842400Y-96695800D02*
X130842400Y-95235800D01*
X134002400Y-96695800D02*
X134002400Y-94535800D01*
X130842400Y-96695800D02*
X131772400Y-96695800D01*
X134002400Y-96695800D02*
X133072400Y-96695800D01*
%TO.C,Q4*%
X161092000Y-96327500D02*
X161092000Y-94167500D01*
X161092000Y-96327500D02*
X160162000Y-96327500D01*
X157932000Y-96327500D02*
X158862000Y-96327500D01*
X157932000Y-96327500D02*
X157932000Y-94867500D01*
%TO.C,R34*%
X159257776Y-90577500D02*
X159767224Y-90577500D01*
X159257776Y-91622500D02*
X159767224Y-91622500D01*
%TO.C,R33*%
X163321276Y-91581500D02*
X163830724Y-91581500D01*
X163321276Y-90536500D02*
X163830724Y-90536500D01*
%TO.C,Q3*%
X165092000Y-96327500D02*
X164162000Y-96327500D01*
X165092000Y-96327500D02*
X165092000Y-94167500D01*
X161932000Y-96327500D02*
X161932000Y-94867500D01*
X161932000Y-96327500D02*
X162862000Y-96327500D01*
%TO.C,R21*%
X173657500Y-86422776D02*
X173657500Y-86932224D01*
X174702500Y-86422776D02*
X174702500Y-86932224D01*
D18*
%TO.C,U10*%
X120814000Y-77074000D02*
X125058000Y-77074000D01*
X125058000Y-71770000D02*
X120814000Y-71770000D01*
D10*
%TO.C,R14*%
X131015000Y-77369724D02*
X131015000Y-76860276D01*
X129970000Y-77369724D02*
X129970000Y-76860276D01*
%TO.C,R15*%
X128065000Y-77343724D02*
X128065000Y-76834276D01*
X129110000Y-77343724D02*
X129110000Y-76834276D01*
%TO.C,CON5*%
X131388000Y-100582000D02*
X131388000Y-111082000D01*
X110113000Y-113036338D02*
X110363000Y-112603325D01*
X110363000Y-112603325D02*
X110613000Y-113036338D01*
X122134689Y-109842000D02*
X109671311Y-109842000D01*
X121305952Y-101822000D02*
X110500048Y-101822000D01*
X130328000Y-112142000D02*
X101478000Y-112142000D01*
X110613000Y-113036338D02*
X110113000Y-113036338D01*
X123769470Y-107893744D02*
X122940733Y-103193744D01*
X101478000Y-99522000D02*
X130328000Y-99522000D01*
X100418000Y-111082000D02*
X100418000Y-100582000D01*
X108036530Y-107893744D02*
X108865267Y-103193744D01*
X100418000Y-111082000D02*
G75*
G03*
X101478000Y-112142000I1060001J1D01*
G01*
X130328000Y-112142000D02*
G75*
G03*
X131388000Y-111082000I-1J1060001D01*
G01*
X122134689Y-109842000D02*
G75*
G03*
X123769470Y-107893744I1J1659999D01*
G01*
X131388000Y-100582000D02*
G75*
G03*
X130328000Y-99522000I-1060001J-1D01*
G01*
X122940733Y-103193744D02*
G75*
G03*
X121305952Y-101822000I-1634780J-288255D01*
G01*
X110500048Y-101822000D02*
G75*
G03*
X108865267Y-103193744I-1J-1659999D01*
G01*
X101478000Y-99522000D02*
G75*
G03*
X100418000Y-100582000I1J-1060001D01*
G01*
X108036530Y-107893744D02*
G75*
G03*
X109671311Y-109842000I1634781J-288256D01*
G01*
%TO.C,C1*%
X92538767Y-57084500D02*
X92246233Y-57084500D01*
X92538767Y-58104500D02*
X92246233Y-58104500D01*
%TO.C,DLED1*%
X114277000Y-47735000D02*
X116737000Y-47735000D01*
X116737000Y-46265000D02*
X114277000Y-46265000D01*
X116737000Y-47735000D02*
X116737000Y-46265000D01*
%TO.C,R3*%
X111204724Y-46477500D02*
X110695276Y-46477500D01*
X111204724Y-47522500D02*
X110695276Y-47522500D01*
%TO.C,C4*%
X99294733Y-58799000D02*
X99587267Y-58799000D01*
X99294733Y-59819000D02*
X99587267Y-59819000D01*
%TO.C,C9*%
X106066233Y-58260000D02*
X106358767Y-58260000D01*
X106066233Y-57240000D02*
X106358767Y-57240000D01*
%TO.C,U4*%
X113908000Y-78953000D02*
X116358000Y-78953000D01*
X115708000Y-75733000D02*
X113908000Y-75733000D01*
%TO.C,C23*%
X141353000Y-85832733D02*
X141353000Y-86125267D01*
X140333000Y-85832733D02*
X140333000Y-86125267D01*
%TO.C,U8*%
X128599850Y-55650150D02*
X126649850Y-55650150D01*
X128599850Y-45530150D02*
X130549850Y-45530150D01*
X128599850Y-55650150D02*
X132049850Y-55650150D01*
X128599850Y-45530150D02*
X126649850Y-45530150D01*
%TO.C,C27*%
X135628583Y-51201750D02*
X135921117Y-51201750D01*
X135628583Y-50181750D02*
X135921117Y-50181750D01*
%TO.C,C30*%
X135628583Y-53487750D02*
X135921117Y-53487750D01*
X135628583Y-52467750D02*
X135921117Y-52467750D01*
%TO.C,C31*%
X135691583Y-46883750D02*
X135984117Y-46883750D01*
X135691583Y-45863750D02*
X135984117Y-45863750D01*
%TO.C,R28*%
X120845276Y-47668500D02*
X121354724Y-47668500D01*
X120845276Y-46623500D02*
X121354724Y-46623500D01*
%TO.C,C28*%
X135628583Y-55646750D02*
X135921117Y-55646750D01*
X135628583Y-54626750D02*
X135921117Y-54626750D01*
%TO.C,C29*%
X135921117Y-49042750D02*
X135628583Y-49042750D01*
X135921117Y-48022750D02*
X135628583Y-48022750D01*
%TO.C,R27*%
X120795276Y-44877500D02*
X121304724Y-44877500D01*
X120795276Y-45922500D02*
X121304724Y-45922500D01*
%TO.C,DLED7*%
X111125000Y-69415000D02*
X108665000Y-69415000D01*
X108665000Y-69415000D02*
X108665000Y-70885000D01*
X108665000Y-70885000D02*
X111125000Y-70885000D01*
%TO.C,L1*%
X116572500Y-38654724D02*
X116572500Y-38145276D01*
X115527500Y-38654724D02*
X115527500Y-38145276D01*
%TO.C,R22*%
X176798500Y-86422776D02*
X176798500Y-86932224D01*
X175753500Y-86422776D02*
X175753500Y-86932224D01*
%TO.C,CA4*%
X157572000Y-51427000D02*
X157572000Y-50427000D01*
X154212000Y-51427000D02*
X154212000Y-50427000D01*
%TO.C,RN4*%
X157592000Y-47552000D02*
X157592000Y-46552000D01*
X154232000Y-47552000D02*
X154232000Y-46552000D01*
%TO.C,RN8*%
X154212000Y-55618000D02*
X154212000Y-54618000D01*
X157572000Y-55618000D02*
X157572000Y-54618000D01*
D15*
%TO.C,CON2*%
X86944000Y-54810000D02*
X78664002Y-54810000D01*
X86944000Y-31550000D02*
X86944000Y-54810000D01*
X78664001Y-48260000D02*
X86943999Y-48260000D01*
X78664002Y-54810000D02*
X78664002Y-31550000D01*
X78664002Y-31550000D02*
X86944000Y-31550000D01*
D21*
X87879000Y-50800000D02*
G75*
G03*
X87879000Y-50800000I-125000J0D01*
G01*
D10*
%TO.C,R1*%
X92647224Y-51357000D02*
X92137776Y-51357000D01*
X92647224Y-52402000D02*
X92137776Y-52402000D01*
%TO.C,L2*%
X96264000Y-47580733D02*
X96264000Y-47923267D01*
X97284000Y-47580733D02*
X97284000Y-47923267D01*
%TO.C,CON1*%
X98594200Y-41316900D02*
X98594200Y-37566900D01*
X110814200Y-41316900D02*
X98594200Y-41316900D01*
X110814200Y-24696900D02*
X98594200Y-24696900D01*
X103954200Y-42016900D02*
X103454200Y-41516900D01*
X110814200Y-24696900D02*
X110814200Y-32666900D01*
X110814200Y-41316900D02*
X110814200Y-37566900D01*
X98594200Y-24696900D02*
X98594200Y-32666900D01*
X103454200Y-41516900D02*
X102954200Y-42016900D01*
X102954200Y-42016900D02*
X103954200Y-42016900D01*
%TO.C,Q2*%
X106355000Y-96581500D02*
X105425000Y-96581500D01*
X106355000Y-96581500D02*
X106355000Y-94421500D01*
X103195000Y-96581500D02*
X103195000Y-95121500D01*
X103195000Y-96581500D02*
X104125000Y-96581500D01*
%TO.C,CON3*%
X144172530Y-107829744D02*
X145001267Y-103129744D01*
X146744000Y-112972338D02*
X146244000Y-112972338D01*
X146244000Y-112972338D02*
X146494000Y-112539325D01*
X175849000Y-100518000D02*
X175849000Y-111018000D01*
X166570689Y-109778000D02*
X145807311Y-109778000D01*
X174789000Y-112078000D02*
X137589000Y-112078000D01*
X165741952Y-101758000D02*
X146636048Y-101758000D01*
X168205470Y-107829744D02*
X167376733Y-103129744D01*
X146494000Y-112539325D02*
X146744000Y-112972338D01*
X137589000Y-99458000D02*
X174789000Y-99458000D01*
X136529000Y-111018000D02*
X136529000Y-100518000D01*
X146636048Y-101758000D02*
G75*
G03*
X145001267Y-103129744I-1J-1659999D01*
G01*
X167376733Y-103129744D02*
G75*
G03*
X165741952Y-101758000I-1634780J-288255D01*
G01*
X136529000Y-111018000D02*
G75*
G03*
X137589000Y-112078000I1060001J1D01*
G01*
X166570689Y-109778000D02*
G75*
G03*
X168205470Y-107829744I1J1659999D01*
G01*
X175849000Y-100518000D02*
G75*
G03*
X174789000Y-99458000I-1060001J-1D01*
G01*
X137589000Y-99458000D02*
G75*
G03*
X136529000Y-100518000I1J-1060001D01*
G01*
X144172530Y-107829744D02*
G75*
G03*
X145807311Y-109778000I1634781J-288256D01*
G01*
X174789000Y-112078000D02*
G75*
G03*
X175849000Y-111018000I-1J1060001D01*
G01*
%TO.C,C2*%
X105114113Y-66254000D02*
X105114113Y-65290000D01*
X105714113Y-66615000D02*
X105714113Y-65290000D01*
X106315113Y-66793000D02*
X106315113Y-65290000D01*
X104634113Y-65750000D02*
X104634113Y-65290000D01*
X106675113Y-66829000D02*
X106675113Y-61671000D01*
X106115113Y-63210000D02*
X106115113Y-61749000D01*
X106515113Y-66819000D02*
X106515113Y-65290000D01*
X105034113Y-63210000D02*
X105034113Y-62313000D01*
X104234113Y-64927000D02*
X104234113Y-63573000D01*
X105754113Y-66632000D02*
X105754113Y-65290000D01*
X106635113Y-66828000D02*
X106635113Y-61672000D01*
X106195113Y-66770000D02*
X106195113Y-65290000D01*
X104274113Y-65055000D02*
X104274113Y-63445000D01*
X106475113Y-66815000D02*
X106475113Y-65290000D01*
X106355113Y-63210000D02*
X106355113Y-61700000D01*
X104954113Y-66114000D02*
X104954113Y-65290000D01*
X104714113Y-65855000D02*
X104714113Y-65290000D01*
X104314113Y-65165000D02*
X104314113Y-63335000D01*
X104554113Y-63210000D02*
X104554113Y-62867000D01*
X106475113Y-63210000D02*
X106475113Y-61685000D01*
X105994113Y-66718000D02*
X105994113Y-65290000D01*
X105394113Y-63210000D02*
X105394113Y-62050000D01*
X105994113Y-63210000D02*
X105994113Y-61782000D01*
X105914113Y-63210000D02*
X105914113Y-61808000D01*
X105874113Y-66678000D02*
X105874113Y-65290000D01*
X105714113Y-63210000D02*
X105714113Y-61885000D01*
X104834113Y-65993000D02*
X104834113Y-65290000D01*
X105074113Y-66221000D02*
X105074113Y-65290000D01*
X105834113Y-66664000D02*
X105834113Y-65290000D01*
X106195113Y-63210000D02*
X106195113Y-61730000D01*
X104874113Y-63210000D02*
X104874113Y-62465000D01*
X105474113Y-63210000D02*
X105474113Y-62003000D01*
X105954113Y-63210000D02*
X105954113Y-61795000D01*
X105514113Y-66518000D02*
X105514113Y-65290000D01*
X106155113Y-66761000D02*
X106155113Y-65290000D01*
X104794113Y-63210000D02*
X104794113Y-62551000D01*
X106275113Y-63210000D02*
X106275113Y-61714000D01*
X104594113Y-65693000D02*
X104594113Y-65290000D01*
X105914113Y-66692000D02*
X105914113Y-65290000D01*
X105234113Y-63210000D02*
X105234113Y-62155000D01*
X105434113Y-66474000D02*
X105434113Y-65290000D01*
X104474113Y-63210000D02*
X104474113Y-62999000D01*
X104714113Y-63210000D02*
X104714113Y-62645000D01*
X105674113Y-66598000D02*
X105674113Y-65290000D01*
X104514113Y-63210000D02*
X104514113Y-62931000D01*
X109559888Y-65725000D02*
X109059888Y-65725000D01*
X106235113Y-66778000D02*
X106235113Y-65290000D01*
X104914113Y-66076000D02*
X104914113Y-65290000D01*
X109309888Y-65975000D02*
X109309888Y-65475000D01*
X106435113Y-66811000D02*
X106435113Y-65290000D01*
X106034113Y-63210000D02*
X106034113Y-61770000D01*
X104634113Y-63210000D02*
X104634113Y-62750000D01*
X105874113Y-63210000D02*
X105874113Y-61822000D01*
X106075113Y-63210000D02*
X106075113Y-61759000D01*
X104594113Y-63210000D02*
X104594113Y-62807000D01*
X106395113Y-63210000D02*
X106395113Y-61694000D01*
X104354113Y-65261000D02*
X104354113Y-63239000D01*
X104754113Y-63210000D02*
X104754113Y-62597000D01*
X105554113Y-66540000D02*
X105554113Y-65290000D01*
X105674113Y-63210000D02*
X105674113Y-61902000D01*
X105634113Y-66579000D02*
X105634113Y-65290000D01*
X105274113Y-63210000D02*
X105274113Y-62128000D01*
X105394113Y-66450000D02*
X105394113Y-65290000D01*
X104794113Y-65949000D02*
X104794113Y-65290000D01*
X104994113Y-66151000D02*
X104994113Y-65290000D01*
X105194113Y-66315000D02*
X105194113Y-65290000D01*
X105434113Y-63210000D02*
X105434113Y-62026000D01*
X105594113Y-63210000D02*
X105594113Y-61940000D01*
X104674113Y-63210000D02*
X104674113Y-62696000D01*
X104194113Y-64768000D02*
X104194113Y-63732000D01*
X104874113Y-66035000D02*
X104874113Y-65290000D01*
X106115113Y-66751000D02*
X106115113Y-65290000D01*
X106555113Y-66823000D02*
X106555113Y-61677000D01*
X106435113Y-63210000D02*
X106435113Y-61689000D01*
X105594113Y-66560000D02*
X105594113Y-65290000D01*
X106275113Y-66786000D02*
X106275113Y-65290000D01*
X105794113Y-66648000D02*
X105794113Y-65290000D01*
X105154113Y-63210000D02*
X105154113Y-62215000D01*
X104434113Y-65428000D02*
X104434113Y-63072000D01*
X106395113Y-66806000D02*
X106395113Y-65290000D01*
X105634113Y-63210000D02*
X105634113Y-61921000D01*
X104674113Y-65804000D02*
X104674113Y-65290000D01*
X106515113Y-63210000D02*
X106515113Y-61681000D01*
X105234113Y-66345000D02*
X105234113Y-65290000D01*
X104554113Y-65633000D02*
X104554113Y-65290000D01*
X104154113Y-64534000D02*
X104154113Y-63966000D01*
X105314113Y-66399000D02*
X105314113Y-65290000D01*
X105834113Y-63210000D02*
X105834113Y-61836000D01*
X105514113Y-63210000D02*
X105514113Y-61982000D01*
X106355113Y-66800000D02*
X106355113Y-65290000D01*
X105794113Y-63210000D02*
X105794113Y-61852000D01*
X105034113Y-66187000D02*
X105034113Y-65290000D01*
X104994113Y-63210000D02*
X104994113Y-62349000D01*
X105354113Y-66425000D02*
X105354113Y-65290000D01*
X106155113Y-63210000D02*
X106155113Y-61739000D01*
X105354113Y-63210000D02*
X105354113Y-62075000D01*
X106715113Y-66830000D02*
X106715113Y-61670000D01*
X104834113Y-63210000D02*
X104834113Y-62507000D01*
X105754113Y-63210000D02*
X105754113Y-61868000D01*
X104514113Y-65569000D02*
X104514113Y-65290000D01*
X104954113Y-63210000D02*
X104954113Y-62386000D01*
X106595113Y-66826000D02*
X106595113Y-61674000D01*
X105554113Y-63210000D02*
X105554113Y-61960000D01*
X105954113Y-66705000D02*
X105954113Y-65290000D01*
X105274113Y-66372000D02*
X105274113Y-65290000D01*
X105074113Y-63210000D02*
X105074113Y-62279000D01*
X104394113Y-65348000D02*
X104394113Y-63152000D01*
X104914113Y-63210000D02*
X104914113Y-62424000D01*
X106075113Y-66741000D02*
X106075113Y-65290000D01*
X105474113Y-66497000D02*
X105474113Y-65290000D01*
X106755113Y-66830000D02*
X106755113Y-61670000D01*
X106315113Y-63210000D02*
X106315113Y-61707000D01*
X105114113Y-63210000D02*
X105114113Y-62246000D01*
X105154113Y-66285000D02*
X105154113Y-65290000D01*
X106235113Y-63210000D02*
X106235113Y-61722000D01*
X104474113Y-65501000D02*
X104474113Y-65290000D01*
X106034113Y-66730000D02*
X106034113Y-65290000D01*
X105194113Y-63210000D02*
X105194113Y-62185000D01*
X105314113Y-63210000D02*
X105314113Y-62101000D01*
X104754113Y-65903000D02*
X104754113Y-65290000D01*
X109375113Y-64250000D02*
G75*
G03*
X109375113Y-64250000I-2620000J0D01*
G01*
%TO.C,C5*%
X91011500Y-42876600D02*
X91011500Y-41741600D01*
X90091500Y-45094600D02*
X90091500Y-42738600D01*
X89931500Y-44721600D02*
X89931500Y-43111600D01*
X91171500Y-46184600D02*
X91171500Y-44956600D01*
X91251500Y-46226600D02*
X91251500Y-44956600D01*
X92132500Y-46481600D02*
X92132500Y-44956600D01*
X90371500Y-45521600D02*
X90371500Y-44956600D01*
X90971500Y-46065600D02*
X90971500Y-44956600D01*
X90571500Y-45742600D02*
X90571500Y-44956600D01*
X91691500Y-42876600D02*
X91691500Y-41436600D01*
X90531500Y-42876600D02*
X90531500Y-42131600D01*
X91732500Y-42876600D02*
X91732500Y-41425600D01*
X91051500Y-42876600D02*
X91051500Y-41716600D01*
X90891500Y-46011600D02*
X90891500Y-44956600D01*
X92172500Y-42876600D02*
X92172500Y-41347600D01*
X91411500Y-42876600D02*
X91411500Y-41534600D01*
X90611500Y-45780600D02*
X90611500Y-44956600D01*
X92052500Y-46472600D02*
X92052500Y-44956600D01*
X91892500Y-42876600D02*
X91892500Y-41388600D01*
X91611500Y-46371600D02*
X91611500Y-44956600D01*
X91571500Y-42876600D02*
X91571500Y-41474600D01*
X90051500Y-45014600D02*
X90051500Y-42818600D01*
X90291500Y-42876600D02*
X90291500Y-42416600D01*
X91291500Y-42876600D02*
X91291500Y-41587600D01*
X90451500Y-42876600D02*
X90451500Y-42217600D01*
X90251500Y-45359600D02*
X90251500Y-44956600D01*
X90011500Y-44927600D02*
X90011500Y-42905600D01*
X92372500Y-46496600D02*
X92372500Y-41336600D01*
X90691500Y-45853600D02*
X90691500Y-44956600D01*
X91251500Y-42876600D02*
X91251500Y-41606600D01*
X90851500Y-42876600D02*
X90851500Y-41851600D01*
X91972500Y-46459600D02*
X91972500Y-44956600D01*
X89971500Y-44831600D02*
X89971500Y-43001600D01*
X90851500Y-45981600D02*
X90851500Y-44956600D01*
X90251500Y-42876600D02*
X90251500Y-42473600D01*
X91371500Y-42876600D02*
X91371500Y-41551600D01*
X90611500Y-42876600D02*
X90611500Y-42052600D01*
X92212500Y-46489600D02*
X92212500Y-41343600D01*
X91972500Y-42876600D02*
X91972500Y-41373600D01*
X90931500Y-46038600D02*
X90931500Y-44956600D01*
X90131500Y-42876600D02*
X90131500Y-42665600D01*
X91611500Y-42876600D02*
X91611500Y-41461600D01*
X91131500Y-42876600D02*
X91131500Y-41669600D01*
X91932500Y-42876600D02*
X91932500Y-41380600D01*
X91491500Y-42876600D02*
X91491500Y-41502600D01*
X91331500Y-46264600D02*
X91331500Y-44956600D01*
X90411500Y-42876600D02*
X90411500Y-42263600D01*
X91411500Y-46298600D02*
X91411500Y-44956600D01*
X90651500Y-45817600D02*
X90651500Y-44956600D01*
X90211500Y-42876600D02*
X90211500Y-42533600D01*
X91211500Y-42876600D02*
X91211500Y-41626600D01*
X91131500Y-46163600D02*
X91131500Y-44956600D01*
X92132500Y-42876600D02*
X92132500Y-41351600D01*
X91651500Y-42876600D02*
X91651500Y-41448600D01*
X90291500Y-45416600D02*
X90291500Y-44956600D01*
X91852500Y-46436600D02*
X91852500Y-44956600D01*
X91451500Y-42876600D02*
X91451500Y-41518600D01*
X92292500Y-46494600D02*
X92292500Y-41338600D01*
X91291500Y-46245600D02*
X91291500Y-44956600D01*
X90891500Y-42876600D02*
X90891500Y-41821600D01*
X89811500Y-44200600D02*
X89811500Y-43632600D01*
X92092500Y-42876600D02*
X92092500Y-41355600D01*
X90491500Y-45659600D02*
X90491500Y-44956600D01*
X94967275Y-45641600D02*
X94967275Y-45141600D01*
X92012500Y-46466600D02*
X92012500Y-44956600D01*
X91651500Y-46384600D02*
X91651500Y-44956600D01*
X90171500Y-45235600D02*
X90171500Y-44956600D01*
X92012500Y-42876600D02*
X92012500Y-41366600D01*
X90331500Y-45470600D02*
X90331500Y-44956600D01*
X91932500Y-46452600D02*
X91932500Y-44956600D01*
X90691500Y-42876600D02*
X90691500Y-41979600D01*
X91531500Y-46344600D02*
X91531500Y-44956600D01*
X90811500Y-45951600D02*
X90811500Y-44956600D01*
X89891500Y-44593600D02*
X89891500Y-43239600D01*
X92052500Y-42876600D02*
X92052500Y-41360600D01*
X90771500Y-42876600D02*
X90771500Y-41912600D01*
X91571500Y-46358600D02*
X91571500Y-44956600D01*
X91691500Y-46396600D02*
X91691500Y-44956600D01*
X91371500Y-46281600D02*
X91371500Y-44956600D01*
X91091500Y-46140600D02*
X91091500Y-44956600D01*
X91491500Y-46330600D02*
X91491500Y-44956600D01*
X91211500Y-46206600D02*
X91211500Y-44956600D01*
X91812500Y-42876600D02*
X91812500Y-41405600D01*
X90331500Y-42876600D02*
X90331500Y-42362600D01*
X91011500Y-46091600D02*
X91011500Y-44956600D01*
X90131500Y-45167600D02*
X90131500Y-44956600D01*
X89851500Y-44434600D02*
X89851500Y-43398600D01*
X90771500Y-45920600D02*
X90771500Y-44956600D01*
X90371500Y-42876600D02*
X90371500Y-42311600D01*
X90171500Y-42876600D02*
X90171500Y-42597600D01*
X90811500Y-42876600D02*
X90811500Y-41881600D01*
X95217275Y-45391600D02*
X94717275Y-45391600D01*
X91772500Y-42876600D02*
X91772500Y-41415600D01*
X90491500Y-42876600D02*
X90491500Y-42173600D01*
X92412500Y-46496600D02*
X92412500Y-41336600D01*
X91852500Y-42876600D02*
X91852500Y-41396600D01*
X90731500Y-42876600D02*
X90731500Y-41945600D01*
X91531500Y-42876600D02*
X91531500Y-41488600D01*
X92092500Y-46477600D02*
X92092500Y-44956600D01*
X90971500Y-42876600D02*
X90971500Y-41767600D01*
X92172500Y-46485600D02*
X92172500Y-44956600D01*
X91451500Y-46314600D02*
X91451500Y-44956600D01*
X91892500Y-46444600D02*
X91892500Y-44956600D01*
X90411500Y-45569600D02*
X90411500Y-44956600D01*
X90571500Y-42876600D02*
X90571500Y-42090600D01*
X91331500Y-42876600D02*
X91331500Y-41568600D01*
X90211500Y-45299600D02*
X90211500Y-44956600D01*
X90451500Y-45615600D02*
X90451500Y-44956600D01*
X90731500Y-45887600D02*
X90731500Y-44956600D01*
X90931500Y-42876600D02*
X90931500Y-41794600D01*
X91812500Y-46427600D02*
X91812500Y-44956600D01*
X90651500Y-42876600D02*
X90651500Y-42015600D01*
X90531500Y-45701600D02*
X90531500Y-44956600D01*
X91171500Y-42876600D02*
X91171500Y-41648600D01*
X91051500Y-46116600D02*
X91051500Y-44956600D01*
X91091500Y-42876600D02*
X91091500Y-41692600D01*
X92332500Y-46495600D02*
X92332500Y-41337600D01*
X92252500Y-46492600D02*
X92252500Y-41340600D01*
X91732500Y-46407600D02*
X91732500Y-44956600D01*
X91772500Y-46417600D02*
X91772500Y-44956600D01*
X95032500Y-43916600D02*
G75*
G03*
X95032500Y-43916600I-2620000J0D01*
G01*
%TO.C,C8*%
X102735888Y-63235000D02*
X102735888Y-65065000D01*
X102255888Y-62451000D02*
X102255888Y-63110000D01*
X101095888Y-61695000D02*
X101095888Y-63110000D01*
X101615888Y-61926000D02*
X101615888Y-63110000D01*
X101775888Y-65190000D02*
X101775888Y-66272000D01*
X101495888Y-65190000D02*
X101495888Y-66440000D01*
X101575888Y-61903000D02*
X101575888Y-63110000D01*
X102655888Y-63052000D02*
X102655888Y-65248000D01*
X101935888Y-65190000D02*
X101935888Y-66154000D01*
X101455888Y-61840000D02*
X101455888Y-63110000D01*
X100414888Y-61572000D02*
X100414888Y-66728000D01*
X97490113Y-62675000D02*
X97990113Y-62675000D01*
X101615888Y-65190000D02*
X101615888Y-66374000D01*
X102015888Y-65190000D02*
X102015888Y-66087000D01*
X102415888Y-65190000D02*
X102415888Y-65650000D01*
X102415888Y-62650000D02*
X102415888Y-63110000D01*
X101535888Y-65190000D02*
X101535888Y-66418000D01*
X100494888Y-61577000D02*
X100494888Y-66723000D01*
X100454888Y-61574000D02*
X100454888Y-66726000D01*
X100854888Y-61630000D02*
X100854888Y-63110000D01*
X101575888Y-65190000D02*
X101575888Y-66397000D01*
X101055888Y-65190000D02*
X101055888Y-66618000D01*
X102895888Y-63866000D02*
X102895888Y-64434000D01*
X102175888Y-62365000D02*
X102175888Y-63110000D01*
X100694888Y-65190000D02*
X100694888Y-66700000D01*
X100534888Y-61581000D02*
X100534888Y-63110000D01*
X100334888Y-61570000D02*
X100334888Y-66730000D01*
X100654888Y-61594000D02*
X100654888Y-63110000D01*
X100934888Y-65190000D02*
X100934888Y-66651000D01*
X102175888Y-65190000D02*
X102175888Y-65935000D01*
X101415888Y-61821000D02*
X101415888Y-63110000D01*
X102455888Y-62707000D02*
X102455888Y-63110000D01*
X101215888Y-65190000D02*
X101215888Y-66564000D01*
X102375888Y-65190000D02*
X102375888Y-65704000D01*
X100614888Y-61589000D02*
X100614888Y-63110000D01*
X101015888Y-65190000D02*
X101015888Y-66630000D01*
X102615888Y-62972000D02*
X102615888Y-65328000D01*
X101975888Y-62179000D02*
X101975888Y-63110000D01*
X101775888Y-62028000D02*
X101775888Y-63110000D01*
X102535888Y-62831000D02*
X102535888Y-63110000D01*
X101535888Y-61882000D02*
X101535888Y-63110000D01*
X101735888Y-65190000D02*
X101735888Y-66299000D01*
X100534888Y-65190000D02*
X100534888Y-66719000D01*
X102375888Y-62596000D02*
X102375888Y-63110000D01*
X101135888Y-61708000D02*
X101135888Y-63110000D01*
X101695888Y-65190000D02*
X101695888Y-66325000D01*
X102135888Y-62324000D02*
X102135888Y-63110000D01*
X100974888Y-65190000D02*
X100974888Y-66641000D01*
X100654888Y-65190000D02*
X100654888Y-66706000D01*
X102495888Y-62767000D02*
X102495888Y-63110000D01*
X102295888Y-65190000D02*
X102295888Y-65803000D01*
X101335888Y-65190000D02*
X101335888Y-66515000D01*
X100894888Y-61639000D02*
X100894888Y-63110000D01*
X102055888Y-62249000D02*
X102055888Y-63110000D01*
X101695888Y-61975000D02*
X101695888Y-63110000D01*
X101335888Y-61785000D02*
X101335888Y-63110000D01*
X102775888Y-63345000D02*
X102775888Y-64955000D01*
X100854888Y-65190000D02*
X100854888Y-66670000D01*
X102055888Y-65190000D02*
X102055888Y-66051000D01*
X100614888Y-65190000D02*
X100614888Y-66711000D01*
X101295888Y-61768000D02*
X101295888Y-63110000D01*
X102295888Y-62497000D02*
X102295888Y-63110000D01*
X102495888Y-65190000D02*
X102495888Y-65533000D01*
X101895888Y-65190000D02*
X101895888Y-66185000D01*
X102575888Y-62899000D02*
X102575888Y-63110000D01*
X101255888Y-61752000D02*
X101255888Y-63110000D01*
X100374888Y-61571000D02*
X100374888Y-66729000D01*
X100574888Y-65190000D02*
X100574888Y-66715000D01*
X101895888Y-62115000D02*
X101895888Y-63110000D01*
X102455888Y-65190000D02*
X102455888Y-65593000D01*
X100774888Y-65190000D02*
X100774888Y-66686000D01*
X101855888Y-65190000D02*
X101855888Y-66215000D01*
X100774888Y-61614000D02*
X100774888Y-63110000D01*
X100734888Y-61607000D02*
X100734888Y-63110000D01*
X101495888Y-61860000D02*
X101495888Y-63110000D01*
X100734888Y-65190000D02*
X100734888Y-66693000D01*
X101655888Y-65190000D02*
X101655888Y-66350000D01*
X101655888Y-61950000D02*
X101655888Y-63110000D01*
X97740113Y-62425000D02*
X97740113Y-62925000D01*
X101015888Y-61670000D02*
X101015888Y-63110000D01*
X100974888Y-61659000D02*
X100974888Y-63110000D01*
X101375888Y-61802000D02*
X101375888Y-63110000D01*
X101215888Y-61736000D02*
X101215888Y-63110000D01*
X102135888Y-65190000D02*
X102135888Y-65976000D01*
X101935888Y-62146000D02*
X101935888Y-63110000D01*
X102215888Y-65190000D02*
X102215888Y-65893000D01*
X102335888Y-62545000D02*
X102335888Y-63110000D01*
X102255888Y-65190000D02*
X102255888Y-65849000D01*
X101095888Y-65190000D02*
X101095888Y-66605000D01*
X100894888Y-65190000D02*
X100894888Y-66661000D01*
X101295888Y-65190000D02*
X101295888Y-66532000D01*
X101735888Y-62001000D02*
X101735888Y-63110000D01*
X101855888Y-62085000D02*
X101855888Y-63110000D01*
X101975888Y-65190000D02*
X101975888Y-66121000D01*
X102335888Y-65190000D02*
X102335888Y-65755000D01*
X101175888Y-65190000D02*
X101175888Y-66578000D01*
X100694888Y-61600000D02*
X100694888Y-63110000D01*
X102855888Y-63632000D02*
X102855888Y-64668000D01*
X101815888Y-65190000D02*
X101815888Y-66245000D01*
X101375888Y-65190000D02*
X101375888Y-66498000D01*
X102815888Y-63473000D02*
X102815888Y-64827000D01*
X100934888Y-61649000D02*
X100934888Y-63110000D01*
X100814888Y-65190000D02*
X100814888Y-66678000D01*
X100294888Y-61570000D02*
X100294888Y-66730000D01*
X102535888Y-65190000D02*
X102535888Y-65469000D01*
X101055888Y-61682000D02*
X101055888Y-63110000D01*
X102095888Y-62286000D02*
X102095888Y-63110000D01*
X101135888Y-65190000D02*
X101135888Y-66592000D01*
X102695888Y-63139000D02*
X102695888Y-65161000D01*
X101455888Y-65190000D02*
X101455888Y-66460000D01*
X101415888Y-65190000D02*
X101415888Y-66479000D01*
X100814888Y-61622000D02*
X100814888Y-63110000D01*
X101175888Y-61722000D02*
X101175888Y-63110000D01*
X102215888Y-62407000D02*
X102215888Y-63110000D01*
X102575888Y-65190000D02*
X102575888Y-65401000D01*
X102095888Y-65190000D02*
X102095888Y-66014000D01*
X101255888Y-65190000D02*
X101255888Y-66548000D01*
X101815888Y-62055000D02*
X101815888Y-63110000D01*
X100574888Y-61585000D02*
X100574888Y-63110000D01*
X102015888Y-62213000D02*
X102015888Y-63110000D01*
X102914888Y-64150000D02*
G75*
G03*
X102914888Y-64150000I-2620000J0D01*
G01*
%TO.C,C10*%
X107475000Y-79040113D02*
X106975000Y-79040113D01*
X107225000Y-78790113D02*
X107225000Y-79290113D01*
X108370000Y-81594888D02*
G75*
G03*
X108370000Y-81594888I-2620000J0D01*
G01*
%TO.C,C12*%
X110954775Y-53775000D02*
X110954775Y-53275000D01*
X111204775Y-53525000D02*
X110704775Y-53525000D01*
X111020000Y-52050000D02*
G75*
G03*
X111020000Y-52050000I-2620000J0D01*
G01*
%TO.C,C13*%
X110140113Y-62875000D02*
X110640113Y-62875000D01*
X110390113Y-62625000D02*
X110390113Y-63125000D01*
X115564888Y-64350000D02*
G75*
G03*
X115564888Y-64350000I-2620000J0D01*
G01*
%TO.C,C14*%
X121158349Y-53940000D02*
X121158349Y-56484000D01*
X120598349Y-53940000D02*
X120598349Y-56735000D01*
X121958349Y-49881000D02*
X121958349Y-51860000D01*
X119477349Y-48829000D02*
X119477349Y-56971000D01*
X119877349Y-48876000D02*
X119877349Y-56924000D01*
X121198349Y-53940000D02*
X121198349Y-56462000D01*
X120638349Y-53940000D02*
X120638349Y-56721000D01*
X123278349Y-52367000D02*
X123278349Y-53433000D01*
X122478349Y-50446000D02*
X122478349Y-55354000D01*
X121318349Y-49407000D02*
X121318349Y-51860000D01*
X121958349Y-53940000D02*
X121958349Y-55919000D01*
X122678349Y-50734000D02*
X122678349Y-55066000D01*
X121798349Y-53940000D02*
X121798349Y-56056000D01*
X120078349Y-53940000D02*
X120078349Y-56885000D01*
X121238349Y-49360000D02*
X121238349Y-51860000D01*
X120438349Y-53940000D02*
X120438349Y-56789000D01*
X123158349Y-51802000D02*
X123158349Y-53998000D01*
X120598349Y-49065000D02*
X120598349Y-51860000D01*
X120678349Y-49095000D02*
X120678349Y-51860000D01*
X119357349Y-48823000D02*
X119357349Y-56977000D01*
X121478349Y-49508000D02*
X121478349Y-51860000D01*
X120558349Y-53940000D02*
X120558349Y-56750000D01*
X119277349Y-48820000D02*
X119277349Y-56980000D01*
X120318349Y-48975000D02*
X120318349Y-51860000D01*
X121558349Y-53940000D02*
X121558349Y-56238000D01*
X121118349Y-49294000D02*
X121118349Y-51860000D01*
X120038349Y-53940000D02*
X120038349Y-56894000D01*
X119717349Y-48852000D02*
X119717349Y-56948000D01*
X122598349Y-50613000D02*
X122598349Y-55187000D01*
X119958349Y-48890000D02*
X119958349Y-51860000D01*
X121478349Y-53940000D02*
X121478349Y-56292000D01*
X120758349Y-49126000D02*
X120758349Y-51860000D01*
X121318349Y-53940000D02*
X121318349Y-56393000D01*
X121598349Y-53940000D02*
X121598349Y-56209000D01*
X121838349Y-53940000D02*
X121838349Y-56024000D01*
X121638349Y-49620000D02*
X121638349Y-51860000D01*
X121918349Y-49845000D02*
X121918349Y-51860000D01*
X120798349Y-53940000D02*
X120798349Y-56657000D01*
X123078349Y-51554000D02*
X123078349Y-54246000D01*
X122518349Y-50500000D02*
X122518349Y-55300000D01*
X121358349Y-53940000D02*
X121358349Y-56369000D01*
X120398349Y-53940000D02*
X120398349Y-56802000D01*
X119918349Y-48883000D02*
X119918349Y-51860000D01*
X122998349Y-51348000D02*
X122998349Y-54452000D01*
X119837349Y-48870000D02*
X119837349Y-56930000D01*
X120478349Y-49023000D02*
X120478349Y-51860000D01*
X119597349Y-48839000D02*
X119597349Y-56961000D01*
X120238349Y-53940000D02*
X120238349Y-56847000D01*
X122758349Y-50866000D02*
X122758349Y-54934000D01*
X121078349Y-49273000D02*
X121078349Y-51860000D01*
X121718349Y-53940000D02*
X121718349Y-56120000D01*
X119637349Y-48843000D02*
X119637349Y-56957000D01*
X119197349Y-48820000D02*
X119197349Y-56980000D01*
X120838349Y-53940000D02*
X120838349Y-56640000D01*
X120838349Y-49160000D02*
X120838349Y-51860000D01*
X122078349Y-49993000D02*
X122078349Y-55807000D01*
X119677349Y-48848000D02*
X119677349Y-56952000D01*
X121718349Y-49680000D02*
X121718349Y-51860000D01*
X120478349Y-53940000D02*
X120478349Y-56777000D01*
X120958349Y-53940000D02*
X120958349Y-56586000D01*
X120878349Y-53940000D02*
X120878349Y-56622000D01*
X120278349Y-53940000D02*
X120278349Y-56836000D01*
X122318349Y-50249000D02*
X122318349Y-55551000D01*
X121438349Y-49482000D02*
X121438349Y-51860000D01*
X120918349Y-53940000D02*
X120918349Y-56604000D01*
X119918349Y-53940000D02*
X119918349Y-56917000D01*
X119317349Y-48821000D02*
X119317349Y-56979000D01*
X120758349Y-53940000D02*
X120758349Y-56674000D01*
X122878349Y-51087000D02*
X122878349Y-54713000D01*
X121518349Y-53940000D02*
X121518349Y-56265000D01*
X121438349Y-53940000D02*
X121438349Y-56318000D01*
X120038349Y-48906000D02*
X120038349Y-51860000D01*
X120358349Y-48986000D02*
X120358349Y-51860000D01*
X121598349Y-49591000D02*
X121598349Y-51860000D01*
X120318349Y-53940000D02*
X120318349Y-56825000D01*
X122558349Y-50555000D02*
X122558349Y-55245000D01*
X120198349Y-53940000D02*
X120198349Y-56857000D01*
X121878349Y-53940000D02*
X121878349Y-55990000D01*
X121798349Y-49744000D02*
X121798349Y-51860000D01*
X120158349Y-48933000D02*
X120158349Y-51860000D01*
X120998349Y-53940000D02*
X120998349Y-56566000D01*
X119998349Y-53940000D02*
X119998349Y-56902000D01*
X120358349Y-53940000D02*
X120358349Y-56814000D01*
X122838349Y-51010000D02*
X122838349Y-54790000D01*
X122158349Y-50074000D02*
X122158349Y-55726000D01*
X120678349Y-53940000D02*
X120678349Y-56705000D01*
X121838349Y-49776000D02*
X121838349Y-51860000D01*
X120798349Y-49143000D02*
X120798349Y-51860000D01*
X120518349Y-53940000D02*
X120518349Y-56763000D01*
X123038349Y-51447000D02*
X123038349Y-54353000D01*
X121678349Y-53940000D02*
X121678349Y-56150000D01*
X120718349Y-53940000D02*
X120718349Y-56690000D01*
X119757349Y-48858000D02*
X119757349Y-56942000D01*
X119998349Y-48898000D02*
X119998349Y-51860000D01*
X119437349Y-48826000D02*
X119437349Y-56974000D01*
X121078349Y-53940000D02*
X121078349Y-56527000D01*
X119517349Y-48832000D02*
X119517349Y-56968000D01*
X120238349Y-48953000D02*
X120238349Y-51860000D01*
X120118349Y-53940000D02*
X120118349Y-56876000D01*
X120718349Y-49110000D02*
X120718349Y-51860000D01*
X122918349Y-51169000D02*
X122918349Y-54631000D01*
X123198349Y-51952000D02*
X123198349Y-53848000D01*
X121678349Y-49650000D02*
X121678349Y-51860000D01*
X120118349Y-48924000D02*
X120118349Y-51860000D01*
X120278349Y-48964000D02*
X120278349Y-51860000D01*
X122638349Y-50672000D02*
X122638349Y-55128000D01*
X121638349Y-53940000D02*
X121638349Y-56180000D01*
X122798349Y-50936000D02*
X122798349Y-54864000D01*
X122958349Y-51255000D02*
X122958349Y-54545000D01*
X120158349Y-53940000D02*
X120158349Y-56867000D01*
X121198349Y-49338000D02*
X121198349Y-51860000D01*
X121558349Y-49562000D02*
X121558349Y-51860000D01*
X120518349Y-49037000D02*
X120518349Y-51860000D01*
X121878349Y-49810000D02*
X121878349Y-51860000D01*
X122358349Y-50296000D02*
X122358349Y-55504000D01*
X120078349Y-48915000D02*
X120078349Y-51860000D01*
X121398349Y-53940000D02*
X121398349Y-56344000D01*
X120638349Y-49079000D02*
X120638349Y-51860000D01*
X120558349Y-49050000D02*
X120558349Y-51860000D01*
X120198349Y-48943000D02*
X120198349Y-51860000D01*
X120998349Y-49234000D02*
X120998349Y-51860000D01*
X121038349Y-53940000D02*
X121038349Y-56547000D01*
X120398349Y-48998000D02*
X120398349Y-51860000D01*
X123238349Y-52132000D02*
X123238349Y-53668000D01*
X121358349Y-49431000D02*
X121358349Y-51860000D01*
X122118349Y-50033000D02*
X122118349Y-55767000D01*
X122438349Y-50395000D02*
X122438349Y-55405000D01*
X120878349Y-49178000D02*
X120878349Y-51860000D01*
X114787651Y-50585000D02*
X115587651Y-50585000D01*
X122718349Y-50798000D02*
X122718349Y-55002000D01*
X119237349Y-48820000D02*
X119237349Y-56980000D01*
X122398349Y-50344000D02*
X122398349Y-55456000D01*
X122278349Y-50203000D02*
X122278349Y-55597000D01*
X121118349Y-53940000D02*
X121118349Y-56506000D01*
X122238349Y-50159000D02*
X122238349Y-55641000D01*
X122198349Y-50116000D02*
X122198349Y-55684000D01*
X121158349Y-49316000D02*
X121158349Y-51860000D01*
X121398349Y-49456000D02*
X121398349Y-51860000D01*
X120438349Y-49011000D02*
X120438349Y-51860000D01*
X121278349Y-49383000D02*
X121278349Y-51860000D01*
X121278349Y-53940000D02*
X121278349Y-56417000D01*
X121518349Y-49535000D02*
X121518349Y-51860000D01*
X121918349Y-53940000D02*
X121918349Y-55955000D01*
X121998349Y-49917000D02*
X121998349Y-55883000D01*
X120958349Y-49214000D02*
X120958349Y-51860000D01*
X121038349Y-49253000D02*
X121038349Y-51860000D01*
X122038349Y-49955000D02*
X122038349Y-55845000D01*
X121758349Y-53940000D02*
X121758349Y-56089000D01*
X119557349Y-48835000D02*
X119557349Y-56965000D01*
X115187651Y-50185000D02*
X115187651Y-50985000D01*
X119958349Y-53940000D02*
X119958349Y-56910000D01*
X119797349Y-48863000D02*
X119797349Y-56937000D01*
X121238349Y-53940000D02*
X121238349Y-56440000D01*
X123118349Y-51671000D02*
X123118349Y-54129000D01*
X121758349Y-49711000D02*
X121758349Y-51860000D01*
X120918349Y-49196000D02*
X120918349Y-51860000D01*
X119397349Y-48824000D02*
X119397349Y-56976000D01*
X123317349Y-52900000D02*
G75*
G03*
X123317349Y-52900000I-4120000J0D01*
G01*
%TO.C,CA2*%
X150842000Y-51427000D02*
X150842000Y-50427000D01*
X147482000Y-51427000D02*
X147482000Y-50427000D01*
D19*
%TO.C,BT1*%
X94742000Y-61050000D02*
X94742000Y-104050000D01*
X76962000Y-61050000D02*
X94742000Y-61050000D01*
X76962000Y-104050000D02*
X76962000Y-61050000D01*
X94742000Y-104050000D02*
X76962000Y-104050000D01*
D10*
%TO.C,DLED3*%
X113262300Y-82018200D02*
X113262300Y-83488200D01*
X115722300Y-82018200D02*
X113262300Y-82018200D01*
X113262300Y-83488200D02*
X115722300Y-83488200D01*
%TO.C,R25*%
X102160600Y-95566776D02*
X102160600Y-96076224D01*
X101115600Y-95566776D02*
X101115600Y-96076224D01*
%TD*%
M02*
