M48
; DRILL file {KiCad (6.0.0)} date Mon Jan 24 11:24:01 2022
; FORMAT={-:-/ absolute / metric / decimal}
; #@! TF.CreationDate,2022-01-24T11:24:01-03:00
; #@! TF.GenerationSoftware,Kicad,Pcbnew,(6.0.0)
; #@! TF.FileFunction,Plated,1,2,PTH
FMAT,2
METRIC
; #@! TA.AperFunction,Plated,PTH,ViaDrill
T1C0.400
; #@! TA.AperFunction,Plated,PTH,ViaDrill
T2C0.750
; #@! TA.AperFunction,Plated,PTH,ComponentDrill
T3C0.800
; #@! TA.AperFunction,Plated,PTH,ComponentDrill
T4C0.950
; #@! TA.AperFunction,Plated,PTH,ComponentDrill
T5C1.000
; #@! TA.AperFunction,Plated,PTH,ComponentDrill
T6C1.470
; #@! TA.AperFunction,Plated,PTH,ComponentDrill
T7C1.780
; #@! TA.AperFunction,Plated,PTH,ComponentDrill
T8C2.300
; #@! TA.AperFunction,Plated,PTH,ComponentDrill
T9C3.200
; #@! TA.AperFunction,Plated,PTH,ViaDrill
T10C3.500
; #@! TA.AperFunction,Plated,PTH,ViaDrill
T11C4.500
%
G90
G05
T1
X74.55Y-42.05
X89.789Y-50.927
X91.44Y-58.801
X94.488Y-54.864
X94.996Y-52.451
X95.598Y-49.803
X95.631Y-53.975
X97.028Y-51.689
X97.384Y-56.797
X99.65Y-72.1
X100.012Y-45.529
X101.6Y-59.309
X102.451Y-46.684
X103.378Y-54.669
X103.492Y-97.13
X103.657Y-58.649
X104.198Y-55.669
X104.775Y-94.869
X108.15Y-57.7
X108.2Y-70.1
X108.2Y-72.55
X109.347Y-89.535
X109.474Y-82.423
X112.8Y-82.7
X114.131Y-91.268
X116.05Y-40.4
X116.713Y-75.057
X117.257Y-44.337
X117.262Y-46.55
X118.345Y-59.615
X118.648Y-57.361
X118.745Y-70.612
X119.253Y-93.98
X122.174Y-76.454
X122.936Y-64.518
X123.8Y-35.0
X124.55Y-53.95
X125.92Y-98.361
X126.619Y-87.884
X126.746Y-70.358
X127.508Y-64.008
X127.774Y-50.184
X128.028Y-49.041
X128.37Y-67.945
X129.413Y-72.39
X129.908Y-58.433
X131.851Y-98.336
X132.334Y-69.215
X132.588Y-72.39
X132.588Y-74.422
X133.95Y-102.25
X134.2Y-82.22
X134.43Y-73.469
X134.744Y-64.362
X134.874Y-65.151
X136.2Y-87.8
X136.65Y-51.85
X137.934Y-45.612
X138.76Y-56.02
X139.255Y-66.675
X139.706Y-66.034
X139.827Y-74.803
X139.954Y-64.77
X140.279Y-91.268
X140.462Y-68.326
X140.97Y-60.706
X141.1Y-82.3
X141.16Y-53.391
X141.179Y-57.668
X141.516Y-52.514
X142.03Y-53.391
X142.24Y-88.265
X142.83Y-53.385
X142.926Y-61.651
X143.37Y-52.54
X143.4Y-74.4
X143.7Y-53.391
X144.15Y-104.55
X144.361Y-74.549
X144.716Y-81.661
X145.161Y-74.562
X145.478Y-81.534
X145.872Y-47.587
X146.368Y-81.343
X147.066Y-63.703
X147.066Y-82.804
X147.117Y-62.014
X147.892Y-53.391
X148.209Y-52.514
X148.209Y-71.501
X148.762Y-53.391
X149.562Y-53.391
X149.758Y-63.729
X149.796Y-65.215
X150.114Y-52.502
X150.431Y-77.914
X150.432Y-53.391
X151.511Y-71.691
X151.701Y-90.106
X152.006Y-62.027
X152.502Y-47.473
X154.559Y-90.17
X154.622Y-53.391
X154.94Y-52.514
X155.492Y-53.391
X155.956Y-73.787
X156.292Y-53.391
X156.781Y-52.514
X156.972Y-79.756
X157.162Y-53.403
X158.001Y-70.104
X158.001Y-73.736
X158.559Y-66.929
X158.801Y-39.192
X158.877Y-61.214
X159.448Y-47.473
X159.603Y-66.278
X161.608Y-45.378
X161.608Y-53.391
X161.925Y-52.578
X162.45Y-98.15
X162.478Y-53.391
X162.687Y-73.469
X163.258Y-58.674
X163.278Y-53.391
X163.83Y-52.578
X163.893Y-69.342
X164.148Y-53.391
X165.481Y-77.089
X165.902Y-91.268
X166.878Y-73.914
X167.894Y-79.756
X171.005Y-73.406
X171.196Y-75.819
X176.127Y-79.401
X179.832Y-92.583
T2
X107.5Y-47.0
X107.823Y-54.864
X115.443Y-59.69
X117.513Y-65.227
X117.983Y-77.216
X118.55Y-41.55
X131.991Y-67.361
X133.68Y-63.017
X157.099Y-95.758
X171.51Y-81.347
T3
X91.162Y-43.917
X93.662Y-43.917
X99.045Y-64.15
X101.545Y-64.15
X105.505Y-64.25
X105.75Y-80.345
X105.75Y-82.845
X107.15Y-52.05
X108.005Y-64.25
X109.65Y-52.05
X111.695Y-64.35
X114.195Y-64.35
X117.447Y-52.9
X120.947Y-52.9
T4
X103.454Y-37.967
X103.454Y-39.967
X105.954Y-37.967
X105.954Y-39.967
T5
X110.363Y-107.252
X111.748Y-104.412
X113.133Y-107.252
X114.518Y-104.412
X115.903Y-107.252
X117.288Y-104.412
X118.673Y-107.252
X120.058Y-104.412
X121.443Y-107.252
X132.441Y-38.938
X133.826Y-36.098
X135.211Y-38.938
X136.596Y-36.098
X137.981Y-38.938
X139.366Y-36.098
X140.751Y-38.938
X142.136Y-36.098
X143.521Y-38.938
X144.906Y-36.098
X146.291Y-38.938
X146.494Y-107.188
X147.676Y-36.098
X147.879Y-104.348
X149.061Y-38.938
X149.264Y-107.188
X150.446Y-36.098
X150.649Y-104.348
X151.831Y-38.938
X152.034Y-107.188
X153.216Y-36.098
X153.419Y-104.348
X154.601Y-38.938
X154.804Y-107.188
X155.986Y-36.098
X156.189Y-104.348
X157.371Y-38.938
X157.574Y-107.188
X158.756Y-36.098
X158.959Y-104.348
X160.141Y-38.938
X160.344Y-107.188
X161.526Y-36.098
X161.729Y-104.348
X162.911Y-38.938
X163.114Y-107.188
X164.296Y-36.098
X164.499Y-104.348
X165.681Y-38.938
X165.884Y-107.188
X180.848Y-62.23
X180.848Y-64.77
X180.848Y-67.31
X180.848Y-69.85
X180.848Y-72.39
X180.848Y-74.93
T6
X85.852Y-63.565
X85.852Y-101.535
T7
X82.804Y-35.56
X82.804Y-40.64
X82.804Y-45.72
X82.804Y-50.8
T8
X98.704Y-35.107
X110.704Y-35.107
T9
X103.403Y-105.832
X125.511Y-37.518
X128.403Y-105.832
X139.539Y-105.768
X172.611Y-37.518
X172.839Y-105.768
T10
X73.45Y-82.6
X98.6Y-82.6
T11
X73.152Y-32.766
X73.66Y-110.236
X182.893Y-33.566
X183.388Y-110.617
T0
M30
