M48
; DRILL file {KiCad (6.0.1)} date Tue Sep 20 17:52:33 2022
; FORMAT={-:-/ absolute / inch / decimal}
; #@! TF.CreationDate,2022-09-20T17:52:33-03:00
; #@! TF.GenerationSoftware,Kicad,Pcbnew,(6.0.1)
; #@! TF.FileFunction,Plated,1,2,PTH
FMAT,2
INCH
; #@! TA.AperFunction,Plated,PTH,ViaDrill
T1C0.0157
; #@! TA.AperFunction,Plated,PTH,ComponentDrill
T2C0.0276
; #@! TA.AperFunction,Plated,PTH,ComponentDrill
T3C0.0579
%
G90
G05
T1
X7.0423Y-0.7972
X7.0583Y-2.5354
X7.0614Y-2.176
X7.1327Y-1.3835
X7.1339Y-1.998
X7.1575Y-1.1024
X7.1646Y-1.9402
X7.1673Y-1.6161
X7.1703Y-1.564
X7.1937Y-2.2705
X7.2031Y-1.5177
X7.2539Y-1.3858
X7.2677Y-1.0984
X7.3209Y-1.9972
X7.3354Y-2.1378
X7.3445Y-2.1768
X7.3456Y-2.3138
X7.3646Y-1.987
X7.3681Y-1.2343
X7.3764Y-1.924
X7.378Y-1.2909
X7.4161Y-2.1705
X7.4252Y-1.2362
X7.4654Y-2.1709
X7.4736Y-2.0008
X7.4878Y-1.9142
X7.5197Y-2.7067
X7.5346Y-2.0098
X7.5445Y-1.1154
X7.5744Y-1.839
X7.587Y-1.115
X7.5965Y-2.0063
X7.613Y-2.2272
X7.6378Y-1.1043
X7.6524Y-2.3394
X7.6674Y-1.6425
X7.674Y-2.2717
X7.6854Y-1.3185
X7.7028Y-1.2343
X7.7077Y-2.06
X7.7323Y-1.6516
X7.7451Y-1.4321
X7.7563Y-1.328
X7.7648Y-1.8671
X7.7736Y-2.0406
X7.7948Y-2.4867
X7.8157Y-2.6646
X7.8252Y-2.0122
X7.8311Y-1.8138
X7.8602Y-2.5118
X7.8644Y-1.0746
X7.8671Y-1.4301
X7.8965Y-1.7256
X7.9173Y-2.7992
X7.9213Y-1.2628
X7.9585Y-2.6557
X7.9846Y-1.0287
X7.9852Y-1.5079
X7.9872Y-1.3612
X7.9975Y-1.5989
X8.0339Y-2.1886
X8.0374Y-2.5079
X8.0551Y-2.437
X8.0571Y-2.2795
X8.0581Y-0.8789
T2
X7.9579Y-1.8618
X7.9579Y-1.9118
X7.9579Y-1.9618
X7.9579Y-2.0118
X7.9579Y-2.0618
X8.0079Y-1.8618
X8.0079Y-1.9118
X8.0079Y-1.9618
X8.0079Y-2.0118
X8.0079Y-2.0618
T3
X7.5547Y-1.2785
X7.5547Y-2.7734
T0
M30
