%TF.GenerationSoftware,KiCad,Pcbnew,(6.0.1)*%
%TF.CreationDate,2022-09-20T17:52:40-03:00*%
%TF.ProjectId,HLI-C_main,484c492d-435f-46d6-9169-6e2e6b696361,rev?*%
%TF.SameCoordinates,Original*%
%TF.FileFunction,Legend,Top*%
%TF.FilePolarity,Positive*%
%FSLAX46Y46*%
G04 Gerber Fmt 4.6, Leading zero omitted, Abs format (unit mm)*
G04 Created by KiCad (PCBNEW (6.0.1)) date 2022-09-20 17:52:40*
%MOMM*%
%LPD*%
G01*
G04 APERTURE LIST*
%ADD10C,0.283607*%
%ADD11C,0.360000*%
%ADD12C,0.162500*%
%ADD13C,0.100000*%
%ADD14C,0.120000*%
%ADD15C,0.152400*%
%ADD16C,0.150000*%
G04 APERTURE END LIST*
D10*
X193641803Y-51300000D02*
G75*
G03*
X193641803Y-51300000I-141803J0D01*
G01*
D11*
X198080000Y-62400000D02*
G75*
G03*
X198080000Y-62400000I-180000J0D01*
G01*
X180480000Y-38500000D02*
G75*
G03*
X180480000Y-38500000I-180000J0D01*
G01*
X200380000Y-53100000D02*
G75*
G03*
X200380000Y-53100000I-180000J0D01*
G01*
X178905000Y-46025000D02*
G75*
G03*
X178905000Y-46025000I-180000J0D01*
G01*
D12*
%TO.C,C11*%
X193332142Y-42780357D02*
X193363095Y-42811309D01*
X193394047Y-42904166D01*
X193394047Y-42966071D01*
X193363095Y-43058928D01*
X193301190Y-43120833D01*
X193239285Y-43151785D01*
X193115476Y-43182738D01*
X193022619Y-43182738D01*
X192898809Y-43151785D01*
X192836904Y-43120833D01*
X192775000Y-43058928D01*
X192744047Y-42966071D01*
X192744047Y-42904166D01*
X192775000Y-42811309D01*
X192805952Y-42780357D01*
X193394047Y-42161309D02*
X193394047Y-42532738D01*
X193394047Y-42347023D02*
X192744047Y-42347023D01*
X192836904Y-42408928D01*
X192898809Y-42470833D01*
X192929761Y-42532738D01*
X193394047Y-41542261D02*
X193394047Y-41913690D01*
X193394047Y-41727976D02*
X192744047Y-41727976D01*
X192836904Y-41789880D01*
X192898809Y-41851785D01*
X192929761Y-41913690D01*
%TO.C,C15*%
X205082142Y-62317857D02*
X205113095Y-62348809D01*
X205144047Y-62441666D01*
X205144047Y-62503571D01*
X205113095Y-62596428D01*
X205051190Y-62658333D01*
X204989285Y-62689285D01*
X204865476Y-62720238D01*
X204772619Y-62720238D01*
X204648809Y-62689285D01*
X204586904Y-62658333D01*
X204525000Y-62596428D01*
X204494047Y-62503571D01*
X204494047Y-62441666D01*
X204525000Y-62348809D01*
X204555952Y-62317857D01*
X205144047Y-61698809D02*
X205144047Y-62070238D01*
X205144047Y-61884523D02*
X204494047Y-61884523D01*
X204586904Y-61946428D01*
X204648809Y-62008333D01*
X204679761Y-62070238D01*
X204494047Y-61110714D02*
X204494047Y-61420238D01*
X204803571Y-61451190D01*
X204772619Y-61420238D01*
X204741666Y-61358333D01*
X204741666Y-61203571D01*
X204772619Y-61141666D01*
X204803571Y-61110714D01*
X204865476Y-61079761D01*
X205020238Y-61079761D01*
X205082142Y-61110714D01*
X205113095Y-61141666D01*
X205144047Y-61203571D01*
X205144047Y-61358333D01*
X205113095Y-61420238D01*
X205082142Y-61451190D01*
D13*
%TO.C,C12*%
X205514285Y-55115714D02*
X205542857Y-55144285D01*
X205571428Y-55230000D01*
X205571428Y-55287142D01*
X205542857Y-55372857D01*
X205485714Y-55430000D01*
X205428571Y-55458571D01*
X205314285Y-55487142D01*
X205228571Y-55487142D01*
X205114285Y-55458571D01*
X205057142Y-55430000D01*
X205000000Y-55372857D01*
X204971428Y-55287142D01*
X204971428Y-55230000D01*
X205000000Y-55144285D01*
X205028571Y-55115714D01*
X205571428Y-54544285D02*
X205571428Y-54887142D01*
X205571428Y-54715714D02*
X204971428Y-54715714D01*
X205057142Y-54772857D01*
X205114285Y-54830000D01*
X205142857Y-54887142D01*
X205028571Y-54315714D02*
X205000000Y-54287142D01*
X204971428Y-54230000D01*
X204971428Y-54087142D01*
X205000000Y-54030000D01*
X205028571Y-54001428D01*
X205085714Y-53972857D01*
X205142857Y-53972857D01*
X205228571Y-54001428D01*
X205571428Y-54344285D01*
X205571428Y-53972857D01*
D12*
%TO.C,C8*%
X196632142Y-42170833D02*
X196663095Y-42201785D01*
X196694047Y-42294642D01*
X196694047Y-42356547D01*
X196663095Y-42449404D01*
X196601190Y-42511309D01*
X196539285Y-42542261D01*
X196415476Y-42573214D01*
X196322619Y-42573214D01*
X196198809Y-42542261D01*
X196136904Y-42511309D01*
X196075000Y-42449404D01*
X196044047Y-42356547D01*
X196044047Y-42294642D01*
X196075000Y-42201785D01*
X196105952Y-42170833D01*
X196322619Y-41799404D02*
X196291666Y-41861309D01*
X196260714Y-41892261D01*
X196198809Y-41923214D01*
X196167857Y-41923214D01*
X196105952Y-41892261D01*
X196075000Y-41861309D01*
X196044047Y-41799404D01*
X196044047Y-41675595D01*
X196075000Y-41613690D01*
X196105952Y-41582738D01*
X196167857Y-41551785D01*
X196198809Y-41551785D01*
X196260714Y-41582738D01*
X196291666Y-41613690D01*
X196322619Y-41675595D01*
X196322619Y-41799404D01*
X196353571Y-41861309D01*
X196384523Y-41892261D01*
X196446428Y-41923214D01*
X196570238Y-41923214D01*
X196632142Y-41892261D01*
X196663095Y-41861309D01*
X196694047Y-41799404D01*
X196694047Y-41675595D01*
X196663095Y-41613690D01*
X196632142Y-41582738D01*
X196570238Y-41551785D01*
X196446428Y-41551785D01*
X196384523Y-41582738D01*
X196353571Y-41613690D01*
X196322619Y-41675595D01*
%TO.C,R10*%
X199802142Y-73734047D02*
X199585476Y-73424523D01*
X199430714Y-73734047D02*
X199430714Y-73084047D01*
X199678333Y-73084047D01*
X199740238Y-73115000D01*
X199771190Y-73145952D01*
X199802142Y-73207857D01*
X199802142Y-73300714D01*
X199771190Y-73362619D01*
X199740238Y-73393571D01*
X199678333Y-73424523D01*
X199430714Y-73424523D01*
X200421190Y-73734047D02*
X200049761Y-73734047D01*
X200235476Y-73734047D02*
X200235476Y-73084047D01*
X200173571Y-73176904D01*
X200111666Y-73238809D01*
X200049761Y-73269761D01*
X200823571Y-73084047D02*
X200885476Y-73084047D01*
X200947380Y-73115000D01*
X200978333Y-73145952D01*
X201009285Y-73207857D01*
X201040238Y-73331666D01*
X201040238Y-73486428D01*
X201009285Y-73610238D01*
X200978333Y-73672142D01*
X200947380Y-73703095D01*
X200885476Y-73734047D01*
X200823571Y-73734047D01*
X200761666Y-73703095D01*
X200730714Y-73672142D01*
X200699761Y-73610238D01*
X200668809Y-73486428D01*
X200668809Y-73331666D01*
X200699761Y-73207857D01*
X200730714Y-73145952D01*
X200761666Y-73115000D01*
X200823571Y-73084047D01*
%TO.C,D3*%
X205044047Y-21954761D02*
X204394047Y-21954761D01*
X204394047Y-21800000D01*
X204425000Y-21707142D01*
X204486904Y-21645238D01*
X204548809Y-21614285D01*
X204672619Y-21583333D01*
X204765476Y-21583333D01*
X204889285Y-21614285D01*
X204951190Y-21645238D01*
X205013095Y-21707142D01*
X205044047Y-21800000D01*
X205044047Y-21954761D01*
X204394047Y-21366666D02*
X204394047Y-20964285D01*
X204641666Y-21180952D01*
X204641666Y-21088095D01*
X204672619Y-21026190D01*
X204703571Y-20995238D01*
X204765476Y-20964285D01*
X204920238Y-20964285D01*
X204982142Y-20995238D01*
X205013095Y-21026190D01*
X205044047Y-21088095D01*
X205044047Y-21273809D01*
X205013095Y-21335714D01*
X204982142Y-21366666D01*
%TO.C,U1*%
X195294761Y-64314047D02*
X195294761Y-64840238D01*
X195325714Y-64902142D01*
X195356666Y-64933095D01*
X195418571Y-64964047D01*
X195542380Y-64964047D01*
X195604285Y-64933095D01*
X195635238Y-64902142D01*
X195666190Y-64840238D01*
X195666190Y-64314047D01*
X196316190Y-64964047D02*
X195944761Y-64964047D01*
X196130476Y-64964047D02*
X196130476Y-64314047D01*
X196068571Y-64406904D01*
X196006666Y-64468809D01*
X195944761Y-64499761D01*
X197800000Y-62344047D02*
X197800000Y-62498809D01*
X197645238Y-62436904D02*
X197800000Y-62498809D01*
X197954761Y-62436904D01*
X197707142Y-62622619D02*
X197800000Y-62498809D01*
X197892857Y-62622619D01*
X197800000Y-62344047D02*
X197800000Y-62498809D01*
X197645238Y-62436904D02*
X197800000Y-62498809D01*
X197954761Y-62436904D01*
X197707142Y-62622619D02*
X197800000Y-62498809D01*
X197892857Y-62622619D01*
%TO.C,U6*%
X199304761Y-33144047D02*
X199304761Y-33670238D01*
X199335714Y-33732142D01*
X199366666Y-33763095D01*
X199428571Y-33794047D01*
X199552380Y-33794047D01*
X199614285Y-33763095D01*
X199645238Y-33732142D01*
X199676190Y-33670238D01*
X199676190Y-33144047D01*
X200264285Y-33144047D02*
X200140476Y-33144047D01*
X200078571Y-33175000D01*
X200047619Y-33205952D01*
X199985714Y-33298809D01*
X199954761Y-33422619D01*
X199954761Y-33670238D01*
X199985714Y-33732142D01*
X200016666Y-33763095D01*
X200078571Y-33794047D01*
X200202380Y-33794047D01*
X200264285Y-33763095D01*
X200295238Y-33732142D01*
X200326190Y-33670238D01*
X200326190Y-33515476D01*
X200295238Y-33453571D01*
X200264285Y-33422619D01*
X200202380Y-33391666D01*
X200078571Y-33391666D01*
X200016666Y-33422619D01*
X199985714Y-33453571D01*
X199954761Y-33515476D01*
%TO.C,C1*%
X185316666Y-26232142D02*
X185285714Y-26263095D01*
X185192857Y-26294047D01*
X185130952Y-26294047D01*
X185038095Y-26263095D01*
X184976190Y-26201190D01*
X184945238Y-26139285D01*
X184914285Y-26015476D01*
X184914285Y-25922619D01*
X184945238Y-25798809D01*
X184976190Y-25736904D01*
X185038095Y-25675000D01*
X185130952Y-25644047D01*
X185192857Y-25644047D01*
X185285714Y-25675000D01*
X185316666Y-25705952D01*
X185935714Y-26294047D02*
X185564285Y-26294047D01*
X185750000Y-26294047D02*
X185750000Y-25644047D01*
X185688095Y-25736904D01*
X185626190Y-25798809D01*
X185564285Y-25829761D01*
%TO.C,U7*%
X196619047Y-36570238D02*
X197145238Y-36570238D01*
X197207142Y-36539285D01*
X197238095Y-36508333D01*
X197269047Y-36446428D01*
X197269047Y-36322619D01*
X197238095Y-36260714D01*
X197207142Y-36229761D01*
X197145238Y-36198809D01*
X196619047Y-36198809D01*
X196619047Y-35951190D02*
X196619047Y-35517857D01*
X197269047Y-35796428D01*
%TO.C,R11*%
X183464047Y-52197857D02*
X183154523Y-52414523D01*
X183464047Y-52569285D02*
X182814047Y-52569285D01*
X182814047Y-52321666D01*
X182845000Y-52259761D01*
X182875952Y-52228809D01*
X182937857Y-52197857D01*
X183030714Y-52197857D01*
X183092619Y-52228809D01*
X183123571Y-52259761D01*
X183154523Y-52321666D01*
X183154523Y-52569285D01*
X183464047Y-51578809D02*
X183464047Y-51950238D01*
X183464047Y-51764523D02*
X182814047Y-51764523D01*
X182906904Y-51826428D01*
X182968809Y-51888333D01*
X182999761Y-51950238D01*
X183464047Y-50959761D02*
X183464047Y-51331190D01*
X183464047Y-51145476D02*
X182814047Y-51145476D01*
X182906904Y-51207380D01*
X182968809Y-51269285D01*
X182999761Y-51331190D01*
%TO.C,C7*%
X204407142Y-27233333D02*
X204438095Y-27264285D01*
X204469047Y-27357142D01*
X204469047Y-27419047D01*
X204438095Y-27511904D01*
X204376190Y-27573809D01*
X204314285Y-27604761D01*
X204190476Y-27635714D01*
X204097619Y-27635714D01*
X203973809Y-27604761D01*
X203911904Y-27573809D01*
X203850000Y-27511904D01*
X203819047Y-27419047D01*
X203819047Y-27357142D01*
X203850000Y-27264285D01*
X203880952Y-27233333D01*
X203819047Y-27016666D02*
X203819047Y-26583333D01*
X204469047Y-26861904D01*
%TO.C,R14*%
X192194047Y-73317857D02*
X191884523Y-73534523D01*
X192194047Y-73689285D02*
X191544047Y-73689285D01*
X191544047Y-73441666D01*
X191575000Y-73379761D01*
X191605952Y-73348809D01*
X191667857Y-73317857D01*
X191760714Y-73317857D01*
X191822619Y-73348809D01*
X191853571Y-73379761D01*
X191884523Y-73441666D01*
X191884523Y-73689285D01*
X192194047Y-72698809D02*
X192194047Y-73070238D01*
X192194047Y-72884523D02*
X191544047Y-72884523D01*
X191636904Y-72946428D01*
X191698809Y-73008333D01*
X191729761Y-73070238D01*
X191760714Y-72141666D02*
X192194047Y-72141666D01*
X191513095Y-72296428D02*
X191977380Y-72451190D01*
X191977380Y-72048809D01*
%TO.C,R3*%
X202191666Y-33669047D02*
X201975000Y-33359523D01*
X201820238Y-33669047D02*
X201820238Y-33019047D01*
X202067857Y-33019047D01*
X202129761Y-33050000D01*
X202160714Y-33080952D01*
X202191666Y-33142857D01*
X202191666Y-33235714D01*
X202160714Y-33297619D01*
X202129761Y-33328571D01*
X202067857Y-33359523D01*
X201820238Y-33359523D01*
X202408333Y-33019047D02*
X202810714Y-33019047D01*
X202594047Y-33266666D01*
X202686904Y-33266666D01*
X202748809Y-33297619D01*
X202779761Y-33328571D01*
X202810714Y-33390476D01*
X202810714Y-33545238D01*
X202779761Y-33607142D01*
X202748809Y-33638095D01*
X202686904Y-33669047D01*
X202501190Y-33669047D01*
X202439285Y-33638095D01*
X202408333Y-33607142D01*
%TO.C,R5*%
X192094047Y-46108333D02*
X191784523Y-46325000D01*
X192094047Y-46479761D02*
X191444047Y-46479761D01*
X191444047Y-46232142D01*
X191475000Y-46170238D01*
X191505952Y-46139285D01*
X191567857Y-46108333D01*
X191660714Y-46108333D01*
X191722619Y-46139285D01*
X191753571Y-46170238D01*
X191784523Y-46232142D01*
X191784523Y-46479761D01*
X191444047Y-45520238D02*
X191444047Y-45829761D01*
X191753571Y-45860714D01*
X191722619Y-45829761D01*
X191691666Y-45767857D01*
X191691666Y-45613095D01*
X191722619Y-45551190D01*
X191753571Y-45520238D01*
X191815476Y-45489285D01*
X191970238Y-45489285D01*
X192032142Y-45520238D01*
X192063095Y-45551190D01*
X192094047Y-45613095D01*
X192094047Y-45767857D01*
X192063095Y-45829761D01*
X192032142Y-45860714D01*
%TO.C,CON1*%
X197832142Y-24489285D02*
X197863095Y-24520238D01*
X197894047Y-24613095D01*
X197894047Y-24675000D01*
X197863095Y-24767857D01*
X197801190Y-24829761D01*
X197739285Y-24860714D01*
X197615476Y-24891666D01*
X197522619Y-24891666D01*
X197398809Y-24860714D01*
X197336904Y-24829761D01*
X197275000Y-24767857D01*
X197244047Y-24675000D01*
X197244047Y-24613095D01*
X197275000Y-24520238D01*
X197305952Y-24489285D01*
X197244047Y-24086904D02*
X197244047Y-23963095D01*
X197275000Y-23901190D01*
X197336904Y-23839285D01*
X197460714Y-23808333D01*
X197677380Y-23808333D01*
X197801190Y-23839285D01*
X197863095Y-23901190D01*
X197894047Y-23963095D01*
X197894047Y-24086904D01*
X197863095Y-24148809D01*
X197801190Y-24210714D01*
X197677380Y-24241666D01*
X197460714Y-24241666D01*
X197336904Y-24210714D01*
X197275000Y-24148809D01*
X197244047Y-24086904D01*
X197894047Y-23529761D02*
X197244047Y-23529761D01*
X197894047Y-23158333D01*
X197244047Y-23158333D01*
X197894047Y-22508333D02*
X197894047Y-22879761D01*
X197894047Y-22694047D02*
X197244047Y-22694047D01*
X197336904Y-22755952D01*
X197398809Y-22817857D01*
X197429761Y-22879761D01*
%TO.C,L1*%
X194341666Y-33794047D02*
X194032142Y-33794047D01*
X194032142Y-33144047D01*
X194898809Y-33794047D02*
X194527380Y-33794047D01*
X194713095Y-33794047D02*
X194713095Y-33144047D01*
X194651190Y-33236904D01*
X194589285Y-33298809D01*
X194527380Y-33329761D01*
%TO.C,LED2*%
X192494047Y-68177380D02*
X192494047Y-68486904D01*
X191844047Y-68486904D01*
X192153571Y-67960714D02*
X192153571Y-67744047D01*
X192494047Y-67651190D02*
X192494047Y-67960714D01*
X191844047Y-67960714D01*
X191844047Y-67651190D01*
X192494047Y-67372619D02*
X191844047Y-67372619D01*
X191844047Y-67217857D01*
X191875000Y-67125000D01*
X191936904Y-67063095D01*
X191998809Y-67032142D01*
X192122619Y-67001190D01*
X192215476Y-67001190D01*
X192339285Y-67032142D01*
X192401190Y-67063095D01*
X192463095Y-67125000D01*
X192494047Y-67217857D01*
X192494047Y-67372619D01*
X191905952Y-66753571D02*
X191875000Y-66722619D01*
X191844047Y-66660714D01*
X191844047Y-66505952D01*
X191875000Y-66444047D01*
X191905952Y-66413095D01*
X191967857Y-66382142D01*
X192029761Y-66382142D01*
X192122619Y-66413095D01*
X192494047Y-66784523D01*
X192494047Y-66382142D01*
%TO.C,R8*%
X200394047Y-68178333D02*
X200084523Y-68395000D01*
X200394047Y-68549761D02*
X199744047Y-68549761D01*
X199744047Y-68302142D01*
X199775000Y-68240238D01*
X199805952Y-68209285D01*
X199867857Y-68178333D01*
X199960714Y-68178333D01*
X200022619Y-68209285D01*
X200053571Y-68240238D01*
X200084523Y-68302142D01*
X200084523Y-68549761D01*
X200022619Y-67806904D02*
X199991666Y-67868809D01*
X199960714Y-67899761D01*
X199898809Y-67930714D01*
X199867857Y-67930714D01*
X199805952Y-67899761D01*
X199775000Y-67868809D01*
X199744047Y-67806904D01*
X199744047Y-67683095D01*
X199775000Y-67621190D01*
X199805952Y-67590238D01*
X199867857Y-67559285D01*
X199898809Y-67559285D01*
X199960714Y-67590238D01*
X199991666Y-67621190D01*
X200022619Y-67683095D01*
X200022619Y-67806904D01*
X200053571Y-67868809D01*
X200084523Y-67899761D01*
X200146428Y-67930714D01*
X200270238Y-67930714D01*
X200332142Y-67899761D01*
X200363095Y-67868809D01*
X200394047Y-67806904D01*
X200394047Y-67683095D01*
X200363095Y-67621190D01*
X200332142Y-67590238D01*
X200270238Y-67559285D01*
X200146428Y-67559285D01*
X200084523Y-67590238D01*
X200053571Y-67621190D01*
X200022619Y-67683095D01*
%TO.C,C6*%
X180841666Y-44032142D02*
X180810714Y-44063095D01*
X180717857Y-44094047D01*
X180655952Y-44094047D01*
X180563095Y-44063095D01*
X180501190Y-44001190D01*
X180470238Y-43939285D01*
X180439285Y-43815476D01*
X180439285Y-43722619D01*
X180470238Y-43598809D01*
X180501190Y-43536904D01*
X180563095Y-43475000D01*
X180655952Y-43444047D01*
X180717857Y-43444047D01*
X180810714Y-43475000D01*
X180841666Y-43505952D01*
X181398809Y-43444047D02*
X181275000Y-43444047D01*
X181213095Y-43475000D01*
X181182142Y-43505952D01*
X181120238Y-43598809D01*
X181089285Y-43722619D01*
X181089285Y-43970238D01*
X181120238Y-44032142D01*
X181151190Y-44063095D01*
X181213095Y-44094047D01*
X181336904Y-44094047D01*
X181398809Y-44063095D01*
X181429761Y-44032142D01*
X181460714Y-43970238D01*
X181460714Y-43815476D01*
X181429761Y-43753571D01*
X181398809Y-43722619D01*
X181336904Y-43691666D01*
X181213095Y-43691666D01*
X181151190Y-43722619D01*
X181120238Y-43753571D01*
X181089285Y-43815476D01*
%TO.C,Y2*%
X182894523Y-60289523D02*
X183204047Y-60289523D01*
X182554047Y-60506190D02*
X182894523Y-60289523D01*
X182554047Y-60072857D01*
X182615952Y-59887142D02*
X182585000Y-59856190D01*
X182554047Y-59794285D01*
X182554047Y-59639523D01*
X182585000Y-59577619D01*
X182615952Y-59546666D01*
X182677857Y-59515714D01*
X182739761Y-59515714D01*
X182832619Y-59546666D01*
X183204047Y-59918095D01*
X183204047Y-59515714D01*
%TO.C,D1*%
X204944047Y-24529761D02*
X204294047Y-24529761D01*
X204294047Y-24375000D01*
X204325000Y-24282142D01*
X204386904Y-24220238D01*
X204448809Y-24189285D01*
X204572619Y-24158333D01*
X204665476Y-24158333D01*
X204789285Y-24189285D01*
X204851190Y-24220238D01*
X204913095Y-24282142D01*
X204944047Y-24375000D01*
X204944047Y-24529761D01*
X204944047Y-23539285D02*
X204944047Y-23910714D01*
X204944047Y-23725000D02*
X204294047Y-23725000D01*
X204386904Y-23786904D01*
X204448809Y-23848809D01*
X204479761Y-23910714D01*
%TO.C,R12*%
X183504047Y-54547857D02*
X183194523Y-54764523D01*
X183504047Y-54919285D02*
X182854047Y-54919285D01*
X182854047Y-54671666D01*
X182885000Y-54609761D01*
X182915952Y-54578809D01*
X182977857Y-54547857D01*
X183070714Y-54547857D01*
X183132619Y-54578809D01*
X183163571Y-54609761D01*
X183194523Y-54671666D01*
X183194523Y-54919285D01*
X183504047Y-53928809D02*
X183504047Y-54300238D01*
X183504047Y-54114523D02*
X182854047Y-54114523D01*
X182946904Y-54176428D01*
X183008809Y-54238333D01*
X183039761Y-54300238D01*
X182915952Y-53681190D02*
X182885000Y-53650238D01*
X182854047Y-53588333D01*
X182854047Y-53433571D01*
X182885000Y-53371666D01*
X182915952Y-53340714D01*
X182977857Y-53309761D01*
X183039761Y-53309761D01*
X183132619Y-53340714D01*
X183504047Y-53712142D01*
X183504047Y-53309761D01*
%TO.C,C18*%
X197602142Y-73722142D02*
X197571190Y-73753095D01*
X197478333Y-73784047D01*
X197416428Y-73784047D01*
X197323571Y-73753095D01*
X197261666Y-73691190D01*
X197230714Y-73629285D01*
X197199761Y-73505476D01*
X197199761Y-73412619D01*
X197230714Y-73288809D01*
X197261666Y-73226904D01*
X197323571Y-73165000D01*
X197416428Y-73134047D01*
X197478333Y-73134047D01*
X197571190Y-73165000D01*
X197602142Y-73195952D01*
X198221190Y-73784047D02*
X197849761Y-73784047D01*
X198035476Y-73784047D02*
X198035476Y-73134047D01*
X197973571Y-73226904D01*
X197911666Y-73288809D01*
X197849761Y-73319761D01*
X198592619Y-73412619D02*
X198530714Y-73381666D01*
X198499761Y-73350714D01*
X198468809Y-73288809D01*
X198468809Y-73257857D01*
X198499761Y-73195952D01*
X198530714Y-73165000D01*
X198592619Y-73134047D01*
X198716428Y-73134047D01*
X198778333Y-73165000D01*
X198809285Y-73195952D01*
X198840238Y-73257857D01*
X198840238Y-73288809D01*
X198809285Y-73350714D01*
X198778333Y-73381666D01*
X198716428Y-73412619D01*
X198592619Y-73412619D01*
X198530714Y-73443571D01*
X198499761Y-73474523D01*
X198468809Y-73536428D01*
X198468809Y-73660238D01*
X198499761Y-73722142D01*
X198530714Y-73753095D01*
X198592619Y-73784047D01*
X198716428Y-73784047D01*
X198778333Y-73753095D01*
X198809285Y-73722142D01*
X198840238Y-73660238D01*
X198840238Y-73536428D01*
X198809285Y-73474523D01*
X198778333Y-73443571D01*
X198716428Y-73412619D01*
%TO.C,C9*%
X199991666Y-38332142D02*
X199960714Y-38363095D01*
X199867857Y-38394047D01*
X199805952Y-38394047D01*
X199713095Y-38363095D01*
X199651190Y-38301190D01*
X199620238Y-38239285D01*
X199589285Y-38115476D01*
X199589285Y-38022619D01*
X199620238Y-37898809D01*
X199651190Y-37836904D01*
X199713095Y-37775000D01*
X199805952Y-37744047D01*
X199867857Y-37744047D01*
X199960714Y-37775000D01*
X199991666Y-37805952D01*
X200301190Y-38394047D02*
X200425000Y-38394047D01*
X200486904Y-38363095D01*
X200517857Y-38332142D01*
X200579761Y-38239285D01*
X200610714Y-38115476D01*
X200610714Y-37867857D01*
X200579761Y-37805952D01*
X200548809Y-37775000D01*
X200486904Y-37744047D01*
X200363095Y-37744047D01*
X200301190Y-37775000D01*
X200270238Y-37805952D01*
X200239285Y-37867857D01*
X200239285Y-38022619D01*
X200270238Y-38084523D01*
X200301190Y-38115476D01*
X200363095Y-38146428D01*
X200486904Y-38146428D01*
X200548809Y-38115476D01*
X200579761Y-38084523D01*
X200610714Y-38022619D01*
%TO.C,C4*%
X185316666Y-21132142D02*
X185285714Y-21163095D01*
X185192857Y-21194047D01*
X185130952Y-21194047D01*
X185038095Y-21163095D01*
X184976190Y-21101190D01*
X184945238Y-21039285D01*
X184914285Y-20915476D01*
X184914285Y-20822619D01*
X184945238Y-20698809D01*
X184976190Y-20636904D01*
X185038095Y-20575000D01*
X185130952Y-20544047D01*
X185192857Y-20544047D01*
X185285714Y-20575000D01*
X185316666Y-20605952D01*
X185873809Y-20760714D02*
X185873809Y-21194047D01*
X185719047Y-20513095D02*
X185564285Y-20977380D01*
X185966666Y-20977380D01*
%TO.C,C13*%
X198222142Y-68727857D02*
X198253095Y-68758809D01*
X198284047Y-68851666D01*
X198284047Y-68913571D01*
X198253095Y-69006428D01*
X198191190Y-69068333D01*
X198129285Y-69099285D01*
X198005476Y-69130238D01*
X197912619Y-69130238D01*
X197788809Y-69099285D01*
X197726904Y-69068333D01*
X197665000Y-69006428D01*
X197634047Y-68913571D01*
X197634047Y-68851666D01*
X197665000Y-68758809D01*
X197695952Y-68727857D01*
X198284047Y-68108809D02*
X198284047Y-68480238D01*
X198284047Y-68294523D02*
X197634047Y-68294523D01*
X197726904Y-68356428D01*
X197788809Y-68418333D01*
X197819761Y-68480238D01*
X197634047Y-67892142D02*
X197634047Y-67489761D01*
X197881666Y-67706428D01*
X197881666Y-67613571D01*
X197912619Y-67551666D01*
X197943571Y-67520714D01*
X198005476Y-67489761D01*
X198160238Y-67489761D01*
X198222142Y-67520714D01*
X198253095Y-67551666D01*
X198284047Y-67613571D01*
X198284047Y-67799285D01*
X198253095Y-67861190D01*
X198222142Y-67892142D01*
%TO.C,R2*%
X203891666Y-33644047D02*
X203675000Y-33334523D01*
X203520238Y-33644047D02*
X203520238Y-32994047D01*
X203767857Y-32994047D01*
X203829761Y-33025000D01*
X203860714Y-33055952D01*
X203891666Y-33117857D01*
X203891666Y-33210714D01*
X203860714Y-33272619D01*
X203829761Y-33303571D01*
X203767857Y-33334523D01*
X203520238Y-33334523D01*
X204139285Y-33055952D02*
X204170238Y-33025000D01*
X204232142Y-32994047D01*
X204386904Y-32994047D01*
X204448809Y-33025000D01*
X204479761Y-33055952D01*
X204510714Y-33117857D01*
X204510714Y-33179761D01*
X204479761Y-33272619D01*
X204108333Y-33644047D01*
X204510714Y-33644047D01*
%TO.C,R4*%
X204051666Y-38264047D02*
X203835000Y-37954523D01*
X203680238Y-38264047D02*
X203680238Y-37614047D01*
X203927857Y-37614047D01*
X203989761Y-37645000D01*
X204020714Y-37675952D01*
X204051666Y-37737857D01*
X204051666Y-37830714D01*
X204020714Y-37892619D01*
X203989761Y-37923571D01*
X203927857Y-37954523D01*
X203680238Y-37954523D01*
X204608809Y-37830714D02*
X204608809Y-38264047D01*
X204454047Y-37583095D02*
X204299285Y-38047380D01*
X204701666Y-38047380D01*
%TO.C,C23*%
X181762142Y-72922142D02*
X181731190Y-72953095D01*
X181638333Y-72984047D01*
X181576428Y-72984047D01*
X181483571Y-72953095D01*
X181421666Y-72891190D01*
X181390714Y-72829285D01*
X181359761Y-72705476D01*
X181359761Y-72612619D01*
X181390714Y-72488809D01*
X181421666Y-72426904D01*
X181483571Y-72365000D01*
X181576428Y-72334047D01*
X181638333Y-72334047D01*
X181731190Y-72365000D01*
X181762142Y-72395952D01*
X182009761Y-72395952D02*
X182040714Y-72365000D01*
X182102619Y-72334047D01*
X182257380Y-72334047D01*
X182319285Y-72365000D01*
X182350238Y-72395952D01*
X182381190Y-72457857D01*
X182381190Y-72519761D01*
X182350238Y-72612619D01*
X181978809Y-72984047D01*
X182381190Y-72984047D01*
X182597857Y-72334047D02*
X183000238Y-72334047D01*
X182783571Y-72581666D01*
X182876428Y-72581666D01*
X182938333Y-72612619D01*
X182969285Y-72643571D01*
X183000238Y-72705476D01*
X183000238Y-72860238D01*
X182969285Y-72922142D01*
X182938333Y-72953095D01*
X182876428Y-72984047D01*
X182690714Y-72984047D01*
X182628809Y-72953095D01*
X182597857Y-72922142D01*
%TO.C,R1*%
X179016666Y-44044047D02*
X178800000Y-43734523D01*
X178645238Y-44044047D02*
X178645238Y-43394047D01*
X178892857Y-43394047D01*
X178954761Y-43425000D01*
X178985714Y-43455952D01*
X179016666Y-43517857D01*
X179016666Y-43610714D01*
X178985714Y-43672619D01*
X178954761Y-43703571D01*
X178892857Y-43734523D01*
X178645238Y-43734523D01*
X179635714Y-44044047D02*
X179264285Y-44044047D01*
X179450000Y-44044047D02*
X179450000Y-43394047D01*
X179388095Y-43486904D01*
X179326190Y-43548809D01*
X179264285Y-43579761D01*
%TO.C,U9*%
X190029761Y-50669047D02*
X190029761Y-51195238D01*
X190060714Y-51257142D01*
X190091666Y-51288095D01*
X190153571Y-51319047D01*
X190277380Y-51319047D01*
X190339285Y-51288095D01*
X190370238Y-51257142D01*
X190401190Y-51195238D01*
X190401190Y-50669047D01*
X190741666Y-51319047D02*
X190865476Y-51319047D01*
X190927380Y-51288095D01*
X190958333Y-51257142D01*
X191020238Y-51164285D01*
X191051190Y-51040476D01*
X191051190Y-50792857D01*
X191020238Y-50730952D01*
X190989285Y-50700000D01*
X190927380Y-50669047D01*
X190803571Y-50669047D01*
X190741666Y-50700000D01*
X190710714Y-50730952D01*
X190679761Y-50792857D01*
X190679761Y-50947619D01*
X190710714Y-51009523D01*
X190741666Y-51040476D01*
X190803571Y-51071428D01*
X190927380Y-51071428D01*
X190989285Y-51040476D01*
X191020238Y-51009523D01*
X191051190Y-50947619D01*
%TO.C,R13*%
X191094047Y-73317857D02*
X190784523Y-73534523D01*
X191094047Y-73689285D02*
X190444047Y-73689285D01*
X190444047Y-73441666D01*
X190475000Y-73379761D01*
X190505952Y-73348809D01*
X190567857Y-73317857D01*
X190660714Y-73317857D01*
X190722619Y-73348809D01*
X190753571Y-73379761D01*
X190784523Y-73441666D01*
X190784523Y-73689285D01*
X191094047Y-72698809D02*
X191094047Y-73070238D01*
X191094047Y-72884523D02*
X190444047Y-72884523D01*
X190536904Y-72946428D01*
X190598809Y-73008333D01*
X190629761Y-73070238D01*
X190444047Y-72482142D02*
X190444047Y-72079761D01*
X190691666Y-72296428D01*
X190691666Y-72203571D01*
X190722619Y-72141666D01*
X190753571Y-72110714D01*
X190815476Y-72079761D01*
X190970238Y-72079761D01*
X191032142Y-72110714D01*
X191063095Y-72141666D01*
X191094047Y-72203571D01*
X191094047Y-72389285D01*
X191063095Y-72451190D01*
X191032142Y-72482142D01*
%TO.C,C3*%
X185316666Y-22732142D02*
X185285714Y-22763095D01*
X185192857Y-22794047D01*
X185130952Y-22794047D01*
X185038095Y-22763095D01*
X184976190Y-22701190D01*
X184945238Y-22639285D01*
X184914285Y-22515476D01*
X184914285Y-22422619D01*
X184945238Y-22298809D01*
X184976190Y-22236904D01*
X185038095Y-22175000D01*
X185130952Y-22144047D01*
X185192857Y-22144047D01*
X185285714Y-22175000D01*
X185316666Y-22205952D01*
X185533333Y-22144047D02*
X185935714Y-22144047D01*
X185719047Y-22391666D01*
X185811904Y-22391666D01*
X185873809Y-22422619D01*
X185904761Y-22453571D01*
X185935714Y-22515476D01*
X185935714Y-22670238D01*
X185904761Y-22732142D01*
X185873809Y-22763095D01*
X185811904Y-22794047D01*
X185626190Y-22794047D01*
X185564285Y-22763095D01*
X185533333Y-22732142D01*
%TO.C,C21*%
X183022142Y-57177857D02*
X183053095Y-57208809D01*
X183084047Y-57301666D01*
X183084047Y-57363571D01*
X183053095Y-57456428D01*
X182991190Y-57518333D01*
X182929285Y-57549285D01*
X182805476Y-57580238D01*
X182712619Y-57580238D01*
X182588809Y-57549285D01*
X182526904Y-57518333D01*
X182465000Y-57456428D01*
X182434047Y-57363571D01*
X182434047Y-57301666D01*
X182465000Y-57208809D01*
X182495952Y-57177857D01*
X182495952Y-56930238D02*
X182465000Y-56899285D01*
X182434047Y-56837380D01*
X182434047Y-56682619D01*
X182465000Y-56620714D01*
X182495952Y-56589761D01*
X182557857Y-56558809D01*
X182619761Y-56558809D01*
X182712619Y-56589761D01*
X183084047Y-56961190D01*
X183084047Y-56558809D01*
X183084047Y-55939761D02*
X183084047Y-56311190D01*
X183084047Y-56125476D02*
X182434047Y-56125476D01*
X182526904Y-56187380D01*
X182588809Y-56249285D01*
X182619761Y-56311190D01*
%TO.C,CON4*%
X200432142Y-48189285D02*
X200463095Y-48220238D01*
X200494047Y-48313095D01*
X200494047Y-48375000D01*
X200463095Y-48467857D01*
X200401190Y-48529761D01*
X200339285Y-48560714D01*
X200215476Y-48591666D01*
X200122619Y-48591666D01*
X199998809Y-48560714D01*
X199936904Y-48529761D01*
X199875000Y-48467857D01*
X199844047Y-48375000D01*
X199844047Y-48313095D01*
X199875000Y-48220238D01*
X199905952Y-48189285D01*
X199844047Y-47786904D02*
X199844047Y-47663095D01*
X199875000Y-47601190D01*
X199936904Y-47539285D01*
X200060714Y-47508333D01*
X200277380Y-47508333D01*
X200401190Y-47539285D01*
X200463095Y-47601190D01*
X200494047Y-47663095D01*
X200494047Y-47786904D01*
X200463095Y-47848809D01*
X200401190Y-47910714D01*
X200277380Y-47941666D01*
X200060714Y-47941666D01*
X199936904Y-47910714D01*
X199875000Y-47848809D01*
X199844047Y-47786904D01*
X200494047Y-47229761D02*
X199844047Y-47229761D01*
X200494047Y-46858333D01*
X199844047Y-46858333D01*
X200060714Y-46270238D02*
X200494047Y-46270238D01*
X199813095Y-46425000D02*
X200277380Y-46579761D01*
X200277380Y-46177380D01*
%TO.C,U2*%
X198444047Y-50535238D02*
X198970238Y-50535238D01*
X199032142Y-50504285D01*
X199063095Y-50473333D01*
X199094047Y-50411428D01*
X199094047Y-50287619D01*
X199063095Y-50225714D01*
X199032142Y-50194761D01*
X198970238Y-50163809D01*
X198444047Y-50163809D01*
X198505952Y-49885238D02*
X198475000Y-49854285D01*
X198444047Y-49792380D01*
X198444047Y-49637619D01*
X198475000Y-49575714D01*
X198505952Y-49544761D01*
X198567857Y-49513809D01*
X198629761Y-49513809D01*
X198722619Y-49544761D01*
X199094047Y-49916190D01*
X199094047Y-49513809D01*
%TO.C,C10*%
X194932142Y-42780357D02*
X194963095Y-42811309D01*
X194994047Y-42904166D01*
X194994047Y-42966071D01*
X194963095Y-43058928D01*
X194901190Y-43120833D01*
X194839285Y-43151785D01*
X194715476Y-43182738D01*
X194622619Y-43182738D01*
X194498809Y-43151785D01*
X194436904Y-43120833D01*
X194375000Y-43058928D01*
X194344047Y-42966071D01*
X194344047Y-42904166D01*
X194375000Y-42811309D01*
X194405952Y-42780357D01*
X194994047Y-42161309D02*
X194994047Y-42532738D01*
X194994047Y-42347023D02*
X194344047Y-42347023D01*
X194436904Y-42408928D01*
X194498809Y-42470833D01*
X194529761Y-42532738D01*
X194344047Y-41758928D02*
X194344047Y-41697023D01*
X194375000Y-41635119D01*
X194405952Y-41604166D01*
X194467857Y-41573214D01*
X194591666Y-41542261D01*
X194746428Y-41542261D01*
X194870238Y-41573214D01*
X194932142Y-41604166D01*
X194963095Y-41635119D01*
X194994047Y-41697023D01*
X194994047Y-41758928D01*
X194963095Y-41820833D01*
X194932142Y-41851785D01*
X194870238Y-41882738D01*
X194746428Y-41913690D01*
X194591666Y-41913690D01*
X194467857Y-41882738D01*
X194405952Y-41851785D01*
X194375000Y-41820833D01*
X194344047Y-41758928D01*
%TO.C,C2*%
X185316666Y-24432142D02*
X185285714Y-24463095D01*
X185192857Y-24494047D01*
X185130952Y-24494047D01*
X185038095Y-24463095D01*
X184976190Y-24401190D01*
X184945238Y-24339285D01*
X184914285Y-24215476D01*
X184914285Y-24122619D01*
X184945238Y-23998809D01*
X184976190Y-23936904D01*
X185038095Y-23875000D01*
X185130952Y-23844047D01*
X185192857Y-23844047D01*
X185285714Y-23875000D01*
X185316666Y-23905952D01*
X185564285Y-23905952D02*
X185595238Y-23875000D01*
X185657142Y-23844047D01*
X185811904Y-23844047D01*
X185873809Y-23875000D01*
X185904761Y-23905952D01*
X185935714Y-23967857D01*
X185935714Y-24029761D01*
X185904761Y-24122619D01*
X185533333Y-24494047D01*
X185935714Y-24494047D01*
%TO.C,C16*%
X203822142Y-73632142D02*
X203791190Y-73663095D01*
X203698333Y-73694047D01*
X203636428Y-73694047D01*
X203543571Y-73663095D01*
X203481666Y-73601190D01*
X203450714Y-73539285D01*
X203419761Y-73415476D01*
X203419761Y-73322619D01*
X203450714Y-73198809D01*
X203481666Y-73136904D01*
X203543571Y-73075000D01*
X203636428Y-73044047D01*
X203698333Y-73044047D01*
X203791190Y-73075000D01*
X203822142Y-73105952D01*
X204441190Y-73694047D02*
X204069761Y-73694047D01*
X204255476Y-73694047D02*
X204255476Y-73044047D01*
X204193571Y-73136904D01*
X204131666Y-73198809D01*
X204069761Y-73229761D01*
X204998333Y-73044047D02*
X204874523Y-73044047D01*
X204812619Y-73075000D01*
X204781666Y-73105952D01*
X204719761Y-73198809D01*
X204688809Y-73322619D01*
X204688809Y-73570238D01*
X204719761Y-73632142D01*
X204750714Y-73663095D01*
X204812619Y-73694047D01*
X204936428Y-73694047D01*
X204998333Y-73663095D01*
X205029285Y-73632142D01*
X205060238Y-73570238D01*
X205060238Y-73415476D01*
X205029285Y-73353571D01*
X204998333Y-73322619D01*
X204936428Y-73291666D01*
X204812619Y-73291666D01*
X204750714Y-73322619D01*
X204719761Y-73353571D01*
X204688809Y-73415476D01*
%TO.C,LED1*%
X191319047Y-68127380D02*
X191319047Y-68436904D01*
X190669047Y-68436904D01*
X190978571Y-67910714D02*
X190978571Y-67694047D01*
X191319047Y-67601190D02*
X191319047Y-67910714D01*
X190669047Y-67910714D01*
X190669047Y-67601190D01*
X191319047Y-67322619D02*
X190669047Y-67322619D01*
X190669047Y-67167857D01*
X190700000Y-67075000D01*
X190761904Y-67013095D01*
X190823809Y-66982142D01*
X190947619Y-66951190D01*
X191040476Y-66951190D01*
X191164285Y-66982142D01*
X191226190Y-67013095D01*
X191288095Y-67075000D01*
X191319047Y-67167857D01*
X191319047Y-67322619D01*
X191319047Y-66332142D02*
X191319047Y-66703571D01*
X191319047Y-66517857D02*
X190669047Y-66517857D01*
X190761904Y-66579761D01*
X190823809Y-66641666D01*
X190854761Y-66703571D01*
%TO.C,C20*%
X180172142Y-64652142D02*
X180141190Y-64683095D01*
X180048333Y-64714047D01*
X179986428Y-64714047D01*
X179893571Y-64683095D01*
X179831666Y-64621190D01*
X179800714Y-64559285D01*
X179769761Y-64435476D01*
X179769761Y-64342619D01*
X179800714Y-64218809D01*
X179831666Y-64156904D01*
X179893571Y-64095000D01*
X179986428Y-64064047D01*
X180048333Y-64064047D01*
X180141190Y-64095000D01*
X180172142Y-64125952D01*
X180419761Y-64125952D02*
X180450714Y-64095000D01*
X180512619Y-64064047D01*
X180667380Y-64064047D01*
X180729285Y-64095000D01*
X180760238Y-64125952D01*
X180791190Y-64187857D01*
X180791190Y-64249761D01*
X180760238Y-64342619D01*
X180388809Y-64714047D01*
X180791190Y-64714047D01*
X181193571Y-64064047D02*
X181255476Y-64064047D01*
X181317380Y-64095000D01*
X181348333Y-64125952D01*
X181379285Y-64187857D01*
X181410238Y-64311666D01*
X181410238Y-64466428D01*
X181379285Y-64590238D01*
X181348333Y-64652142D01*
X181317380Y-64683095D01*
X181255476Y-64714047D01*
X181193571Y-64714047D01*
X181131666Y-64683095D01*
X181100714Y-64652142D01*
X181069761Y-64590238D01*
X181038809Y-64466428D01*
X181038809Y-64311666D01*
X181069761Y-64187857D01*
X181100714Y-64125952D01*
X181131666Y-64095000D01*
X181193571Y-64064047D01*
%TO.C,R7*%
X198714047Y-53338333D02*
X198404523Y-53555000D01*
X198714047Y-53709761D02*
X198064047Y-53709761D01*
X198064047Y-53462142D01*
X198095000Y-53400238D01*
X198125952Y-53369285D01*
X198187857Y-53338333D01*
X198280714Y-53338333D01*
X198342619Y-53369285D01*
X198373571Y-53400238D01*
X198404523Y-53462142D01*
X198404523Y-53709761D01*
X198064047Y-53121666D02*
X198064047Y-52688333D01*
X198714047Y-52966904D01*
%TO.C,U5*%
X187219047Y-40427738D02*
X187745238Y-40427738D01*
X187807142Y-40396785D01*
X187838095Y-40365833D01*
X187869047Y-40303928D01*
X187869047Y-40180119D01*
X187838095Y-40118214D01*
X187807142Y-40087261D01*
X187745238Y-40056309D01*
X187219047Y-40056309D01*
X187219047Y-39437261D02*
X187219047Y-39746785D01*
X187528571Y-39777738D01*
X187497619Y-39746785D01*
X187466666Y-39684880D01*
X187466666Y-39530119D01*
X187497619Y-39468214D01*
X187528571Y-39437261D01*
X187590476Y-39406309D01*
X187745238Y-39406309D01*
X187807142Y-39437261D01*
X187838095Y-39468214D01*
X187869047Y-39530119D01*
X187869047Y-39684880D01*
X187838095Y-39746785D01*
X187807142Y-39777738D01*
%TO.C,U3*%
X190394047Y-37420238D02*
X190920238Y-37420238D01*
X190982142Y-37389285D01*
X191013095Y-37358333D01*
X191044047Y-37296428D01*
X191044047Y-37172619D01*
X191013095Y-37110714D01*
X190982142Y-37079761D01*
X190920238Y-37048809D01*
X190394047Y-37048809D01*
X190394047Y-36801190D02*
X190394047Y-36398809D01*
X190641666Y-36615476D01*
X190641666Y-36522619D01*
X190672619Y-36460714D01*
X190703571Y-36429761D01*
X190765476Y-36398809D01*
X190920238Y-36398809D01*
X190982142Y-36429761D01*
X191013095Y-36460714D01*
X191044047Y-36522619D01*
X191044047Y-36708333D01*
X191013095Y-36770238D01*
X190982142Y-36801190D01*
%TO.C,C22*%
X184332142Y-72852142D02*
X184301190Y-72883095D01*
X184208333Y-72914047D01*
X184146428Y-72914047D01*
X184053571Y-72883095D01*
X183991666Y-72821190D01*
X183960714Y-72759285D01*
X183929761Y-72635476D01*
X183929761Y-72542619D01*
X183960714Y-72418809D01*
X183991666Y-72356904D01*
X184053571Y-72295000D01*
X184146428Y-72264047D01*
X184208333Y-72264047D01*
X184301190Y-72295000D01*
X184332142Y-72325952D01*
X184579761Y-72325952D02*
X184610714Y-72295000D01*
X184672619Y-72264047D01*
X184827380Y-72264047D01*
X184889285Y-72295000D01*
X184920238Y-72325952D01*
X184951190Y-72387857D01*
X184951190Y-72449761D01*
X184920238Y-72542619D01*
X184548809Y-72914047D01*
X184951190Y-72914047D01*
X185198809Y-72325952D02*
X185229761Y-72295000D01*
X185291666Y-72264047D01*
X185446428Y-72264047D01*
X185508333Y-72295000D01*
X185539285Y-72325952D01*
X185570238Y-72387857D01*
X185570238Y-72449761D01*
X185539285Y-72542619D01*
X185167857Y-72914047D01*
X185570238Y-72914047D01*
%TO.C,D2*%
X191474047Y-41229761D02*
X190824047Y-41229761D01*
X190824047Y-41075000D01*
X190855000Y-40982142D01*
X190916904Y-40920238D01*
X190978809Y-40889285D01*
X191102619Y-40858333D01*
X191195476Y-40858333D01*
X191319285Y-40889285D01*
X191381190Y-40920238D01*
X191443095Y-40982142D01*
X191474047Y-41075000D01*
X191474047Y-41229761D01*
X190885952Y-40610714D02*
X190855000Y-40579761D01*
X190824047Y-40517857D01*
X190824047Y-40363095D01*
X190855000Y-40301190D01*
X190885952Y-40270238D01*
X190947857Y-40239285D01*
X191009761Y-40239285D01*
X191102619Y-40270238D01*
X191474047Y-40641666D01*
X191474047Y-40239285D01*
%TO.C,C17*%
X204492142Y-68667857D02*
X204523095Y-68698809D01*
X204554047Y-68791666D01*
X204554047Y-68853571D01*
X204523095Y-68946428D01*
X204461190Y-69008333D01*
X204399285Y-69039285D01*
X204275476Y-69070238D01*
X204182619Y-69070238D01*
X204058809Y-69039285D01*
X203996904Y-69008333D01*
X203935000Y-68946428D01*
X203904047Y-68853571D01*
X203904047Y-68791666D01*
X203935000Y-68698809D01*
X203965952Y-68667857D01*
X204554047Y-68048809D02*
X204554047Y-68420238D01*
X204554047Y-68234523D02*
X203904047Y-68234523D01*
X203996904Y-68296428D01*
X204058809Y-68358333D01*
X204089761Y-68420238D01*
X203904047Y-67832142D02*
X203904047Y-67398809D01*
X204554047Y-67677380D01*
%TO.C,C5*%
X205032142Y-58108333D02*
X205063095Y-58139285D01*
X205094047Y-58232142D01*
X205094047Y-58294047D01*
X205063095Y-58386904D01*
X205001190Y-58448809D01*
X204939285Y-58479761D01*
X204815476Y-58510714D01*
X204722619Y-58510714D01*
X204598809Y-58479761D01*
X204536904Y-58448809D01*
X204475000Y-58386904D01*
X204444047Y-58294047D01*
X204444047Y-58232142D01*
X204475000Y-58139285D01*
X204505952Y-58108333D01*
X204444047Y-57520238D02*
X204444047Y-57829761D01*
X204753571Y-57860714D01*
X204722619Y-57829761D01*
X204691666Y-57767857D01*
X204691666Y-57613095D01*
X204722619Y-57551190D01*
X204753571Y-57520238D01*
X204815476Y-57489285D01*
X204970238Y-57489285D01*
X205032142Y-57520238D01*
X205063095Y-57551190D01*
X205094047Y-57613095D01*
X205094047Y-57767857D01*
X205063095Y-57829761D01*
X205032142Y-57860714D01*
%TO.C,R9*%
X202162866Y-73694047D02*
X201946200Y-73384523D01*
X201791438Y-73694047D02*
X201791438Y-73044047D01*
X202039057Y-73044047D01*
X202100961Y-73075000D01*
X202131914Y-73105952D01*
X202162866Y-73167857D01*
X202162866Y-73260714D01*
X202131914Y-73322619D01*
X202100961Y-73353571D01*
X202039057Y-73384523D01*
X201791438Y-73384523D01*
X202472390Y-73694047D02*
X202596200Y-73694047D01*
X202658104Y-73663095D01*
X202689057Y-73632142D01*
X202750961Y-73539285D01*
X202781914Y-73415476D01*
X202781914Y-73167857D01*
X202750961Y-73105952D01*
X202720009Y-73075000D01*
X202658104Y-73044047D01*
X202534295Y-73044047D01*
X202472390Y-73075000D01*
X202441438Y-73105952D01*
X202410485Y-73167857D01*
X202410485Y-73322619D01*
X202441438Y-73384523D01*
X202472390Y-73415476D01*
X202534295Y-73446428D01*
X202658104Y-73446428D01*
X202720009Y-73415476D01*
X202750961Y-73384523D01*
X202781914Y-73322619D01*
%TO.C,C19*%
X194605942Y-72758542D02*
X194574990Y-72789495D01*
X194482133Y-72820447D01*
X194420228Y-72820447D01*
X194327371Y-72789495D01*
X194265466Y-72727590D01*
X194234514Y-72665685D01*
X194203561Y-72541876D01*
X194203561Y-72449019D01*
X194234514Y-72325209D01*
X194265466Y-72263304D01*
X194327371Y-72201400D01*
X194420228Y-72170447D01*
X194482133Y-72170447D01*
X194574990Y-72201400D01*
X194605942Y-72232352D01*
X195224990Y-72820447D02*
X194853561Y-72820447D01*
X195039276Y-72820447D02*
X195039276Y-72170447D01*
X194977371Y-72263304D01*
X194915466Y-72325209D01*
X194853561Y-72356161D01*
X195534514Y-72820447D02*
X195658323Y-72820447D01*
X195720228Y-72789495D01*
X195751180Y-72758542D01*
X195813085Y-72665685D01*
X195844038Y-72541876D01*
X195844038Y-72294257D01*
X195813085Y-72232352D01*
X195782133Y-72201400D01*
X195720228Y-72170447D01*
X195596419Y-72170447D01*
X195534514Y-72201400D01*
X195503561Y-72232352D01*
X195472609Y-72294257D01*
X195472609Y-72449019D01*
X195503561Y-72510923D01*
X195534514Y-72541876D01*
X195596419Y-72572828D01*
X195720228Y-72572828D01*
X195782133Y-72541876D01*
X195813085Y-72510923D01*
X195844038Y-72449019D01*
%TO.C,U8*%
X185554761Y-50819047D02*
X185554761Y-51345238D01*
X185585714Y-51407142D01*
X185616666Y-51438095D01*
X185678571Y-51469047D01*
X185802380Y-51469047D01*
X185864285Y-51438095D01*
X185895238Y-51407142D01*
X185926190Y-51345238D01*
X185926190Y-50819047D01*
X186328571Y-51097619D02*
X186266666Y-51066666D01*
X186235714Y-51035714D01*
X186204761Y-50973809D01*
X186204761Y-50942857D01*
X186235714Y-50880952D01*
X186266666Y-50850000D01*
X186328571Y-50819047D01*
X186452380Y-50819047D01*
X186514285Y-50850000D01*
X186545238Y-50880952D01*
X186576190Y-50942857D01*
X186576190Y-50973809D01*
X186545238Y-51035714D01*
X186514285Y-51066666D01*
X186452380Y-51097619D01*
X186328571Y-51097619D01*
X186266666Y-51128571D01*
X186235714Y-51159523D01*
X186204761Y-51221428D01*
X186204761Y-51345238D01*
X186235714Y-51407142D01*
X186266666Y-51438095D01*
X186328571Y-51469047D01*
X186452380Y-51469047D01*
X186514285Y-51438095D01*
X186545238Y-51407142D01*
X186576190Y-51345238D01*
X186576190Y-51221428D01*
X186545238Y-51159523D01*
X186514285Y-51128571D01*
X186452380Y-51097619D01*
%TO.C,RT1*%
X203044047Y-45494047D02*
X202827380Y-45184523D01*
X202672619Y-45494047D02*
X202672619Y-44844047D01*
X202920238Y-44844047D01*
X202982142Y-44875000D01*
X203013095Y-44905952D01*
X203044047Y-44967857D01*
X203044047Y-45060714D01*
X203013095Y-45122619D01*
X202982142Y-45153571D01*
X202920238Y-45184523D01*
X202672619Y-45184523D01*
X203229761Y-44844047D02*
X203601190Y-44844047D01*
X203415476Y-45494047D02*
X203415476Y-44844047D01*
X204158333Y-45494047D02*
X203786904Y-45494047D01*
X203972619Y-45494047D02*
X203972619Y-44844047D01*
X203910714Y-44936904D01*
X203848809Y-44998809D01*
X203786904Y-45029761D01*
%TO.C,Y1*%
X180165476Y-67104523D02*
X180165476Y-67414047D01*
X179948809Y-66764047D02*
X180165476Y-67104523D01*
X180382142Y-66764047D01*
X180939285Y-67414047D02*
X180567857Y-67414047D01*
X180753571Y-67414047D02*
X180753571Y-66764047D01*
X180691666Y-66856904D01*
X180629761Y-66918809D01*
X180567857Y-66949761D01*
%TO.C,R6*%
X192074047Y-44358333D02*
X191764523Y-44575000D01*
X192074047Y-44729761D02*
X191424047Y-44729761D01*
X191424047Y-44482142D01*
X191455000Y-44420238D01*
X191485952Y-44389285D01*
X191547857Y-44358333D01*
X191640714Y-44358333D01*
X191702619Y-44389285D01*
X191733571Y-44420238D01*
X191764523Y-44482142D01*
X191764523Y-44729761D01*
X191424047Y-43801190D02*
X191424047Y-43925000D01*
X191455000Y-43986904D01*
X191485952Y-44017857D01*
X191578809Y-44079761D01*
X191702619Y-44110714D01*
X191950238Y-44110714D01*
X192012142Y-44079761D01*
X192043095Y-44048809D01*
X192074047Y-43986904D01*
X192074047Y-43863095D01*
X192043095Y-43801190D01*
X192012142Y-43770238D01*
X191950238Y-43739285D01*
X191795476Y-43739285D01*
X191733571Y-43770238D01*
X191702619Y-43801190D01*
X191671666Y-43863095D01*
X191671666Y-43986904D01*
X191702619Y-44048809D01*
X191733571Y-44079761D01*
X191795476Y-44110714D01*
%TO.C,C14*%
X202422142Y-68727857D02*
X202453095Y-68758809D01*
X202484047Y-68851666D01*
X202484047Y-68913571D01*
X202453095Y-69006428D01*
X202391190Y-69068333D01*
X202329285Y-69099285D01*
X202205476Y-69130238D01*
X202112619Y-69130238D01*
X201988809Y-69099285D01*
X201926904Y-69068333D01*
X201865000Y-69006428D01*
X201834047Y-68913571D01*
X201834047Y-68851666D01*
X201865000Y-68758809D01*
X201895952Y-68727857D01*
X202484047Y-68108809D02*
X202484047Y-68480238D01*
X202484047Y-68294523D02*
X201834047Y-68294523D01*
X201926904Y-68356428D01*
X201988809Y-68418333D01*
X202019761Y-68480238D01*
X202050714Y-67551666D02*
X202484047Y-67551666D01*
X201803095Y-67706428D02*
X202267380Y-67861190D01*
X202267380Y-67458809D01*
%TO.C,Q1*%
X199138095Y-44015952D02*
X199076190Y-43985000D01*
X199014285Y-43923095D01*
X198921428Y-43830238D01*
X198859523Y-43799285D01*
X198797619Y-43799285D01*
X198828571Y-43954047D02*
X198766666Y-43923095D01*
X198704761Y-43861190D01*
X198673809Y-43737380D01*
X198673809Y-43520714D01*
X198704761Y-43396904D01*
X198766666Y-43335000D01*
X198828571Y-43304047D01*
X198952380Y-43304047D01*
X199014285Y-43335000D01*
X199076190Y-43396904D01*
X199107142Y-43520714D01*
X199107142Y-43737380D01*
X199076190Y-43861190D01*
X199014285Y-43923095D01*
X198952380Y-43954047D01*
X198828571Y-43954047D01*
X199726190Y-43954047D02*
X199354761Y-43954047D01*
X199540476Y-43954047D02*
X199540476Y-43304047D01*
X199478571Y-43396904D01*
X199416666Y-43458809D01*
X199354761Y-43489761D01*
D14*
%TO.C,C11*%
X193610000Y-39553733D02*
X193610000Y-39846267D01*
X192590000Y-39553733D02*
X192590000Y-39846267D01*
%TO.C,C15*%
X199015000Y-63410000D02*
X203400000Y-63410000D01*
X199015000Y-60390000D02*
X199015000Y-63410000D01*
X203400000Y-60390000D02*
X199015000Y-60390000D01*
%TO.C,C12*%
X203053733Y-54190000D02*
X203346267Y-54190000D01*
X203053733Y-55210000D02*
X203346267Y-55210000D01*
%TO.C,C8*%
X196910000Y-39516233D02*
X196910000Y-39808767D01*
X195890000Y-39516233D02*
X195890000Y-39808767D01*
%TO.C,R10*%
X199577500Y-71354724D02*
X199577500Y-70845276D01*
X200622500Y-71354724D02*
X200622500Y-70845276D01*
%TO.C,D3*%
X199450000Y-20460000D02*
X199450000Y-22460000D01*
X199450000Y-22460000D02*
X203350000Y-22460000D01*
X199450000Y-20460000D02*
X203350000Y-20460000D01*
D15*
%TO.C,U1*%
X192694499Y-65125600D02*
X192694499Y-65379600D01*
X187813500Y-51917600D02*
X188194500Y-51917600D01*
X188194500Y-51663600D02*
X187813500Y-51663600D01*
X185623200Y-63652400D02*
X186531560Y-63652400D01*
X184150000Y-58081100D02*
X184150000Y-58462101D01*
X187313499Y-65125600D02*
X187694499Y-65125600D01*
X193194501Y-51917600D02*
X193194501Y-51663600D01*
X187813500Y-51663600D02*
X187813500Y-51917600D01*
X183896000Y-58462101D02*
X183896000Y-58081100D01*
X193194501Y-51663600D02*
X192813501Y-51663600D01*
X183896000Y-58081100D02*
X184150000Y-58081100D01*
X192313499Y-65125600D02*
X192694499Y-65125600D01*
X195884800Y-53390800D02*
X194976440Y-53390800D01*
X195884800Y-54299160D02*
X195884800Y-53390800D01*
X197612000Y-57581099D02*
X197358000Y-57581099D01*
X197358000Y-57962099D02*
X197612000Y-57962099D01*
X192313499Y-65379600D02*
X192313499Y-65125600D01*
X197358000Y-57581099D02*
X197358000Y-57962099D01*
X185623200Y-62744040D02*
X185623200Y-63652400D01*
X188194500Y-51917600D02*
X188194500Y-51663600D01*
X185623200Y-53390800D02*
X185623200Y-54299160D01*
X197612000Y-57962099D02*
X197612000Y-57581099D01*
X187313499Y-65379600D02*
X187313499Y-65125600D01*
X187694499Y-65125600D02*
X187694499Y-65379600D01*
X194976440Y-63652400D02*
X195884800Y-63652400D01*
X195884800Y-63652400D02*
X195884800Y-62744040D01*
X192813501Y-51917600D02*
X193194501Y-51917600D01*
X192813501Y-51663600D02*
X192813501Y-51917600D01*
X186531560Y-53390800D02*
X185623200Y-53390800D01*
X184150000Y-58462101D02*
X183896000Y-58462101D01*
X187694499Y-65379600D02*
X187313499Y-65379600D01*
X192694499Y-65379600D02*
X192313499Y-65379600D01*
D14*
%TO.C,U6*%
X198300000Y-29590000D02*
X199800000Y-29590000D01*
X196800000Y-32810000D02*
X199800000Y-32810000D01*
%TO.C,C1*%
X183008767Y-25465000D02*
X182716233Y-25465000D01*
X183008767Y-26485000D02*
X182716233Y-26485000D01*
%TO.C,U7*%
X194400000Y-34440000D02*
X193600000Y-34440000D01*
X194400000Y-37560000D02*
X193600000Y-37560000D01*
X194400000Y-34440000D02*
X195200000Y-34440000D01*
X194400000Y-37560000D02*
X196200000Y-37560000D01*
%TO.C,R11*%
X181154724Y-51367500D02*
X180645276Y-51367500D01*
X181154724Y-52412500D02*
X180645276Y-52412500D01*
%TO.C,C7*%
X201733733Y-27680000D02*
X202026267Y-27680000D01*
X201733733Y-26660000D02*
X202026267Y-26660000D01*
%TO.C,R14*%
X188802900Y-72429324D02*
X188802900Y-71919876D01*
X189847900Y-72429324D02*
X189847900Y-71919876D01*
%TO.C,R3*%
X202822500Y-31354724D02*
X202822500Y-30845276D01*
X201777500Y-31354724D02*
X201777500Y-30845276D01*
%TO.C,R5*%
X189804724Y-45497500D02*
X189295276Y-45497500D01*
X189804724Y-46542500D02*
X189295276Y-46542500D01*
%TO.C,CON1*%
X188490000Y-22135000D02*
X188490000Y-25365000D01*
X195590000Y-27285000D02*
X194510000Y-27285000D01*
X196310000Y-22135000D02*
X196310000Y-25365000D01*
X190290000Y-27285000D02*
X189210000Y-27285000D01*
X194510000Y-27285000D02*
X194510000Y-27715000D01*
X188490000Y-17965000D02*
X188490000Y-19915000D01*
X196310000Y-17965000D02*
X196310000Y-19915000D01*
X188490000Y-17965000D02*
X196310000Y-17965000D01*
%TO.C,L1*%
X194910000Y-31599622D02*
X194910000Y-30800378D01*
X193790000Y-31599622D02*
X193790000Y-30800378D01*
%TO.C,LED2*%
X190060400Y-69300000D02*
X190060400Y-66840000D01*
X188590400Y-66840000D02*
X188590400Y-69300000D01*
X190060400Y-66840000D02*
X188590400Y-66840000D01*
%TO.C,R8*%
X200622500Y-65954724D02*
X200622500Y-65445276D01*
X199577500Y-65954724D02*
X199577500Y-65445276D01*
%TO.C,C6*%
X181435000Y-41596267D02*
X181435000Y-41303733D01*
X180415000Y-41596267D02*
X180415000Y-41303733D01*
%TO.C,Y2*%
X178857500Y-57920000D02*
X178857500Y-61920000D01*
X182157500Y-57920000D02*
X178857500Y-57920000D01*
%TO.C,D1*%
X199450000Y-25070000D02*
X203350000Y-25070000D01*
X199450000Y-23070000D02*
X203350000Y-23070000D01*
X199450000Y-23070000D02*
X199450000Y-25070000D01*
%TO.C,R12*%
X180625276Y-53504700D02*
X181134724Y-53504700D01*
X180625276Y-54549700D02*
X181134724Y-54549700D01*
%TO.C,C18*%
X197590000Y-70953733D02*
X197590000Y-71246267D01*
X198610000Y-70953733D02*
X198610000Y-71246267D01*
%TO.C,C9*%
X201850000Y-34390000D02*
X197465000Y-34390000D01*
X197465000Y-34390000D02*
X197465000Y-37410000D01*
X197465000Y-37410000D02*
X201850000Y-37410000D01*
%TO.C,C4*%
X183008767Y-20365000D02*
X182716233Y-20365000D01*
X183008767Y-21385000D02*
X182716233Y-21385000D01*
%TO.C,C13*%
X198510000Y-65553733D02*
X198510000Y-65846267D01*
X197490000Y-65553733D02*
X197490000Y-65846267D01*
%TO.C,R2*%
X204522500Y-30845276D02*
X204522500Y-31354724D01*
X203477500Y-30845276D02*
X203477500Y-31354724D01*
%TO.C,R4*%
X203577500Y-35545276D02*
X203577500Y-36054724D01*
X204622500Y-35545276D02*
X204622500Y-36054724D01*
%TO.C,C23*%
X182740000Y-70203733D02*
X182740000Y-70496267D01*
X181720000Y-70203733D02*
X181720000Y-70496267D01*
%TO.C,R1*%
X178527500Y-41679724D02*
X178527500Y-41170276D01*
X179572500Y-41679724D02*
X179572500Y-41170276D01*
%TO.C,U9*%
X189930000Y-50310000D02*
X190730000Y-50310000D01*
X189930000Y-47190000D02*
X190730000Y-47190000D01*
X189930000Y-50310000D02*
X189130000Y-50310000D01*
X189930000Y-47190000D02*
X188130000Y-47190000D01*
%TO.C,R13*%
X187922500Y-72379724D02*
X187922500Y-71870276D01*
X186877500Y-72379724D02*
X186877500Y-71870276D01*
%TO.C,C3*%
X183008767Y-21965000D02*
X182716233Y-21965000D01*
X183008767Y-22985000D02*
X182716233Y-22985000D01*
%TO.C,C21*%
X180331233Y-57310000D02*
X180623767Y-57310000D01*
X180331233Y-56290000D02*
X180623767Y-56290000D01*
%TO.C,CON4*%
X204350000Y-53065000D02*
X204350000Y-46595000D01*
X201370000Y-51735000D02*
X201180000Y-51735000D01*
X201822470Y-46595000D02*
X201180000Y-46595000D01*
X203092470Y-46595000D02*
X202437530Y-46595000D01*
X202130000Y-53130000D02*
X201180000Y-53130000D01*
X203092470Y-53065000D02*
X202890000Y-53065000D01*
X204350000Y-46595000D02*
X203707530Y-46595000D01*
X204350000Y-53065000D02*
X203707530Y-53065000D01*
X201180000Y-53130000D02*
X201180000Y-52370000D01*
X201180000Y-51735000D02*
X201180000Y-46595000D01*
%TO.C,U2*%
X198060000Y-47200000D02*
X198060000Y-49150000D01*
X198060000Y-47200000D02*
X198060000Y-45250000D01*
X192940000Y-47200000D02*
X192940000Y-45250000D01*
X192940000Y-47200000D02*
X192940000Y-50650000D01*
%TO.C,C10*%
X195261000Y-39528333D02*
X195261000Y-39820867D01*
X194241000Y-39528333D02*
X194241000Y-39820867D01*
%TO.C,C2*%
X183008767Y-23665000D02*
X182716233Y-23665000D01*
X183008767Y-24685000D02*
X182716233Y-24685000D01*
%TO.C,C16*%
X203690000Y-70953733D02*
X203690000Y-71246267D01*
X204710000Y-70953733D02*
X204710000Y-71246267D01*
%TO.C,LED1*%
X186665000Y-66765000D02*
X186665000Y-69225000D01*
X188135000Y-66765000D02*
X186665000Y-66765000D01*
X188135000Y-69225000D02*
X188135000Y-66765000D01*
%TO.C,C20*%
X180653767Y-62510000D02*
X180361233Y-62510000D01*
X180653767Y-63530000D02*
X180361233Y-63530000D01*
%TO.C,R7*%
X199854724Y-54177500D02*
X199345276Y-54177500D01*
X199854724Y-55222500D02*
X199345276Y-55222500D01*
%TO.C,U5*%
X184825000Y-39262500D02*
X185625000Y-39262500D01*
X184825000Y-42382500D02*
X184025000Y-42382500D01*
X184825000Y-42382500D02*
X186625000Y-42382500D01*
X184825000Y-39262500D02*
X184025000Y-39262500D01*
D16*
%TO.C,U3*%
X179275000Y-30425000D02*
X179925000Y-30425000D01*
X179850000Y-36175000D02*
X179850000Y-37775000D01*
X179275000Y-36175000D02*
X179850000Y-36175000D01*
X189925000Y-30425000D02*
X189275000Y-30425000D01*
X179275000Y-36175000D02*
X179275000Y-30425000D01*
X189925000Y-36175000D02*
X189275000Y-36175000D01*
X189925000Y-36175000D02*
X189925000Y-30425000D01*
D14*
%TO.C,C22*%
X185260000Y-70153733D02*
X185260000Y-70446267D01*
X184240000Y-70153733D02*
X184240000Y-70446267D01*
%TO.C,D2*%
X188425000Y-38490000D02*
X188425000Y-42390000D01*
X190425000Y-38490000D02*
X190425000Y-42390000D01*
X190425000Y-38490000D02*
X188425000Y-38490000D01*
%TO.C,C17*%
X203590000Y-65746267D02*
X203590000Y-65453733D01*
X204610000Y-65746267D02*
X204610000Y-65453733D01*
%TO.C,C5*%
X198965000Y-59410000D02*
X203350000Y-59410000D01*
X203350000Y-56390000D02*
X198965000Y-56390000D01*
X198965000Y-56390000D02*
X198965000Y-59410000D01*
%TO.C,R9*%
X202722500Y-71354724D02*
X202722500Y-70845276D01*
X201677500Y-71354724D02*
X201677500Y-70845276D01*
%TO.C,C19*%
X196610000Y-66665000D02*
X193590000Y-66665000D01*
X193590000Y-66665000D02*
X193590000Y-71050000D01*
X196610000Y-71050000D02*
X196610000Y-66665000D01*
%TO.C,U8*%
X182970000Y-45270000D02*
X179520000Y-45270000D01*
X182970000Y-50390000D02*
X184920000Y-50390000D01*
X182970000Y-50390000D02*
X181020000Y-50390000D01*
X182970000Y-45270000D02*
X184920000Y-45270000D01*
%TO.C,RT1*%
X201490000Y-42986252D02*
X201490000Y-40213748D01*
X204910000Y-42986252D02*
X204910000Y-40213748D01*
%TO.C,Y1*%
X182960000Y-68070000D02*
X184060000Y-68070000D01*
X181560000Y-66220000D02*
X181560000Y-68020000D01*
X182960000Y-66170000D02*
X184060000Y-66170000D01*
%TO.C,R6*%
X189794724Y-44772500D02*
X189285276Y-44772500D01*
X189794724Y-43727500D02*
X189285276Y-43727500D01*
%TO.C,C14*%
X202610000Y-65453733D02*
X202610000Y-65746267D01*
X201590000Y-65453733D02*
X201590000Y-65746267D01*
%TO.C,Q1*%
X197640000Y-41200000D02*
X197640000Y-40550000D01*
X200760000Y-41200000D02*
X200760000Y-39525000D01*
X200760000Y-41200000D02*
X200760000Y-41850000D01*
X197640000Y-41200000D02*
X197640000Y-41850000D01*
%TD*%
M02*
